%TF.GenerationSoftware,KiCad,Pcbnew,9.0.6*%
%TF.CreationDate,2025-12-30T21:33:41-05:00*%
%TF.ProjectId,VARIDORHDC,56415249-444f-4524-9844-432e6b696361,rev?*%
%TF.SameCoordinates,Original*%
%TF.FileFunction,Copper,L1,Top*%
%TF.FilePolarity,Positive*%
%FSLAX46Y46*%
G04 Gerber Fmt 4.6, Leading zero omitted, Abs format (unit mm)*
G04 Created by KiCad (PCBNEW 9.0.6) date 2025-12-30 21:33:41*
%MOMM*%
%LPD*%
G01*
G04 APERTURE LIST*
G04 Aperture macros list*
%AMRoundRect*
0 Rectangle with rounded corners*
0 $1 Rounding radius*
0 $2 $3 $4 $5 $6 $7 $8 $9 X,Y pos of 4 corners*
0 Add a 4 corners polygon primitive as box body*
4,1,4,$2,$3,$4,$5,$6,$7,$8,$9,$2,$3,0*
0 Add four circle primitives for the rounded corners*
1,1,$1+$1,$2,$3*
1,1,$1+$1,$4,$5*
1,1,$1+$1,$6,$7*
1,1,$1+$1,$8,$9*
0 Add four rect primitives between the rounded corners*
20,1,$1+$1,$2,$3,$4,$5,0*
20,1,$1+$1,$4,$5,$6,$7,0*
20,1,$1+$1,$6,$7,$8,$9,0*
20,1,$1+$1,$8,$9,$2,$3,0*%
G04 Aperture macros list end*
%TA.AperFunction,ComponentPad*%
%ADD10RoundRect,0.250000X0.550000X-0.550000X0.550000X0.550000X-0.550000X0.550000X-0.550000X-0.550000X0*%
%TD*%
%TA.AperFunction,ComponentPad*%
%ADD11C,1.600000*%
%TD*%
%TA.AperFunction,ComponentPad*%
%ADD12RoundRect,0.250000X0.750000X-0.750000X0.750000X0.750000X-0.750000X0.750000X-0.750000X-0.750000X0*%
%TD*%
%TA.AperFunction,ComponentPad*%
%ADD13C,2.000000*%
%TD*%
%TA.AperFunction,ComponentPad*%
%ADD14RoundRect,0.250000X0.750000X0.750000X-0.750000X0.750000X-0.750000X-0.750000X0.750000X-0.750000X0*%
%TD*%
%TA.AperFunction,ComponentPad*%
%ADD15RoundRect,0.250000X-0.750000X0.750000X-0.750000X-0.750000X0.750000X-0.750000X0.750000X0.750000X0*%
%TD*%
%TA.AperFunction,ComponentPad*%
%ADD16RoundRect,0.250000X-1.350000X-1.350000X1.350000X-1.350000X1.350000X1.350000X-1.350000X1.350000X0*%
%TD*%
%TA.AperFunction,ComponentPad*%
%ADD17C,3.200000*%
%TD*%
%TA.AperFunction,ComponentPad*%
%ADD18R,1.905000X2.000000*%
%TD*%
%TA.AperFunction,ComponentPad*%
%ADD19O,1.905000X2.000000*%
%TD*%
%TA.AperFunction,ComponentPad*%
%ADD20RoundRect,0.250000X-0.350000X-0.350000X0.350000X-0.350000X0.350000X0.350000X-0.350000X0.350000X0*%
%TD*%
%TA.AperFunction,ComponentPad*%
%ADD21C,1.200000*%
%TD*%
%TA.AperFunction,ComponentPad*%
%ADD22RoundRect,0.250000X-0.550000X-0.550000X0.550000X-0.550000X0.550000X0.550000X-0.550000X0.550000X0*%
%TD*%
%TA.AperFunction,ComponentPad*%
%ADD23R,1.800000X1.800000*%
%TD*%
%TA.AperFunction,ComponentPad*%
%ADD24C,1.800000*%
%TD*%
%TA.AperFunction,SMDPad,CuDef*%
%ADD25RoundRect,0.375000X0.375000X-0.625000X0.375000X0.625000X-0.375000X0.625000X-0.375000X-0.625000X0*%
%TD*%
%TA.AperFunction,SMDPad,CuDef*%
%ADD26RoundRect,0.500000X1.400000X-0.500000X1.400000X0.500000X-1.400000X0.500000X-1.400000X-0.500000X0*%
%TD*%
%TA.AperFunction,ComponentPad*%
%ADD27RoundRect,0.250000X1.350000X-1.350000X1.350000X1.350000X-1.350000X1.350000X-1.350000X-1.350000X0*%
%TD*%
%TA.AperFunction,ComponentPad*%
%ADD28C,2.340000*%
%TD*%
%TA.AperFunction,ComponentPad*%
%ADD29R,1.500000X1.050000*%
%TD*%
%TA.AperFunction,ComponentPad*%
%ADD30O,1.500000X1.050000*%
%TD*%
%TA.AperFunction,ViaPad*%
%ADD31C,0.440000*%
%TD*%
%TA.AperFunction,Conductor*%
%ADD32C,0.807000*%
%TD*%
%TA.AperFunction,Conductor*%
%ADD33C,2.000000*%
%TD*%
G04 APERTURE END LIST*
D10*
%TO.P,SW2,1*%
%TO.N,Net-(D5-K)*%
X164742500Y-42767500D03*
D11*
%TO.P,SW2,2*%
X167282500Y-42767500D03*
%TO.P,SW2,3*%
%TO.N,Net-(BT2-+)*%
X167282500Y-35147500D03*
%TO.P,SW2,4*%
%TO.N,12v*%
X164742500Y-35147500D03*
%TD*%
D12*
%TO.P,BT2,1,+*%
%TO.N,Net-(BT2-+)*%
X167000000Y-64540000D03*
D13*
%TO.P,BT2,2,-*%
%TO.N,GND*%
X167000000Y-62000000D03*
%TD*%
D14*
%TO.P,M1,1,+*%
%TO.N,Net-(D6-A)*%
X154500000Y-34500000D03*
D13*
%TO.P,M1,2,-*%
%TO.N,Net-(D5-A)*%
X151960000Y-34500000D03*
%TD*%
D15*
%TO.P,BT1,1,+*%
%TO.N,12v*%
X22000000Y-39500000D03*
D13*
%TO.P,BT1,2,-*%
%TO.N,GND*%
X22000000Y-42040000D03*
%TD*%
D11*
%TO.P,C4,1*%
%TO.N,Net-(U1-CV)*%
X81000000Y-52500000D03*
%TO.P,C4,2*%
%TO.N,GND*%
X83500000Y-52500000D03*
%TD*%
%TO.P,540ohm,1*%
%TO.N,Net-(D1-A)*%
X99080000Y-48450000D03*
%TO.P,540ohm,2*%
%TO.N,Net-(R12-Pad2)*%
X88920000Y-48450000D03*
%TD*%
D16*
%TO.P,D1,1,K*%
%TO.N,Net-(D1-K)*%
X59380000Y-45750000D03*
D17*
%TO.P,D1,2,A*%
%TO.N,Net-(D1-A)*%
X74620000Y-45750000D03*
%TD*%
D18*
%TO.P,IRFZ44N,1,G*%
%TO.N,DER*%
X133960000Y-48730000D03*
D19*
%TO.P,IRFZ44N,2,D*%
%TO.N,Net-(Q4-S)*%
X136500000Y-48730000D03*
%TO.P,IRFZ44N,3,S*%
%TO.N,Net-(D7-A)*%
X139040000Y-48730000D03*
%TD*%
D20*
%TO.P,C1,1*%
%TO.N,Net-(U2-VI)*%
X30222599Y-33000000D03*
D21*
%TO.P,C1,2*%
%TO.N,GND*%
X32222599Y-33000000D03*
%TD*%
D22*
%TO.P,pc817,1*%
%TO.N,Net-(R12-Pad2)*%
X101880000Y-40000000D03*
D11*
%TO.P,pc817,2*%
%TO.N,Net-(Q3-C)*%
X101880000Y-42540000D03*
%TO.P,pc817,3*%
%TO.N,DER*%
X109500000Y-42540000D03*
%TO.P,pc817,4*%
%TO.N,Net-(R14-Pad1)*%
X109500000Y-40000000D03*
%TD*%
D22*
%TO.P,NE5555,1,GND*%
%TO.N,GND*%
X75380000Y-31500000D03*
D11*
%TO.P,NE5555,2,TR*%
%TO.N,Net-(U1-THR)*%
X75380000Y-34040000D03*
%TO.P,NE5555,3,Q*%
%TO.N,Net-(D1-A)*%
X75380000Y-36580000D03*
%TO.P,NE5555,4,R*%
%TO.N,12v*%
X75380000Y-39120000D03*
%TO.P,NE5555,5,CV*%
%TO.N,Net-(U1-CV)*%
X83000000Y-39120000D03*
%TO.P,NE5555,6,THR*%
%TO.N,Net-(U1-THR)*%
X83000000Y-36580000D03*
%TO.P,NE5555,7,DIS*%
%TO.N,Net-(D1-A)*%
X83000000Y-34040000D03*
%TO.P,NE5555,8,VCC*%
%TO.N,12v*%
X83000000Y-31500000D03*
%TD*%
D23*
%TO.P,LED,1,K*%
%TO.N,Net-(D3-K)*%
X40230000Y-69000000D03*
D24*
%TO.P,LED,2,A*%
%TO.N,Net-(D3-A)*%
X42770000Y-69000000D03*
%TD*%
D11*
%TO.P,1k,1*%
%TO.N,5v*%
X24500000Y-77080000D03*
%TO.P,1k,2*%
%TO.N,GND*%
X24500000Y-66920000D03*
%TD*%
D25*
%TO.P,AMS1117 5V,1,GND*%
%TO.N,GND*%
X32700000Y-45650000D03*
%TO.P,AMS1117 5V,2,VO*%
%TO.N,5v*%
X35000000Y-45650000D03*
D26*
X35000000Y-39350000D03*
D25*
%TO.P,AMS1117 5V,3,VI*%
%TO.N,Net-(U2-VI)*%
X37300000Y-45650000D03*
%TD*%
D11*
%TO.P,R15,1*%
%TO.N,GND*%
X121500000Y-78500000D03*
%TO.P,R15,2*%
%TO.N,DER*%
X131660000Y-78500000D03*
%TD*%
%TO.P,1k,1*%
%TO.N,Net-(R5-Pad1)*%
X103500000Y-75080000D03*
%TO.P,1k,2*%
%TO.N,C1*%
X103500000Y-64920000D03*
%TD*%
D16*
%TO.P,D2,1,K*%
%TO.N,Net-(D1-A)*%
X59380000Y-52500000D03*
D17*
%TO.P,D2,2,A*%
%TO.N,Net-(D2-A)*%
X74620000Y-52500000D03*
%TD*%
D27*
%TO.P,D8,1,K*%
%TO.N,Net-(D5-A)*%
X150500000Y-79620000D03*
D17*
%TO.P,D8,2,A*%
%TO.N,Net-(D7-A)*%
X150500000Y-64380000D03*
%TD*%
D22*
%TO.P,pc817,1*%
%TO.N,Net-(R11-Pad2)*%
X101565000Y-31235000D03*
D11*
%TO.P,pc817,2*%
%TO.N,Net-(Q1-C)*%
X101565000Y-33775000D03*
%TO.P,pc817,3*%
%TO.N,DER*%
X109185000Y-33775000D03*
%TO.P,pc817,4*%
%TO.N,Net-(R13-Pad1)*%
X109185000Y-31235000D03*
%TD*%
D27*
%TO.P,D5,1,K*%
%TO.N,Net-(D5-K)*%
X158000000Y-79120000D03*
D17*
%TO.P,D5,2,A*%
%TO.N,Net-(D5-A)*%
X158000000Y-63880000D03*
%TD*%
D27*
%TO.P,D7,1,K*%
%TO.N,Net-(D6-A)*%
X158000000Y-59120000D03*
D17*
%TO.P,D7,2,A*%
%TO.N,Net-(D7-A)*%
X158000000Y-43880000D03*
%TD*%
D11*
%TO.P,1k,1*%
%TO.N,5v*%
X32600000Y-77080000D03*
%TO.P,1k,2*%
%TO.N,GND*%
X32600000Y-66920000D03*
%TD*%
%TO.P,2\u002C5k,1*%
%TO.N,Net-(R13-Pad1)*%
X113580000Y-52500000D03*
%TO.P,2\u002C5k,2*%
%TO.N,12v*%
X103420000Y-52500000D03*
%TD*%
%TO.P,1k,1*%
%TO.N,Net-(R6-Pad1)*%
X107550000Y-75080000D03*
%TO.P,1k,2*%
%TO.N,C2*%
X107550000Y-64920000D03*
%TD*%
D10*
%TO.P,U4,1*%
%TO.N,Net-(D3-A)*%
X82880000Y-73305000D03*
D11*
%TO.P,U4,2*%
%TO.N,5v*%
X85420000Y-73305000D03*
%TO.P,U4,3*%
%TO.N,Net-(U4-Pad3)*%
X87960000Y-73305000D03*
%TO.P,U4,4*%
X90500000Y-73305000D03*
%TO.P,U4,5*%
%TO.N,Net-(U4-Pad12)*%
X93040000Y-73305000D03*
%TO.P,U4,6*%
%TO.N,Net-(R5-Pad1)*%
X95580000Y-73305000D03*
%TO.P,U4,7,GND*%
%TO.N,GND*%
X98120000Y-73305000D03*
%TO.P,U4,8*%
%TO.N,Net-(U4-Pad13)*%
X98120000Y-65685000D03*
%TO.P,U4,9*%
%TO.N,Net-(D4-A)*%
X95580000Y-65685000D03*
%TO.P,U4,10*%
%TO.N,5v*%
X93040000Y-65685000D03*
%TO.P,U4,11*%
%TO.N,Net-(R6-Pad1)*%
X90500000Y-65685000D03*
%TO.P,U4,12*%
%TO.N,Net-(U4-Pad12)*%
X87960000Y-65685000D03*
%TO.P,U4,13*%
%TO.N,Net-(U4-Pad13)*%
X85420000Y-65685000D03*
%TO.P,U4,14,VCC*%
%TO.N,5v*%
X82880000Y-65685000D03*
%TD*%
%TO.P,R10,1*%
%TO.N,GND*%
X134840000Y-78500000D03*
%TO.P,R10,2*%
%TO.N,DER*%
X145000000Y-78500000D03*
%TD*%
D28*
%TO.P,RV1,1,1*%
%TO.N,Net-(D1-K)*%
X65000000Y-37000000D03*
%TO.P,RV1,2,2*%
%TO.N,Net-(U1-THR)*%
X60000000Y-37000000D03*
%TO.P,RV1,3,3*%
%TO.N,Net-(D2-A)*%
X55000000Y-37000000D03*
%TD*%
D20*
%TO.P,C3,1*%
%TO.N,5v*%
X37500000Y-33000000D03*
D21*
%TO.P,C3,2*%
%TO.N,GND*%
X39000000Y-33000000D03*
%TD*%
D10*
%TO.P,U5,1*%
%TO.N,Net-(U4-Pad3)*%
X59880000Y-73185000D03*
D11*
%TO.P,U5,2*%
%TO.N,Net-(U4-Pad13)*%
X62420000Y-73185000D03*
%TO.P,U5,3*%
%TO.N,Net-(U4-Pad12)*%
X64960000Y-73185000D03*
%TO.P,U5,4*%
%TO.N,N/C*%
X67500000Y-73185000D03*
%TO.P,U5,5*%
X70040000Y-73185000D03*
%TO.P,U5,6*%
X72580000Y-73185000D03*
%TO.P,U5,7,GND*%
%TO.N,GND*%
X75120000Y-73185000D03*
%TO.P,U5,8*%
%TO.N,N/C*%
X75120000Y-65565000D03*
%TO.P,U5,9*%
X72580000Y-65565000D03*
%TO.P,U5,10*%
X70040000Y-65565000D03*
%TO.P,U5,11*%
X67500000Y-65565000D03*
%TO.P,U5,12*%
X64960000Y-65565000D03*
%TO.P,U5,13*%
X62420000Y-65565000D03*
%TO.P,U5,14,VCC*%
%TO.N,5v*%
X59880000Y-65565000D03*
%TD*%
D23*
%TO.P,LED,1,K*%
%TO.N,Net-(D4-K)*%
X49460000Y-69000000D03*
D24*
%TO.P,LED,2,A*%
%TO.N,Net-(D4-A)*%
X52000000Y-69000000D03*
%TD*%
D18*
%TO.P,IRFZ44N,1,G*%
%TO.N,DER*%
X121460000Y-72730000D03*
D19*
%TO.P,IRFZ44N,2,D*%
%TO.N,Net-(Q2-S)*%
X124000000Y-72730000D03*
%TO.P,IRFZ44N,3,S*%
%TO.N,Net-(D7-A)*%
X126540000Y-72730000D03*
%TD*%
D11*
%TO.P,1k,1*%
%TO.N,12v*%
X53120000Y-54080000D03*
%TO.P,1k,2*%
%TO.N,Net-(D1-A)*%
X53120000Y-43920000D03*
%TD*%
%TO.P,540ohm,1*%
%TO.N,Net-(D1-A)*%
X99080000Y-52500000D03*
%TO.P,540ohm,2*%
%TO.N,Net-(R11-Pad2)*%
X88920000Y-52500000D03*
%TD*%
D18*
%TO.P,IRFZ44N,1,G*%
%TO.N,DER*%
X120960000Y-48730000D03*
D19*
%TO.P,IRFZ44N,2,D*%
%TO.N,Net-(D5-K)*%
X123500000Y-48730000D03*
%TO.P,IRFZ44N,3,S*%
%TO.N,Net-(Q4-S)*%
X126040000Y-48730000D03*
%TD*%
D27*
%TO.P,D6,1,K*%
%TO.N,Net-(D5-K)*%
X150500000Y-59240000D03*
D17*
%TO.P,D6,2,A*%
%TO.N,Net-(D6-A)*%
X150500000Y-44000000D03*
%TD*%
D11*
%TO.P,1k,1*%
%TO.N,Net-(D4-A)*%
X28550000Y-77080000D03*
%TO.P,1k,2*%
%TO.N,GND*%
X28550000Y-66920000D03*
%TD*%
%TO.P,C2,1*%
%TO.N,Net-(U1-THR)*%
X81000000Y-47000000D03*
%TO.P,C2,2*%
%TO.N,GND*%
X83500000Y-47000000D03*
%TD*%
D10*
%TO.P,D-I,1*%
%TO.N,5v*%
X20460000Y-59120000D03*
D11*
%TO.P,D-I,2*%
X23000000Y-59120000D03*
%TO.P,D-I,3*%
%TO.N,Net-(D4-A)*%
X23000000Y-51500000D03*
%TO.P,D-I,4*%
%TO.N,Net-(D3-A)*%
X20460000Y-51500000D03*
%TD*%
%TO.P,1k,1*%
%TO.N,Net-(D4-K)*%
X33000000Y-60580000D03*
%TO.P,1k,2*%
%TO.N,GND*%
X33000000Y-50420000D03*
%TD*%
%TO.P,2\u002C5k,1*%
%TO.N,Net-(R14-Pad1)*%
X113580000Y-48500000D03*
%TO.P,2\u002C5k,2*%
%TO.N,12v*%
X103420000Y-48500000D03*
%TD*%
%TO.P,1k,1*%
%TO.N,Net-(D3-A)*%
X20450000Y-77080000D03*
%TO.P,1k,2*%
%TO.N,GND*%
X20450000Y-66920000D03*
%TD*%
D29*
%TO.P,2n3904,1,E*%
%TO.N,GND*%
X92500000Y-43040000D03*
D30*
%TO.P,2n3904,2,B*%
%TO.N,C1*%
X92500000Y-41770000D03*
%TO.P,2n3904,3,C*%
%TO.N,Net-(Q1-C)*%
X92500000Y-40500000D03*
%TD*%
D29*
%TO.P,2n3904,1,E*%
%TO.N,GND*%
X92290000Y-34040000D03*
D30*
%TO.P,2n3904,2,B*%
%TO.N,C2*%
X92290000Y-32770000D03*
%TO.P,2n3904,3,C*%
%TO.N,Net-(Q3-C)*%
X92290000Y-31500000D03*
%TD*%
D18*
%TO.P,IRFZ44N,1,G*%
%TO.N,DER*%
X134960000Y-72730000D03*
D19*
%TO.P,IRFZ44N,2,D*%
%TO.N,Net-(D5-K)*%
X137500000Y-72730000D03*
%TO.P,IRFZ44N,3,S*%
%TO.N,Net-(Q2-S)*%
X140040000Y-72730000D03*
%TD*%
D11*
%TO.P,1k,1*%
%TO.N,Net-(D3-K)*%
X28950000Y-60580000D03*
%TO.P,1k,2*%
%TO.N,GND*%
X28950000Y-50420000D03*
%TD*%
D31*
%TO.N,DER*%
X118000000Y-56500000D03*
X132000000Y-70000000D03*
X122500000Y-72000000D03*
%TO.N,Net-(D6-A)*%
X155502000Y-51000000D03*
%TO.N,GND*%
X70500000Y-33000000D03*
%TO.N,Net-(D1-A)*%
X79500000Y-37000000D03*
%TO.N,Net-(Q1-C)*%
X101000000Y-38500000D03*
X95992000Y-38500000D03*
%TD*%
D32*
%TO.N,DER*%
X132000000Y-70000000D02*
X118500000Y-56500000D01*
X118500000Y-56500000D02*
X118000000Y-56500000D01*
D33*
%TO.N,Net-(D6-A)*%
X150500000Y-45998000D02*
X150500000Y-44000000D01*
X155502000Y-51000000D02*
X150500000Y-45998000D01*
D32*
%TO.N,GND*%
X72000000Y-31500000D02*
X70500000Y-33000000D01*
X75380000Y-31500000D02*
X72000000Y-31500000D01*
%TO.N,Net-(D1-A)*%
X79080000Y-36580000D02*
X79500000Y-37000000D01*
X75380000Y-36580000D02*
X79080000Y-36580000D01*
%TO.N,Net-(Q1-C)*%
X95992000Y-38500000D02*
X101000000Y-38500000D01*
%TO.N,5v*%
X38628400Y-30787500D02*
X40204500Y-32363600D01*
X30519727Y-30787500D02*
X38628400Y-30787500D01*
X29018099Y-32289128D02*
X30519727Y-30787500D01*
X40204500Y-32363600D02*
X40204500Y-34145500D01*
X29018099Y-38262897D02*
X29018099Y-32289128D01*
X35000000Y-45650000D02*
X35000000Y-44244798D01*
X35000000Y-44244798D02*
X29018099Y-38262897D01*
X40204500Y-34145500D02*
X35000000Y-39350000D01*
D33*
%TO.N,Net-(Q2-S)*%
X142059842Y-72730000D02*
X140040000Y-72730000D01*
X147001000Y-77671158D02*
X142059842Y-72730000D01*
X147001000Y-79328842D02*
X147001000Y-77671158D01*
X145828842Y-80501000D02*
X147001000Y-79328842D01*
X126961894Y-80501000D02*
X145828842Y-80501000D01*
X121391894Y-74931000D02*
X126961894Y-80501000D01*
X119306500Y-74931000D02*
X121391894Y-74931000D01*
X119306500Y-70529000D02*
X119306500Y-74931000D01*
X123613500Y-70529000D02*
X119306500Y-70529000D01*
X124000000Y-70915500D02*
X123613500Y-70529000D01*
X124000000Y-72730000D02*
X124000000Y-70915500D01*
%TO.N,Net-(Q4-S)*%
X128241000Y-50931000D02*
X126040000Y-48730000D01*
X136113500Y-50931000D02*
X128241000Y-50931000D01*
X136500000Y-50544500D02*
X136113500Y-50931000D01*
X136500000Y-48730000D02*
X136500000Y-50544500D01*
D32*
%TO.N,12v*%
X53120000Y-54080000D02*
X45420000Y-54080000D01*
X45420000Y-54080000D02*
X44500000Y-55000000D01*
D33*
X44500000Y-55000000D02*
X48500000Y-59000000D01*
D32*
%TO.N,Net-(D1-A)*%
X77000000Y-48130000D02*
X74620000Y-45750000D01*
X77000000Y-53237634D02*
X77000000Y-48130000D01*
X75533134Y-54704500D02*
X77000000Y-53237634D01*
X61584500Y-54704500D02*
X75533134Y-54704500D01*
X59380000Y-52500000D02*
X61584500Y-54704500D01*
X59380000Y-50180000D02*
X53120000Y-43920000D01*
X59380000Y-52500000D02*
X59380000Y-50180000D01*
%TO.N,Net-(D1-K)*%
X65000000Y-38654629D02*
X65000000Y-37000000D01*
X60712764Y-41287236D02*
X62367393Y-41287236D01*
X56774500Y-37348972D02*
X60712764Y-41287236D01*
X56774500Y-36264978D02*
X56774500Y-37348972D01*
X62367393Y-41287236D02*
X65000000Y-38654629D01*
X55735022Y-35225500D02*
X56774500Y-36264978D01*
X54264978Y-35225500D02*
X55735022Y-35225500D01*
X53225500Y-36264978D02*
X54264978Y-35225500D01*
X53225500Y-39595500D02*
X53225500Y-36264978D01*
X59380000Y-45750000D02*
X53225500Y-39595500D01*
%TO.N,Net-(U1-THR)*%
X62960000Y-34040000D02*
X75380000Y-34040000D01*
X60000000Y-37000000D02*
X62960000Y-34040000D01*
%TO.N,Net-(D2-A)*%
X70500000Y-52500000D02*
X55000000Y-37000000D01*
X74620000Y-52500000D02*
X70500000Y-52500000D01*
%TO.N,GND*%
X91040000Y-34040000D02*
X92290000Y-34040000D01*
X89500000Y-32500000D02*
X91040000Y-34040000D01*
X89500000Y-30500000D02*
X89500000Y-32500000D01*
X89629500Y-30370500D02*
X89500000Y-30500000D01*
X95991400Y-30370500D02*
X89629500Y-30370500D01*
X103661763Y-49904500D02*
X104001763Y-49904500D01*
X99661763Y-53904500D02*
X103661763Y-49904500D01*
X98498237Y-53904500D02*
X99661763Y-53904500D01*
X105000000Y-48906263D02*
X105000000Y-38500000D01*
X105000000Y-38500000D02*
X104120900Y-38500000D01*
X92500000Y-47906263D02*
X98498237Y-53904500D01*
X104120900Y-38500000D02*
X95991400Y-30370500D01*
X92500000Y-43040000D02*
X92500000Y-47906263D01*
X104001763Y-49904500D02*
X105000000Y-48906263D01*
X92500000Y-52331791D02*
X92500000Y-43040000D01*
X89919291Y-54912500D02*
X92500000Y-52331791D01*
X85912500Y-54912500D02*
X89919291Y-54912500D01*
X83500000Y-52500000D02*
X85912500Y-54912500D01*
X82095500Y-45595500D02*
X83500000Y-47000000D01*
X80418237Y-45595500D02*
X82095500Y-45595500D01*
X79595500Y-48595500D02*
X79595500Y-46418237D01*
X83500000Y-52500000D02*
X79595500Y-48595500D01*
X79595500Y-46418237D02*
X80418237Y-45595500D01*
%TO.N,Net-(U1-THR)*%
X90324500Y-43904500D02*
X83000000Y-36580000D01*
X90324500Y-53081763D02*
X90324500Y-43904500D01*
X87904500Y-53904500D02*
X89501763Y-53904500D01*
X89501763Y-53904500D02*
X90324500Y-53081763D01*
X81000000Y-47000000D02*
X87904500Y-53904500D01*
%TO.N,Net-(Q3-C)*%
X95695372Y-31500000D02*
X92290000Y-31500000D01*
X103284500Y-39089128D02*
X95695372Y-31500000D01*
X101880000Y-42540000D02*
X103284500Y-41135500D01*
X103284500Y-41135500D02*
X103284500Y-39089128D01*
%TO.N,Net-(R11-Pad2)*%
X99417500Y-29087500D02*
X101565000Y-31235000D01*
X80587500Y-41543027D02*
X80587500Y-30500709D01*
X87515500Y-48471028D02*
X80587500Y-41543027D01*
X82000710Y-29087500D02*
X99417500Y-29087500D01*
X87515500Y-51095500D02*
X87515500Y-48471028D01*
X80587500Y-30500709D02*
X82000710Y-29087500D01*
X88920000Y-52500000D02*
X87515500Y-51095500D01*
%TO.N,Net-(R12-Pad2)*%
X101000000Y-40000000D02*
X101880000Y-40000000D01*
X100500000Y-40500000D02*
X101000000Y-40000000D01*
X82418237Y-30095500D02*
X85343382Y-30095500D01*
X85343382Y-30095500D02*
X95747882Y-40500000D01*
X81595500Y-41125500D02*
X81595500Y-30918237D01*
X95747882Y-40500000D02*
X100500000Y-40500000D01*
X81595500Y-30918237D02*
X82418237Y-30095500D01*
X88920000Y-48450000D02*
X81595500Y-41125500D01*
%TO.N,Net-(D1-A)*%
X99080000Y-45257646D02*
X99080000Y-48450000D01*
X87862354Y-34040000D02*
X99080000Y-45257646D01*
X83000000Y-34040000D02*
X87862354Y-34040000D01*
X99080000Y-48450000D02*
X99080000Y-52500000D01*
%TO.N,DER*%
X140730000Y-78500000D02*
X134960000Y-72730000D01*
X145000000Y-78500000D02*
X140730000Y-78500000D01*
X134960000Y-72730000D02*
X134960000Y-75200000D01*
X134960000Y-75200000D02*
X131660000Y-78500000D01*
X127230000Y-78500000D02*
X131660000Y-78500000D01*
X121460000Y-72730000D02*
X127230000Y-78500000D01*
X122564500Y-47125500D02*
X132355500Y-47125500D01*
X120960000Y-48730000D02*
X122564500Y-47125500D01*
X132355500Y-47125500D02*
X133960000Y-48730000D01*
X120960000Y-41023737D02*
X120960000Y-48730000D01*
X108603237Y-29830500D02*
X109766763Y-29830500D01*
X107780500Y-30653237D02*
X108603237Y-29830500D01*
X107780500Y-40820500D02*
X107780500Y-30653237D01*
X109500000Y-42540000D02*
X107780500Y-40820500D01*
X109766763Y-29830500D02*
X120960000Y-41023737D01*
X108095500Y-41135500D02*
X109500000Y-42540000D01*
X108095500Y-34864500D02*
X108095500Y-41135500D01*
X109185000Y-33775000D02*
X108095500Y-34864500D01*
%TO.N,Net-(R13-Pad1)*%
X114984500Y-51095500D02*
X114984500Y-37034500D01*
X114984500Y-37034500D02*
X109185000Y-31235000D01*
X113580000Y-52500000D02*
X114984500Y-51095500D01*
%TO.N,Net-(R14-Pad1)*%
X113580000Y-44080000D02*
X109500000Y-40000000D01*
X113580000Y-48500000D02*
X113580000Y-44080000D01*
%TO.N,Net-(U2-VI)*%
X37300000Y-45119270D02*
X37300000Y-45650000D01*
X30222599Y-38041869D02*
X37300000Y-45119270D01*
X30222599Y-33000000D02*
X30222599Y-38041869D01*
%TO.N,GND*%
X38210872Y-31795500D02*
X33427099Y-31795500D01*
X39000000Y-32584628D02*
X38210872Y-31795500D01*
X33427099Y-31795500D02*
X32222599Y-33000000D01*
X39000000Y-33000000D02*
X39000000Y-32584628D01*
%TO.N,5v*%
X35000000Y-35500000D02*
X37500000Y-33000000D01*
X35000000Y-39350000D02*
X35000000Y-35500000D01*
X18047500Y-39311600D02*
X18047500Y-56707500D01*
X18047500Y-56707500D02*
X20460000Y-59120000D01*
X20471600Y-36887500D02*
X18047500Y-39311600D01*
X26322722Y-36887500D02*
X20471600Y-36887500D01*
X35000000Y-45564778D02*
X26322722Y-36887500D01*
X35000000Y-45650000D02*
X35000000Y-45564778D01*
X23000000Y-59120000D02*
X20460000Y-59120000D01*
X19868237Y-78484500D02*
X23095500Y-78484500D01*
X19045500Y-77661763D02*
X19868237Y-78484500D01*
X23095500Y-78484500D02*
X24500000Y-77080000D01*
X19045500Y-60534500D02*
X19045500Y-77661763D01*
X20460000Y-59120000D02*
X19045500Y-60534500D01*
%TO.N,Net-(D3-K)*%
X37370000Y-69000000D02*
X40230000Y-69000000D01*
X28950000Y-60580000D02*
X37370000Y-69000000D01*
%TO.N,GND*%
X28625500Y-50095500D02*
X28950000Y-50420000D01*
X19878237Y-50095500D02*
X28625500Y-50095500D01*
X19055500Y-50918237D02*
X19878237Y-50095500D01*
X19055500Y-52081763D02*
X19055500Y-50918237D01*
X27529764Y-60556027D02*
X19055500Y-52081763D01*
X27529764Y-61849764D02*
X27529764Y-60556027D01*
X32600000Y-66920000D02*
X27529764Y-61849764D01*
X24500000Y-66920000D02*
X28550000Y-66920000D01*
X32600000Y-66920000D02*
X28550000Y-66920000D01*
X20450000Y-66920000D02*
X24500000Y-66920000D01*
%TO.N,5v*%
X31195500Y-75675500D02*
X32600000Y-77080000D01*
X25904500Y-75675500D02*
X31195500Y-75675500D01*
X24500000Y-77080000D02*
X25904500Y-75675500D01*
%TO.N,Net-(D4-A)*%
X96984500Y-67089500D02*
X95580000Y-65685000D01*
X105912500Y-76079290D02*
X105912500Y-74080709D01*
X29954500Y-78484500D02*
X103507290Y-78484500D01*
X103507290Y-78484500D02*
X105912500Y-76079290D01*
X28550000Y-77080000D02*
X29954500Y-78484500D01*
X105912500Y-74080709D02*
X98921291Y-67089500D01*
X98921291Y-67089500D02*
X96984500Y-67089500D01*
%TO.N,5v*%
X102306763Y-71900500D02*
X86824500Y-71900500D01*
X86824500Y-71900500D02*
X85420000Y-73305000D01*
X104904500Y-74498237D02*
X102306763Y-71900500D01*
X103486263Y-77080000D02*
X104904500Y-75661763D01*
X32600000Y-77080000D02*
X103486263Y-77080000D01*
X104904500Y-75661763D02*
X104904500Y-74498237D01*
%TO.N,Net-(R5-Pad1)*%
X97355000Y-75080000D02*
X95580000Y-73305000D01*
X103500000Y-75080000D02*
X97355000Y-75080000D01*
%TO.N,5v*%
X79695000Y-62500000D02*
X82880000Y-65685000D01*
X62945000Y-62500000D02*
X79695000Y-62500000D01*
X59880000Y-65565000D02*
X62945000Y-62500000D01*
X49886000Y-65565000D02*
X59880000Y-65565000D01*
X47955500Y-70504500D02*
X47955500Y-67495500D01*
X47955500Y-67495500D02*
X49886000Y-65565000D01*
X82619500Y-70504500D02*
X47955500Y-70504500D01*
X85420000Y-73305000D02*
X82619500Y-70504500D01*
X91635500Y-67089500D02*
X93040000Y-65685000D01*
X84284500Y-67089500D02*
X91635500Y-67089500D01*
X82880000Y-65685000D02*
X84284500Y-67089500D01*
%TO.N,Net-(D4-A)*%
X92265000Y-69000000D02*
X52000000Y-69000000D01*
X95580000Y-65685000D02*
X92265000Y-69000000D01*
%TO.N,Net-(U4-Pad13)*%
X96715500Y-64280500D02*
X98120000Y-65685000D01*
X86824500Y-64280500D02*
X96715500Y-64280500D01*
X85420000Y-65685000D02*
X86824500Y-64280500D01*
%TO.N,Net-(U4-Pad3)*%
X90500000Y-73305000D02*
X87960000Y-73305000D01*
X86555500Y-74709500D02*
X87960000Y-73305000D01*
X61404500Y-74709500D02*
X86555500Y-74709500D01*
X59880000Y-73185000D02*
X61404500Y-74709500D01*
%TO.N,Net-(D3-A)*%
X81355500Y-71780500D02*
X82880000Y-73305000D01*
X45550500Y-71780500D02*
X81355500Y-71780500D01*
X42770000Y-69000000D02*
X45550500Y-71780500D01*
X42770000Y-70272792D02*
X42770000Y-69000000D01*
X42538292Y-70504500D02*
X42770000Y-70272792D01*
X27025500Y-70504500D02*
X42538292Y-70504500D01*
X20450000Y-77080000D02*
X27025500Y-70504500D01*
X42770000Y-67727208D02*
X42770000Y-69000000D01*
X21864500Y-52904500D02*
X27947292Y-52904500D01*
X20460000Y-51500000D02*
X21864500Y-52904500D01*
X27947292Y-52904500D02*
X42770000Y-67727208D01*
%TO.N,GND*%
X28950000Y-50420000D02*
X33000000Y-50420000D01*
X24945500Y-37895500D02*
X32700000Y-45650000D01*
X20395500Y-38389128D02*
X20889128Y-37895500D01*
X20889128Y-37895500D02*
X24945500Y-37895500D01*
X20585787Y-42040000D02*
X20395500Y-41849713D01*
X22000000Y-42040000D02*
X20585787Y-42040000D01*
X20395500Y-41849713D02*
X20395500Y-38389128D01*
D33*
%TO.N,12v*%
X155199000Y-42719787D02*
X155199000Y-46199000D01*
X162771287Y-35147500D02*
X155199000Y-42719787D01*
X164742500Y-35147500D02*
X162771287Y-35147500D01*
X162000000Y-52000000D02*
X161000000Y-52000000D01*
X155199000Y-46199000D02*
X161000000Y-52000000D01*
%TO.N,Net-(D5-K)*%
X167282500Y-42767500D02*
X164942500Y-42767500D01*
%TO.N,Net-(BT2-+)*%
X162741500Y-40819870D02*
X167282500Y-36278870D01*
X164799000Y-45982950D02*
X162741500Y-43925450D01*
X162741500Y-43925450D02*
X162741500Y-40819870D01*
X166427315Y-64540000D02*
X164799000Y-62911685D01*
X167000000Y-64540000D02*
X166427315Y-64540000D01*
X167282500Y-36278870D02*
X167282500Y-35147500D01*
%TO.N,Net-(D5-A)*%
X150500000Y-71380000D02*
X158000000Y-63880000D01*
X150500000Y-79620000D02*
X150500000Y-71380000D01*
%TO.N,Net-(D6-A)*%
X154500000Y-40000000D02*
X150500000Y-44000000D01*
X154500000Y-34500000D02*
X154500000Y-40000000D01*
%TO.N,12v*%
X152260000Y-59240000D02*
X150500000Y-59240000D01*
X159500000Y-52000000D02*
X152260000Y-59240000D01*
X161000000Y-52000000D02*
X159500000Y-52000000D01*
X162000000Y-71082354D02*
X162000000Y-52000000D01*
X162924264Y-72006618D02*
X162000000Y-71082354D01*
X158000000Y-76930882D02*
X162924264Y-72006618D01*
X158000000Y-79120000D02*
X158000000Y-76930882D01*
X137500000Y-70640000D02*
X137500000Y-72730000D01*
X148900000Y-59240000D02*
X137500000Y-70640000D01*
X150500000Y-59240000D02*
X148900000Y-59240000D01*
X137500000Y-65325945D02*
X137500000Y-72730000D01*
X123500000Y-51325945D02*
X137500000Y-65325945D01*
X123500000Y-48730000D02*
X123500000Y-51325945D01*
X103420000Y-58080000D02*
X103420000Y-52500000D01*
X37351000Y-47851000D02*
X44500000Y-55000000D01*
X31672198Y-47851000D02*
X37351000Y-47851000D01*
X102500000Y-59000000D02*
X103420000Y-58080000D01*
X48500000Y-59000000D02*
X102500000Y-59000000D01*
X23321198Y-39500000D02*
X31672198Y-47851000D01*
X22000000Y-39500000D02*
X23321198Y-39500000D01*
X105421000Y-54501000D02*
X103420000Y-52500000D01*
X120729000Y-54501000D02*
X105421000Y-54501000D01*
X123500000Y-48730000D02*
X123500000Y-51730000D01*
X123500000Y-51730000D02*
X120729000Y-54501000D01*
%TO.N,Net-(BT2-+)*%
X164799000Y-62911685D02*
X164799000Y-45982950D01*
%TD*%
%TA.AperFunction,Conductor*%
%TO.N,GND*%
G36*
X136069203Y-75118098D02*
G01*
X136075681Y-75124130D01*
X139740370Y-78788819D01*
X139773855Y-78850142D01*
X139768871Y-78919834D01*
X139726999Y-78975767D01*
X139661535Y-79000184D01*
X139652689Y-79000500D01*
X136214951Y-79000500D01*
X136147912Y-78980815D01*
X136102157Y-78928011D01*
X136092213Y-78858853D01*
X136097020Y-78838183D01*
X136107988Y-78804425D01*
X136107989Y-78804418D01*
X136140000Y-78602317D01*
X136140000Y-78397682D01*
X136107990Y-78195582D01*
X136044755Y-78000968D01*
X135951859Y-77818650D01*
X135919474Y-77774077D01*
X135919474Y-77774076D01*
X135240000Y-78453551D01*
X135240000Y-78447339D01*
X135212741Y-78345606D01*
X135160080Y-78254394D01*
X135085606Y-78179920D01*
X134994394Y-78127259D01*
X134892661Y-78100000D01*
X134886446Y-78100000D01*
X135565922Y-77420524D01*
X135565921Y-77420523D01*
X135521359Y-77388147D01*
X135521350Y-77388141D01*
X135339031Y-77295244D01*
X135144417Y-77232009D01*
X134942317Y-77200000D01*
X134737683Y-77200000D01*
X134535581Y-77232010D01*
X134530836Y-77233149D01*
X134530340Y-77231086D01*
X134469348Y-77232803D01*
X134409530Y-77196698D01*
X134378728Y-77133984D01*
X134386722Y-77064573D01*
X134413240Y-77025209D01*
X135662180Y-75776269D01*
X135662183Y-75776266D01*
X135761115Y-75628205D01*
X135829260Y-75463686D01*
X135835101Y-75434326D01*
X135842311Y-75398077D01*
X135863999Y-75289040D01*
X135864000Y-75289037D01*
X135864000Y-75211811D01*
X135883685Y-75144772D01*
X135936489Y-75099017D01*
X136005647Y-75089073D01*
X136069203Y-75118098D01*
G37*
%TD.AperFunction*%
%TA.AperFunction,Conductor*%
G36*
X19156703Y-51755013D02*
G01*
X19193431Y-51810407D01*
X19254781Y-51999223D01*
X19307854Y-52103382D01*
X19330909Y-52148631D01*
X19347715Y-52181613D01*
X19468028Y-52347213D01*
X19612786Y-52491971D01*
X19767749Y-52604556D01*
X19778390Y-52612287D01*
X19861030Y-52654394D01*
X19960776Y-52705218D01*
X19960778Y-52705218D01*
X19960781Y-52705220D01*
X20065137Y-52739127D01*
X20155465Y-52768477D01*
X20225061Y-52779500D01*
X20357648Y-52800500D01*
X20430689Y-52800500D01*
X20497728Y-52820185D01*
X20518370Y-52836819D01*
X21288229Y-53606680D01*
X21288232Y-53606683D01*
X21401551Y-53682400D01*
X21436295Y-53705615D01*
X21436301Y-53705617D01*
X21436302Y-53705618D01*
X21546984Y-53751463D01*
X21546987Y-53751463D01*
X21552627Y-53753800D01*
X21600813Y-53773760D01*
X21652022Y-53783946D01*
X21711793Y-53795835D01*
X21775460Y-53808500D01*
X21775463Y-53808500D01*
X21775464Y-53808500D01*
X27521481Y-53808500D01*
X27588520Y-53828185D01*
X27609162Y-53844819D01*
X32851770Y-59087427D01*
X32885255Y-59148750D01*
X32880271Y-59218442D01*
X32838399Y-59274375D01*
X32783488Y-59297581D01*
X32695464Y-59311523D01*
X32500776Y-59374781D01*
X32318386Y-59467715D01*
X32152786Y-59588028D01*
X32008028Y-59732786D01*
X31887715Y-59898386D01*
X31794781Y-60080776D01*
X31731522Y-60275465D01*
X31702799Y-60456818D01*
X31699500Y-60477648D01*
X31699500Y-60682352D01*
X31703673Y-60708696D01*
X31731522Y-60884534D01*
X31794781Y-61079223D01*
X31847511Y-61182710D01*
X31866766Y-61220500D01*
X31887715Y-61261613D01*
X32008028Y-61427213D01*
X32152786Y-61571971D01*
X32272527Y-61658966D01*
X32318390Y-61692287D01*
X32403283Y-61735542D01*
X32500776Y-61785218D01*
X32500778Y-61785218D01*
X32500781Y-61785220D01*
X32593789Y-61815440D01*
X32695465Y-61848477D01*
X32796557Y-61864488D01*
X32897648Y-61880500D01*
X32897649Y-61880500D01*
X33102351Y-61880500D01*
X33102352Y-61880500D01*
X33304534Y-61848477D01*
X33499219Y-61785220D01*
X33681610Y-61692287D01*
X33814139Y-61596000D01*
X33847213Y-61571971D01*
X33847215Y-61571968D01*
X33847219Y-61571966D01*
X33991966Y-61427219D01*
X33991968Y-61427215D01*
X33991971Y-61427213D01*
X34044732Y-61354590D01*
X34112287Y-61261610D01*
X34205220Y-61079219D01*
X34268477Y-60884534D01*
X34282418Y-60796511D01*
X34312347Y-60733378D01*
X34371658Y-60696446D01*
X34441521Y-60697444D01*
X34492572Y-60728229D01*
X41152162Y-67387819D01*
X41185647Y-67449142D01*
X41180663Y-67518834D01*
X41138791Y-67574767D01*
X41073327Y-67599184D01*
X41064481Y-67599500D01*
X39282129Y-67599500D01*
X39282123Y-67599501D01*
X39222516Y-67605908D01*
X39087671Y-67656202D01*
X39087664Y-67656206D01*
X38972455Y-67742452D01*
X38972452Y-67742455D01*
X38886206Y-67857664D01*
X38886202Y-67857671D01*
X38835908Y-67992517D01*
X38834126Y-68000062D01*
X38830854Y-67999289D01*
X38810036Y-68049703D01*
X38752686Y-68089612D01*
X38713401Y-68096000D01*
X37795811Y-68096000D01*
X37728772Y-68076315D01*
X37708130Y-68059681D01*
X30286819Y-60638370D01*
X30253334Y-60577047D01*
X30250500Y-60550689D01*
X30250500Y-60477648D01*
X30218477Y-60275465D01*
X30165354Y-60111971D01*
X30155220Y-60080781D01*
X30155218Y-60080778D01*
X30155218Y-60080776D01*
X30121503Y-60014607D01*
X30062287Y-59898390D01*
X30054556Y-59887749D01*
X29941971Y-59732786D01*
X29797213Y-59588028D01*
X29631613Y-59467715D01*
X29631612Y-59467714D01*
X29631610Y-59467713D01*
X29546867Y-59424534D01*
X29449223Y-59374781D01*
X29254534Y-59311522D01*
X29079995Y-59283878D01*
X29052352Y-59279500D01*
X28847648Y-59279500D01*
X28823329Y-59283351D01*
X28645465Y-59311522D01*
X28450776Y-59374781D01*
X28268386Y-59467715D01*
X28102786Y-59588028D01*
X27958028Y-59732786D01*
X27837715Y-59898386D01*
X27744781Y-60080776D01*
X27681522Y-60275465D01*
X27652799Y-60456818D01*
X27649500Y-60477648D01*
X27649500Y-60682352D01*
X27653673Y-60708696D01*
X27681522Y-60884534D01*
X27744781Y-61079223D01*
X27797511Y-61182710D01*
X27816766Y-61220500D01*
X27837715Y-61261613D01*
X27958028Y-61427213D01*
X28102786Y-61571971D01*
X28222527Y-61658966D01*
X28268390Y-61692287D01*
X28353283Y-61735542D01*
X28450776Y-61785218D01*
X28450778Y-61785218D01*
X28450781Y-61785220D01*
X28543789Y-61815440D01*
X28645465Y-61848477D01*
X28746557Y-61864488D01*
X28847648Y-61880500D01*
X28920689Y-61880500D01*
X28987728Y-61900185D01*
X29008370Y-61916819D01*
X32510225Y-65418674D01*
X32543710Y-65479997D01*
X32538726Y-65549689D01*
X32496854Y-65605622D01*
X32441943Y-65628828D01*
X32295581Y-65652010D01*
X32100968Y-65715244D01*
X31918644Y-65808143D01*
X31874077Y-65840523D01*
X31874077Y-65840524D01*
X32553554Y-66520000D01*
X32547339Y-66520000D01*
X32445606Y-66547259D01*
X32354394Y-66599920D01*
X32279920Y-66674394D01*
X32227259Y-66765606D01*
X32200000Y-66867339D01*
X32200000Y-66873553D01*
X31520524Y-66194077D01*
X31520523Y-66194077D01*
X31488143Y-66238644D01*
X31395244Y-66420968D01*
X31332009Y-66615582D01*
X31300000Y-66817682D01*
X31300000Y-67022317D01*
X31332009Y-67224417D01*
X31395244Y-67419031D01*
X31488141Y-67601350D01*
X31488147Y-67601359D01*
X31520523Y-67645921D01*
X31520524Y-67645922D01*
X32200000Y-66966446D01*
X32200000Y-66972661D01*
X32227259Y-67074394D01*
X32279920Y-67165606D01*
X32354394Y-67240080D01*
X32445606Y-67292741D01*
X32547339Y-67320000D01*
X32553553Y-67320000D01*
X31874076Y-67999474D01*
X31918650Y-68031859D01*
X32100968Y-68124755D01*
X32295582Y-68187990D01*
X32497683Y-68220000D01*
X32702317Y-68220000D01*
X32904417Y-68187990D01*
X33099031Y-68124755D01*
X33281349Y-68031859D01*
X33325921Y-67999474D01*
X32646447Y-67320000D01*
X32652661Y-67320000D01*
X32754394Y-67292741D01*
X32845606Y-67240080D01*
X32920080Y-67165606D01*
X32972741Y-67074394D01*
X33000000Y-66972661D01*
X33000000Y-66966446D01*
X33679474Y-67645921D01*
X33711859Y-67601349D01*
X33804755Y-67419031D01*
X33867989Y-67224417D01*
X33891171Y-67078057D01*
X33921100Y-67014923D01*
X33980411Y-66977991D01*
X34050274Y-66978989D01*
X34101325Y-67009774D01*
X36480370Y-69388819D01*
X36513855Y-69450142D01*
X36508871Y-69519834D01*
X36466999Y-69575767D01*
X36401535Y-69600184D01*
X36392689Y-69600500D01*
X26936461Y-69600500D01*
X26875126Y-69612700D01*
X26844458Y-69618801D01*
X26778251Y-69631970D01*
X26761812Y-69635240D01*
X26597297Y-69703384D01*
X26597288Y-69703389D01*
X26451432Y-69800848D01*
X26451035Y-69801114D01*
X26449233Y-69802318D01*
X26449232Y-69802319D01*
X26449231Y-69802319D01*
X20508370Y-75743181D01*
X20447047Y-75776666D01*
X20420689Y-75779500D01*
X20347648Y-75779500D01*
X20330690Y-75782186D01*
X20145464Y-75811523D01*
X20145457Y-75811524D01*
X20111817Y-75822455D01*
X20041976Y-75824450D01*
X19982144Y-75788369D01*
X19951316Y-75725668D01*
X19949500Y-75704524D01*
X19949500Y-68294950D01*
X19969185Y-68227911D01*
X20021989Y-68182156D01*
X20091147Y-68172212D01*
X20111820Y-68177020D01*
X20145575Y-68187988D01*
X20145581Y-68187989D01*
X20347683Y-68220000D01*
X20552317Y-68220000D01*
X20754417Y-68187990D01*
X20949031Y-68124755D01*
X21131349Y-68031859D01*
X21175921Y-67999474D01*
X20496447Y-67320000D01*
X20502661Y-67320000D01*
X20604394Y-67292741D01*
X20695606Y-67240080D01*
X20770080Y-67165606D01*
X20822741Y-67074394D01*
X20850000Y-66972661D01*
X20850000Y-66966447D01*
X21529474Y-67645921D01*
X21561859Y-67601349D01*
X21654755Y-67419031D01*
X21717990Y-67224417D01*
X21750000Y-67022317D01*
X21750000Y-66817682D01*
X23200000Y-66817682D01*
X23200000Y-67022317D01*
X23232009Y-67224417D01*
X23295244Y-67419031D01*
X23388141Y-67601350D01*
X23388147Y-67601359D01*
X23420523Y-67645921D01*
X23420524Y-67645922D01*
X24100000Y-66966446D01*
X24100000Y-66972661D01*
X24127259Y-67074394D01*
X24179920Y-67165606D01*
X24254394Y-67240080D01*
X24345606Y-67292741D01*
X24447339Y-67320000D01*
X24453553Y-67320000D01*
X23774076Y-67999474D01*
X23818650Y-68031859D01*
X24000968Y-68124755D01*
X24195582Y-68187990D01*
X24397683Y-68220000D01*
X24602317Y-68220000D01*
X24804417Y-68187990D01*
X24999031Y-68124755D01*
X25181349Y-68031859D01*
X25225921Y-67999474D01*
X24546447Y-67320000D01*
X24552661Y-67320000D01*
X24654394Y-67292741D01*
X24745606Y-67240080D01*
X24820080Y-67165606D01*
X24872741Y-67074394D01*
X24900000Y-66972661D01*
X24900000Y-66966447D01*
X25579474Y-67645921D01*
X25611859Y-67601349D01*
X25704755Y-67419031D01*
X25767990Y-67224417D01*
X25800000Y-67022317D01*
X25800000Y-66817682D01*
X27250000Y-66817682D01*
X27250000Y-67022317D01*
X27282009Y-67224417D01*
X27345244Y-67419031D01*
X27438141Y-67601350D01*
X27438147Y-67601359D01*
X27470523Y-67645921D01*
X27470524Y-67645922D01*
X28150000Y-66966446D01*
X28150000Y-66972661D01*
X28177259Y-67074394D01*
X28229920Y-67165606D01*
X28304394Y-67240080D01*
X28395606Y-67292741D01*
X28497339Y-67320000D01*
X28503553Y-67320000D01*
X27824076Y-67999474D01*
X27868650Y-68031859D01*
X28050968Y-68124755D01*
X28245582Y-68187990D01*
X28447683Y-68220000D01*
X28652317Y-68220000D01*
X28854417Y-68187990D01*
X29049031Y-68124755D01*
X29231349Y-68031859D01*
X29275921Y-67999474D01*
X28596447Y-67320000D01*
X28602661Y-67320000D01*
X28704394Y-67292741D01*
X28795606Y-67240080D01*
X28870080Y-67165606D01*
X28922741Y-67074394D01*
X28950000Y-66972661D01*
X28950000Y-66966447D01*
X29629474Y-67645921D01*
X29661859Y-67601349D01*
X29754755Y-67419031D01*
X29817990Y-67224417D01*
X29850000Y-67022317D01*
X29850000Y-66817682D01*
X29817990Y-66615582D01*
X29754755Y-66420968D01*
X29661859Y-66238650D01*
X29629474Y-66194077D01*
X29629474Y-66194076D01*
X28950000Y-66873551D01*
X28950000Y-66867339D01*
X28922741Y-66765606D01*
X28870080Y-66674394D01*
X28795606Y-66599920D01*
X28704394Y-66547259D01*
X28602661Y-66520000D01*
X28596446Y-66520000D01*
X29275922Y-65840524D01*
X29275921Y-65840523D01*
X29231359Y-65808147D01*
X29231350Y-65808141D01*
X29049031Y-65715244D01*
X28854417Y-65652009D01*
X28652317Y-65620000D01*
X28447683Y-65620000D01*
X28245582Y-65652009D01*
X28050968Y-65715244D01*
X27868644Y-65808143D01*
X27824077Y-65840523D01*
X27824077Y-65840524D01*
X28503554Y-66520000D01*
X28497339Y-66520000D01*
X28395606Y-66547259D01*
X28304394Y-66599920D01*
X28229920Y-66674394D01*
X28177259Y-66765606D01*
X28150000Y-66867339D01*
X28150000Y-66873553D01*
X27470524Y-66194077D01*
X27470523Y-66194077D01*
X27438143Y-66238644D01*
X27345244Y-66420968D01*
X27282009Y-66615582D01*
X27250000Y-66817682D01*
X25800000Y-66817682D01*
X25767990Y-66615582D01*
X25704755Y-66420968D01*
X25611859Y-66238650D01*
X25579474Y-66194077D01*
X25579474Y-66194076D01*
X24900000Y-66873551D01*
X24900000Y-66867339D01*
X24872741Y-66765606D01*
X24820080Y-66674394D01*
X24745606Y-66599920D01*
X24654394Y-66547259D01*
X24552661Y-66520000D01*
X24546446Y-66520000D01*
X25225922Y-65840524D01*
X25225921Y-65840523D01*
X25181359Y-65808147D01*
X25181350Y-65808141D01*
X24999031Y-65715244D01*
X24804417Y-65652009D01*
X24602317Y-65620000D01*
X24397683Y-65620000D01*
X24195582Y-65652009D01*
X24000968Y-65715244D01*
X23818644Y-65808143D01*
X23774077Y-65840523D01*
X23774077Y-65840524D01*
X24453554Y-66520000D01*
X24447339Y-66520000D01*
X24345606Y-66547259D01*
X24254394Y-66599920D01*
X24179920Y-66674394D01*
X24127259Y-66765606D01*
X24100000Y-66867339D01*
X24100000Y-66873553D01*
X23420524Y-66194077D01*
X23420523Y-66194077D01*
X23388143Y-66238644D01*
X23295244Y-66420968D01*
X23232009Y-66615582D01*
X23200000Y-66817682D01*
X21750000Y-66817682D01*
X21717990Y-66615582D01*
X21654755Y-66420968D01*
X21561859Y-66238650D01*
X21529474Y-66194077D01*
X21529474Y-66194076D01*
X20850000Y-66873551D01*
X20850000Y-66867339D01*
X20822741Y-66765606D01*
X20770080Y-66674394D01*
X20695606Y-66599920D01*
X20604394Y-66547259D01*
X20502661Y-66520000D01*
X20496446Y-66520000D01*
X21175922Y-65840524D01*
X21175921Y-65840523D01*
X21131359Y-65808147D01*
X21131350Y-65808141D01*
X20949031Y-65715244D01*
X20754417Y-65652009D01*
X20552317Y-65620000D01*
X20347683Y-65620000D01*
X20145581Y-65652010D01*
X20145574Y-65652011D01*
X20111817Y-65662980D01*
X20041976Y-65664975D01*
X19982144Y-65628894D01*
X19951316Y-65566193D01*
X19949500Y-65545049D01*
X19949500Y-60960310D01*
X19969185Y-60893271D01*
X19985815Y-60872633D01*
X20401630Y-60456817D01*
X20462953Y-60423333D01*
X20489311Y-60420499D01*
X21060002Y-60420499D01*
X21060008Y-60420499D01*
X21162797Y-60409999D01*
X21329334Y-60354814D01*
X21478656Y-60262712D01*
X21602712Y-60138656D01*
X21637100Y-60082904D01*
X21689048Y-60036179D01*
X21742639Y-60024000D01*
X22013453Y-60024000D01*
X22080492Y-60043685D01*
X22101134Y-60060319D01*
X22152786Y-60111971D01*
X22307749Y-60224556D01*
X22318390Y-60232287D01*
X22418591Y-60283342D01*
X22500776Y-60325218D01*
X22500778Y-60325218D01*
X22500781Y-60325220D01*
X22525683Y-60333311D01*
X22695465Y-60388477D01*
X22796557Y-60404488D01*
X22897648Y-60420500D01*
X22897649Y-60420500D01*
X23102351Y-60420500D01*
X23102352Y-60420500D01*
X23304534Y-60388477D01*
X23499219Y-60325220D01*
X23681610Y-60232287D01*
X23792399Y-60151795D01*
X23847213Y-60111971D01*
X23847215Y-60111968D01*
X23847219Y-60111966D01*
X23991966Y-59967219D01*
X23991968Y-59967215D01*
X23991971Y-59967213D01*
X24044732Y-59894590D01*
X24112287Y-59801610D01*
X24205220Y-59619219D01*
X24268477Y-59424534D01*
X24300500Y-59222352D01*
X24300500Y-59017648D01*
X24268477Y-58815466D01*
X24205220Y-58620781D01*
X24205218Y-58620778D01*
X24205218Y-58620776D01*
X24153865Y-58519992D01*
X24112287Y-58438390D01*
X24104556Y-58427749D01*
X23991971Y-58272786D01*
X23847213Y-58128028D01*
X23681613Y-58007715D01*
X23681612Y-58007714D01*
X23681610Y-58007713D01*
X23604448Y-57968397D01*
X23499223Y-57914781D01*
X23304534Y-57851522D01*
X23129995Y-57823878D01*
X23102352Y-57819500D01*
X22897648Y-57819500D01*
X22873329Y-57823351D01*
X22695465Y-57851522D01*
X22500776Y-57914781D01*
X22318386Y-58007715D01*
X22152786Y-58128028D01*
X22152782Y-58128032D01*
X22101134Y-58179681D01*
X22039811Y-58213166D01*
X22013453Y-58216000D01*
X21742639Y-58216000D01*
X21675600Y-58196315D01*
X21637100Y-58157096D01*
X21619173Y-58128032D01*
X21602712Y-58101344D01*
X21478656Y-57977288D01*
X21362601Y-57905705D01*
X21329336Y-57885187D01*
X21329331Y-57885185D01*
X21327862Y-57884698D01*
X21162797Y-57830001D01*
X21162795Y-57830000D01*
X21060016Y-57819500D01*
X21060009Y-57819500D01*
X20489311Y-57819500D01*
X20422272Y-57799815D01*
X20401630Y-57783181D01*
X18987819Y-56369370D01*
X18954334Y-56308047D01*
X18951500Y-56281689D01*
X18951500Y-51848726D01*
X18971185Y-51781687D01*
X19023989Y-51735932D01*
X19093147Y-51725988D01*
X19156703Y-51755013D01*
G37*
%TD.AperFunction*%
%TA.AperFunction,Conductor*%
G36*
X25963950Y-37811185D02*
G01*
X25984592Y-37827819D01*
X32133973Y-43977200D01*
X32167458Y-44038523D01*
X32162474Y-44108215D01*
X32120602Y-44164148D01*
X32076221Y-44185215D01*
X32021481Y-44198829D01*
X32021476Y-44198831D01*
X31850977Y-44283390D01*
X31850974Y-44283392D01*
X31702633Y-44402632D01*
X31702632Y-44402633D01*
X31583392Y-44550974D01*
X31583390Y-44550977D01*
X31498831Y-44721476D01*
X31452897Y-44906175D01*
X31450000Y-44948903D01*
X31450000Y-45207413D01*
X31430315Y-45274452D01*
X31377511Y-45320207D01*
X31308353Y-45330151D01*
X31244797Y-45301126D01*
X31238319Y-45295094D01*
X24298709Y-38355484D01*
X24297686Y-38354741D01*
X24107632Y-38216657D01*
X24099061Y-38212290D01*
X23897194Y-38109433D01*
X23672564Y-38036446D01*
X23671022Y-38036076D01*
X23670496Y-38035774D01*
X23667932Y-38034941D01*
X23668106Y-38034402D01*
X23610427Y-38001291D01*
X23578258Y-37939267D01*
X23584728Y-37869698D01*
X23627783Y-37814670D01*
X23693753Y-37791655D01*
X23699959Y-37791500D01*
X25896911Y-37791500D01*
X25963950Y-37811185D01*
G37*
%TD.AperFunction*%
%TA.AperFunction,Conductor*%
G36*
X31974206Y-31711185D02*
G01*
X32019961Y-31763989D01*
X32029905Y-31833147D01*
X32000880Y-31896703D01*
X31945486Y-31933431D01*
X31800339Y-31980592D01*
X31646079Y-32059193D01*
X31646062Y-32059203D01*
X31639860Y-32063708D01*
X31639860Y-32063709D01*
X32222599Y-32646446D01*
X32222600Y-32646446D01*
X32805336Y-32063709D01*
X32799124Y-32059196D01*
X32644858Y-31980592D01*
X32499712Y-31933431D01*
X32442037Y-31893993D01*
X32414839Y-31829634D01*
X32426754Y-31760788D01*
X32473998Y-31709312D01*
X32538031Y-31691500D01*
X36888171Y-31691500D01*
X36955210Y-31711185D01*
X37000965Y-31763989D01*
X37010909Y-31833147D01*
X36981884Y-31896703D01*
X36927175Y-31933206D01*
X36830668Y-31965185D01*
X36830663Y-31965187D01*
X36681342Y-32057289D01*
X36557289Y-32181342D01*
X36465187Y-32330663D01*
X36465185Y-32330668D01*
X36459703Y-32347213D01*
X36410001Y-32497203D01*
X36410001Y-32497204D01*
X36410000Y-32497204D01*
X36399500Y-32599983D01*
X36399500Y-32770687D01*
X36379815Y-32837726D01*
X36363181Y-32858368D01*
X34425121Y-34796429D01*
X34425105Y-34796445D01*
X34423734Y-34797817D01*
X34297817Y-34923734D01*
X34284276Y-34944000D01*
X34278589Y-34952510D01*
X34278586Y-34952514D01*
X34198883Y-35071798D01*
X34198882Y-35071799D01*
X34130741Y-35236310D01*
X34130738Y-35236322D01*
X34097626Y-35402790D01*
X34097625Y-35402797D01*
X34096001Y-35410958D01*
X34096000Y-35410969D01*
X34096000Y-37725500D01*
X34076315Y-37792539D01*
X34023511Y-37838294D01*
X33972000Y-37849500D01*
X33541971Y-37849500D01*
X33541965Y-37849500D01*
X33541964Y-37849501D01*
X33536351Y-37850000D01*
X33422584Y-37860113D01*
X33226954Y-37916089D01*
X33141963Y-37960485D01*
X33046593Y-38010302D01*
X33046591Y-38010303D01*
X33046590Y-38010304D01*
X32888890Y-38138890D01*
X32763441Y-38292743D01*
X32760302Y-38296593D01*
X32729540Y-38355484D01*
X32666089Y-38476954D01*
X32624936Y-38620781D01*
X32613450Y-38660925D01*
X32610114Y-38672583D01*
X32610113Y-38672586D01*
X32599500Y-38791966D01*
X32599500Y-38840959D01*
X32579815Y-38907998D01*
X32527011Y-38953753D01*
X32457853Y-38963697D01*
X32394297Y-38934672D01*
X32387819Y-38928640D01*
X31162918Y-37703739D01*
X31129433Y-37642416D01*
X31126599Y-37616058D01*
X31126599Y-33936289D01*
X31639860Y-33936289D01*
X31639861Y-33936290D01*
X31646070Y-33940801D01*
X31800341Y-34019408D01*
X31965014Y-34072914D01*
X32136028Y-34100000D01*
X32309170Y-34100000D01*
X32480183Y-34072914D01*
X32644856Y-34019408D01*
X32799124Y-33940803D01*
X32805335Y-33936289D01*
X32805336Y-33936289D01*
X32222600Y-33353553D01*
X32222599Y-33353553D01*
X31639860Y-33936289D01*
X31126599Y-33936289D01*
X31126599Y-33908730D01*
X31134007Y-33883500D01*
X31137694Y-33857462D01*
X31144566Y-33847541D01*
X31146284Y-33841691D01*
X31156711Y-33827729D01*
X31159681Y-33824285D01*
X31165311Y-33818656D01*
X31257413Y-33669334D01*
X31276766Y-33610930D01*
X31306790Y-33562254D01*
X31869045Y-33000000D01*
X31869045Y-32999999D01*
X31829550Y-32960504D01*
X31922599Y-32960504D01*
X31922599Y-33039496D01*
X31943043Y-33115796D01*
X31982539Y-33184205D01*
X32038394Y-33240060D01*
X32106803Y-33279556D01*
X32183103Y-33300000D01*
X32262095Y-33300000D01*
X32338395Y-33279556D01*
X32406804Y-33240060D01*
X32462659Y-33184205D01*
X32502155Y-33115796D01*
X32522599Y-33039496D01*
X32522599Y-32999999D01*
X32576152Y-32999999D01*
X32576152Y-33000000D01*
X33158888Y-33582736D01*
X33163402Y-33576525D01*
X33242007Y-33422257D01*
X33295513Y-33257584D01*
X33322599Y-33086571D01*
X33322599Y-32913428D01*
X33295513Y-32742415D01*
X33242007Y-32577742D01*
X33163400Y-32423471D01*
X33158889Y-32417262D01*
X33158888Y-32417261D01*
X32576152Y-32999999D01*
X32522599Y-32999999D01*
X32522599Y-32960504D01*
X32502155Y-32884204D01*
X32462659Y-32815795D01*
X32406804Y-32759940D01*
X32338395Y-32720444D01*
X32262095Y-32700000D01*
X32183103Y-32700000D01*
X32106803Y-32720444D01*
X32038394Y-32759940D01*
X31982539Y-32815795D01*
X31943043Y-32884204D01*
X31922599Y-32960504D01*
X31829550Y-32960504D01*
X31306789Y-32437743D01*
X31276765Y-32389066D01*
X31257413Y-32330666D01*
X31165311Y-32181344D01*
X31041255Y-32057288D01*
X30938878Y-31994142D01*
X30891935Y-31965187D01*
X30891926Y-31965183D01*
X30878876Y-31960859D01*
X30876918Y-31959503D01*
X30874544Y-31959334D01*
X30848335Y-31939713D01*
X30821431Y-31921085D01*
X30820517Y-31918887D01*
X30818612Y-31917461D01*
X30807174Y-31886793D01*
X30794610Y-31856569D01*
X30795029Y-31854225D01*
X30794198Y-31851996D01*
X30801155Y-31820019D01*
X30806926Y-31787793D01*
X30808703Y-31785324D01*
X30809052Y-31783723D01*
X30830198Y-31755476D01*
X30857860Y-31727816D01*
X30919184Y-31694333D01*
X30945538Y-31691500D01*
X31907167Y-31691500D01*
X31974206Y-31711185D01*
G37*
%TD.AperFunction*%
%TA.AperFunction,Conductor*%
G36*
X84579474Y-47725921D02*
G01*
X84611859Y-47681349D01*
X84704755Y-47499031D01*
X84767988Y-47304422D01*
X84771272Y-47283689D01*
X84801201Y-47220554D01*
X84860512Y-47183622D01*
X84930374Y-47184618D01*
X84981427Y-47215404D01*
X86575181Y-48809158D01*
X86608666Y-48870481D01*
X86611500Y-48896839D01*
X86611500Y-51033689D01*
X86591815Y-51100728D01*
X86539011Y-51146483D01*
X86469853Y-51156427D01*
X86406297Y-51127402D01*
X86399819Y-51121370D01*
X83752787Y-48474338D01*
X83719302Y-48413015D01*
X83724286Y-48343323D01*
X83766158Y-48287390D01*
X83802150Y-48268726D01*
X83999029Y-48204755D01*
X84181349Y-48111859D01*
X84225921Y-48079474D01*
X83546446Y-47400000D01*
X83552661Y-47400000D01*
X83654394Y-47372741D01*
X83745606Y-47320080D01*
X83820080Y-47245606D01*
X83872741Y-47154394D01*
X83900000Y-47052661D01*
X83900000Y-47046446D01*
X84579474Y-47725921D01*
G37*
%TD.AperFunction*%
%TA.AperFunction,Conductor*%
G36*
X87503582Y-34963685D02*
G01*
X87524224Y-34980319D01*
X91902590Y-39358685D01*
X91936075Y-39420008D01*
X91931091Y-39489700D01*
X91889219Y-39545633D01*
X91862362Y-39560927D01*
X91789247Y-39591212D01*
X91789237Y-39591217D01*
X91621281Y-39703441D01*
X91478441Y-39846281D01*
X91366217Y-40014237D01*
X91366212Y-40014247D01*
X91288909Y-40200872D01*
X91288907Y-40200880D01*
X91249500Y-40398992D01*
X91249500Y-40601007D01*
X91288907Y-40799119D01*
X91288909Y-40799127D01*
X91366213Y-40985755D01*
X91419904Y-41066109D01*
X91440782Y-41132787D01*
X91422297Y-41200167D01*
X91419904Y-41203891D01*
X91366213Y-41284244D01*
X91288909Y-41470872D01*
X91288907Y-41470880D01*
X91249500Y-41668992D01*
X91249500Y-41871007D01*
X91288907Y-42069119D01*
X91288910Y-42069131D01*
X91322547Y-42150338D01*
X91330016Y-42219807D01*
X91310405Y-42264864D01*
X91310895Y-42265132D01*
X91307910Y-42270596D01*
X91307260Y-42272092D01*
X91306646Y-42272911D01*
X91306645Y-42272913D01*
X91256403Y-42407620D01*
X91256401Y-42407627D01*
X91250000Y-42467155D01*
X91250000Y-42790000D01*
X92134134Y-42790000D01*
X92158326Y-42792383D01*
X92161123Y-42792939D01*
X92173995Y-42795499D01*
X92173996Y-42795500D01*
X92173997Y-42795500D01*
X92214170Y-42795500D01*
X92199925Y-42809745D01*
X92150556Y-42895255D01*
X92125000Y-42990630D01*
X92125000Y-43089370D01*
X92150556Y-43184745D01*
X92199925Y-43270255D01*
X92219670Y-43290000D01*
X91250000Y-43290000D01*
X91241062Y-43298937D01*
X91234009Y-43308246D01*
X91230315Y-43320828D01*
X91213318Y-43335555D01*
X91199735Y-43353484D01*
X91187420Y-43357996D01*
X91177511Y-43366583D01*
X91155249Y-43369783D01*
X91134131Y-43377522D01*
X91121333Y-43374660D01*
X91108353Y-43376527D01*
X91087893Y-43367183D01*
X91065945Y-43362276D01*
X91052352Y-43350952D01*
X91044797Y-43347502D01*
X91037813Y-43340962D01*
X91029711Y-43332765D01*
X91026683Y-43328234D01*
X90900766Y-43202317D01*
X84336819Y-36638370D01*
X84303334Y-36577047D01*
X84300500Y-36550689D01*
X84300500Y-36477648D01*
X84268477Y-36275465D01*
X84231213Y-36160778D01*
X84205220Y-36080781D01*
X84205218Y-36080778D01*
X84205218Y-36080776D01*
X84171503Y-36014607D01*
X84112287Y-35898390D01*
X84083503Y-35858772D01*
X83991971Y-35732786D01*
X83847213Y-35588028D01*
X83681614Y-35467715D01*
X83675006Y-35464348D01*
X83588917Y-35420483D01*
X83538123Y-35372511D01*
X83521328Y-35304690D01*
X83543865Y-35238555D01*
X83588917Y-35199516D01*
X83681610Y-35152287D01*
X83767709Y-35089733D01*
X83847213Y-35031971D01*
X83847215Y-35031968D01*
X83847219Y-35031966D01*
X83898866Y-34980319D01*
X83960189Y-34946834D01*
X83986547Y-34944000D01*
X87436543Y-34944000D01*
X87503582Y-34963685D01*
G37*
%TD.AperFunction*%
%TA.AperFunction,Conductor*%
G36*
X95336600Y-32423685D02*
G01*
X95357242Y-32440319D01*
X100301242Y-37384319D01*
X100334727Y-37445642D01*
X100329743Y-37515334D01*
X100287871Y-37571267D01*
X100222407Y-37595684D01*
X100213561Y-37596000D01*
X95902959Y-37596000D01*
X95728320Y-37630738D01*
X95728312Y-37630740D01*
X95563797Y-37698884D01*
X95563788Y-37698889D01*
X95415734Y-37797816D01*
X95415730Y-37797819D01*
X95289819Y-37923730D01*
X95289816Y-37923734D01*
X95190889Y-38071788D01*
X95190884Y-38071797D01*
X95122740Y-38236312D01*
X95122738Y-38236318D01*
X95108254Y-38309136D01*
X95075869Y-38371047D01*
X95015153Y-38405621D01*
X94945384Y-38401881D01*
X94898956Y-38372625D01*
X91803012Y-35276681D01*
X91769527Y-35215358D01*
X91774511Y-35145666D01*
X91816383Y-35089733D01*
X91881847Y-35065316D01*
X91890693Y-35065000D01*
X92040000Y-35065000D01*
X92040000Y-34320330D01*
X92059745Y-34340075D01*
X92145255Y-34389444D01*
X92240630Y-34415000D01*
X92339370Y-34415000D01*
X92434745Y-34389444D01*
X92520255Y-34340075D01*
X92540000Y-34320330D01*
X92540000Y-35065000D01*
X93087828Y-35065000D01*
X93087844Y-35064999D01*
X93147372Y-35058598D01*
X93147379Y-35058596D01*
X93282086Y-35008354D01*
X93282093Y-35008350D01*
X93397187Y-34922190D01*
X93397190Y-34922187D01*
X93483350Y-34807093D01*
X93483354Y-34807086D01*
X93533596Y-34672379D01*
X93533598Y-34672372D01*
X93539999Y-34612844D01*
X93540000Y-34612827D01*
X93540000Y-34290000D01*
X92570330Y-34290000D01*
X92590075Y-34270255D01*
X92639444Y-34184745D01*
X92665000Y-34089370D01*
X92665000Y-33990630D01*
X92639444Y-33895255D01*
X92590075Y-33809745D01*
X92575830Y-33795500D01*
X92616004Y-33795500D01*
X92616004Y-33795499D01*
X92629473Y-33792820D01*
X92631674Y-33792383D01*
X92655866Y-33790000D01*
X93540000Y-33790000D01*
X93540000Y-33467172D01*
X93539999Y-33467155D01*
X93533598Y-33407627D01*
X93533596Y-33407620D01*
X93483354Y-33272913D01*
X93483353Y-33272911D01*
X93482745Y-33272099D01*
X93482390Y-33271148D01*
X93479103Y-33265128D01*
X93479968Y-33264655D01*
X93458329Y-33206634D01*
X93467452Y-33150338D01*
X93501091Y-33069127D01*
X93540500Y-32871003D01*
X93540500Y-32668997D01*
X93538614Y-32659515D01*
X93517267Y-32552191D01*
X93523494Y-32482599D01*
X93566358Y-32427422D01*
X93632248Y-32404178D01*
X93638884Y-32404000D01*
X95269561Y-32404000D01*
X95336600Y-32423685D01*
G37*
%TD.AperFunction*%
%TA.AperFunction,Conductor*%
G36*
X163521751Y-27520185D02*
G01*
X163535410Y-27530352D01*
X167152693Y-30630880D01*
X170392223Y-33407620D01*
X170457375Y-33463464D01*
X170495465Y-33522039D01*
X170500668Y-33556136D01*
X170651193Y-46200304D01*
X170651193Y-46200356D01*
X170651194Y-46200356D01*
X170987215Y-75434326D01*
X170968302Y-75501587D01*
X170925189Y-75543158D01*
X158028963Y-82983290D01*
X157966560Y-82999882D01*
X16124884Y-82500439D01*
X16057915Y-82480519D01*
X16012346Y-82427554D01*
X16001328Y-82375121D01*
X16006473Y-81891566D01*
X16460398Y-39222564D01*
X17143500Y-39222564D01*
X17143500Y-39225020D01*
X17143500Y-56796540D01*
X17169690Y-56928206D01*
X17178237Y-56971179D01*
X17178240Y-56971188D01*
X17246382Y-57135699D01*
X17246383Y-57135702D01*
X17246385Y-57135705D01*
X17279622Y-57185447D01*
X17345317Y-57283766D01*
X17345320Y-57283770D01*
X19093869Y-59032318D01*
X19127354Y-59093641D01*
X19122370Y-59163333D01*
X19093869Y-59207680D01*
X18568770Y-59732781D01*
X18469234Y-59832317D01*
X18406276Y-59895274D01*
X18343319Y-59958231D01*
X18330436Y-59977512D01*
X18244386Y-60106292D01*
X18244385Y-60106294D01*
X18227052Y-60148140D01*
X18227047Y-60148152D01*
X18225539Y-60151795D01*
X18176240Y-60270813D01*
X18165418Y-60325220D01*
X18163809Y-60333306D01*
X18163808Y-60333311D01*
X18141593Y-60444997D01*
X18141551Y-60445210D01*
X18141500Y-60445464D01*
X18141500Y-77750801D01*
X18146129Y-77774076D01*
X18147769Y-77782317D01*
X18176240Y-77925450D01*
X18186685Y-77950666D01*
X18190421Y-77959686D01*
X18190423Y-77959693D01*
X18244382Y-78089962D01*
X18244386Y-78089969D01*
X18312752Y-78192286D01*
X18312754Y-78192288D01*
X18342161Y-78236300D01*
X18343316Y-78238028D01*
X19291967Y-79186680D01*
X19291971Y-79186683D01*
X19440032Y-79285615D01*
X19504469Y-79312305D01*
X19553094Y-79332446D01*
X19553100Y-79332448D01*
X19556364Y-79333800D01*
X19604550Y-79353760D01*
X19618240Y-79356483D01*
X19682542Y-79369273D01*
X19779197Y-79388500D01*
X19779200Y-79388500D01*
X23184539Y-79388500D01*
X23219455Y-79381554D01*
X23345497Y-79356483D01*
X23359187Y-79353760D01*
X23407372Y-79333800D01*
X23523705Y-79285615D01*
X23635747Y-79210750D01*
X23671766Y-79186683D01*
X23797683Y-79060766D01*
X23856242Y-79002207D01*
X23856253Y-79002194D01*
X24441631Y-78416819D01*
X24502954Y-78383334D01*
X24529312Y-78380500D01*
X24602351Y-78380500D01*
X24602352Y-78380500D01*
X24804534Y-78348477D01*
X24999219Y-78285220D01*
X25181610Y-78192287D01*
X25284959Y-78117200D01*
X25347213Y-78071971D01*
X25347215Y-78071968D01*
X25347219Y-78071966D01*
X25491966Y-77927219D01*
X25491968Y-77927215D01*
X25491971Y-77927213D01*
X25570845Y-77818650D01*
X25612287Y-77761610D01*
X25705220Y-77579219D01*
X25768477Y-77384534D01*
X25800500Y-77182352D01*
X25800500Y-77109311D01*
X25820185Y-77042272D01*
X25836819Y-77021630D01*
X26242631Y-76615819D01*
X26303954Y-76582334D01*
X26330312Y-76579500D01*
X27174524Y-76579500D01*
X27241563Y-76599185D01*
X27287318Y-76651989D01*
X27297262Y-76721147D01*
X27292455Y-76741817D01*
X27281524Y-76775457D01*
X27281523Y-76775464D01*
X27249500Y-76977648D01*
X27249500Y-77182351D01*
X27281522Y-77384534D01*
X27344781Y-77579223D01*
X27437715Y-77761613D01*
X27558028Y-77927213D01*
X27702786Y-78071971D01*
X27813041Y-78152074D01*
X27868390Y-78192287D01*
X27954796Y-78236313D01*
X28050776Y-78285218D01*
X28050778Y-78285218D01*
X28050781Y-78285220D01*
X28155137Y-78319127D01*
X28245465Y-78348477D01*
X28346557Y-78364488D01*
X28447648Y-78380500D01*
X28520689Y-78380500D01*
X28587728Y-78400185D01*
X28608370Y-78416819D01*
X29378229Y-79186680D01*
X29378232Y-79186683D01*
X29436958Y-79225922D01*
X29526295Y-79285615D01*
X29526301Y-79285617D01*
X29526302Y-79285618D01*
X29639357Y-79332446D01*
X29639363Y-79332448D01*
X29642627Y-79333800D01*
X29690813Y-79353760D01*
X29704503Y-79356483D01*
X29768805Y-79369273D01*
X29865460Y-79388500D01*
X29865463Y-79388500D01*
X103596329Y-79388500D01*
X103631245Y-79381554D01*
X103757287Y-79356483D01*
X103770977Y-79353760D01*
X103819162Y-79333800D01*
X103935495Y-79285615D01*
X104047537Y-79210750D01*
X104083556Y-79186683D01*
X104209473Y-79060766D01*
X106614683Y-76655556D01*
X106713615Y-76507494D01*
X106776825Y-76354890D01*
X106781760Y-76342977D01*
X106786100Y-76321157D01*
X106787708Y-76315727D01*
X106803707Y-76290953D01*
X106817371Y-76264830D01*
X106822445Y-76261940D01*
X106825614Y-76257034D01*
X106852462Y-76244845D01*
X106878085Y-76230253D01*
X106883917Y-76230565D01*
X106889235Y-76228151D01*
X106918409Y-76232412D01*
X106947855Y-76233989D01*
X106957485Y-76238119D01*
X106958371Y-76238249D01*
X106958938Y-76238742D01*
X106962897Y-76240441D01*
X106971541Y-76244845D01*
X107050776Y-76285218D01*
X107050778Y-76285218D01*
X107050781Y-76285220D01*
X107144672Y-76315727D01*
X107245465Y-76348477D01*
X107285955Y-76354890D01*
X107447648Y-76380500D01*
X107447649Y-76380500D01*
X107652351Y-76380500D01*
X107652352Y-76380500D01*
X107854534Y-76348477D01*
X108049219Y-76285220D01*
X108231610Y-76192287D01*
X108337610Y-76115274D01*
X108397213Y-76071971D01*
X108397215Y-76071968D01*
X108397219Y-76071966D01*
X108541966Y-75927219D01*
X108541968Y-75927215D01*
X108541971Y-75927213D01*
X108618081Y-75822455D01*
X108662287Y-75761610D01*
X108755220Y-75579219D01*
X108818477Y-75384534D01*
X108850500Y-75182352D01*
X108850500Y-74977648D01*
X108834145Y-74874386D01*
X108818477Y-74775465D01*
X108769648Y-74625185D01*
X108755220Y-74580781D01*
X108755218Y-74580778D01*
X108755218Y-74580776D01*
X108701321Y-74474999D01*
X108662287Y-74398390D01*
X108644033Y-74373265D01*
X108541971Y-74232786D01*
X108397213Y-74088028D01*
X108231613Y-73967715D01*
X108231612Y-73967714D01*
X108231610Y-73967713D01*
X108174653Y-73938691D01*
X108049223Y-73874781D01*
X107854534Y-73811522D01*
X107679995Y-73783878D01*
X107652352Y-73779500D01*
X107447648Y-73779500D01*
X107423329Y-73783351D01*
X107245465Y-73811522D01*
X107050773Y-73874782D01*
X106962901Y-73919556D01*
X106894232Y-73932452D01*
X106829492Y-73906175D01*
X106790250Y-73851930D01*
X106786888Y-73842803D01*
X106781760Y-73817022D01*
X106743256Y-73724066D01*
X106713615Y-73652505D01*
X106713613Y-73652503D01*
X106713613Y-73652501D01*
X106614683Y-73504443D01*
X106614680Y-73504439D01*
X99497560Y-66387319D01*
X99497511Y-66387287D01*
X99497354Y-66387182D01*
X99460668Y-66362668D01*
X99379784Y-66308623D01*
X99347468Y-66269953D01*
X99334982Y-66255013D01*
X99326275Y-66185688D01*
X99330742Y-66167222D01*
X99388477Y-65989534D01*
X99420500Y-65787352D01*
X99420500Y-65582648D01*
X99401490Y-65462623D01*
X99388477Y-65380465D01*
X99351911Y-65267928D01*
X99325220Y-65185781D01*
X99325218Y-65185778D01*
X99325218Y-65185776D01*
X99279515Y-65096080D01*
X99232287Y-65003390D01*
X99130158Y-64862820D01*
X99111969Y-64837784D01*
X99091833Y-64817648D01*
X102199500Y-64817648D01*
X102199500Y-65022351D01*
X102231522Y-65224534D01*
X102294781Y-65419223D01*
X102358691Y-65544653D01*
X102378051Y-65582648D01*
X102387715Y-65601613D01*
X102508028Y-65767213D01*
X102652786Y-65911971D01*
X102797100Y-66016819D01*
X102818390Y-66032287D01*
X102924451Y-66086328D01*
X103000776Y-66125218D01*
X103000778Y-66125218D01*
X103000781Y-66125220D01*
X103105137Y-66159127D01*
X103195465Y-66188477D01*
X103230822Y-66194077D01*
X103397648Y-66220500D01*
X103397649Y-66220500D01*
X103602351Y-66220500D01*
X103602352Y-66220500D01*
X103804534Y-66188477D01*
X103999219Y-66125220D01*
X104181610Y-66032287D01*
X104298349Y-65947472D01*
X104347213Y-65911971D01*
X104347215Y-65911968D01*
X104347219Y-65911966D01*
X104491966Y-65767219D01*
X104491968Y-65767215D01*
X104491971Y-65767213D01*
X104567722Y-65662949D01*
X104612287Y-65601610D01*
X104705220Y-65419219D01*
X104768477Y-65224534D01*
X104800500Y-65022352D01*
X104800500Y-64817648D01*
X106249500Y-64817648D01*
X106249500Y-65022351D01*
X106281522Y-65224534D01*
X106344781Y-65419223D01*
X106408691Y-65544653D01*
X106428051Y-65582648D01*
X106437715Y-65601613D01*
X106558028Y-65767213D01*
X106702786Y-65911971D01*
X106847100Y-66016819D01*
X106868390Y-66032287D01*
X106974451Y-66086328D01*
X107050776Y-66125218D01*
X107050778Y-66125218D01*
X107050781Y-66125220D01*
X107155137Y-66159127D01*
X107245465Y-66188477D01*
X107280822Y-66194077D01*
X107447648Y-66220500D01*
X107447649Y-66220500D01*
X107652351Y-66220500D01*
X107652352Y-66220500D01*
X107854534Y-66188477D01*
X108049219Y-66125220D01*
X108231610Y-66032287D01*
X108348349Y-65947472D01*
X108397213Y-65911971D01*
X108397215Y-65911968D01*
X108397219Y-65911966D01*
X108541966Y-65767219D01*
X108541968Y-65767215D01*
X108541971Y-65767213D01*
X108617722Y-65662949D01*
X108662287Y-65601610D01*
X108755220Y-65419219D01*
X108818477Y-65224534D01*
X108850500Y-65022352D01*
X108850500Y-64817648D01*
X108841985Y-64763886D01*
X108818477Y-64615465D01*
X108755218Y-64420776D01*
X108691907Y-64296523D01*
X108662287Y-64238390D01*
X108620902Y-64181428D01*
X108541971Y-64072786D01*
X108397213Y-63928028D01*
X108231613Y-63807715D01*
X108231612Y-63807714D01*
X108231610Y-63807713D01*
X108174653Y-63778691D01*
X108049223Y-63714781D01*
X107854534Y-63651522D01*
X107679995Y-63623878D01*
X107652352Y-63619500D01*
X107447648Y-63619500D01*
X107423329Y-63623351D01*
X107245465Y-63651522D01*
X107050776Y-63714781D01*
X106868386Y-63807715D01*
X106702786Y-63928028D01*
X106558028Y-64072786D01*
X106437715Y-64238386D01*
X106344781Y-64420776D01*
X106281522Y-64615465D01*
X106249500Y-64817648D01*
X104800500Y-64817648D01*
X104791985Y-64763886D01*
X104768477Y-64615465D01*
X104705218Y-64420776D01*
X104641907Y-64296523D01*
X104612287Y-64238390D01*
X104570902Y-64181428D01*
X104491971Y-64072786D01*
X104347213Y-63928028D01*
X104181613Y-63807715D01*
X104181612Y-63807714D01*
X104181610Y-63807713D01*
X104124653Y-63778691D01*
X103999223Y-63714781D01*
X103804534Y-63651522D01*
X103629995Y-63623878D01*
X103602352Y-63619500D01*
X103397648Y-63619500D01*
X103373329Y-63623351D01*
X103195465Y-63651522D01*
X103000776Y-63714781D01*
X102818386Y-63807715D01*
X102652786Y-63928028D01*
X102508028Y-64072786D01*
X102387715Y-64238386D01*
X102294781Y-64420776D01*
X102231522Y-64615465D01*
X102199500Y-64817648D01*
X99091833Y-64817648D01*
X98967213Y-64693028D01*
X98801613Y-64572715D01*
X98801612Y-64572714D01*
X98801610Y-64572713D01*
X98744653Y-64543691D01*
X98619223Y-64479781D01*
X98424534Y-64416522D01*
X98249995Y-64388878D01*
X98222352Y-64384500D01*
X98222351Y-64384500D01*
X98149312Y-64384500D01*
X98082273Y-64364815D01*
X98061631Y-64348181D01*
X97291770Y-63578320D01*
X97291766Y-63578317D01*
X97143706Y-63479386D01*
X97143705Y-63479385D01*
X97143702Y-63479383D01*
X97143699Y-63479382D01*
X97034936Y-63434332D01*
X97034935Y-63434331D01*
X97027372Y-63431199D01*
X96979187Y-63411240D01*
X96862522Y-63388034D01*
X96858595Y-63387253D01*
X96858592Y-63387252D01*
X96804538Y-63376500D01*
X96804537Y-63376500D01*
X96804536Y-63376500D01*
X86913537Y-63376500D01*
X86735463Y-63376500D01*
X86735462Y-63376500D01*
X86716134Y-63380344D01*
X86677478Y-63388034D01*
X86560820Y-63411238D01*
X86560811Y-63411240D01*
X86512627Y-63431199D01*
X86396301Y-63479381D01*
X86396288Y-63479388D01*
X86248233Y-63578316D01*
X86248229Y-63578319D01*
X85478370Y-64348181D01*
X85417047Y-64381666D01*
X85390689Y-64384500D01*
X85317648Y-64384500D01*
X85293329Y-64388351D01*
X85115465Y-64416522D01*
X84920776Y-64479781D01*
X84738386Y-64572715D01*
X84572786Y-64693028D01*
X84428028Y-64837786D01*
X84307715Y-65003386D01*
X84260485Y-65096080D01*
X84212510Y-65146876D01*
X84144689Y-65163671D01*
X84078554Y-65141134D01*
X84039515Y-65096080D01*
X84019414Y-65056630D01*
X83992287Y-65003390D01*
X83971353Y-64974576D01*
X83871971Y-64837786D01*
X83727213Y-64693028D01*
X83561613Y-64572715D01*
X83561612Y-64572714D01*
X83561610Y-64572713D01*
X83504653Y-64543691D01*
X83379223Y-64479781D01*
X83184534Y-64416522D01*
X83009995Y-64388878D01*
X82982352Y-64384500D01*
X82982351Y-64384500D01*
X82909311Y-64384500D01*
X82842272Y-64364815D01*
X82821630Y-64348181D01*
X80271270Y-61797820D01*
X80271268Y-61797818D01*
X80260200Y-61790423D01*
X80243859Y-61779504D01*
X80243847Y-61779490D01*
X80243844Y-61779494D01*
X80240545Y-61777290D01*
X80234366Y-61773160D01*
X80234366Y-61773159D01*
X80123208Y-61698886D01*
X80123205Y-61698885D01*
X80013758Y-61653551D01*
X80013756Y-61653550D01*
X80006872Y-61650699D01*
X79958687Y-61630740D01*
X79871361Y-61613370D01*
X79842267Y-61607582D01*
X79784039Y-61596000D01*
X79784037Y-61596000D01*
X79784036Y-61596000D01*
X62855964Y-61596000D01*
X62855959Y-61596000D01*
X62681315Y-61630738D01*
X62681307Y-61630741D01*
X62613167Y-61658965D01*
X62613168Y-61658966D01*
X62516799Y-61698883D01*
X62516789Y-61698888D01*
X62368734Y-61797816D01*
X62368730Y-61797819D01*
X59938370Y-64228181D01*
X59877047Y-64261666D01*
X59850689Y-64264500D01*
X59777648Y-64264500D01*
X59753329Y-64268351D01*
X59575465Y-64296522D01*
X59380776Y-64359781D01*
X59198386Y-64452715D01*
X59032786Y-64573028D01*
X59032782Y-64573032D01*
X58981134Y-64624681D01*
X58919811Y-64658166D01*
X58893453Y-64661000D01*
X49796962Y-64661000D01*
X49716440Y-64677017D01*
X49635917Y-64693034D01*
X49631360Y-64693940D01*
X49622314Y-64695739D01*
X49622312Y-64695740D01*
X49457797Y-64763884D01*
X49457788Y-64763889D01*
X49318789Y-64856767D01*
X49318787Y-64856768D01*
X49309734Y-64862816D01*
X49309729Y-64862820D01*
X47381119Y-66791431D01*
X47381107Y-66791443D01*
X47379234Y-66793317D01*
X47253317Y-66919234D01*
X47230437Y-66953477D01*
X47225143Y-66961399D01*
X47225141Y-66961402D01*
X47154386Y-67067293D01*
X47154382Y-67067300D01*
X47119738Y-67150941D01*
X47119738Y-67150942D01*
X47086240Y-67231812D01*
X47086238Y-67231820D01*
X47051500Y-67406459D01*
X47051500Y-70593540D01*
X47078307Y-70728309D01*
X47072080Y-70797901D01*
X47029216Y-70853078D01*
X46963327Y-70876322D01*
X46956690Y-70876500D01*
X45976311Y-70876500D01*
X45909272Y-70856815D01*
X45888630Y-70840181D01*
X44206819Y-69158370D01*
X44173334Y-69097047D01*
X44170500Y-69070689D01*
X44170500Y-68889778D01*
X44136015Y-68672049D01*
X44067895Y-68462394D01*
X44067895Y-68462393D01*
X44033237Y-68394375D01*
X43967815Y-68265978D01*
X43911153Y-68187989D01*
X43838247Y-68087641D01*
X43838243Y-68087636D01*
X43710319Y-67959712D01*
X43676834Y-67898389D01*
X43674000Y-67872031D01*
X43674000Y-67638171D01*
X43673999Y-67638167D01*
X43673167Y-67633985D01*
X43639260Y-67463521D01*
X43593558Y-67353187D01*
X43571115Y-67299003D01*
X43531744Y-67240080D01*
X43472183Y-67150941D01*
X43472180Y-67150938D01*
X28523558Y-52202317D01*
X28523556Y-52202315D01*
X28513306Y-52195467D01*
X28513303Y-52195465D01*
X28443213Y-52148632D01*
X28443212Y-52148631D01*
X28375497Y-52103385D01*
X28375494Y-52103383D01*
X28375493Y-52103383D01*
X28375492Y-52103382D01*
X28267076Y-52058476D01*
X28267074Y-52058475D01*
X28259164Y-52055199D01*
X28210979Y-52035240D01*
X28074300Y-52008053D01*
X28070755Y-52007347D01*
X28070748Y-52007346D01*
X28036330Y-52000500D01*
X28036329Y-52000500D01*
X28036328Y-52000500D01*
X24375476Y-52000500D01*
X24308437Y-51980815D01*
X24262682Y-51928011D01*
X24252738Y-51858853D01*
X24257545Y-51838183D01*
X24268475Y-51804542D01*
X24268475Y-51804538D01*
X24268477Y-51804534D01*
X24300500Y-51602352D01*
X24300500Y-51397648D01*
X24283978Y-51293333D01*
X24268477Y-51195465D01*
X24221714Y-51051545D01*
X24205220Y-51000781D01*
X24205218Y-51000778D01*
X24205218Y-51000776D01*
X24144651Y-50881908D01*
X24112287Y-50818390D01*
X24093652Y-50792741D01*
X23991971Y-50652786D01*
X23847219Y-50508034D01*
X23835473Y-50499500D01*
X23716599Y-50413134D01*
X23716598Y-50413132D01*
X23681613Y-50387715D01*
X23681612Y-50387714D01*
X23681610Y-50387713D01*
X23616424Y-50354499D01*
X23544168Y-50317682D01*
X27650000Y-50317682D01*
X27650000Y-50522317D01*
X27682009Y-50724417D01*
X27745244Y-50919031D01*
X27838141Y-51101350D01*
X27838147Y-51101359D01*
X27870523Y-51145921D01*
X27870524Y-51145922D01*
X28550000Y-50466446D01*
X28550000Y-50472661D01*
X28577259Y-50574394D01*
X28629920Y-50665606D01*
X28704394Y-50740080D01*
X28795606Y-50792741D01*
X28897339Y-50820000D01*
X28903553Y-50820000D01*
X28224076Y-51499474D01*
X28268650Y-51531859D01*
X28450968Y-51624755D01*
X28645582Y-51687990D01*
X28847683Y-51720000D01*
X29052317Y-51720000D01*
X29254417Y-51687990D01*
X29449031Y-51624755D01*
X29631349Y-51531859D01*
X29675921Y-51499474D01*
X28996447Y-50820000D01*
X29002661Y-50820000D01*
X29104394Y-50792741D01*
X29195606Y-50740080D01*
X29270080Y-50665606D01*
X29322741Y-50574394D01*
X29350000Y-50472661D01*
X29350000Y-50466447D01*
X30029474Y-51145921D01*
X30061859Y-51101349D01*
X30154755Y-50919031D01*
X30217990Y-50724417D01*
X30250000Y-50522317D01*
X30250000Y-50317682D01*
X30217990Y-50115582D01*
X30154755Y-49920968D01*
X30061859Y-49738650D01*
X30029474Y-49694077D01*
X30029474Y-49694076D01*
X29350000Y-50373551D01*
X29350000Y-50367339D01*
X29322741Y-50265606D01*
X29270080Y-50174394D01*
X29195606Y-50099920D01*
X29104394Y-50047259D01*
X29002661Y-50020000D01*
X28996446Y-50020000D01*
X29675922Y-49340524D01*
X29675921Y-49340523D01*
X29631359Y-49308147D01*
X29631350Y-49308141D01*
X29449031Y-49215244D01*
X29254417Y-49152009D01*
X29052317Y-49120000D01*
X28847683Y-49120000D01*
X28645582Y-49152009D01*
X28450968Y-49215244D01*
X28268644Y-49308143D01*
X28224077Y-49340523D01*
X28224077Y-49340524D01*
X28903554Y-50020000D01*
X28897339Y-50020000D01*
X28795606Y-50047259D01*
X28704394Y-50099920D01*
X28629920Y-50174394D01*
X28577259Y-50265606D01*
X28550000Y-50367339D01*
X28550000Y-50373553D01*
X27870524Y-49694077D01*
X27870523Y-49694077D01*
X27838143Y-49738644D01*
X27745244Y-49920968D01*
X27682009Y-50115582D01*
X27650000Y-50317682D01*
X23544168Y-50317682D01*
X23499223Y-50294781D01*
X23304534Y-50231522D01*
X23129995Y-50203878D01*
X23102352Y-50199500D01*
X22897648Y-50199500D01*
X22873329Y-50203351D01*
X22695465Y-50231522D01*
X22500776Y-50294781D01*
X22318386Y-50387715D01*
X22152786Y-50508028D01*
X22008028Y-50652786D01*
X21887715Y-50818386D01*
X21840485Y-50911080D01*
X21792510Y-50961876D01*
X21724689Y-50978671D01*
X21658554Y-50956134D01*
X21619515Y-50911080D01*
X21591574Y-50856243D01*
X21572287Y-50818390D01*
X21553652Y-50792741D01*
X21451971Y-50652786D01*
X21307213Y-50508028D01*
X21141613Y-50387715D01*
X21141612Y-50387714D01*
X21141610Y-50387713D01*
X21076424Y-50354499D01*
X20959223Y-50294781D01*
X20764534Y-50231522D01*
X20589995Y-50203878D01*
X20562352Y-50199500D01*
X20357648Y-50199500D01*
X20333329Y-50203351D01*
X20155465Y-50231522D01*
X19960776Y-50294781D01*
X19778386Y-50387715D01*
X19612786Y-50508028D01*
X19468028Y-50652786D01*
X19347715Y-50818386D01*
X19254781Y-51000776D01*
X19193431Y-51189592D01*
X19153993Y-51247267D01*
X19089634Y-51274465D01*
X19020788Y-51262550D01*
X18969312Y-51215306D01*
X18951500Y-51151273D01*
X18951500Y-39737411D01*
X18971185Y-39670372D01*
X18987819Y-39649730D01*
X19683796Y-38953753D01*
X20391775Y-38245773D01*
X20453096Y-38212290D01*
X20522788Y-38217274D01*
X20578721Y-38259146D01*
X20603138Y-38324610D01*
X20588286Y-38392883D01*
X20584994Y-38398551D01*
X20565189Y-38430661D01*
X20565185Y-38430668D01*
X20541736Y-38501434D01*
X20510001Y-38597203D01*
X20510001Y-38597204D01*
X20510000Y-38597204D01*
X20499500Y-38699983D01*
X20499500Y-40300001D01*
X20499501Y-40300019D01*
X20510000Y-40402796D01*
X20510001Y-40402799D01*
X20565185Y-40569331D01*
X20565187Y-40569336D01*
X20584719Y-40601003D01*
X20657288Y-40718656D01*
X20781344Y-40842712D01*
X20930666Y-40934814D01*
X21097203Y-40989999D01*
X21199991Y-41000500D01*
X21262692Y-41000499D01*
X21329729Y-41020183D01*
X21350372Y-41036818D01*
X21788941Y-41475387D01*
X21768409Y-41480889D01*
X21631592Y-41559881D01*
X21519881Y-41671592D01*
X21440889Y-41808409D01*
X21435387Y-41828941D01*
X20777340Y-41170894D01*
X20717084Y-41253830D01*
X20609897Y-41464197D01*
X20536934Y-41688752D01*
X20500000Y-41921947D01*
X20500000Y-42158052D01*
X20536934Y-42391247D01*
X20609897Y-42615802D01*
X20717087Y-42826174D01*
X20777338Y-42909104D01*
X20777340Y-42909105D01*
X21435387Y-42251058D01*
X21440889Y-42271591D01*
X21519881Y-42408408D01*
X21631592Y-42520119D01*
X21768409Y-42599111D01*
X21788940Y-42604612D01*
X21130893Y-43262658D01*
X21213828Y-43322914D01*
X21424197Y-43430102D01*
X21648752Y-43503065D01*
X21648751Y-43503065D01*
X21881948Y-43540000D01*
X22118052Y-43540000D01*
X22351247Y-43503065D01*
X22575802Y-43430102D01*
X22786163Y-43322918D01*
X22786169Y-43322914D01*
X22869104Y-43262658D01*
X22869105Y-43262658D01*
X22211058Y-42604612D01*
X22231591Y-42599111D01*
X22368408Y-42520119D01*
X22480119Y-42408408D01*
X22559111Y-42271591D01*
X22564612Y-42251058D01*
X23222658Y-42909105D01*
X23222658Y-42909104D01*
X23282914Y-42826169D01*
X23282918Y-42826163D01*
X23390102Y-42615802D01*
X23463065Y-42391247D01*
X23500000Y-42158052D01*
X23500000Y-42100191D01*
X23519685Y-42033152D01*
X23572489Y-41987397D01*
X23641647Y-41977453D01*
X23705203Y-42006478D01*
X23711681Y-42012510D01*
X30694688Y-48995517D01*
X30885764Y-49134343D01*
X30978531Y-49181610D01*
X31096204Y-49241568D01*
X31096210Y-49241570D01*
X31169189Y-49265282D01*
X31169190Y-49265282D01*
X31245010Y-49289917D01*
X31320829Y-49314553D01*
X31554101Y-49351500D01*
X31554106Y-49351500D01*
X32233691Y-49351500D01*
X32300730Y-49371185D01*
X32321372Y-49387819D01*
X32953554Y-50020000D01*
X32947339Y-50020000D01*
X32845606Y-50047259D01*
X32754394Y-50099920D01*
X32679920Y-50174394D01*
X32627259Y-50265606D01*
X32600000Y-50367339D01*
X32600000Y-50373553D01*
X31920524Y-49694077D01*
X31920523Y-49694077D01*
X31888143Y-49738644D01*
X31795244Y-49920968D01*
X31732009Y-50115582D01*
X31700000Y-50317682D01*
X31700000Y-50522317D01*
X31732009Y-50724417D01*
X31795244Y-50919031D01*
X31888141Y-51101350D01*
X31888147Y-51101359D01*
X31920523Y-51145921D01*
X31920524Y-51145922D01*
X32600000Y-50466446D01*
X32600000Y-50472661D01*
X32627259Y-50574394D01*
X32679920Y-50665606D01*
X32754394Y-50740080D01*
X32845606Y-50792741D01*
X32947339Y-50820000D01*
X32953553Y-50820000D01*
X32274076Y-51499474D01*
X32318650Y-51531859D01*
X32500968Y-51624755D01*
X32695582Y-51687990D01*
X32897683Y-51720000D01*
X33102317Y-51720000D01*
X33304417Y-51687990D01*
X33499031Y-51624755D01*
X33681349Y-51531859D01*
X33725921Y-51499474D01*
X33046447Y-50820000D01*
X33052661Y-50820000D01*
X33154394Y-50792741D01*
X33245606Y-50740080D01*
X33320080Y-50665606D01*
X33372741Y-50574394D01*
X33400000Y-50472661D01*
X33400000Y-50466447D01*
X34079474Y-51145921D01*
X34111859Y-51101349D01*
X34204755Y-50919031D01*
X34267990Y-50724417D01*
X34300000Y-50522317D01*
X34300000Y-50317682D01*
X34267990Y-50115582D01*
X34204755Y-49920968D01*
X34111859Y-49738650D01*
X34079474Y-49694077D01*
X34079474Y-49694076D01*
X33400000Y-50373551D01*
X33400000Y-50367339D01*
X33372741Y-50265606D01*
X33320080Y-50174394D01*
X33245606Y-50099920D01*
X33154394Y-50047259D01*
X33052661Y-50020000D01*
X33046446Y-50020000D01*
X33678628Y-49387819D01*
X33739951Y-49354334D01*
X33766309Y-49351500D01*
X36678111Y-49351500D01*
X36745150Y-49371185D01*
X36765792Y-49387819D01*
X43526809Y-56148838D01*
X43526831Y-56148858D01*
X47522490Y-60144517D01*
X47643290Y-60232284D01*
X47713567Y-60283344D01*
X47912132Y-60384517D01*
X47924008Y-60390568D01*
X48148632Y-60463553D01*
X48237625Y-60477648D01*
X48381903Y-60500500D01*
X48381908Y-60500500D01*
X102618097Y-60500500D01*
X102851368Y-60463553D01*
X102907040Y-60445464D01*
X103075992Y-60390568D01*
X103286434Y-60283343D01*
X103477510Y-60144517D01*
X104564517Y-59057510D01*
X104703343Y-58866434D01*
X104810568Y-58655993D01*
X104854757Y-58519992D01*
X104883553Y-58431368D01*
X104918113Y-58213166D01*
X104920500Y-58198097D01*
X104920500Y-56086042D01*
X104940185Y-56019003D01*
X104992989Y-55973248D01*
X105062147Y-55963304D01*
X105064816Y-55963815D01*
X105064820Y-55963791D01*
X105302903Y-56001500D01*
X105302908Y-56001500D01*
X117042424Y-56001500D01*
X117109463Y-56021185D01*
X117155218Y-56073989D01*
X117165162Y-56143147D01*
X117156985Y-56172953D01*
X117130740Y-56236312D01*
X117130738Y-56236320D01*
X117096000Y-56410959D01*
X117096000Y-56589040D01*
X117130738Y-56763679D01*
X117130740Y-56763687D01*
X117198884Y-56928202D01*
X117198889Y-56928211D01*
X117297816Y-57076265D01*
X117297819Y-57076269D01*
X117423730Y-57202180D01*
X117423734Y-57202183D01*
X117571788Y-57301110D01*
X117571794Y-57301113D01*
X117571795Y-57301114D01*
X117736313Y-57369260D01*
X117849932Y-57391860D01*
X117910959Y-57403999D01*
X117910963Y-57404000D01*
X117910964Y-57404000D01*
X118074189Y-57404000D01*
X118141228Y-57423685D01*
X118161870Y-57440319D01*
X131423729Y-70702179D01*
X131423733Y-70702182D01*
X131571788Y-70801110D01*
X131571797Y-70801115D01*
X131578789Y-70804011D01*
X131736313Y-70869260D01*
X131910960Y-70903999D01*
X131910962Y-70904000D01*
X131910963Y-70904000D01*
X132089039Y-70904000D01*
X132089040Y-70903999D01*
X132263686Y-70869260D01*
X132428205Y-70801114D01*
X132576267Y-70702182D01*
X132702182Y-70576267D01*
X132801114Y-70428205D01*
X132869260Y-70263686D01*
X132904000Y-70089037D01*
X132904000Y-69910963D01*
X132869260Y-69736313D01*
X132801114Y-69571795D01*
X132801113Y-69571794D01*
X132801110Y-69571788D01*
X132702182Y-69423733D01*
X132702179Y-69423729D01*
X119491630Y-56213181D01*
X119458145Y-56151858D01*
X119463129Y-56082166D01*
X119505001Y-56026233D01*
X119570465Y-56001816D01*
X119579311Y-56001500D01*
X120847097Y-56001500D01*
X121080368Y-55964553D01*
X121129860Y-55948472D01*
X121304992Y-55891568D01*
X121515434Y-55784343D01*
X121706510Y-55645517D01*
X121838486Y-55513539D01*
X121899806Y-55480057D01*
X121969498Y-55485041D01*
X122025432Y-55526912D01*
X122049849Y-55592376D01*
X122045940Y-55633316D01*
X122033730Y-55678884D01*
X121999500Y-55938872D01*
X121999500Y-56201127D01*
X122016869Y-56333051D01*
X122033730Y-56461116D01*
X122068006Y-56589036D01*
X122101602Y-56714418D01*
X122101605Y-56714428D01*
X122201953Y-56956690D01*
X122201958Y-56956700D01*
X122333075Y-57183803D01*
X122492718Y-57391851D01*
X122492726Y-57391860D01*
X122678140Y-57577274D01*
X122678148Y-57577281D01*
X122886196Y-57736924D01*
X123113299Y-57868041D01*
X123113309Y-57868046D01*
X123355571Y-57968394D01*
X123355581Y-57968398D01*
X123608884Y-58036270D01*
X123868880Y-58070500D01*
X123868887Y-58070500D01*
X124131113Y-58070500D01*
X124131120Y-58070500D01*
X124391116Y-58036270D01*
X124644419Y-57968398D01*
X124886697Y-57868043D01*
X125113803Y-57736924D01*
X125321851Y-57577282D01*
X125321855Y-57577277D01*
X125321860Y-57577274D01*
X125507274Y-57391860D01*
X125507277Y-57391855D01*
X125507282Y-57391851D01*
X125666924Y-57183803D01*
X125798043Y-56956697D01*
X125898398Y-56714419D01*
X125966270Y-56461116D01*
X125997072Y-56227156D01*
X126025337Y-56163262D01*
X126083662Y-56124791D01*
X126153527Y-56123960D01*
X126207691Y-56155663D01*
X135963181Y-65911153D01*
X135996666Y-65972476D01*
X135999500Y-65998834D01*
X135999500Y-71105500D01*
X135979815Y-71172539D01*
X135927011Y-71218294D01*
X135875500Y-71229500D01*
X133959629Y-71229500D01*
X133959623Y-71229501D01*
X133900016Y-71235908D01*
X133765171Y-71286202D01*
X133765164Y-71286206D01*
X133649955Y-71372452D01*
X133649952Y-71372455D01*
X133563706Y-71487664D01*
X133563702Y-71487671D01*
X133513408Y-71622517D01*
X133507001Y-71682116D01*
X133507000Y-71682135D01*
X133507000Y-73777870D01*
X133507001Y-73777876D01*
X133513408Y-73837483D01*
X133563702Y-73972328D01*
X133563706Y-73972335D01*
X133649952Y-74087544D01*
X133649955Y-74087547D01*
X133765164Y-74173793D01*
X133765171Y-74173797D01*
X133900017Y-74224091D01*
X133900016Y-74224091D01*
X133945255Y-74228955D01*
X134009806Y-74255693D01*
X134049655Y-74313085D01*
X134056000Y-74352244D01*
X134056000Y-74774189D01*
X134036315Y-74841228D01*
X134019681Y-74861870D01*
X131718370Y-77163181D01*
X131657047Y-77196666D01*
X131630689Y-77199500D01*
X131557648Y-77199500D01*
X131533329Y-77203351D01*
X131355465Y-77231522D01*
X131160776Y-77294781D01*
X130978386Y-77387715D01*
X130812786Y-77508028D01*
X130812782Y-77508032D01*
X130761134Y-77559681D01*
X130699811Y-77593166D01*
X130673453Y-77596000D01*
X127655811Y-77596000D01*
X127588772Y-77576315D01*
X127568130Y-77559681D01*
X124381714Y-74373265D01*
X124348229Y-74311942D01*
X124353213Y-74242250D01*
X124395085Y-74186317D01*
X124431072Y-74167655D01*
X124575992Y-74120568D01*
X124786433Y-74013343D01*
X124977510Y-73874517D01*
X125144517Y-73707510D01*
X125181784Y-73656215D01*
X125237113Y-73613552D01*
X125306726Y-73607573D01*
X125368521Y-73640179D01*
X125382417Y-73656214D01*
X125431714Y-73724066D01*
X125593434Y-73885786D01*
X125778462Y-74020217D01*
X125941936Y-74103511D01*
X125982244Y-74124049D01*
X126199751Y-74194721D01*
X126199752Y-74194721D01*
X126199755Y-74194722D01*
X126425646Y-74230500D01*
X126425647Y-74230500D01*
X126654353Y-74230500D01*
X126654354Y-74230500D01*
X126880245Y-74194722D01*
X126880248Y-74194721D01*
X126880249Y-74194721D01*
X127097755Y-74124049D01*
X127097755Y-74124048D01*
X127097758Y-74124048D01*
X127301538Y-74020217D01*
X127486566Y-73885786D01*
X127648286Y-73724066D01*
X127782717Y-73539038D01*
X127886548Y-73335258D01*
X127918259Y-73237661D01*
X127957221Y-73117749D01*
X127957221Y-73117748D01*
X127957222Y-73117745D01*
X127993000Y-72891854D01*
X127993000Y-72568146D01*
X127957222Y-72342255D01*
X127957221Y-72342251D01*
X127957221Y-72342250D01*
X127886549Y-72124744D01*
X127846613Y-72046366D01*
X127782717Y-71920962D01*
X127648286Y-71735934D01*
X127486566Y-71574214D01*
X127301538Y-71439783D01*
X127283557Y-71430621D01*
X127097755Y-71335950D01*
X126880248Y-71265278D01*
X126680909Y-71233706D01*
X126654354Y-71229500D01*
X126425646Y-71229500D01*
X126399091Y-71233706D01*
X126199753Y-71265278D01*
X126199750Y-71265278D01*
X125982244Y-71335950D01*
X125778458Y-71439785D01*
X125697385Y-71498688D01*
X125631579Y-71522168D01*
X125563525Y-71506342D01*
X125514830Y-71456237D01*
X125500500Y-71398370D01*
X125500500Y-70797402D01*
X125463553Y-70564131D01*
X125419387Y-70428205D01*
X125390568Y-70339508D01*
X125390566Y-70339505D01*
X125390566Y-70339503D01*
X125308088Y-70177632D01*
X125283343Y-70129067D01*
X125259796Y-70096657D01*
X125144518Y-69937990D01*
X124591010Y-69384483D01*
X124399934Y-69245657D01*
X124189496Y-69138433D01*
X123964868Y-69065446D01*
X123731597Y-69028500D01*
X123731592Y-69028500D01*
X119424592Y-69028500D01*
X119188408Y-69028500D01*
X119188403Y-69028500D01*
X118955131Y-69065446D01*
X118730503Y-69138433D01*
X118520066Y-69245657D01*
X118411050Y-69324862D01*
X118328990Y-69384483D01*
X118328988Y-69384485D01*
X118328987Y-69384485D01*
X118161985Y-69551487D01*
X118161985Y-69551488D01*
X118161983Y-69551490D01*
X118126605Y-69600184D01*
X118023157Y-69742566D01*
X117915933Y-69953003D01*
X117842946Y-70177631D01*
X117806000Y-70410902D01*
X117806000Y-75049097D01*
X117842946Y-75282368D01*
X117915933Y-75506996D01*
X118023157Y-75717433D01*
X118161983Y-75908510D01*
X118328990Y-76075517D01*
X118520067Y-76214343D01*
X118579931Y-76244845D01*
X118730503Y-76321566D01*
X118730505Y-76321566D01*
X118730508Y-76321568D01*
X118796398Y-76342977D01*
X118955131Y-76394553D01*
X119188403Y-76431500D01*
X119188408Y-76431500D01*
X119424592Y-76431500D01*
X120719005Y-76431500D01*
X120786044Y-76451185D01*
X120806686Y-76467819D01*
X121347479Y-77008612D01*
X121380964Y-77069935D01*
X121375980Y-77139627D01*
X121334108Y-77195560D01*
X121279197Y-77218766D01*
X121195581Y-77232010D01*
X121000968Y-77295244D01*
X120818644Y-77388143D01*
X120774077Y-77420523D01*
X120774077Y-77420524D01*
X121453554Y-78100000D01*
X121447339Y-78100000D01*
X121345606Y-78127259D01*
X121254394Y-78179920D01*
X121179920Y-78254394D01*
X121127259Y-78345606D01*
X121100000Y-78447339D01*
X121100000Y-78453553D01*
X120420524Y-77774077D01*
X120420523Y-77774077D01*
X120388143Y-77818644D01*
X120295244Y-78000968D01*
X120232009Y-78195582D01*
X120200000Y-78397682D01*
X120200000Y-78602317D01*
X120232009Y-78804417D01*
X120295244Y-78999031D01*
X120388141Y-79181350D01*
X120388147Y-79181359D01*
X120420523Y-79225921D01*
X120420524Y-79225922D01*
X121100000Y-78546446D01*
X121100000Y-78552661D01*
X121127259Y-78654394D01*
X121179920Y-78745606D01*
X121254394Y-78820080D01*
X121345606Y-78872741D01*
X121447339Y-78900000D01*
X121453553Y-78900000D01*
X120774076Y-79579474D01*
X120818650Y-79611859D01*
X121000968Y-79704755D01*
X121195582Y-79767990D01*
X121397683Y-79800000D01*
X121602317Y-79800000D01*
X121804417Y-79767990D01*
X121999031Y-79704755D01*
X122181349Y-79611859D01*
X122225921Y-79579474D01*
X121546447Y-78900000D01*
X121552661Y-78900000D01*
X121654394Y-78872741D01*
X121745606Y-78820080D01*
X121820080Y-78745606D01*
X121872741Y-78654394D01*
X121900000Y-78552661D01*
X121900000Y-78546446D01*
X122579474Y-79225921D01*
X122611859Y-79181349D01*
X122704755Y-78999031D01*
X122767990Y-78804417D01*
X122767990Y-78804416D01*
X122781233Y-78720804D01*
X122811162Y-78657669D01*
X122870473Y-78620737D01*
X122940336Y-78621735D01*
X122991385Y-78652519D01*
X124555743Y-80216877D01*
X125984385Y-81645519D01*
X125984390Y-81645523D01*
X126087587Y-81720499D01*
X126175461Y-81784343D01*
X126309553Y-81852666D01*
X126385897Y-81891566D01*
X126385899Y-81891566D01*
X126385902Y-81891568D01*
X126506306Y-81930689D01*
X126610525Y-81964553D01*
X126843797Y-82001500D01*
X126843802Y-82001500D01*
X145946939Y-82001500D01*
X146180210Y-81964553D01*
X146404834Y-81891568D01*
X146615276Y-81784343D01*
X146806352Y-81645517D01*
X148145518Y-80306352D01*
X148175181Y-80265523D01*
X148230510Y-80222858D01*
X148300123Y-80216877D01*
X148361919Y-80249482D01*
X148396277Y-80310321D01*
X148399500Y-80338408D01*
X148399500Y-81020001D01*
X148399501Y-81020018D01*
X148410000Y-81122796D01*
X148410001Y-81122799D01*
X148465185Y-81289331D01*
X148465186Y-81289334D01*
X148557288Y-81438656D01*
X148681344Y-81562712D01*
X148830666Y-81654814D01*
X148997203Y-81709999D01*
X149099991Y-81720500D01*
X151900008Y-81720499D01*
X152002797Y-81709999D01*
X152169334Y-81654814D01*
X152318656Y-81562712D01*
X152442712Y-81438656D01*
X152534814Y-81289334D01*
X152589999Y-81122797D01*
X152600500Y-81020009D01*
X152600499Y-78219992D01*
X152598005Y-78195582D01*
X152589999Y-78117203D01*
X152589998Y-78117200D01*
X152584298Y-78100000D01*
X152534814Y-77950666D01*
X152442712Y-77801344D01*
X152318656Y-77677288D01*
X152218410Y-77615456D01*
X152169336Y-77585187D01*
X152169331Y-77585185D01*
X152092365Y-77559681D01*
X152085495Y-77557404D01*
X152028051Y-77517632D01*
X152001228Y-77453116D01*
X152000500Y-77439699D01*
X152000500Y-72052889D01*
X152020185Y-71985850D01*
X152036819Y-71965208D01*
X157985209Y-66016819D01*
X158046532Y-65983334D01*
X158072890Y-65980500D01*
X158137667Y-65980500D01*
X158137674Y-65980500D01*
X158410666Y-65944560D01*
X158676632Y-65873295D01*
X158931021Y-65767923D01*
X159169479Y-65630249D01*
X159387928Y-65462628D01*
X159582628Y-65267928D01*
X159750249Y-65049479D01*
X159887923Y-64811021D01*
X159993295Y-64556632D01*
X160064560Y-64290666D01*
X160100500Y-64017674D01*
X160100500Y-63742326D01*
X160064560Y-63469334D01*
X159993295Y-63203368D01*
X159887923Y-62948979D01*
X159887921Y-62948976D01*
X159887919Y-62948971D01*
X159838732Y-62863778D01*
X159750249Y-62710521D01*
X159582632Y-62492077D01*
X159582629Y-62492073D01*
X159582623Y-62492066D01*
X159387933Y-62297376D01*
X159387926Y-62297370D01*
X159169483Y-62129754D01*
X159169482Y-62129753D01*
X159169479Y-62129751D01*
X159074407Y-62074861D01*
X158931028Y-61992080D01*
X158931017Y-61992075D01*
X158676630Y-61886704D01*
X158533962Y-61848477D01*
X158410666Y-61815440D01*
X158410660Y-61815439D01*
X158410655Y-61815438D01*
X158137684Y-61779501D01*
X158137679Y-61779500D01*
X158137674Y-61779500D01*
X157862326Y-61779500D01*
X157862320Y-61779500D01*
X157862315Y-61779501D01*
X157589344Y-61815438D01*
X157589337Y-61815439D01*
X157589334Y-61815440D01*
X157533125Y-61830500D01*
X157323369Y-61886704D01*
X157068982Y-61992075D01*
X157068971Y-61992080D01*
X156830516Y-62129754D01*
X156612073Y-62297370D01*
X156612066Y-62297376D01*
X156417376Y-62492066D01*
X156417370Y-62492073D01*
X156249754Y-62710516D01*
X156112080Y-62948971D01*
X156112075Y-62948982D01*
X156006704Y-63203369D01*
X155935441Y-63469331D01*
X155935438Y-63469344D01*
X155899501Y-63742315D01*
X155899500Y-63742332D01*
X155899500Y-63807110D01*
X155879815Y-63874149D01*
X155863181Y-63894791D01*
X149355484Y-70402488D01*
X149216657Y-70593565D01*
X149174742Y-70675829D01*
X149132827Y-70758092D01*
X149132826Y-70758092D01*
X149109430Y-70804010D01*
X149109430Y-70804011D01*
X149036447Y-71028627D01*
X149036447Y-71028630D01*
X148999500Y-71261902D01*
X148999500Y-77439699D01*
X148979815Y-77506738D01*
X148927011Y-77552493D01*
X148914507Y-77557403D01*
X148907635Y-77559681D01*
X148830668Y-77585185D01*
X148830659Y-77585189D01*
X148690596Y-77671581D01*
X148623204Y-77690021D01*
X148556540Y-77669098D01*
X148511771Y-77615456D01*
X148501500Y-77566042D01*
X148501500Y-77553060D01*
X148464553Y-77319789D01*
X148424188Y-77195560D01*
X148391568Y-77095166D01*
X148391566Y-77095163D01*
X148391566Y-77095161D01*
X148284342Y-76884723D01*
X148266851Y-76860650D01*
X148266850Y-76860648D01*
X148145518Y-76693648D01*
X143037352Y-71585483D01*
X142846276Y-71446657D01*
X142816089Y-71431276D01*
X142635838Y-71339433D01*
X142411210Y-71266446D01*
X142177939Y-71229500D01*
X142177934Y-71229500D01*
X139921908Y-71229500D01*
X139921903Y-71229500D01*
X139688631Y-71266446D01*
X139464003Y-71339433D01*
X139253563Y-71446659D01*
X139197385Y-71487475D01*
X139185525Y-71491706D01*
X139176011Y-71499951D01*
X139153244Y-71503224D01*
X139131579Y-71510955D01*
X139119314Y-71508103D01*
X139106853Y-71509895D01*
X139085930Y-71500340D01*
X139063525Y-71495130D01*
X139054749Y-71486100D01*
X139043297Y-71480870D01*
X139030861Y-71461520D01*
X139014830Y-71445024D01*
X139011425Y-71431276D01*
X139005523Y-71422092D01*
X139000500Y-71387157D01*
X139000500Y-71312889D01*
X139020185Y-71245850D01*
X139036819Y-71225208D01*
X142559924Y-67702103D01*
X146019695Y-64242331D01*
X148399500Y-64242331D01*
X148399500Y-64517667D01*
X148399501Y-64517684D01*
X148435438Y-64790655D01*
X148435439Y-64790660D01*
X148435440Y-64790666D01*
X148460894Y-64885661D01*
X148506704Y-65056630D01*
X148612075Y-65311017D01*
X148612080Y-65311028D01*
X148688157Y-65442795D01*
X148749751Y-65549479D01*
X148749753Y-65549482D01*
X148749754Y-65549483D01*
X148917370Y-65767926D01*
X148917376Y-65767933D01*
X149112066Y-65962623D01*
X149112073Y-65962629D01*
X149147137Y-65989534D01*
X149330521Y-66130249D01*
X149483778Y-66218732D01*
X149568971Y-66267919D01*
X149568976Y-66267921D01*
X149568979Y-66267923D01*
X149823368Y-66373295D01*
X150089334Y-66444560D01*
X150362326Y-66480500D01*
X150362333Y-66480500D01*
X150637667Y-66480500D01*
X150637674Y-66480500D01*
X150910666Y-66444560D01*
X151176632Y-66373295D01*
X151431021Y-66267923D01*
X151669479Y-66130249D01*
X151887928Y-65962628D01*
X152082628Y-65767928D01*
X152250249Y-65549479D01*
X152387923Y-65311021D01*
X152493295Y-65056632D01*
X152564560Y-64790666D01*
X152600500Y-64517674D01*
X152600500Y-64242326D01*
X152564560Y-63969334D01*
X152493295Y-63703368D01*
X152387923Y-63448979D01*
X152387921Y-63448976D01*
X152387919Y-63448971D01*
X152338732Y-63363778D01*
X152250249Y-63210521D01*
X152082628Y-62992072D01*
X152082623Y-62992066D01*
X151887933Y-62797376D01*
X151887926Y-62797370D01*
X151669483Y-62629754D01*
X151669482Y-62629753D01*
X151669479Y-62629751D01*
X151547127Y-62559111D01*
X151431028Y-62492080D01*
X151431017Y-62492075D01*
X151176630Y-62386704D01*
X151043649Y-62351072D01*
X150910666Y-62315440D01*
X150910660Y-62315439D01*
X150910655Y-62315438D01*
X150637684Y-62279501D01*
X150637679Y-62279500D01*
X150637674Y-62279500D01*
X150362326Y-62279500D01*
X150362320Y-62279500D01*
X150362315Y-62279501D01*
X150089344Y-62315438D01*
X150089337Y-62315439D01*
X150089334Y-62315440D01*
X150033125Y-62330500D01*
X149823369Y-62386704D01*
X149568982Y-62492075D01*
X149568971Y-62492080D01*
X149330516Y-62629754D01*
X149112073Y-62797370D01*
X149112066Y-62797376D01*
X148917376Y-62992066D01*
X148917370Y-62992073D01*
X148749754Y-63210516D01*
X148612080Y-63448971D01*
X148612075Y-63448982D01*
X148506704Y-63703369D01*
X148435441Y-63969331D01*
X148435438Y-63969344D01*
X148399501Y-64242315D01*
X148399500Y-64242331D01*
X146019695Y-64242331D01*
X148896405Y-61365621D01*
X148957726Y-61332138D01*
X148996687Y-61329946D01*
X148997201Y-61329998D01*
X148997203Y-61329999D01*
X149099991Y-61340500D01*
X151900008Y-61340499D01*
X152002797Y-61329999D01*
X152169334Y-61274814D01*
X152318656Y-61182712D01*
X152442712Y-61058656D01*
X152534814Y-60909334D01*
X152582264Y-60766139D01*
X152622036Y-60708696D01*
X152661646Y-60687216D01*
X152835992Y-60630568D01*
X153046434Y-60523343D01*
X153237510Y-60384517D01*
X155687821Y-57934204D01*
X155749142Y-57900721D01*
X155818834Y-57905705D01*
X155874767Y-57947577D01*
X155899184Y-58013041D01*
X155899500Y-58021887D01*
X155899500Y-60520001D01*
X155899501Y-60520018D01*
X155910000Y-60622796D01*
X155910001Y-60622799D01*
X155961211Y-60777338D01*
X155965186Y-60789334D01*
X156057288Y-60938656D01*
X156181344Y-61062712D01*
X156330666Y-61154814D01*
X156497203Y-61209999D01*
X156599991Y-61220500D01*
X159400008Y-61220499D01*
X159502797Y-61209999D01*
X159669334Y-61154814D01*
X159818656Y-61062712D01*
X159942712Y-60938656D01*
X160034814Y-60789334D01*
X160089999Y-60622797D01*
X160100500Y-60520009D01*
X160100499Y-57719992D01*
X160089999Y-57617203D01*
X160034814Y-57450666D01*
X159942712Y-57301344D01*
X159818656Y-57177288D01*
X159669334Y-57085186D01*
X159502797Y-57030001D01*
X159502795Y-57030000D01*
X159400016Y-57019500D01*
X159400009Y-57019500D01*
X156901888Y-57019500D01*
X156834849Y-56999815D01*
X156789094Y-56947011D01*
X156779150Y-56877853D01*
X156808175Y-56814297D01*
X156814207Y-56807819D01*
X158426346Y-55195681D01*
X160085208Y-53536819D01*
X160146531Y-53503334D01*
X160172889Y-53500500D01*
X160375500Y-53500500D01*
X160442539Y-53520185D01*
X160488294Y-53572989D01*
X160499500Y-53624500D01*
X160499500Y-71200451D01*
X160536446Y-71433722D01*
X160609433Y-71658350D01*
X160709322Y-71854392D01*
X160716657Y-71868788D01*
X160730998Y-71888526D01*
X160748420Y-71912505D01*
X160771899Y-71978312D01*
X160756073Y-72046366D01*
X160735782Y-72073071D01*
X156855485Y-75953369D01*
X156855484Y-75953370D01*
X156716657Y-76144447D01*
X156644082Y-76286885D01*
X156609433Y-76354885D01*
X156536446Y-76579513D01*
X156499500Y-76812784D01*
X156499500Y-76939699D01*
X156479815Y-77006738D01*
X156427011Y-77052493D01*
X156414507Y-77057403D01*
X156412862Y-77057949D01*
X156330668Y-77085185D01*
X156330663Y-77085187D01*
X156181342Y-77177289D01*
X156057289Y-77301342D01*
X155965187Y-77450663D01*
X155965185Y-77450668D01*
X155946184Y-77508011D01*
X155910001Y-77617203D01*
X155910001Y-77617204D01*
X155910000Y-77617204D01*
X155899500Y-77719983D01*
X155899500Y-80520001D01*
X155899501Y-80520018D01*
X155910000Y-80622796D01*
X155910001Y-80622799D01*
X155965185Y-80789331D01*
X155965186Y-80789334D01*
X156057288Y-80938656D01*
X156181344Y-81062712D01*
X156330666Y-81154814D01*
X156497203Y-81209999D01*
X156599991Y-81220500D01*
X159400008Y-81220499D01*
X159502797Y-81209999D01*
X159669334Y-81154814D01*
X159818656Y-81062712D01*
X159942712Y-80938656D01*
X160034814Y-80789334D01*
X160089999Y-80622797D01*
X160100500Y-80520009D01*
X160100499Y-77719992D01*
X160097437Y-77690021D01*
X160089999Y-77617203D01*
X160089998Y-77617200D01*
X160082034Y-77593166D01*
X160034814Y-77450666D01*
X159942712Y-77301344D01*
X159934819Y-77293451D01*
X159901334Y-77232128D01*
X159906318Y-77162436D01*
X159934819Y-77118089D01*
X161908136Y-75144772D01*
X163894705Y-73158203D01*
X163894712Y-73158197D01*
X163901772Y-73151137D01*
X163901774Y-73151136D01*
X164068782Y-72984128D01*
X164207607Y-72793052D01*
X164314832Y-72582610D01*
X164387817Y-72357987D01*
X164424759Y-72124744D01*
X164424764Y-72124715D01*
X164424764Y-71888520D01*
X164387817Y-71655249D01*
X164344576Y-71522168D01*
X164314832Y-71430626D01*
X164314830Y-71430623D01*
X164314830Y-71430621D01*
X164279611Y-71361501D01*
X164279610Y-71361500D01*
X164207607Y-71220184D01*
X164207605Y-71220181D01*
X164207604Y-71220179D01*
X164172991Y-71172539D01*
X164149188Y-71139777D01*
X164068782Y-71029108D01*
X163536819Y-70497145D01*
X163503334Y-70435822D01*
X163500500Y-70409464D01*
X163500500Y-64034574D01*
X163520185Y-63967535D01*
X163572989Y-63921780D01*
X163642147Y-63911836D01*
X163705703Y-63940861D01*
X163712181Y-63946893D01*
X165449805Y-65684517D01*
X165640881Y-65823343D01*
X165738918Y-65873295D01*
X165851320Y-65930567D01*
X165851322Y-65930567D01*
X165851323Y-65930568D01*
X165853265Y-65931199D01*
X165880046Y-65943592D01*
X165930659Y-65974810D01*
X165930660Y-65974810D01*
X165930666Y-65974814D01*
X166097203Y-66029999D01*
X166199991Y-66040500D01*
X166284555Y-66040499D01*
X166284559Y-66040500D01*
X166309223Y-66040500D01*
X167128082Y-66040500D01*
X167128094Y-66040499D01*
X167800002Y-66040499D01*
X167800008Y-66040499D01*
X167902797Y-66029999D01*
X168069334Y-65974814D01*
X168218656Y-65882712D01*
X168342712Y-65758656D01*
X168434814Y-65609334D01*
X168489999Y-65442797D01*
X168500500Y-65340009D01*
X168500500Y-64544186D01*
X168500500Y-64421908D01*
X168500500Y-64414313D01*
X168500499Y-64414295D01*
X168500499Y-63739998D01*
X168500498Y-63739981D01*
X168489999Y-63637203D01*
X168489998Y-63637200D01*
X168437704Y-63479388D01*
X168434814Y-63470666D01*
X168342712Y-63321344D01*
X168218656Y-63197288D01*
X168069334Y-63105186D01*
X167902797Y-63050001D01*
X167902795Y-63050000D01*
X167800016Y-63039500D01*
X167800009Y-63039500D01*
X167737308Y-63039500D01*
X167670269Y-63019815D01*
X167649627Y-63003181D01*
X167211058Y-62564612D01*
X167231591Y-62559111D01*
X167368408Y-62480119D01*
X167480119Y-62368408D01*
X167559111Y-62231591D01*
X167564612Y-62211058D01*
X168222658Y-62869105D01*
X168222658Y-62869104D01*
X168282914Y-62786169D01*
X168282918Y-62786163D01*
X168390102Y-62575802D01*
X168463065Y-62351247D01*
X168500000Y-62118052D01*
X168500000Y-61881947D01*
X168463065Y-61648752D01*
X168390102Y-61424197D01*
X168282914Y-61213828D01*
X168222658Y-61130894D01*
X168222658Y-61130893D01*
X167564612Y-61788940D01*
X167559111Y-61768409D01*
X167480119Y-61631592D01*
X167368408Y-61519881D01*
X167231591Y-61440889D01*
X167211058Y-61435387D01*
X167869105Y-60777340D01*
X167869104Y-60777338D01*
X167786174Y-60717087D01*
X167575802Y-60609897D01*
X167351247Y-60536934D01*
X167351248Y-60536934D01*
X167118052Y-60500000D01*
X166881948Y-60500000D01*
X166648751Y-60536934D01*
X166461818Y-60597673D01*
X166391977Y-60599668D01*
X166332144Y-60563588D01*
X166301316Y-60500887D01*
X166299500Y-60479742D01*
X166299500Y-45864852D01*
X166277939Y-45728726D01*
X166262553Y-45631582D01*
X166262552Y-45631578D01*
X166262552Y-45631577D01*
X166189570Y-45406963D01*
X166189568Y-45406960D01*
X166189568Y-45406958D01*
X166181217Y-45390568D01*
X166150433Y-45330151D01*
X166082344Y-45196517D01*
X166030542Y-45125218D01*
X165943517Y-45005440D01*
X165417758Y-44479681D01*
X165384273Y-44418358D01*
X165389257Y-44348666D01*
X165431129Y-44292733D01*
X165496593Y-44268316D01*
X165505439Y-44268000D01*
X167400597Y-44268000D01*
X167633868Y-44231053D01*
X167653931Y-44224534D01*
X167858492Y-44158068D01*
X168068933Y-44050843D01*
X168260010Y-43912017D01*
X168427017Y-43745010D01*
X168565843Y-43553933D01*
X168673068Y-43343492D01*
X168746053Y-43118868D01*
X168747979Y-43106707D01*
X168783000Y-42885597D01*
X168783000Y-42649402D01*
X168746053Y-42416131D01*
X168699518Y-42272913D01*
X168673068Y-42191508D01*
X168673066Y-42191505D01*
X168673066Y-42191503D01*
X168595871Y-42040000D01*
X168565843Y-41981067D01*
X168427017Y-41789990D01*
X168260010Y-41622983D01*
X168068933Y-41484157D01*
X168060731Y-41479978D01*
X167858496Y-41376933D01*
X167633868Y-41303946D01*
X167400597Y-41267000D01*
X167400592Y-41267000D01*
X164824408Y-41267000D01*
X164824401Y-41267000D01*
X164716546Y-41284082D01*
X164647253Y-41275127D01*
X164593801Y-41230131D01*
X164573162Y-41163379D01*
X164591887Y-41096065D01*
X164609463Y-41073933D01*
X168427018Y-37256380D01*
X168565843Y-37065303D01*
X168673068Y-36854862D01*
X168746053Y-36630238D01*
X168750517Y-36602051D01*
X168783000Y-36396967D01*
X168783000Y-35029402D01*
X168746053Y-34796131D01*
X168686493Y-34612827D01*
X168673068Y-34571508D01*
X168673066Y-34571505D01*
X168673066Y-34571503D01*
X168614525Y-34456610D01*
X168565843Y-34361067D01*
X168427017Y-34169990D01*
X168260010Y-34002983D01*
X168068933Y-33864157D01*
X168055609Y-33857368D01*
X167858496Y-33756933D01*
X167633868Y-33683946D01*
X167400597Y-33647000D01*
X167400592Y-33647000D01*
X167164408Y-33647000D01*
X167164403Y-33647000D01*
X166931131Y-33683946D01*
X166706503Y-33756933D01*
X166496066Y-33864157D01*
X166413696Y-33924003D01*
X166304990Y-34002983D01*
X166304988Y-34002985D01*
X166304987Y-34002985D01*
X166137984Y-34169988D01*
X166112818Y-34204627D01*
X166057487Y-34247292D01*
X165987874Y-34253271D01*
X165926079Y-34220665D01*
X165912182Y-34204627D01*
X165892122Y-34177017D01*
X165887017Y-34169990D01*
X165720010Y-34002983D01*
X165528933Y-33864157D01*
X165515609Y-33857368D01*
X165318496Y-33756933D01*
X165093868Y-33683946D01*
X164860597Y-33647000D01*
X164860592Y-33647000D01*
X162889379Y-33647000D01*
X162653195Y-33647000D01*
X162653190Y-33647000D01*
X162419918Y-33683946D01*
X162195290Y-33756933D01*
X161984852Y-33864157D01*
X161793775Y-34002984D01*
X161793774Y-34002985D01*
X156212181Y-39584579D01*
X156150858Y-39618064D01*
X156081166Y-39613080D01*
X156025233Y-39571208D01*
X156000816Y-39505744D01*
X156000500Y-39496898D01*
X156000500Y-34374313D01*
X156000499Y-34374295D01*
X156000499Y-33699998D01*
X156000498Y-33699981D01*
X155989999Y-33597203D01*
X155989998Y-33597200D01*
X155976391Y-33556136D01*
X155934814Y-33430666D01*
X155842712Y-33281344D01*
X155718656Y-33157288D01*
X155575730Y-33069131D01*
X155569336Y-33065187D01*
X155569331Y-33065185D01*
X155567862Y-33064698D01*
X155402797Y-33010001D01*
X155402795Y-33010000D01*
X155300016Y-32999500D01*
X155300009Y-32999500D01*
X154618094Y-32999500D01*
X154618092Y-32999500D01*
X154381908Y-32999500D01*
X154381904Y-32999500D01*
X153699998Y-32999500D01*
X153699980Y-32999501D01*
X153597203Y-33010000D01*
X153597200Y-33010001D01*
X153430668Y-33065185D01*
X153430663Y-33065187D01*
X153281342Y-33157289D01*
X153157287Y-33281344D01*
X153127487Y-33329658D01*
X153075539Y-33376382D01*
X153006576Y-33387603D01*
X152942494Y-33359759D01*
X152941241Y-33358614D01*
X152941214Y-33358647D01*
X152937517Y-33355490D01*
X152937510Y-33355483D01*
X152746433Y-33216657D01*
X152535996Y-33109433D01*
X152311368Y-33036446D01*
X152078097Y-32999500D01*
X152078092Y-32999500D01*
X151841908Y-32999500D01*
X151841903Y-32999500D01*
X151608631Y-33036446D01*
X151384003Y-33109433D01*
X151173566Y-33216657D01*
X151092197Y-33275776D01*
X150982490Y-33355483D01*
X150982488Y-33355485D01*
X150982487Y-33355485D01*
X150815485Y-33522487D01*
X150815485Y-33522488D01*
X150815483Y-33522490D01*
X150802194Y-33540781D01*
X150676657Y-33713566D01*
X150569433Y-33924003D01*
X150496446Y-34148631D01*
X150459500Y-34381902D01*
X150459500Y-34618097D01*
X150496446Y-34851368D01*
X150569433Y-35075996D01*
X150663632Y-35260870D01*
X150676657Y-35286433D01*
X150815483Y-35477510D01*
X150982490Y-35644517D01*
X151173567Y-35783343D01*
X151272991Y-35834002D01*
X151384003Y-35890566D01*
X151384005Y-35890566D01*
X151384008Y-35890568D01*
X151499842Y-35928205D01*
X151608631Y-35963553D01*
X151841903Y-36000500D01*
X151841908Y-36000500D01*
X152078097Y-36000500D01*
X152311368Y-35963553D01*
X152535992Y-35890568D01*
X152746433Y-35783343D01*
X152802614Y-35742524D01*
X152868420Y-35719044D01*
X152936474Y-35734869D01*
X152985169Y-35784974D01*
X152999500Y-35842842D01*
X152999500Y-39327111D01*
X152979815Y-39394150D01*
X152963181Y-39414792D01*
X150514792Y-41863181D01*
X150453469Y-41896666D01*
X150427111Y-41899500D01*
X150362326Y-41899500D01*
X150362320Y-41899500D01*
X150362315Y-41899501D01*
X150089344Y-41935438D01*
X150089337Y-41935439D01*
X150089334Y-41935440D01*
X150033125Y-41950500D01*
X149823369Y-42006704D01*
X149568982Y-42112075D01*
X149568971Y-42112080D01*
X149330516Y-42249754D01*
X149112073Y-42417370D01*
X149112066Y-42417376D01*
X148917376Y-42612066D01*
X148917370Y-42612073D01*
X148749754Y-42830516D01*
X148612080Y-43068971D01*
X148612075Y-43068982D01*
X148506704Y-43323369D01*
X148435441Y-43589331D01*
X148435438Y-43589344D01*
X148399501Y-43862315D01*
X148399500Y-43862332D01*
X148399500Y-44137667D01*
X148399501Y-44137684D01*
X148435438Y-44410655D01*
X148435439Y-44410660D01*
X148435440Y-44410666D01*
X148459763Y-44501442D01*
X148506704Y-44676630D01*
X148612075Y-44931017D01*
X148612080Y-44931028D01*
X148670541Y-45032284D01*
X148749751Y-45169479D01*
X148749753Y-45169482D01*
X148749754Y-45169483D01*
X148917370Y-45387926D01*
X148917375Y-45387932D01*
X148963180Y-45433736D01*
X148996666Y-45495059D01*
X148999500Y-45521418D01*
X148999500Y-46116097D01*
X149036446Y-46349368D01*
X149109433Y-46573996D01*
X149173664Y-46700055D01*
X149216657Y-46784434D01*
X149355483Y-46975510D01*
X154524490Y-52144517D01*
X154715566Y-52283343D01*
X154926008Y-52390568D01*
X154926010Y-52390569D01*
X155038319Y-52427060D01*
X155150631Y-52463552D01*
X155383908Y-52500500D01*
X155383909Y-52500500D01*
X155620091Y-52500500D01*
X155620092Y-52500500D01*
X155853368Y-52463552D01*
X156077992Y-52390568D01*
X156288433Y-52283343D01*
X156479510Y-52144517D01*
X156646517Y-51977510D01*
X156785343Y-51786433D01*
X156892568Y-51575992D01*
X156965552Y-51351368D01*
X157002500Y-51118092D01*
X157002500Y-50881908D01*
X156965552Y-50648631D01*
X156905948Y-50465187D01*
X156892569Y-50424010D01*
X156892568Y-50424007D01*
X156822684Y-50286853D01*
X156809788Y-50218184D01*
X156836064Y-50153443D01*
X156893171Y-50113186D01*
X156962976Y-50110194D01*
X157020850Y-50142877D01*
X158040291Y-51162318D01*
X158073776Y-51223641D01*
X158068792Y-51293333D01*
X158040291Y-51337680D01*
X152226009Y-57151962D01*
X152164686Y-57185447D01*
X152099324Y-57181987D01*
X152002797Y-57150001D01*
X152002795Y-57150000D01*
X151900010Y-57139500D01*
X149099998Y-57139500D01*
X149099981Y-57139501D01*
X148997203Y-57150000D01*
X148997200Y-57150001D01*
X148830668Y-57205185D01*
X148830663Y-57205187D01*
X148681342Y-57297289D01*
X148557289Y-57421342D01*
X148465187Y-57570663D01*
X148465185Y-57570668D01*
X148410001Y-57737201D01*
X148409998Y-57737216D01*
X148409303Y-57744024D01*
X148382905Y-57808715D01*
X148328290Y-57847061D01*
X148328501Y-57847571D01*
X148326217Y-57848516D01*
X148325723Y-57848864D01*
X148324289Y-57849340D01*
X148324011Y-57849430D01*
X148324009Y-57849430D01*
X148113563Y-57956659D01*
X147922496Y-58095476D01*
X147922491Y-58095480D01*
X139212181Y-66805791D01*
X139150858Y-66839276D01*
X139081166Y-66834292D01*
X139025233Y-66792420D01*
X139000816Y-66726956D01*
X139000500Y-66718110D01*
X139000500Y-65207847D01*
X138963553Y-64974576D01*
X138919105Y-64837781D01*
X138890568Y-64749953D01*
X138890566Y-64749950D01*
X138890566Y-64749948D01*
X138800420Y-64573028D01*
X138783343Y-64539512D01*
X138644517Y-64348435D01*
X138477510Y-64181428D01*
X130234954Y-55938872D01*
X135499500Y-55938872D01*
X135499500Y-56201127D01*
X135516869Y-56333051D01*
X135533730Y-56461116D01*
X135568006Y-56589036D01*
X135601602Y-56714418D01*
X135601605Y-56714428D01*
X135701953Y-56956690D01*
X135701958Y-56956700D01*
X135833075Y-57183803D01*
X135992718Y-57391851D01*
X135992726Y-57391860D01*
X136178140Y-57577274D01*
X136178148Y-57577281D01*
X136386196Y-57736924D01*
X136613299Y-57868041D01*
X136613309Y-57868046D01*
X136855571Y-57968394D01*
X136855581Y-57968398D01*
X137108884Y-58036270D01*
X137368880Y-58070500D01*
X137368887Y-58070500D01*
X137631113Y-58070500D01*
X137631120Y-58070500D01*
X137891116Y-58036270D01*
X138144419Y-57968398D01*
X138386697Y-57868043D01*
X138613803Y-57736924D01*
X138821851Y-57577282D01*
X138821855Y-57577277D01*
X138821860Y-57577274D01*
X139007274Y-57391860D01*
X139007277Y-57391855D01*
X139007282Y-57391851D01*
X139166924Y-57183803D01*
X139298043Y-56956697D01*
X139398398Y-56714419D01*
X139466270Y-56461116D01*
X139500500Y-56201120D01*
X139500500Y-55938880D01*
X139466270Y-55678884D01*
X139398398Y-55425581D01*
X139379725Y-55380500D01*
X139298046Y-55183309D01*
X139298041Y-55183299D01*
X139166924Y-54956196D01*
X139053591Y-54808500D01*
X139007282Y-54748149D01*
X139007280Y-54748147D01*
X139007274Y-54748140D01*
X138821860Y-54562726D01*
X138821851Y-54562718D01*
X138613803Y-54403075D01*
X138386700Y-54271958D01*
X138386690Y-54271953D01*
X138144428Y-54171605D01*
X138144421Y-54171603D01*
X138144419Y-54171602D01*
X137891116Y-54103730D01*
X137833339Y-54096123D01*
X137631127Y-54069500D01*
X137631120Y-54069500D01*
X137368880Y-54069500D01*
X137368872Y-54069500D01*
X137137772Y-54099926D01*
X137108884Y-54103730D01*
X136864057Y-54169331D01*
X136855581Y-54171602D01*
X136855571Y-54171605D01*
X136613309Y-54271953D01*
X136613299Y-54271958D01*
X136386196Y-54403075D01*
X136178148Y-54562718D01*
X135992726Y-54748140D01*
X135992720Y-54748147D01*
X135833075Y-54956196D01*
X135701958Y-55183299D01*
X135701953Y-55183309D01*
X135601605Y-55425571D01*
X135601602Y-55425581D01*
X135533730Y-55678885D01*
X135499500Y-55938872D01*
X130234954Y-55938872D01*
X125036819Y-50740737D01*
X125003334Y-50679414D01*
X125000500Y-50653056D01*
X125000500Y-50111889D01*
X125020185Y-50044850D01*
X125072989Y-49999095D01*
X125142147Y-49989151D01*
X125205703Y-50018176D01*
X125212181Y-50024208D01*
X127263490Y-52075517D01*
X127454566Y-52214343D01*
X127533171Y-52254394D01*
X127629459Y-52303455D01*
X127665003Y-52321566D01*
X127665005Y-52321566D01*
X127665008Y-52321568D01*
X127785412Y-52360689D01*
X127889631Y-52394553D01*
X128122903Y-52431500D01*
X128122908Y-52431500D01*
X136231597Y-52431500D01*
X136464868Y-52394553D01*
X136477129Y-52390569D01*
X136689492Y-52321568D01*
X136899934Y-52214343D01*
X137091010Y-52075517D01*
X137644518Y-51522010D01*
X137783343Y-51330933D01*
X137890568Y-51120492D01*
X137963553Y-50895868D01*
X137971404Y-50846299D01*
X138000500Y-50662596D01*
X138000500Y-50061629D01*
X138020185Y-49994590D01*
X138072989Y-49948835D01*
X138142147Y-49938891D01*
X138197383Y-49961310D01*
X138278462Y-50020217D01*
X138359738Y-50061629D01*
X138482244Y-50124049D01*
X138699751Y-50194721D01*
X138699752Y-50194721D01*
X138699755Y-50194722D01*
X138925646Y-50230500D01*
X138925647Y-50230500D01*
X139154353Y-50230500D01*
X139154354Y-50230500D01*
X139380245Y-50194722D01*
X139380248Y-50194721D01*
X139380249Y-50194721D01*
X139597755Y-50124049D01*
X139597755Y-50124048D01*
X139597758Y-50124048D01*
X139801538Y-50020217D01*
X139986566Y-49885786D01*
X140148286Y-49724066D01*
X140282717Y-49539038D01*
X140386548Y-49335258D01*
X140398910Y-49297213D01*
X140457221Y-49117749D01*
X140457221Y-49117748D01*
X140457222Y-49117745D01*
X140493000Y-48891854D01*
X140493000Y-48568146D01*
X140457222Y-48342255D01*
X140457221Y-48342251D01*
X140457221Y-48342250D01*
X140386549Y-48124744D01*
X140323425Y-48000857D01*
X140282717Y-47920962D01*
X140148286Y-47735934D01*
X139986566Y-47574214D01*
X139801538Y-47439783D01*
X139775314Y-47426421D01*
X139597755Y-47335950D01*
X139380248Y-47265278D01*
X139194812Y-47235908D01*
X139154354Y-47229500D01*
X138925646Y-47229500D01*
X138885188Y-47235908D01*
X138699753Y-47265278D01*
X138699750Y-47265278D01*
X138482244Y-47335950D01*
X138278461Y-47439783D01*
X138093431Y-47574216D01*
X137931716Y-47735931D01*
X137931716Y-47735932D01*
X137931714Y-47735934D01*
X137896202Y-47784812D01*
X137882419Y-47803783D01*
X137827089Y-47846448D01*
X137757475Y-47852427D01*
X137695680Y-47819821D01*
X137681787Y-47803787D01*
X137644517Y-47752490D01*
X137477510Y-47585483D01*
X137286433Y-47446657D01*
X137272942Y-47439783D01*
X137075996Y-47339433D01*
X136851368Y-47266446D01*
X136618097Y-47229500D01*
X136618092Y-47229500D01*
X136381908Y-47229500D01*
X136381903Y-47229500D01*
X136148631Y-47266446D01*
X135924003Y-47339433D01*
X135713566Y-47446657D01*
X135552469Y-47563702D01*
X135486662Y-47587182D01*
X135418608Y-47571357D01*
X135369913Y-47521251D01*
X135363401Y-47506718D01*
X135356296Y-47487669D01*
X135356293Y-47487664D01*
X135270047Y-47372455D01*
X135270044Y-47372452D01*
X135154835Y-47286206D01*
X135154828Y-47286202D01*
X135019982Y-47235908D01*
X135019983Y-47235908D01*
X134960383Y-47229501D01*
X134960381Y-47229500D01*
X134960373Y-47229500D01*
X134960365Y-47229500D01*
X133789311Y-47229500D01*
X133722272Y-47209815D01*
X133701630Y-47193181D01*
X132931770Y-46423320D01*
X132931766Y-46423317D01*
X132783702Y-46324383D01*
X132783700Y-46324382D01*
X132653140Y-46270304D01*
X132645067Y-46266960D01*
X132619187Y-46256240D01*
X132531861Y-46238870D01*
X132528468Y-46238195D01*
X132528460Y-46238193D01*
X132444539Y-46221500D01*
X132444537Y-46221500D01*
X132444536Y-46221500D01*
X122653537Y-46221500D01*
X122475463Y-46221500D01*
X122475462Y-46221500D01*
X122391538Y-46238193D01*
X122391526Y-46238196D01*
X122388138Y-46238870D01*
X122300813Y-46256240D01*
X122274933Y-46266960D01*
X122266862Y-46270302D01*
X122266858Y-46270304D01*
X122136294Y-46324385D01*
X122136286Y-46324389D01*
X122056890Y-46377440D01*
X121990213Y-46398318D01*
X121922833Y-46379833D01*
X121876143Y-46327854D01*
X121864000Y-46274338D01*
X121864000Y-40934700D01*
X121863999Y-40934696D01*
X121834006Y-40783910D01*
X121829260Y-40760050D01*
X121793520Y-40673767D01*
X121761115Y-40595533D01*
X121761113Y-40595531D01*
X121761113Y-40595529D01*
X121662183Y-40447471D01*
X121662180Y-40447467D01*
X113153585Y-31938872D01*
X121499500Y-31938872D01*
X121499500Y-32201127D01*
X121516556Y-32330670D01*
X121533730Y-32461116D01*
X121598962Y-32704567D01*
X121601602Y-32714418D01*
X121601605Y-32714428D01*
X121701953Y-32956690D01*
X121701958Y-32956700D01*
X121833075Y-33183803D01*
X121992718Y-33391851D01*
X121992726Y-33391860D01*
X122178140Y-33577274D01*
X122178148Y-33577281D01*
X122178149Y-33577282D01*
X122222002Y-33610932D01*
X122386196Y-33736924D01*
X122613299Y-33868041D01*
X122613309Y-33868046D01*
X122844758Y-33963915D01*
X122855581Y-33968398D01*
X123108884Y-34036270D01*
X123368880Y-34070500D01*
X123368887Y-34070500D01*
X123631113Y-34070500D01*
X123631120Y-34070500D01*
X123891116Y-34036270D01*
X124144419Y-33968398D01*
X124386697Y-33868043D01*
X124613803Y-33736924D01*
X124821851Y-33577282D01*
X124821855Y-33577277D01*
X124821860Y-33577274D01*
X125007274Y-33391860D01*
X125007277Y-33391855D01*
X125007282Y-33391851D01*
X125166924Y-33183803D01*
X125298043Y-32956697D01*
X125398398Y-32714419D01*
X125466270Y-32461116D01*
X125500500Y-32201120D01*
X125500500Y-31938880D01*
X125500499Y-31938872D01*
X134499500Y-31938872D01*
X134499500Y-32201127D01*
X134516556Y-32330670D01*
X134533730Y-32461116D01*
X134598962Y-32704567D01*
X134601602Y-32714418D01*
X134601605Y-32714428D01*
X134701953Y-32956690D01*
X134701958Y-32956700D01*
X134833075Y-33183803D01*
X134992718Y-33391851D01*
X134992726Y-33391860D01*
X135178140Y-33577274D01*
X135178148Y-33577281D01*
X135178149Y-33577282D01*
X135222002Y-33610932D01*
X135386196Y-33736924D01*
X135613299Y-33868041D01*
X135613309Y-33868046D01*
X135844758Y-33963915D01*
X135855581Y-33968398D01*
X136108884Y-34036270D01*
X136368880Y-34070500D01*
X136368887Y-34070500D01*
X136631113Y-34070500D01*
X136631120Y-34070500D01*
X136891116Y-34036270D01*
X137144419Y-33968398D01*
X137386697Y-33868043D01*
X137613803Y-33736924D01*
X137821851Y-33577282D01*
X137821855Y-33577277D01*
X137821860Y-33577274D01*
X138007274Y-33391860D01*
X138007277Y-33391855D01*
X138007282Y-33391851D01*
X138166924Y-33183803D01*
X138298043Y-32956697D01*
X138398398Y-32714419D01*
X138466270Y-32461116D01*
X138500500Y-32201120D01*
X138500500Y-31938880D01*
X138466270Y-31678884D01*
X138398398Y-31425581D01*
X138387387Y-31398997D01*
X138298046Y-31183309D01*
X138298041Y-31183299D01*
X138166924Y-30956196D01*
X138007281Y-30748148D01*
X138007274Y-30748140D01*
X137821860Y-30562726D01*
X137821851Y-30562718D01*
X137613803Y-30403075D01*
X137386700Y-30271958D01*
X137386690Y-30271953D01*
X137144428Y-30171605D01*
X137144421Y-30171603D01*
X137144419Y-30171602D01*
X136891116Y-30103730D01*
X136818632Y-30094187D01*
X136631127Y-30069500D01*
X136631120Y-30069500D01*
X136368880Y-30069500D01*
X136368872Y-30069500D01*
X136137772Y-30099926D01*
X136108884Y-30103730D01*
X135966588Y-30141858D01*
X135855581Y-30171602D01*
X135855571Y-30171605D01*
X135613309Y-30271953D01*
X135613299Y-30271958D01*
X135386196Y-30403075D01*
X135178148Y-30562718D01*
X134992718Y-30748148D01*
X134833075Y-30956196D01*
X134701958Y-31183299D01*
X134701953Y-31183309D01*
X134601605Y-31425571D01*
X134601602Y-31425581D01*
X134533730Y-31678885D01*
X134499500Y-31938872D01*
X125500499Y-31938872D01*
X125466270Y-31678884D01*
X125398398Y-31425581D01*
X125387387Y-31398997D01*
X125298046Y-31183309D01*
X125298041Y-31183299D01*
X125166924Y-30956196D01*
X125007281Y-30748148D01*
X125007274Y-30748140D01*
X124821860Y-30562726D01*
X124821851Y-30562718D01*
X124613803Y-30403075D01*
X124386700Y-30271958D01*
X124386690Y-30271953D01*
X124144428Y-30171605D01*
X124144421Y-30171603D01*
X124144419Y-30171602D01*
X123891116Y-30103730D01*
X123818632Y-30094187D01*
X123631127Y-30069500D01*
X123631120Y-30069500D01*
X123368880Y-30069500D01*
X123368872Y-30069500D01*
X123137772Y-30099926D01*
X123108884Y-30103730D01*
X122966588Y-30141858D01*
X122855581Y-30171602D01*
X122855571Y-30171605D01*
X122613309Y-30271953D01*
X122613299Y-30271958D01*
X122386196Y-30403075D01*
X122178148Y-30562718D01*
X121992718Y-30748148D01*
X121833075Y-30956196D01*
X121701958Y-31183299D01*
X121701953Y-31183309D01*
X121601605Y-31425571D01*
X121601602Y-31425581D01*
X121533730Y-31678885D01*
X121499500Y-31938872D01*
X113153585Y-31938872D01*
X110343033Y-29128320D01*
X110343029Y-29128317D01*
X110194969Y-29029386D01*
X110194968Y-29029385D01*
X110194965Y-29029383D01*
X110194962Y-29029382D01*
X110085521Y-28984051D01*
X110085519Y-28984050D01*
X110078635Y-28981199D01*
X110030450Y-28961240D01*
X109943124Y-28943870D01*
X109914030Y-28938082D01*
X109855802Y-28926500D01*
X109855800Y-28926500D01*
X109855799Y-28926500D01*
X108692274Y-28926500D01*
X108514200Y-28926500D01*
X108514199Y-28926500D01*
X108470537Y-28935185D01*
X108426875Y-28943870D01*
X108364401Y-28956296D01*
X108339548Y-28961240D01*
X108291364Y-28981199D01*
X108175036Y-29029382D01*
X108175034Y-29029383D01*
X108026971Y-29128316D01*
X108026967Y-29128319D01*
X107205515Y-29949772D01*
X107205498Y-29949789D01*
X107204234Y-29951054D01*
X107078317Y-30076971D01*
X107066814Y-30094187D01*
X107061033Y-30102838D01*
X107061029Y-30102843D01*
X106979386Y-30225030D01*
X106979382Y-30225037D01*
X106950495Y-30294779D01*
X106950495Y-30294780D01*
X106911241Y-30389547D01*
X106911240Y-30389550D01*
X106876500Y-30564196D01*
X106876500Y-40909540D01*
X106887882Y-40966760D01*
X106911237Y-41084179D01*
X106911240Y-41084188D01*
X106923081Y-41112774D01*
X106979382Y-41248700D01*
X106979383Y-41248702D01*
X106979384Y-41248704D01*
X106979385Y-41248705D01*
X107036899Y-41334780D01*
X107065064Y-41376932D01*
X107072343Y-41387825D01*
X107078316Y-41396764D01*
X107078318Y-41396767D01*
X108163181Y-42481630D01*
X108196666Y-42542953D01*
X108199500Y-42569311D01*
X108199500Y-42642352D01*
X108200953Y-42651523D01*
X108231522Y-42844534D01*
X108294781Y-43039223D01*
X108335363Y-43118868D01*
X108383857Y-43214043D01*
X108387715Y-43221613D01*
X108508028Y-43387213D01*
X108652786Y-43531971D01*
X108802597Y-43640813D01*
X108818390Y-43652287D01*
X108934607Y-43711503D01*
X109000776Y-43745218D01*
X109000778Y-43745218D01*
X109000781Y-43745220D01*
X109044626Y-43759466D01*
X109195465Y-43808477D01*
X109239579Y-43815464D01*
X109397648Y-43840500D01*
X109397649Y-43840500D01*
X109602351Y-43840500D01*
X109602352Y-43840500D01*
X109804534Y-43808477D01*
X109999219Y-43745220D01*
X110181610Y-43652287D01*
X110316984Y-43553933D01*
X110347213Y-43531971D01*
X110347215Y-43531968D01*
X110347219Y-43531966D01*
X110491966Y-43387219D01*
X110491968Y-43387215D01*
X110491971Y-43387213D01*
X110562599Y-43290000D01*
X110612287Y-43221610D01*
X110705220Y-43039219D01*
X110768477Y-42844534D01*
X110771098Y-42827982D01*
X110801026Y-42764851D01*
X110860336Y-42727919D01*
X110930199Y-42728915D01*
X110981252Y-42759701D01*
X112639681Y-44418130D01*
X112673166Y-44479453D01*
X112676000Y-44505811D01*
X112676000Y-47513453D01*
X112656315Y-47580492D01*
X112639681Y-47601134D01*
X112588032Y-47652782D01*
X112588028Y-47652786D01*
X112467715Y-47818386D01*
X112374781Y-48000776D01*
X112311522Y-48195465D01*
X112279500Y-48397648D01*
X112279500Y-48602351D01*
X112311522Y-48804534D01*
X112374781Y-48999223D01*
X112467715Y-49181613D01*
X112588028Y-49347213D01*
X112732786Y-49491971D01*
X112886611Y-49603729D01*
X112898390Y-49612287D01*
X112982651Y-49655220D01*
X113080776Y-49705218D01*
X113080778Y-49705218D01*
X113080781Y-49705220D01*
X113183649Y-49738644D01*
X113275465Y-49768477D01*
X113334808Y-49777876D01*
X113477648Y-49800500D01*
X113477649Y-49800500D01*
X113682351Y-49800500D01*
X113682352Y-49800500D01*
X113884534Y-49768477D01*
X113884539Y-49768475D01*
X113884541Y-49768475D01*
X113918180Y-49757545D01*
X113988021Y-49755548D01*
X114047854Y-49791628D01*
X114078684Y-49854328D01*
X114080500Y-49875475D01*
X114080500Y-50669688D01*
X114060815Y-50736727D01*
X114044181Y-50757369D01*
X113638370Y-51163181D01*
X113577047Y-51196666D01*
X113550689Y-51199500D01*
X113477648Y-51199500D01*
X113453329Y-51203351D01*
X113275465Y-51231522D01*
X113080776Y-51294781D01*
X112898386Y-51387715D01*
X112732786Y-51508028D01*
X112588028Y-51652786D01*
X112467715Y-51818386D01*
X112374781Y-52000776D01*
X112311522Y-52195465D01*
X112279500Y-52397648D01*
X112279500Y-52602351D01*
X112311523Y-52804535D01*
X112311524Y-52804542D01*
X112322455Y-52838183D01*
X112324450Y-52908024D01*
X112288369Y-52967856D01*
X112225668Y-52998684D01*
X112204524Y-53000500D01*
X106093889Y-53000500D01*
X106026850Y-52980815D01*
X106006208Y-52964181D01*
X104397511Y-51355484D01*
X104391847Y-51351369D01*
X104206434Y-51216657D01*
X103995996Y-51109433D01*
X103771368Y-51036446D01*
X103538097Y-50999500D01*
X103538092Y-50999500D01*
X103301908Y-50999500D01*
X103301903Y-50999500D01*
X103068631Y-51036446D01*
X102844003Y-51109433D01*
X102633565Y-51216657D01*
X102442488Y-51355484D01*
X102275484Y-51522488D01*
X102136657Y-51713565D01*
X102078430Y-51827843D01*
X102029434Y-51924003D01*
X102029433Y-51924005D01*
X102029432Y-51924008D01*
X102024246Y-51939969D01*
X101956446Y-52148631D01*
X101919500Y-52381902D01*
X101919500Y-57375500D01*
X101899815Y-57442539D01*
X101847011Y-57488294D01*
X101795500Y-57499500D01*
X49172889Y-57499500D01*
X49105850Y-57479815D01*
X49085208Y-57463181D01*
X46817708Y-55195681D01*
X46784223Y-55134358D01*
X46789207Y-55064666D01*
X46831079Y-55008733D01*
X46896543Y-54984316D01*
X46905389Y-54984000D01*
X52133453Y-54984000D01*
X52200492Y-55003685D01*
X52221134Y-55020319D01*
X52272786Y-55071971D01*
X52426019Y-55183299D01*
X52438390Y-55192287D01*
X52554607Y-55251503D01*
X52620776Y-55285218D01*
X52620778Y-55285218D01*
X52620781Y-55285220D01*
X52725137Y-55319127D01*
X52815465Y-55348477D01*
X52916557Y-55364488D01*
X53017648Y-55380500D01*
X53017649Y-55380500D01*
X53222351Y-55380500D01*
X53222352Y-55380500D01*
X53424534Y-55348477D01*
X53619219Y-55285220D01*
X53801610Y-55192287D01*
X53894590Y-55124732D01*
X53967213Y-55071971D01*
X53967215Y-55071968D01*
X53967219Y-55071966D01*
X54111966Y-54927219D01*
X54111968Y-54927215D01*
X54111971Y-54927213D01*
X54164732Y-54854590D01*
X54232287Y-54761610D01*
X54325220Y-54579219D01*
X54388477Y-54384534D01*
X54420500Y-54182352D01*
X54420500Y-53977648D01*
X54394565Y-53813903D01*
X54388477Y-53775465D01*
X54325218Y-53580776D01*
X54285759Y-53503334D01*
X54232287Y-53398390D01*
X54211122Y-53369259D01*
X54111971Y-53232786D01*
X53967213Y-53088028D01*
X53801613Y-52967715D01*
X53801612Y-52967714D01*
X53801610Y-52967713D01*
X53723691Y-52928011D01*
X53619223Y-52874781D01*
X53424534Y-52811522D01*
X53249995Y-52783878D01*
X53222352Y-52779500D01*
X53017648Y-52779500D01*
X52993329Y-52783351D01*
X52815465Y-52811522D01*
X52620776Y-52874781D01*
X52438386Y-52967715D01*
X52272786Y-53088028D01*
X52272782Y-53088032D01*
X52221134Y-53139681D01*
X52159811Y-53173166D01*
X52133453Y-53176000D01*
X45509036Y-53176000D01*
X45330963Y-53176000D01*
X45313368Y-53179500D01*
X45313367Y-53179500D01*
X45156320Y-53210738D01*
X45156308Y-53210741D01*
X45004078Y-53273797D01*
X44934609Y-53281266D01*
X44872130Y-53249991D01*
X44868945Y-53246917D01*
X38464858Y-46842831D01*
X38431373Y-46781508D01*
X38436357Y-46711816D01*
X38441451Y-46700055D01*
X38443727Y-46695466D01*
X38501641Y-46578693D01*
X38547600Y-46393889D01*
X38550500Y-46351123D01*
X38550499Y-44948878D01*
X38547600Y-44906111D01*
X38501641Y-44721307D01*
X38479483Y-44676630D01*
X38417032Y-44550707D01*
X38417030Y-44550704D01*
X38297722Y-44402278D01*
X38297721Y-44402277D01*
X38149295Y-44282969D01*
X38149292Y-44282967D01*
X37978697Y-44198360D01*
X37793892Y-44152400D01*
X37768229Y-44150660D01*
X37751123Y-44149500D01*
X37751121Y-44149500D01*
X37660041Y-44149500D01*
X37593002Y-44129815D01*
X37572360Y-44113181D01*
X37276827Y-43817648D01*
X51819500Y-43817648D01*
X51819500Y-44022351D01*
X51851522Y-44224534D01*
X51914781Y-44419223D01*
X52007715Y-44601613D01*
X52128028Y-44767213D01*
X52272786Y-44911971D01*
X52385645Y-44993966D01*
X52438390Y-45032287D01*
X52519016Y-45073368D01*
X52620776Y-45125218D01*
X52620778Y-45125218D01*
X52620781Y-45125220D01*
X52692353Y-45148475D01*
X52815465Y-45188477D01*
X52916557Y-45204488D01*
X53017648Y-45220500D01*
X53090689Y-45220500D01*
X53157728Y-45240185D01*
X53178370Y-45256819D01*
X58109369Y-50187819D01*
X58142854Y-50249142D01*
X58137870Y-50318834D01*
X58095998Y-50374767D01*
X58030534Y-50399184D01*
X58021691Y-50399500D01*
X57980000Y-50399500D01*
X57979980Y-50399501D01*
X57877203Y-50410000D01*
X57877200Y-50410001D01*
X57710668Y-50465185D01*
X57710663Y-50465187D01*
X57561342Y-50557289D01*
X57437289Y-50681342D01*
X57345187Y-50830663D01*
X57345185Y-50830668D01*
X57328206Y-50881908D01*
X57290001Y-50997203D01*
X57290001Y-50997204D01*
X57290000Y-50997204D01*
X57279500Y-51099983D01*
X57279500Y-53900001D01*
X57279501Y-53900018D01*
X57290000Y-54002796D01*
X57290001Y-54002799D01*
X57345185Y-54169331D01*
X57345187Y-54169336D01*
X57380069Y-54225888D01*
X57437288Y-54318656D01*
X57561344Y-54442712D01*
X57710666Y-54534814D01*
X57877203Y-54589999D01*
X57979991Y-54600500D01*
X60150687Y-54600499D01*
X60217726Y-54620184D01*
X60238368Y-54636818D01*
X61008230Y-55406680D01*
X61008233Y-55406682D01*
X61008234Y-55406683D01*
X61156295Y-55505615D01*
X61193553Y-55521047D01*
X61269459Y-55552489D01*
X61269477Y-55552495D01*
X61272627Y-55553800D01*
X61320813Y-55573760D01*
X61333417Y-55576267D01*
X61439190Y-55597306D01*
X61495460Y-55608500D01*
X61495463Y-55608500D01*
X75622173Y-55608500D01*
X75665072Y-55599966D01*
X75784217Y-55576267D01*
X75796821Y-55573760D01*
X75845006Y-55553800D01*
X75961339Y-55505615D01*
X76109401Y-55406682D01*
X77702183Y-53813900D01*
X77801115Y-53665839D01*
X77869260Y-53501320D01*
X77873349Y-53480766D01*
X77888173Y-53406241D01*
X77891290Y-53390571D01*
X77891290Y-53390568D01*
X77904000Y-53326671D01*
X77904000Y-53148597D01*
X77904000Y-48040964D01*
X77901782Y-48029816D01*
X77896006Y-48000776D01*
X77884626Y-47943566D01*
X77882159Y-47931165D01*
X77869261Y-47866320D01*
X77869260Y-47866313D01*
X77801114Y-47701795D01*
X77801113Y-47701794D01*
X77801110Y-47701788D01*
X77734958Y-47602786D01*
X77715867Y-47574214D01*
X77702183Y-47553734D01*
X77576266Y-47427817D01*
X76655842Y-46507393D01*
X76622357Y-46446070D01*
X76623748Y-46387619D01*
X76684560Y-46160666D01*
X76720500Y-45887674D01*
X76720500Y-45612326D01*
X76684560Y-45339334D01*
X76613295Y-45073368D01*
X76507923Y-44818979D01*
X76507921Y-44818976D01*
X76507919Y-44818971D01*
X76458732Y-44733778D01*
X76370249Y-44580521D01*
X76239907Y-44410655D01*
X76202629Y-44362073D01*
X76202623Y-44362066D01*
X76007933Y-44167376D01*
X76007926Y-44167370D01*
X75789483Y-43999754D01*
X75789482Y-43999753D01*
X75789479Y-43999751D01*
X75675791Y-43934113D01*
X75551028Y-43862080D01*
X75551017Y-43862075D01*
X75296630Y-43756704D01*
X75163649Y-43721072D01*
X75030666Y-43685440D01*
X75030660Y-43685439D01*
X75030655Y-43685438D01*
X74757684Y-43649501D01*
X74757679Y-43649500D01*
X74757674Y-43649500D01*
X74482326Y-43649500D01*
X74482320Y-43649500D01*
X74482315Y-43649501D01*
X74209344Y-43685438D01*
X74209337Y-43685439D01*
X74209334Y-43685440D01*
X74153125Y-43700500D01*
X73943369Y-43756704D01*
X73688982Y-43862075D01*
X73688971Y-43862080D01*
X73450516Y-43999754D01*
X73232073Y-44167370D01*
X73232066Y-44167376D01*
X73037376Y-44362066D01*
X73037370Y-44362073D01*
X72869754Y-44580516D01*
X72732080Y-44818971D01*
X72732075Y-44818982D01*
X72626704Y-45073369D01*
X72555441Y-45339331D01*
X72555438Y-45339344D01*
X72519501Y-45612315D01*
X72519500Y-45612332D01*
X72519500Y-45887667D01*
X72519501Y-45887684D01*
X72555438Y-46160655D01*
X72555439Y-46160660D01*
X72555440Y-46160666D01*
X72576213Y-46238193D01*
X72626704Y-46426630D01*
X72732075Y-46681017D01*
X72732080Y-46681028D01*
X72801376Y-46801051D01*
X72869751Y-46919479D01*
X72869753Y-46919482D01*
X72869754Y-46919483D01*
X73037370Y-47137926D01*
X73037376Y-47137933D01*
X73232066Y-47332623D01*
X73232073Y-47332629D01*
X73303863Y-47387715D01*
X73450521Y-47500249D01*
X73589506Y-47580492D01*
X73688971Y-47637919D01*
X73688976Y-47637921D01*
X73688979Y-47637923D01*
X73943368Y-47743295D01*
X74209334Y-47814560D01*
X74482326Y-47850500D01*
X74482333Y-47850500D01*
X74757667Y-47850500D01*
X74757674Y-47850500D01*
X75030666Y-47814560D01*
X75257620Y-47753748D01*
X75327469Y-47755411D01*
X75377393Y-47785842D01*
X76059681Y-48468130D01*
X76093166Y-48529453D01*
X76096000Y-48555811D01*
X76096000Y-50733505D01*
X76076315Y-50800544D01*
X76023511Y-50846299D01*
X75954353Y-50856243D01*
X75896514Y-50831881D01*
X75789483Y-50749754D01*
X75789482Y-50749753D01*
X75789479Y-50749751D01*
X75670995Y-50681344D01*
X75551028Y-50612080D01*
X75551017Y-50612075D01*
X75296630Y-50506704D01*
X75134197Y-50463181D01*
X75030666Y-50435440D01*
X75030660Y-50435439D01*
X75030655Y-50435438D01*
X74757684Y-50399501D01*
X74757679Y-50399500D01*
X74757674Y-50399500D01*
X74482326Y-50399500D01*
X74482320Y-50399500D01*
X74482315Y-50399501D01*
X74209344Y-50435438D01*
X74209337Y-50435439D01*
X74209334Y-50435440D01*
X74153125Y-50450500D01*
X73943369Y-50506704D01*
X73688982Y-50612075D01*
X73688971Y-50612080D01*
X73450516Y-50749754D01*
X73232073Y-50917370D01*
X73232066Y-50917376D01*
X73037376Y-51112066D01*
X73037370Y-51112073D01*
X72869754Y-51330516D01*
X72869751Y-51330520D01*
X72869751Y-51330521D01*
X72865618Y-51337680D01*
X72752272Y-51534000D01*
X72701705Y-51582216D01*
X72644885Y-51596000D01*
X70925811Y-51596000D01*
X70858772Y-51576315D01*
X70838130Y-51559681D01*
X61681366Y-42402917D01*
X61647881Y-42341594D01*
X61652865Y-42271902D01*
X61694737Y-42215969D01*
X61760201Y-42191552D01*
X61769047Y-42191236D01*
X62456432Y-42191236D01*
X62496702Y-42183225D01*
X62575804Y-42167491D01*
X62631080Y-42156496D01*
X62695648Y-42129751D01*
X62795598Y-42088351D01*
X62906770Y-42014067D01*
X62943659Y-41989419D01*
X63069576Y-41863502D01*
X65702183Y-39230895D01*
X65801115Y-39082833D01*
X65843494Y-38980520D01*
X65869260Y-38918316D01*
X65904000Y-38743665D01*
X65904000Y-38473105D01*
X65923685Y-38406066D01*
X65952514Y-38374729D01*
X65981369Y-38352587D01*
X66103800Y-38258643D01*
X66258643Y-38103800D01*
X66391950Y-37930071D01*
X66501440Y-37740428D01*
X66585241Y-37538117D01*
X66641917Y-37326598D01*
X66670500Y-37109490D01*
X66670500Y-36890510D01*
X66641917Y-36673402D01*
X66585241Y-36461883D01*
X66501440Y-36259572D01*
X66453156Y-36175942D01*
X66391950Y-36069929D01*
X66258644Y-35896201D01*
X66258638Y-35896194D01*
X66103805Y-35741361D01*
X66103798Y-35741355D01*
X65930070Y-35608049D01*
X65740438Y-35498565D01*
X65740433Y-35498562D01*
X65740428Y-35498560D01*
X65538117Y-35414759D01*
X65538118Y-35414759D01*
X65538115Y-35414758D01*
X65413790Y-35381446D01*
X65326598Y-35358083D01*
X65285080Y-35352617D01*
X65109497Y-35329500D01*
X65109490Y-35329500D01*
X64890510Y-35329500D01*
X64890502Y-35329500D01*
X64683853Y-35356707D01*
X64673402Y-35358083D01*
X64628699Y-35370060D01*
X64461884Y-35414758D01*
X64343374Y-35463847D01*
X64259572Y-35498560D01*
X64259569Y-35498561D01*
X64259561Y-35498565D01*
X64069929Y-35608049D01*
X63896201Y-35741355D01*
X63896194Y-35741361D01*
X63741361Y-35896194D01*
X63741355Y-35896201D01*
X63608049Y-36069929D01*
X63498565Y-36259561D01*
X63498561Y-36259569D01*
X63498560Y-36259572D01*
X63463847Y-36343374D01*
X63414758Y-36461884D01*
X63358084Y-36673399D01*
X63358082Y-36673410D01*
X63329500Y-36890502D01*
X63329500Y-37109497D01*
X63353306Y-37290314D01*
X63358083Y-37326598D01*
X63359149Y-37330575D01*
X63396668Y-37470602D01*
X63414759Y-37538117D01*
X63498560Y-37740428D01*
X63498562Y-37740433D01*
X63498565Y-37740438D01*
X63608049Y-37930070D01*
X63741355Y-38103798D01*
X63741361Y-38103805D01*
X63896196Y-38258640D01*
X63897870Y-38259924D01*
X63909259Y-38268664D01*
X63950463Y-38325090D01*
X63954620Y-38394836D01*
X63921456Y-38454722D01*
X62029263Y-40346917D01*
X61967940Y-40380402D01*
X61941582Y-40383236D01*
X61138575Y-40383236D01*
X61071536Y-40363551D01*
X61050894Y-40346917D01*
X59553247Y-38849270D01*
X59519762Y-38787947D01*
X59524746Y-38718255D01*
X59566618Y-38662322D01*
X59632082Y-38637905D01*
X59669357Y-38641465D01*
X59669425Y-38641125D01*
X59672777Y-38641791D01*
X59673022Y-38641815D01*
X59673402Y-38641917D01*
X59890510Y-38670500D01*
X59890517Y-38670500D01*
X60109483Y-38670500D01*
X60109490Y-38670500D01*
X60326598Y-38641917D01*
X60538117Y-38585241D01*
X60740428Y-38501440D01*
X60930071Y-38391950D01*
X61103800Y-38258643D01*
X61258643Y-38103800D01*
X61391950Y-37930071D01*
X61501440Y-37740428D01*
X61585241Y-37538117D01*
X61641917Y-37326598D01*
X61670500Y-37109490D01*
X61670500Y-36890510D01*
X61645609Y-36701446D01*
X61656374Y-36632411D01*
X61680864Y-36597583D01*
X63298130Y-34980319D01*
X63359453Y-34946834D01*
X63385811Y-34944000D01*
X74393453Y-34944000D01*
X74460492Y-34963685D01*
X74481134Y-34980319D01*
X74532786Y-35031971D01*
X74687749Y-35144556D01*
X74698390Y-35152287D01*
X74789840Y-35198883D01*
X74791080Y-35199515D01*
X74841876Y-35247490D01*
X74858671Y-35315311D01*
X74836134Y-35381446D01*
X74791080Y-35420485D01*
X74698386Y-35467715D01*
X74532786Y-35588028D01*
X74388028Y-35732786D01*
X74267715Y-35898386D01*
X74174781Y-36080776D01*
X74111522Y-36275465D01*
X74079500Y-36477648D01*
X74079500Y-36682351D01*
X74111522Y-36884534D01*
X74174781Y-37079223D01*
X74190207Y-37109497D01*
X74265048Y-37256380D01*
X74267715Y-37261613D01*
X74388028Y-37427213D01*
X74532786Y-37571971D01*
X74664163Y-37667420D01*
X74698390Y-37692287D01*
X74789840Y-37738883D01*
X74791080Y-37739515D01*
X74841876Y-37787490D01*
X74858671Y-37855311D01*
X74836134Y-37921446D01*
X74791080Y-37960485D01*
X74698386Y-38007715D01*
X74532786Y-38128028D01*
X74388028Y-38272786D01*
X74267715Y-38438386D01*
X74174781Y-38620776D01*
X74111522Y-38815465D01*
X74079500Y-39017648D01*
X74079500Y-39222351D01*
X74111522Y-39424534D01*
X74174781Y-39619223D01*
X74267715Y-39801613D01*
X74388028Y-39967213D01*
X74532786Y-40111971D01*
X74685669Y-40223045D01*
X74698390Y-40232287D01*
X74814607Y-40291503D01*
X74880776Y-40325218D01*
X74880778Y-40325218D01*
X74880781Y-40325220D01*
X74985137Y-40359127D01*
X75075465Y-40388477D01*
X75165871Y-40402796D01*
X75277648Y-40420500D01*
X75277649Y-40420500D01*
X75482351Y-40420500D01*
X75482352Y-40420500D01*
X75684534Y-40388477D01*
X75879219Y-40325220D01*
X76061610Y-40232287D01*
X76173336Y-40151114D01*
X76227213Y-40111971D01*
X76227215Y-40111968D01*
X76227219Y-40111966D01*
X76371966Y-39967219D01*
X76371968Y-39967215D01*
X76371971Y-39967213D01*
X76459831Y-39846282D01*
X76492287Y-39801610D01*
X76585220Y-39619219D01*
X76648477Y-39424534D01*
X76680500Y-39222352D01*
X76680500Y-39017648D01*
X76648477Y-38815466D01*
X76640841Y-38791966D01*
X76602051Y-38672582D01*
X76585220Y-38620781D01*
X76585218Y-38620778D01*
X76585218Y-38620776D01*
X76530230Y-38512858D01*
X76492287Y-38438390D01*
X76472361Y-38410964D01*
X76371971Y-38272786D01*
X76227213Y-38128028D01*
X76061614Y-38007715D01*
X76045491Y-37999500D01*
X75968917Y-37960483D01*
X75918123Y-37912511D01*
X75901328Y-37844690D01*
X75923865Y-37778555D01*
X75968917Y-37739516D01*
X76061610Y-37692287D01*
X76146326Y-37630738D01*
X76227213Y-37571971D01*
X76227215Y-37571968D01*
X76227219Y-37571966D01*
X76278866Y-37520319D01*
X76340189Y-37486834D01*
X76366547Y-37484000D01*
X78654189Y-37484000D01*
X78721228Y-37503685D01*
X78741870Y-37520319D01*
X78923730Y-37702180D01*
X78923734Y-37702183D01*
X79071795Y-37801115D01*
X79236314Y-37869260D01*
X79236316Y-37869260D01*
X79236321Y-37869262D01*
X79410958Y-37903999D01*
X79410961Y-37904000D01*
X79559500Y-37904000D01*
X79626539Y-37923685D01*
X79672294Y-37976489D01*
X79683500Y-38028000D01*
X79683500Y-41632067D01*
X79695577Y-41692781D01*
X79718238Y-41806706D01*
X79718241Y-41806718D01*
X79725753Y-41824853D01*
X79786381Y-41971225D01*
X79786388Y-41971238D01*
X79885316Y-42119293D01*
X79885319Y-42119297D01*
X83284595Y-45518572D01*
X83318080Y-45579895D01*
X83313096Y-45649587D01*
X83271224Y-45705520D01*
X83216315Y-45728726D01*
X83195580Y-45732010D01*
X83000968Y-45795244D01*
X82818644Y-45888143D01*
X82774077Y-45920523D01*
X82774077Y-45920524D01*
X83453554Y-46600000D01*
X83447339Y-46600000D01*
X83345606Y-46627259D01*
X83254394Y-46679920D01*
X83179920Y-46754394D01*
X83127259Y-46845606D01*
X83100000Y-46947339D01*
X83100000Y-46953553D01*
X82420524Y-46274077D01*
X82420523Y-46274077D01*
X82388143Y-46318644D01*
X82360765Y-46372378D01*
X82312790Y-46423174D01*
X82244969Y-46439969D01*
X82178834Y-46417431D01*
X82139795Y-46372378D01*
X82128965Y-46351123D01*
X82112287Y-46318390D01*
X82112285Y-46318387D01*
X82112284Y-46318385D01*
X81991971Y-46152786D01*
X81847213Y-46008028D01*
X81681613Y-45887715D01*
X81681612Y-45887714D01*
X81681610Y-45887713D01*
X81624653Y-45858691D01*
X81499223Y-45794781D01*
X81304534Y-45731522D01*
X81129995Y-45703878D01*
X81102352Y-45699500D01*
X80897648Y-45699500D01*
X80873329Y-45703351D01*
X80695465Y-45731522D01*
X80500776Y-45794781D01*
X80318386Y-45887715D01*
X80152786Y-46008028D01*
X80008028Y-46152786D01*
X79887715Y-46318386D01*
X79794781Y-46500776D01*
X79731522Y-46695465D01*
X79699500Y-46897648D01*
X79699500Y-47102351D01*
X79731522Y-47304534D01*
X79794781Y-47499223D01*
X79847548Y-47602782D01*
X79873026Y-47652786D01*
X79887715Y-47681613D01*
X80008028Y-47847213D01*
X80152786Y-47991971D01*
X80273226Y-48079474D01*
X80318390Y-48112287D01*
X80434607Y-48171503D01*
X80500776Y-48205218D01*
X80500778Y-48205218D01*
X80500781Y-48205220D01*
X80605137Y-48239127D01*
X80695465Y-48268477D01*
X80796557Y-48284488D01*
X80897648Y-48300500D01*
X80970689Y-48300500D01*
X81037728Y-48320185D01*
X81058370Y-48336819D01*
X83711773Y-50990222D01*
X83745258Y-51051545D01*
X83740274Y-51121237D01*
X83698402Y-51177170D01*
X83632938Y-51201587D01*
X83604701Y-51200377D01*
X83602320Y-51200000D01*
X83397683Y-51200000D01*
X83195582Y-51232009D01*
X83000968Y-51295244D01*
X82818644Y-51388143D01*
X82774077Y-51420523D01*
X82774077Y-51420524D01*
X83453554Y-52100000D01*
X83447339Y-52100000D01*
X83345606Y-52127259D01*
X83254394Y-52179920D01*
X83179920Y-52254394D01*
X83127259Y-52345606D01*
X83100000Y-52447339D01*
X83100000Y-52453553D01*
X82420524Y-51774077D01*
X82420523Y-51774077D01*
X82388143Y-51818644D01*
X82360765Y-51872378D01*
X82312790Y-51923174D01*
X82244969Y-51939969D01*
X82178834Y-51917431D01*
X82139795Y-51872378D01*
X82122372Y-51838183D01*
X82112287Y-51818390D01*
X82112285Y-51818387D01*
X82112284Y-51818385D01*
X81991971Y-51652786D01*
X81847213Y-51508028D01*
X81681613Y-51387715D01*
X81681612Y-51387714D01*
X81681610Y-51387713D01*
X81610279Y-51351368D01*
X81499223Y-51294781D01*
X81304534Y-51231522D01*
X81129995Y-51203878D01*
X81102352Y-51199500D01*
X80897648Y-51199500D01*
X80873329Y-51203351D01*
X80695465Y-51231522D01*
X80500776Y-51294781D01*
X80318386Y-51387715D01*
X80152786Y-51508028D01*
X80008028Y-51652786D01*
X79887715Y-51818386D01*
X79794781Y-52000776D01*
X79731522Y-52195465D01*
X79699500Y-52397648D01*
X79699500Y-52602351D01*
X79731522Y-52804534D01*
X79794781Y-52999223D01*
X79858691Y-53124653D01*
X79887585Y-53181359D01*
X79887715Y-53181613D01*
X80008028Y-53347213D01*
X80152786Y-53491971D01*
X80273226Y-53579474D01*
X80318390Y-53612287D01*
X80434607Y-53671503D01*
X80500776Y-53705218D01*
X80500778Y-53705218D01*
X80500781Y-53705220D01*
X80600683Y-53737680D01*
X80695465Y-53768477D01*
X80739592Y-53775466D01*
X80897648Y-53800500D01*
X80897649Y-53800500D01*
X81102351Y-53800500D01*
X81102352Y-53800500D01*
X81304534Y-53768477D01*
X81499219Y-53705220D01*
X81681610Y-53612287D01*
X81808379Y-53520185D01*
X81847213Y-53491971D01*
X81847215Y-53491968D01*
X81847219Y-53491966D01*
X81991966Y-53347219D01*
X81991968Y-53347215D01*
X81991971Y-53347213D01*
X82112286Y-53181611D01*
X82112415Y-53181359D01*
X82139795Y-53127621D01*
X82187769Y-53076826D01*
X82255589Y-53060030D01*
X82321725Y-53082567D01*
X82360765Y-53127621D01*
X82388141Y-53181350D01*
X82388147Y-53181359D01*
X82420523Y-53225921D01*
X82420524Y-53225922D01*
X83100000Y-52546446D01*
X83100000Y-52552661D01*
X83127259Y-52654394D01*
X83179920Y-52745606D01*
X83254394Y-52820080D01*
X83345606Y-52872741D01*
X83447339Y-52900000D01*
X83453553Y-52900000D01*
X82774076Y-53579474D01*
X82818650Y-53611859D01*
X83000968Y-53704755D01*
X83195582Y-53767990D01*
X83397683Y-53800000D01*
X83602317Y-53800000D01*
X83804417Y-53767990D01*
X83999031Y-53704755D01*
X84181349Y-53611859D01*
X84225921Y-53579474D01*
X83546447Y-52900000D01*
X83552661Y-52900000D01*
X83654394Y-52872741D01*
X83745606Y-52820080D01*
X83820080Y-52745606D01*
X83872741Y-52654394D01*
X83900000Y-52552661D01*
X83900000Y-52546446D01*
X84579474Y-53225921D01*
X84611859Y-53181349D01*
X84704755Y-52999031D01*
X84767990Y-52804417D01*
X84800000Y-52602317D01*
X84800000Y-52397685D01*
X84799624Y-52395312D01*
X84799741Y-52394399D01*
X84799618Y-52392824D01*
X84799948Y-52392797D01*
X84808575Y-52326018D01*
X84853568Y-52272563D01*
X84920318Y-52251920D01*
X84987633Y-52270641D01*
X85009777Y-52288226D01*
X87328230Y-54606680D01*
X87328234Y-54606683D01*
X87476291Y-54705612D01*
X87476292Y-54705612D01*
X87476296Y-54705615D01*
X87550411Y-54736314D01*
X87640813Y-54773760D01*
X87815459Y-54808499D01*
X87815463Y-54808500D01*
X87815464Y-54808500D01*
X89590802Y-54808500D01*
X89619341Y-54802822D01*
X89723104Y-54782183D01*
X89765450Y-54773760D01*
X89827280Y-54748149D01*
X89929968Y-54705615D01*
X90041140Y-54631331D01*
X90078029Y-54606683D01*
X90203946Y-54480766D01*
X91026683Y-53658029D01*
X91125615Y-53509968D01*
X91180353Y-53377817D01*
X91193760Y-53345450D01*
X91216625Y-53230500D01*
X91228500Y-53170800D01*
X91228500Y-52992726D01*
X91228500Y-44046907D01*
X91248185Y-43979868D01*
X91300989Y-43934113D01*
X91370147Y-43924169D01*
X91426812Y-43947641D01*
X91507910Y-44008352D01*
X91507913Y-44008354D01*
X91642620Y-44058596D01*
X91642627Y-44058598D01*
X91702155Y-44064999D01*
X91702172Y-44065000D01*
X92250000Y-44065000D01*
X92250000Y-43320330D01*
X92269745Y-43340075D01*
X92355255Y-43389444D01*
X92450630Y-43415000D01*
X92549370Y-43415000D01*
X92644745Y-43389444D01*
X92730255Y-43340075D01*
X92750000Y-43320330D01*
X92750000Y-44065000D01*
X93297828Y-44065000D01*
X93297844Y-44064999D01*
X93357372Y-44058598D01*
X93357379Y-44058596D01*
X93492086Y-44008354D01*
X93492093Y-44008350D01*
X93607187Y-43922190D01*
X93607190Y-43922187D01*
X93693350Y-43807093D01*
X93693354Y-43807086D01*
X93743596Y-43672379D01*
X93743598Y-43672372D01*
X93749999Y-43612844D01*
X93750000Y-43612827D01*
X93750000Y-43290000D01*
X92780330Y-43290000D01*
X92800075Y-43270255D01*
X92849444Y-43184745D01*
X92875000Y-43089370D01*
X92875000Y-42990630D01*
X92849444Y-42895255D01*
X92800075Y-42809745D01*
X92785830Y-42795500D01*
X92826004Y-42795500D01*
X92826004Y-42795499D01*
X92839473Y-42792820D01*
X92841674Y-42792383D01*
X92865866Y-42790000D01*
X93750000Y-42790000D01*
X93750000Y-42467172D01*
X93749999Y-42467155D01*
X93743598Y-42407627D01*
X93743596Y-42407620D01*
X93693354Y-42272913D01*
X93693353Y-42272911D01*
X93692745Y-42272099D01*
X93692390Y-42271148D01*
X93689103Y-42265128D01*
X93689968Y-42264655D01*
X93668329Y-42206634D01*
X93677452Y-42150338D01*
X93711091Y-42069127D01*
X93750500Y-41871003D01*
X93750500Y-41668997D01*
X93715432Y-41492696D01*
X93721659Y-41423106D01*
X93764522Y-41367928D01*
X93830412Y-41344684D01*
X93898409Y-41360752D01*
X93924730Y-41380825D01*
X98139681Y-45595776D01*
X98173166Y-45657099D01*
X98176000Y-45683457D01*
X98176000Y-47463453D01*
X98156315Y-47530492D01*
X98139681Y-47551134D01*
X98088032Y-47602782D01*
X98088028Y-47602786D01*
X97967715Y-47768386D01*
X97874781Y-47950776D01*
X97811522Y-48145465D01*
X97779500Y-48347648D01*
X97779500Y-48552351D01*
X97811522Y-48754534D01*
X97874781Y-48949223D01*
X97900256Y-48999219D01*
X97961797Y-49120000D01*
X97967715Y-49131613D01*
X98088028Y-49297213D01*
X98139681Y-49348866D01*
X98173166Y-49410189D01*
X98176000Y-49436547D01*
X98176000Y-51513453D01*
X98156315Y-51580492D01*
X98139681Y-51601134D01*
X98088032Y-51652782D01*
X98088028Y-51652786D01*
X97967715Y-51818386D01*
X97874781Y-52000776D01*
X97811522Y-52195465D01*
X97779500Y-52397648D01*
X97779500Y-52602351D01*
X97811522Y-52804534D01*
X97874781Y-52999223D01*
X97938691Y-53124653D01*
X97967585Y-53181359D01*
X97967715Y-53181613D01*
X98088028Y-53347213D01*
X98232786Y-53491971D01*
X98353226Y-53579474D01*
X98398390Y-53612287D01*
X98514607Y-53671503D01*
X98580776Y-53705218D01*
X98580778Y-53705218D01*
X98580781Y-53705220D01*
X98680683Y-53737680D01*
X98775465Y-53768477D01*
X98819592Y-53775466D01*
X98977648Y-53800500D01*
X98977649Y-53800500D01*
X99182351Y-53800500D01*
X99182352Y-53800500D01*
X99384534Y-53768477D01*
X99579219Y-53705220D01*
X99761610Y-53612287D01*
X99888379Y-53520185D01*
X99927213Y-53491971D01*
X99927215Y-53491968D01*
X99927219Y-53491966D01*
X100071966Y-53347219D01*
X100071968Y-53347215D01*
X100071971Y-53347213D01*
X100127569Y-53270688D01*
X100192287Y-53181610D01*
X100285220Y-52999219D01*
X100348477Y-52804534D01*
X100380500Y-52602352D01*
X100380500Y-52397648D01*
X100362396Y-52283343D01*
X100348477Y-52195465D01*
X100309503Y-52075517D01*
X100285220Y-52000781D01*
X100285218Y-52000778D01*
X100285218Y-52000776D01*
X100219795Y-51872378D01*
X100192287Y-51818390D01*
X100160092Y-51774077D01*
X100071971Y-51652786D01*
X100020319Y-51601134D01*
X99986834Y-51539811D01*
X99984000Y-51513453D01*
X99984000Y-49436547D01*
X100003685Y-49369508D01*
X100020319Y-49348866D01*
X100033930Y-49335255D01*
X100071966Y-49297219D01*
X100071968Y-49297215D01*
X100071971Y-49297213D01*
X100190301Y-49134343D01*
X100192287Y-49131610D01*
X100285220Y-48949219D01*
X100348477Y-48754534D01*
X100380500Y-48552352D01*
X100380500Y-48397648D01*
X102119500Y-48397648D01*
X102119500Y-48602351D01*
X102151522Y-48804534D01*
X102214781Y-48999223D01*
X102307715Y-49181613D01*
X102428028Y-49347213D01*
X102572786Y-49491971D01*
X102726611Y-49603729D01*
X102738390Y-49612287D01*
X102822651Y-49655220D01*
X102920776Y-49705218D01*
X102920778Y-49705218D01*
X102920781Y-49705220D01*
X103023649Y-49738644D01*
X103115465Y-49768477D01*
X103174808Y-49777876D01*
X103317648Y-49800500D01*
X103317649Y-49800500D01*
X103522351Y-49800500D01*
X103522352Y-49800500D01*
X103724534Y-49768477D01*
X103919219Y-49705220D01*
X104101610Y-49612287D01*
X104194590Y-49544732D01*
X104267213Y-49491971D01*
X104267215Y-49491968D01*
X104267219Y-49491966D01*
X104411966Y-49347219D01*
X104411968Y-49347215D01*
X104411971Y-49347213D01*
X104488725Y-49241568D01*
X104532287Y-49181610D01*
X104625220Y-48999219D01*
X104688477Y-48804534D01*
X104720500Y-48602352D01*
X104720500Y-48397648D01*
X104711896Y-48343323D01*
X104688477Y-48195465D01*
X104645170Y-48062180D01*
X104625220Y-48000781D01*
X104625218Y-48000778D01*
X104625218Y-48000776D01*
X104561249Y-47875232D01*
X104532287Y-47818390D01*
X104524556Y-47807749D01*
X104411971Y-47652786D01*
X104267213Y-47508028D01*
X104101613Y-47387715D01*
X104101612Y-47387714D01*
X104101610Y-47387713D01*
X104044653Y-47358691D01*
X103919223Y-47294781D01*
X103724534Y-47231522D01*
X103549995Y-47203878D01*
X103522352Y-47199500D01*
X103317648Y-47199500D01*
X103293329Y-47203351D01*
X103115465Y-47231522D01*
X102920776Y-47294781D01*
X102738386Y-47387715D01*
X102572786Y-47508028D01*
X102428028Y-47652786D01*
X102307715Y-47818386D01*
X102214781Y-48000776D01*
X102151522Y-48195465D01*
X102119500Y-48397648D01*
X100380500Y-48397648D01*
X100380500Y-48347648D01*
X100348477Y-48145466D01*
X100341743Y-48124742D01*
X100310797Y-48029500D01*
X100285220Y-47950781D01*
X100285218Y-47950778D01*
X100285218Y-47950776D01*
X100235106Y-47852427D01*
X100192287Y-47768390D01*
X100168705Y-47735932D01*
X100071971Y-47602786D01*
X100020319Y-47551134D01*
X99986834Y-47489811D01*
X99984000Y-47463453D01*
X99984000Y-45168610D01*
X99979995Y-45148479D01*
X99979995Y-45148475D01*
X99956883Y-45032284D01*
X99949260Y-44993959D01*
X99881114Y-44829441D01*
X99874125Y-44818982D01*
X99818309Y-44735447D01*
X99782182Y-44681379D01*
X99777433Y-44676630D01*
X99656266Y-44555463D01*
X96716484Y-41615681D01*
X96682999Y-41554358D01*
X96687983Y-41484666D01*
X96729855Y-41428733D01*
X96795319Y-41404316D01*
X96804165Y-41404000D01*
X100589038Y-41404000D01*
X100613233Y-41399187D01*
X100676361Y-41386630D01*
X100763687Y-41369260D01*
X100846929Y-41334780D01*
X100928205Y-41301115D01*
X100971493Y-41272189D01*
X100974689Y-41271188D01*
X100976973Y-41268730D01*
X101007807Y-41260817D01*
X101038166Y-41251311D01*
X101042365Y-41251950D01*
X101044650Y-41251364D01*
X101079389Y-41257586D01*
X101088704Y-41260673D01*
X101092575Y-41261956D01*
X101150018Y-41301730D01*
X101176838Y-41366247D01*
X101164521Y-41435023D01*
X101126451Y-41479978D01*
X101032787Y-41548028D01*
X101032782Y-41548032D01*
X100888034Y-41692781D01*
X100888028Y-41692786D01*
X100767715Y-41858386D01*
X100674781Y-42040776D01*
X100611522Y-42235465D01*
X100586849Y-42391247D01*
X100579500Y-42437648D01*
X100579500Y-42642352D01*
X100580953Y-42651523D01*
X100611522Y-42844534D01*
X100674781Y-43039223D01*
X100715363Y-43118868D01*
X100763857Y-43214043D01*
X100767715Y-43221613D01*
X100888028Y-43387213D01*
X101032786Y-43531971D01*
X101182597Y-43640813D01*
X101198390Y-43652287D01*
X101314607Y-43711503D01*
X101380776Y-43745218D01*
X101380778Y-43745218D01*
X101380781Y-43745220D01*
X101424626Y-43759466D01*
X101575465Y-43808477D01*
X101619579Y-43815464D01*
X101777648Y-43840500D01*
X101777649Y-43840500D01*
X101982351Y-43840500D01*
X101982352Y-43840500D01*
X102184534Y-43808477D01*
X102379219Y-43745220D01*
X102561610Y-43652287D01*
X102696984Y-43553933D01*
X102727213Y-43531971D01*
X102727215Y-43531968D01*
X102727219Y-43531966D01*
X102871966Y-43387219D01*
X102871968Y-43387215D01*
X102871971Y-43387213D01*
X102942599Y-43290000D01*
X102992287Y-43221610D01*
X103085220Y-43039219D01*
X103148477Y-42844534D01*
X103180500Y-42642352D01*
X103180500Y-42569311D01*
X103200185Y-42502272D01*
X103216819Y-42481630D01*
X103586370Y-42112080D01*
X103986683Y-41711767D01*
X104085615Y-41563705D01*
X104133800Y-41447372D01*
X104153760Y-41399187D01*
X104177599Y-41279340D01*
X104188500Y-41224537D01*
X104188500Y-41046463D01*
X104188500Y-39000092D01*
X104180384Y-38959292D01*
X104157249Y-38842983D01*
X104153760Y-38825441D01*
X104132342Y-38773733D01*
X104114858Y-38731522D01*
X104085617Y-38660927D01*
X104085616Y-38660925D01*
X104070234Y-38637905D01*
X103986683Y-38512862D01*
X103986680Y-38512858D01*
X96271642Y-30797820D01*
X96271638Y-30797817D01*
X96123578Y-30698886D01*
X96123577Y-30698885D01*
X96123574Y-30698883D01*
X96123571Y-30698882D01*
X96014130Y-30653551D01*
X96014128Y-30653550D01*
X96007244Y-30650699D01*
X95959059Y-30630740D01*
X95871733Y-30613370D01*
X95842639Y-30607582D01*
X95784411Y-30596000D01*
X95784409Y-30596000D01*
X95784408Y-30596000D01*
X93036976Y-30596000D01*
X92989523Y-30586561D01*
X92814127Y-30513909D01*
X92814119Y-30513907D01*
X92616007Y-30474500D01*
X92616003Y-30474500D01*
X91963997Y-30474500D01*
X91963992Y-30474500D01*
X91765880Y-30513907D01*
X91765872Y-30513909D01*
X91579247Y-30591212D01*
X91579237Y-30591217D01*
X91411281Y-30703441D01*
X91268441Y-30846281D01*
X91156217Y-31014237D01*
X91156212Y-31014247D01*
X91078909Y-31200872D01*
X91078907Y-31200880D01*
X91039500Y-31398992D01*
X91039500Y-31601007D01*
X91078907Y-31799119D01*
X91078909Y-31799127D01*
X91156213Y-31985755D01*
X91182730Y-32025441D01*
X91205289Y-32059203D01*
X91209904Y-32066109D01*
X91230782Y-32132787D01*
X91212297Y-32200167D01*
X91209904Y-32203891D01*
X91156213Y-32284244D01*
X91078909Y-32470872D01*
X91078907Y-32470880D01*
X91039500Y-32668992D01*
X91039500Y-32871007D01*
X91078907Y-33069119D01*
X91078910Y-33069131D01*
X91112547Y-33150338D01*
X91120016Y-33219807D01*
X91100405Y-33264864D01*
X91100895Y-33265132D01*
X91097910Y-33270596D01*
X91097260Y-33272092D01*
X91096646Y-33272911D01*
X91096645Y-33272913D01*
X91046403Y-33407620D01*
X91046401Y-33407627D01*
X91040000Y-33467155D01*
X91040000Y-33790000D01*
X91924134Y-33790000D01*
X91948326Y-33792383D01*
X91951123Y-33792939D01*
X91963995Y-33795499D01*
X91963996Y-33795500D01*
X91963997Y-33795500D01*
X92004170Y-33795500D01*
X91989925Y-33809745D01*
X91940556Y-33895255D01*
X91915000Y-33990630D01*
X91915000Y-34089370D01*
X91940556Y-34184745D01*
X91989925Y-34270255D01*
X92009670Y-34290000D01*
X91040000Y-34290000D01*
X91015846Y-34314154D01*
X90954522Y-34347638D01*
X90884830Y-34342653D01*
X90840484Y-34314153D01*
X86729512Y-30203181D01*
X86696027Y-30141858D01*
X86701011Y-30072166D01*
X86742883Y-30016233D01*
X86808347Y-29991816D01*
X86817193Y-29991500D01*
X98991689Y-29991500D01*
X99058728Y-30011185D01*
X99079370Y-30027819D01*
X100228181Y-31176630D01*
X100261666Y-31237953D01*
X100264500Y-31264311D01*
X100264500Y-31835001D01*
X100264501Y-31835019D01*
X100275000Y-31937796D01*
X100275001Y-31937799D01*
X100296226Y-32001850D01*
X100330186Y-32104334D01*
X100422288Y-32253656D01*
X100546344Y-32377712D01*
X100695666Y-32469814D01*
X100777570Y-32496954D01*
X100835015Y-32536727D01*
X100861838Y-32601243D01*
X100849523Y-32670018D01*
X100811451Y-32714978D01*
X100717787Y-32783028D01*
X100717782Y-32783032D01*
X100573028Y-32927786D01*
X100452715Y-33093386D01*
X100359781Y-33275776D01*
X100296522Y-33470465D01*
X100264500Y-33672648D01*
X100264500Y-33877351D01*
X100296522Y-34079534D01*
X100359781Y-34274223D01*
X100414647Y-34381902D01*
X100436292Y-34424383D01*
X100452715Y-34456613D01*
X100573028Y-34622213D01*
X100717786Y-34766971D01*
X100833951Y-34851368D01*
X100883390Y-34887287D01*
X100994695Y-34944000D01*
X101065776Y-34980218D01*
X101065778Y-34980218D01*
X101065781Y-34980220D01*
X101152356Y-35008350D01*
X101260465Y-35043477D01*
X101355922Y-35058596D01*
X101462648Y-35075500D01*
X101462649Y-35075500D01*
X101667351Y-35075500D01*
X101667352Y-35075500D01*
X101869534Y-35043477D01*
X102064219Y-34980220D01*
X102246610Y-34887287D01*
X102356723Y-34807286D01*
X102412213Y-34766971D01*
X102412215Y-34766968D01*
X102412219Y-34766966D01*
X102556966Y-34622219D01*
X102556968Y-34622215D01*
X102556971Y-34622213D01*
X102617266Y-34539223D01*
X102677287Y-34456610D01*
X102770220Y-34274219D01*
X102833477Y-34079534D01*
X102865500Y-33877352D01*
X102865500Y-33672648D01*
X102855725Y-33610932D01*
X102833477Y-33470465D01*
X102778089Y-33300000D01*
X102770220Y-33275781D01*
X102770218Y-33275778D01*
X102770218Y-33275776D01*
X102727929Y-33192781D01*
X102677287Y-33093390D01*
X102659653Y-33069119D01*
X102556971Y-32927786D01*
X102412219Y-32783034D01*
X102392183Y-32768477D01*
X102318547Y-32714978D01*
X102275882Y-32659649D01*
X102269903Y-32590036D01*
X102302508Y-32528240D01*
X102352426Y-32496955D01*
X102434334Y-32469814D01*
X102583656Y-32377712D01*
X102707712Y-32253656D01*
X102799814Y-32104334D01*
X102854999Y-31937797D01*
X102865500Y-31835009D01*
X102865499Y-30634992D01*
X102865078Y-30630875D01*
X102854999Y-30532203D01*
X102854998Y-30532200D01*
X102848936Y-30513907D01*
X102799814Y-30365666D01*
X102707712Y-30216344D01*
X102583656Y-30092288D01*
X102482311Y-30029778D01*
X102434336Y-30000187D01*
X102434331Y-30000185D01*
X102392673Y-29986381D01*
X102267797Y-29945001D01*
X102267795Y-29945000D01*
X102165016Y-29934500D01*
X102165009Y-29934500D01*
X101594311Y-29934500D01*
X101527272Y-29914815D01*
X101506630Y-29898181D01*
X99993770Y-28385320D01*
X99993766Y-28385317D01*
X99845706Y-28286386D01*
X99845705Y-28286385D01*
X99845702Y-28286383D01*
X99845699Y-28286382D01*
X99736258Y-28241051D01*
X99736256Y-28241050D01*
X99729372Y-28238199D01*
X99681187Y-28218240D01*
X99593861Y-28200870D01*
X99564767Y-28195082D01*
X99506539Y-28183500D01*
X99506537Y-28183500D01*
X99506536Y-28183500D01*
X81911674Y-28183500D01*
X81911669Y-28183500D01*
X81737030Y-28218237D01*
X81737021Y-28218240D01*
X81688837Y-28238199D01*
X81572509Y-28286382D01*
X81572507Y-28286383D01*
X81424444Y-28385316D01*
X81424440Y-28385319D01*
X79993793Y-29815966D01*
X79885319Y-29924439D01*
X79885318Y-29924440D01*
X79867536Y-29951054D01*
X79827359Y-30011185D01*
X79825320Y-30014236D01*
X79825319Y-30014237D01*
X79786384Y-30072506D01*
X79718240Y-30237021D01*
X79718238Y-30237029D01*
X79687901Y-30389547D01*
X79687901Y-30389550D01*
X79683500Y-30411672D01*
X79683500Y-35665915D01*
X79663815Y-35732954D01*
X79611011Y-35778709D01*
X79541853Y-35788653D01*
X79512048Y-35780477D01*
X79507780Y-35778709D01*
X79369748Y-35721535D01*
X79343687Y-35710740D01*
X79232939Y-35688711D01*
X79230032Y-35688132D01*
X79230029Y-35688132D01*
X79169038Y-35676000D01*
X79169037Y-35676000D01*
X79169036Y-35676000D01*
X76366547Y-35676000D01*
X76299508Y-35656315D01*
X76278866Y-35639681D01*
X76227213Y-35588028D01*
X76061614Y-35467715D01*
X76055006Y-35464348D01*
X75968917Y-35420483D01*
X75918123Y-35372511D01*
X75901328Y-35304690D01*
X75923865Y-35238555D01*
X75968917Y-35199516D01*
X76061610Y-35152287D01*
X76147709Y-35089733D01*
X76227213Y-35031971D01*
X76227215Y-35031968D01*
X76227219Y-35031966D01*
X76371966Y-34887219D01*
X76371968Y-34887215D01*
X76371971Y-34887213D01*
X76430180Y-34807093D01*
X76492287Y-34721610D01*
X76585220Y-34539219D01*
X76648477Y-34344534D01*
X76680500Y-34142352D01*
X76680500Y-33937648D01*
X76669476Y-33868046D01*
X76648477Y-33735465D01*
X76608013Y-33610932D01*
X76585220Y-33540781D01*
X76585218Y-33540778D01*
X76585218Y-33540776D01*
X76545825Y-33463464D01*
X76492287Y-33358390D01*
X76449865Y-33300000D01*
X76371971Y-33192786D01*
X76227217Y-33048032D01*
X76227212Y-33048028D01*
X76133051Y-32979616D01*
X76090385Y-32924286D01*
X76084406Y-32854673D01*
X76117012Y-32792878D01*
X76166933Y-32761592D01*
X76249117Y-32734359D01*
X76249124Y-32734356D01*
X76398345Y-32642315D01*
X76522315Y-32518345D01*
X76614356Y-32369124D01*
X76614358Y-32369119D01*
X76669505Y-32202697D01*
X76669506Y-32202690D01*
X76679999Y-32099986D01*
X76680000Y-32099973D01*
X76680000Y-31750000D01*
X75695686Y-31750000D01*
X75700080Y-31745606D01*
X75752741Y-31654394D01*
X75780000Y-31552661D01*
X75780000Y-31447339D01*
X75752741Y-31345606D01*
X75700080Y-31254394D01*
X75695686Y-31250000D01*
X76679999Y-31250000D01*
X76679999Y-30900028D01*
X76679998Y-30900013D01*
X76669505Y-30797302D01*
X76614358Y-30630880D01*
X76614356Y-30630875D01*
X76522315Y-30481654D01*
X76398345Y-30357684D01*
X76249124Y-30265643D01*
X76249119Y-30265641D01*
X76082697Y-30210494D01*
X76082690Y-30210493D01*
X75979986Y-30200000D01*
X75630000Y-30200000D01*
X75630000Y-31184314D01*
X75625606Y-31179920D01*
X75534394Y-31127259D01*
X75432661Y-31100000D01*
X75327339Y-31100000D01*
X75225606Y-31127259D01*
X75134394Y-31179920D01*
X75130000Y-31184314D01*
X75130000Y-30200000D01*
X74780028Y-30200000D01*
X74780012Y-30200001D01*
X74677302Y-30210494D01*
X74510880Y-30265641D01*
X74510875Y-30265643D01*
X74361654Y-30357684D01*
X74237684Y-30481654D01*
X74145643Y-30630875D01*
X74145641Y-30630880D01*
X74090494Y-30797302D01*
X74090493Y-30797309D01*
X74080000Y-30900013D01*
X74080000Y-31250000D01*
X75064314Y-31250000D01*
X75059920Y-31254394D01*
X75007259Y-31345606D01*
X74980000Y-31447339D01*
X74980000Y-31552661D01*
X75007259Y-31654394D01*
X75059920Y-31745606D01*
X75064314Y-31750000D01*
X74080001Y-31750000D01*
X74080001Y-32099986D01*
X74090494Y-32202697D01*
X74145641Y-32369119D01*
X74145643Y-32369124D01*
X74237684Y-32518345D01*
X74361654Y-32642315D01*
X74510875Y-32734356D01*
X74510882Y-32734359D01*
X74593067Y-32761592D01*
X74599949Y-32766357D01*
X74608208Y-32767743D01*
X74628252Y-32785952D01*
X74650512Y-32801364D01*
X74653726Y-32809094D01*
X74659924Y-32814725D01*
X74666941Y-32840879D01*
X74677336Y-32865880D01*
X74675860Y-32874120D01*
X74678030Y-32882207D01*
X74669793Y-32908003D01*
X74665021Y-32934656D01*
X74658773Y-32942517D01*
X74656778Y-32948767D01*
X74640094Y-32966021D01*
X74633046Y-32974890D01*
X74630058Y-32977358D01*
X74532781Y-33048034D01*
X74476969Y-33103845D01*
X74472435Y-33107592D01*
X74445515Y-33119130D01*
X74419811Y-33133166D01*
X74410411Y-33134176D01*
X74408215Y-33135118D01*
X74405653Y-33134688D01*
X74393453Y-33136000D01*
X62870961Y-33136000D01*
X62799615Y-33150192D01*
X62763941Y-33157288D01*
X62709764Y-33168064D01*
X62696312Y-33170740D01*
X62531797Y-33238884D01*
X62488822Y-33267600D01*
X62488821Y-33267600D01*
X62383737Y-33337814D01*
X62383729Y-33337820D01*
X60402417Y-35319132D01*
X60341094Y-35352617D01*
X60298551Y-35354390D01*
X60109500Y-35329501D01*
X60109495Y-35329500D01*
X60109490Y-35329500D01*
X59890510Y-35329500D01*
X59890502Y-35329500D01*
X59683853Y-35356707D01*
X59673402Y-35358083D01*
X59628699Y-35370060D01*
X59461884Y-35414758D01*
X59343374Y-35463847D01*
X59259572Y-35498560D01*
X59259569Y-35498561D01*
X59259561Y-35498565D01*
X59069929Y-35608049D01*
X58896201Y-35741355D01*
X58896194Y-35741361D01*
X58741361Y-35896194D01*
X58741355Y-35896201D01*
X58608049Y-36069929D01*
X58498565Y-36259561D01*
X58498561Y-36259569D01*
X58498560Y-36259572D01*
X58463847Y-36343374D01*
X58414758Y-36461884D01*
X58358084Y-36673399D01*
X58358082Y-36673410D01*
X58329500Y-36890502D01*
X58329500Y-37109497D01*
X58353306Y-37290314D01*
X58358083Y-37326598D01*
X58358084Y-37326600D01*
X58358085Y-37326605D01*
X58358188Y-37326989D01*
X58358185Y-37327107D01*
X58358875Y-37330575D01*
X58358098Y-37330729D01*
X58356518Y-37396839D01*
X58317350Y-37454698D01*
X58253119Y-37482195D01*
X58184218Y-37470602D01*
X58150729Y-37446752D01*
X57714819Y-37010842D01*
X57681334Y-36949519D01*
X57678500Y-36923161D01*
X57678500Y-36175939D01*
X57678499Y-36175937D01*
X57643762Y-36001298D01*
X57643759Y-36001289D01*
X57628128Y-35963553D01*
X57613487Y-35928205D01*
X57612495Y-35925811D01*
X57575618Y-35836778D01*
X57575611Y-35836767D01*
X57476683Y-35688711D01*
X56311292Y-34523320D01*
X56311288Y-34523317D01*
X56163224Y-34424383D01*
X56163222Y-34424382D01*
X56019421Y-34364819D01*
X56019419Y-34364818D01*
X56010362Y-34361067D01*
X55998709Y-34356240D01*
X55911383Y-34338870D01*
X55909046Y-34338405D01*
X55909033Y-34338402D01*
X55824061Y-34321500D01*
X55824059Y-34321500D01*
X55824058Y-34321500D01*
X54354015Y-34321500D01*
X54175941Y-34321500D01*
X54175940Y-34321500D01*
X54090971Y-34338401D01*
X54090957Y-34338404D01*
X54088616Y-34338870D01*
X54001291Y-34356240D01*
X53989638Y-34361067D01*
X53980579Y-34364819D01*
X53980576Y-34364820D01*
X53836779Y-34424381D01*
X53836767Y-34424388D01*
X53688712Y-34523316D01*
X53688708Y-34523319D01*
X52907339Y-35304690D01*
X52649234Y-35562795D01*
X52603980Y-35608049D01*
X52523319Y-35688709D01*
X52506348Y-35714108D01*
X52424388Y-35836767D01*
X52424381Y-35836778D01*
X52386513Y-35928205D01*
X52356240Y-36001289D01*
X52356237Y-36001298D01*
X52321500Y-36175937D01*
X52321500Y-36175940D01*
X52321500Y-36175942D01*
X52321500Y-39506463D01*
X52321500Y-39684537D01*
X52329378Y-39724142D01*
X52356240Y-39859187D01*
X52368120Y-39887867D01*
X52371743Y-39896615D01*
X52371745Y-39896621D01*
X52424382Y-40023699D01*
X52424383Y-40023702D01*
X52424385Y-40023705D01*
X52430887Y-40033436D01*
X52468035Y-40089032D01*
X52468036Y-40089033D01*
X52468039Y-40089037D01*
X52509518Y-40151115D01*
X52518738Y-40164914D01*
X52523317Y-40171766D01*
X57243181Y-44891630D01*
X57276666Y-44952953D01*
X57279500Y-44979311D01*
X57279500Y-46501688D01*
X57259815Y-46568727D01*
X57207011Y-46614482D01*
X57137853Y-46624426D01*
X57074297Y-46595401D01*
X57067819Y-46589369D01*
X54456819Y-43978369D01*
X54423334Y-43917046D01*
X54420500Y-43890688D01*
X54420500Y-43817648D01*
X54388477Y-43615465D01*
X54350681Y-43499142D01*
X54325220Y-43420781D01*
X54325218Y-43420778D01*
X54325218Y-43420776D01*
X54275586Y-43323369D01*
X54232287Y-43238390D01*
X54193312Y-43184745D01*
X54111971Y-43072786D01*
X53967213Y-42928028D01*
X53801613Y-42807715D01*
X53801612Y-42807714D01*
X53801610Y-42807713D01*
X53717489Y-42764851D01*
X53619223Y-42714781D01*
X53424534Y-42651522D01*
X53249995Y-42623878D01*
X53222352Y-42619500D01*
X53017648Y-42619500D01*
X52993329Y-42623351D01*
X52815465Y-42651522D01*
X52620776Y-42714781D01*
X52438386Y-42807715D01*
X52272786Y-42928028D01*
X52128028Y-43072786D01*
X52007715Y-43238386D01*
X51914781Y-43420776D01*
X51851522Y-43615465D01*
X51819500Y-43817648D01*
X37276827Y-43817648D01*
X34521359Y-41062180D01*
X34487874Y-41000857D01*
X34492858Y-40931165D01*
X34534730Y-40875232D01*
X34600194Y-40850815D01*
X34609040Y-40850499D01*
X36458028Y-40850499D01*
X36458036Y-40850499D01*
X36577418Y-40839886D01*
X36773049Y-40783909D01*
X36953407Y-40689698D01*
X37111109Y-40561109D01*
X37239698Y-40403407D01*
X37333909Y-40223049D01*
X37389886Y-40027418D01*
X37400500Y-39908037D01*
X37400499Y-38791964D01*
X37389886Y-38672582D01*
X37345821Y-38518580D01*
X37333909Y-38476950D01*
X37313477Y-38437836D01*
X37299885Y-38369301D01*
X37325503Y-38304298D01*
X37335696Y-38292751D01*
X40906682Y-34721767D01*
X40967505Y-34630740D01*
X41005614Y-34573705D01*
X41073760Y-34409187D01*
X41108500Y-34234536D01*
X41108500Y-32274564D01*
X41073760Y-32099913D01*
X41029948Y-31994142D01*
X41005615Y-31935395D01*
X40921183Y-31809035D01*
X40906683Y-31787334D01*
X40780766Y-31661417D01*
X39204667Y-30085318D01*
X39204666Y-30085317D01*
X39204661Y-30085313D01*
X39192179Y-30076974D01*
X39192173Y-30076970D01*
X39121549Y-30029780D01*
X39121547Y-30029778D01*
X39056602Y-29986383D01*
X39056600Y-29986382D01*
X38915872Y-29928092D01*
X38915870Y-29928091D01*
X38907062Y-29924443D01*
X38892087Y-29918240D01*
X38804761Y-29900870D01*
X38802143Y-29900349D01*
X38802138Y-29900348D01*
X38717439Y-29883500D01*
X38717437Y-29883500D01*
X38717436Y-29883500D01*
X30608764Y-29883500D01*
X30430690Y-29883500D01*
X30430689Y-29883500D01*
X30387027Y-29892185D01*
X30343365Y-29900870D01*
X30280891Y-29913296D01*
X30256038Y-29918240D01*
X30241062Y-29924444D01*
X30241061Y-29924443D01*
X30091528Y-29986381D01*
X30091516Y-29986388D01*
X29943461Y-30085316D01*
X29943457Y-30085319D01*
X28315919Y-31712857D01*
X28315916Y-31712861D01*
X28216985Y-31860921D01*
X28216981Y-31860928D01*
X28172950Y-31967230D01*
X28172947Y-31967238D01*
X28170378Y-31973442D01*
X28148839Y-32025441D01*
X28134804Y-32096000D01*
X28133738Y-32101356D01*
X28133737Y-32101362D01*
X28118087Y-32180042D01*
X28118087Y-32180045D01*
X28114099Y-32200091D01*
X28114099Y-37101065D01*
X28094414Y-37168104D01*
X28041610Y-37213859D01*
X27972452Y-37223803D01*
X27908896Y-37194778D01*
X27902418Y-37188746D01*
X26898994Y-36185322D01*
X26898988Y-36185317D01*
X26884954Y-36175940D01*
X26817308Y-36130740D01*
X26750927Y-36086385D01*
X26750924Y-36086383D01*
X26750923Y-36086383D01*
X26750922Y-36086382D01*
X26642188Y-36041344D01*
X26642184Y-36041343D01*
X26634594Y-36038199D01*
X26586409Y-36018240D01*
X26468160Y-35994719D01*
X26439960Y-35989109D01*
X26411760Y-35983500D01*
X26411759Y-35983500D01*
X26411758Y-35983500D01*
X20560637Y-35983500D01*
X20382563Y-35983500D01*
X20382561Y-35983500D01*
X20326161Y-35994719D01*
X20280845Y-36003733D01*
X20222419Y-36015354D01*
X20207912Y-36018240D01*
X20043397Y-36086384D01*
X19909368Y-36175940D01*
X19895333Y-36185317D01*
X19895327Y-36185322D01*
X17472147Y-38608503D01*
X17472123Y-38608527D01*
X17471234Y-38609417D01*
X17345317Y-38735334D01*
X17339492Y-38744052D01*
X17333432Y-38753120D01*
X17333431Y-38753122D01*
X17246386Y-38883393D01*
X17246382Y-38883400D01*
X17178241Y-39047910D01*
X17178238Y-39047922D01*
X17148775Y-39196047D01*
X17143911Y-39220500D01*
X17143500Y-39222564D01*
X16460398Y-39222564D01*
X16499662Y-35531771D01*
X16515577Y-35472305D01*
X20964164Y-27563707D01*
X21014187Y-27514928D01*
X21072239Y-27500500D01*
X163454712Y-27500500D01*
X163521751Y-27520185D01*
G37*
%TD.AperFunction*%
%TD*%
M02*
