%TF.GenerationSoftware,KiCad,Pcbnew,9.0.6*%
%TF.CreationDate,2025-12-30T21:33:41-05:00*%
%TF.ProjectId,VARIDORHDC,56415249-444f-4524-9844-432e6b696361,rev?*%
%TF.SameCoordinates,Original*%
%TF.FileFunction,Legend,Top*%
%TF.FilePolarity,Positive*%
%FSLAX46Y46*%
G04 Gerber Fmt 4.6, Leading zero omitted, Abs format (unit mm)*
G04 Created by KiCad (PCBNEW 9.0.6) date 2025-12-30 21:33:41*
%MOMM*%
%LPD*%
G01*
G04 APERTURE LIST*
%ADD10C,0.100000*%
%ADD11C,0.150000*%
%ADD12C,0.120000*%
G04 APERTURE END LIST*
D10*
X69637217Y-80348609D02*
X69780074Y-80396228D01*
X69780074Y-80396228D02*
X69827693Y-80443847D01*
X69827693Y-80443847D02*
X69875312Y-80539085D01*
X69875312Y-80539085D02*
X69875312Y-80681942D01*
X69875312Y-80681942D02*
X69827693Y-80777180D01*
X69827693Y-80777180D02*
X69780074Y-80824800D01*
X69780074Y-80824800D02*
X69684836Y-80872419D01*
X69684836Y-80872419D02*
X69303884Y-80872419D01*
X69303884Y-80872419D02*
X69303884Y-79872419D01*
X69303884Y-79872419D02*
X69637217Y-79872419D01*
X69637217Y-79872419D02*
X69732455Y-79920038D01*
X69732455Y-79920038D02*
X69780074Y-79967657D01*
X69780074Y-79967657D02*
X69827693Y-80062895D01*
X69827693Y-80062895D02*
X69827693Y-80158133D01*
X69827693Y-80158133D02*
X69780074Y-80253371D01*
X69780074Y-80253371D02*
X69732455Y-80300990D01*
X69732455Y-80300990D02*
X69637217Y-80348609D01*
X69637217Y-80348609D02*
X69303884Y-80348609D01*
X70494360Y-80396228D02*
X70494360Y-80872419D01*
X70161027Y-79872419D02*
X70494360Y-80396228D01*
X70494360Y-80396228D02*
X70827693Y-79872419D01*
X71875313Y-80824800D02*
X72018170Y-80872419D01*
X72018170Y-80872419D02*
X72256265Y-80872419D01*
X72256265Y-80872419D02*
X72351503Y-80824800D01*
X72351503Y-80824800D02*
X72399122Y-80777180D01*
X72399122Y-80777180D02*
X72446741Y-80681942D01*
X72446741Y-80681942D02*
X72446741Y-80586704D01*
X72446741Y-80586704D02*
X72399122Y-80491466D01*
X72399122Y-80491466D02*
X72351503Y-80443847D01*
X72351503Y-80443847D02*
X72256265Y-80396228D01*
X72256265Y-80396228D02*
X72065789Y-80348609D01*
X72065789Y-80348609D02*
X71970551Y-80300990D01*
X71970551Y-80300990D02*
X71922932Y-80253371D01*
X71922932Y-80253371D02*
X71875313Y-80158133D01*
X71875313Y-80158133D02*
X71875313Y-80062895D01*
X71875313Y-80062895D02*
X71922932Y-79967657D01*
X71922932Y-79967657D02*
X71970551Y-79920038D01*
X71970551Y-79920038D02*
X72065789Y-79872419D01*
X72065789Y-79872419D02*
X72303884Y-79872419D01*
X72303884Y-79872419D02*
X72446741Y-79920038D01*
X72827694Y-80586704D02*
X73303884Y-80586704D01*
X72732456Y-80872419D02*
X73065789Y-79872419D01*
X73065789Y-79872419D02*
X73399122Y-80872419D01*
X73732456Y-80872419D02*
X73732456Y-79872419D01*
X73732456Y-79872419D02*
X74303884Y-80872419D01*
X74303884Y-80872419D02*
X74303884Y-79872419D01*
X74637218Y-79872419D02*
X75208646Y-79872419D01*
X74922932Y-80872419D02*
X74922932Y-79872419D01*
X75541980Y-80872419D02*
X75541980Y-79872419D01*
X75970551Y-80586704D02*
X76446741Y-80586704D01*
X75875313Y-80872419D02*
X76208646Y-79872419D01*
X76208646Y-79872419D02*
X76541979Y-80872419D01*
X77399122Y-79920038D02*
X77303884Y-79872419D01*
X77303884Y-79872419D02*
X77161027Y-79872419D01*
X77161027Y-79872419D02*
X77018170Y-79920038D01*
X77018170Y-79920038D02*
X76922932Y-80015276D01*
X76922932Y-80015276D02*
X76875313Y-80110514D01*
X76875313Y-80110514D02*
X76827694Y-80300990D01*
X76827694Y-80300990D02*
X76827694Y-80443847D01*
X76827694Y-80443847D02*
X76875313Y-80634323D01*
X76875313Y-80634323D02*
X76922932Y-80729561D01*
X76922932Y-80729561D02*
X77018170Y-80824800D01*
X77018170Y-80824800D02*
X77161027Y-80872419D01*
X77161027Y-80872419D02*
X77256265Y-80872419D01*
X77256265Y-80872419D02*
X77399122Y-80824800D01*
X77399122Y-80824800D02*
X77446741Y-80777180D01*
X77446741Y-80777180D02*
X77446741Y-80443847D01*
X77446741Y-80443847D02*
X77256265Y-80443847D01*
X78065789Y-79872419D02*
X78256265Y-79872419D01*
X78256265Y-79872419D02*
X78351503Y-79920038D01*
X78351503Y-79920038D02*
X78446741Y-80015276D01*
X78446741Y-80015276D02*
X78494360Y-80205752D01*
X78494360Y-80205752D02*
X78494360Y-80539085D01*
X78494360Y-80539085D02*
X78446741Y-80729561D01*
X78446741Y-80729561D02*
X78351503Y-80824800D01*
X78351503Y-80824800D02*
X78256265Y-80872419D01*
X78256265Y-80872419D02*
X78065789Y-80872419D01*
X78065789Y-80872419D02*
X77970551Y-80824800D01*
X77970551Y-80824800D02*
X77875313Y-80729561D01*
X77875313Y-80729561D02*
X77827694Y-80539085D01*
X77827694Y-80539085D02*
X77827694Y-80205752D01*
X77827694Y-80205752D02*
X77875313Y-80015276D01*
X77875313Y-80015276D02*
X77970551Y-79920038D01*
X77970551Y-79920038D02*
X78065789Y-79872419D01*
X80256265Y-80777180D02*
X80208646Y-80824800D01*
X80208646Y-80824800D02*
X80065789Y-80872419D01*
X80065789Y-80872419D02*
X79970551Y-80872419D01*
X79970551Y-80872419D02*
X79827694Y-80824800D01*
X79827694Y-80824800D02*
X79732456Y-80729561D01*
X79732456Y-80729561D02*
X79684837Y-80634323D01*
X79684837Y-80634323D02*
X79637218Y-80443847D01*
X79637218Y-80443847D02*
X79637218Y-80300990D01*
X79637218Y-80300990D02*
X79684837Y-80110514D01*
X79684837Y-80110514D02*
X79732456Y-80015276D01*
X79732456Y-80015276D02*
X79827694Y-79920038D01*
X79827694Y-79920038D02*
X79970551Y-79872419D01*
X79970551Y-79872419D02*
X80065789Y-79872419D01*
X80065789Y-79872419D02*
X80208646Y-79920038D01*
X80208646Y-79920038D02*
X80256265Y-79967657D01*
X80637218Y-80586704D02*
X81113408Y-80586704D01*
X80541980Y-80872419D02*
X80875313Y-79872419D01*
X80875313Y-79872419D02*
X81208646Y-80872419D01*
X81541980Y-80872419D02*
X81541980Y-79872419D01*
X82589598Y-80777180D02*
X82541979Y-80824800D01*
X82541979Y-80824800D02*
X82399122Y-80872419D01*
X82399122Y-80872419D02*
X82303884Y-80872419D01*
X82303884Y-80872419D02*
X82161027Y-80824800D01*
X82161027Y-80824800D02*
X82065789Y-80729561D01*
X82065789Y-80729561D02*
X82018170Y-80634323D01*
X82018170Y-80634323D02*
X81970551Y-80443847D01*
X81970551Y-80443847D02*
X81970551Y-80300990D01*
X81970551Y-80300990D02*
X82018170Y-80110514D01*
X82018170Y-80110514D02*
X82065789Y-80015276D01*
X82065789Y-80015276D02*
X82161027Y-79920038D01*
X82161027Y-79920038D02*
X82303884Y-79872419D01*
X82303884Y-79872419D02*
X82399122Y-79872419D01*
X82399122Y-79872419D02*
X82541979Y-79920038D01*
X82541979Y-79920038D02*
X82589598Y-79967657D01*
X83018170Y-80348609D02*
X83351503Y-80348609D01*
X83494360Y-80872419D02*
X83018170Y-80872419D01*
X83018170Y-80872419D02*
X83018170Y-79872419D01*
X83018170Y-79872419D02*
X83494360Y-79872419D01*
X83922932Y-80872419D02*
X83922932Y-79872419D01*
X83922932Y-79872419D02*
X84161027Y-79872419D01*
X84161027Y-79872419D02*
X84303884Y-79920038D01*
X84303884Y-79920038D02*
X84399122Y-80015276D01*
X84399122Y-80015276D02*
X84446741Y-80110514D01*
X84446741Y-80110514D02*
X84494360Y-80300990D01*
X84494360Y-80300990D02*
X84494360Y-80443847D01*
X84494360Y-80443847D02*
X84446741Y-80634323D01*
X84446741Y-80634323D02*
X84399122Y-80729561D01*
X84399122Y-80729561D02*
X84303884Y-80824800D01*
X84303884Y-80824800D02*
X84161027Y-80872419D01*
X84161027Y-80872419D02*
X83922932Y-80872419D01*
X85113408Y-79872419D02*
X85303884Y-79872419D01*
X85303884Y-79872419D02*
X85399122Y-79920038D01*
X85399122Y-79920038D02*
X85494360Y-80015276D01*
X85494360Y-80015276D02*
X85541979Y-80205752D01*
X85541979Y-80205752D02*
X85541979Y-80539085D01*
X85541979Y-80539085D02*
X85494360Y-80729561D01*
X85494360Y-80729561D02*
X85399122Y-80824800D01*
X85399122Y-80824800D02*
X85303884Y-80872419D01*
X85303884Y-80872419D02*
X85113408Y-80872419D01*
X85113408Y-80872419D02*
X85018170Y-80824800D01*
X85018170Y-80824800D02*
X84922932Y-80729561D01*
X84922932Y-80729561D02*
X84875313Y-80539085D01*
X84875313Y-80539085D02*
X84875313Y-80205752D01*
X84875313Y-80205752D02*
X84922932Y-80015276D01*
X84922932Y-80015276D02*
X85018170Y-79920038D01*
X85018170Y-79920038D02*
X85113408Y-79872419D01*
X166205752Y-59627544D02*
X167015276Y-59627544D01*
X167015276Y-59627544D02*
X167110514Y-59675163D01*
X167110514Y-59675163D02*
X167158133Y-59722782D01*
X167158133Y-59722782D02*
X167205752Y-59818020D01*
X167205752Y-59818020D02*
X167205752Y-59960877D01*
X167205752Y-59960877D02*
X167158133Y-60056115D01*
X166824800Y-59627544D02*
X166872419Y-59722782D01*
X166872419Y-59722782D02*
X166872419Y-59913258D01*
X166872419Y-59913258D02*
X166824800Y-60008496D01*
X166824800Y-60008496D02*
X166777180Y-60056115D01*
X166777180Y-60056115D02*
X166681942Y-60103734D01*
X166681942Y-60103734D02*
X166396228Y-60103734D01*
X166396228Y-60103734D02*
X166300990Y-60056115D01*
X166300990Y-60056115D02*
X166253371Y-60008496D01*
X166253371Y-60008496D02*
X166205752Y-59913258D01*
X166205752Y-59913258D02*
X166205752Y-59722782D01*
X166205752Y-59722782D02*
X166253371Y-59627544D01*
X166205752Y-59151353D02*
X166872419Y-59151353D01*
X166300990Y-59151353D02*
X166253371Y-59103734D01*
X166253371Y-59103734D02*
X166205752Y-59008496D01*
X166205752Y-59008496D02*
X166205752Y-58865639D01*
X166205752Y-58865639D02*
X166253371Y-58770401D01*
X166253371Y-58770401D02*
X166348609Y-58722782D01*
X166348609Y-58722782D02*
X166872419Y-58722782D01*
X166872419Y-57818020D02*
X165872419Y-57818020D01*
X166824800Y-57818020D02*
X166872419Y-57913258D01*
X166872419Y-57913258D02*
X166872419Y-58103734D01*
X166872419Y-58103734D02*
X166824800Y-58198972D01*
X166824800Y-58198972D02*
X166777180Y-58246591D01*
X166777180Y-58246591D02*
X166681942Y-58294210D01*
X166681942Y-58294210D02*
X166396228Y-58294210D01*
X166396228Y-58294210D02*
X166300990Y-58246591D01*
X166300990Y-58246591D02*
X166253371Y-58198972D01*
X166253371Y-58198972D02*
X166205752Y-58103734D01*
X166205752Y-58103734D02*
X166205752Y-57913258D01*
X166205752Y-57913258D02*
X166253371Y-57818020D01*
X153756115Y-29508533D02*
X152994211Y-29508533D01*
X153375163Y-29127580D02*
X153375163Y-29889485D01*
X152518020Y-29508533D02*
X151756116Y-29508533D01*
X16627580Y-38827693D02*
X16627580Y-38256265D01*
X16627580Y-38541979D02*
X17627580Y-38541979D01*
X17627580Y-38541979D02*
X17484723Y-38446741D01*
X17484723Y-38446741D02*
X17389485Y-38351503D01*
X17389485Y-38351503D02*
X17341866Y-38256265D01*
X17532342Y-39208646D02*
X17579961Y-39256265D01*
X17579961Y-39256265D02*
X17627580Y-39351503D01*
X17627580Y-39351503D02*
X17627580Y-39589598D01*
X17627580Y-39589598D02*
X17579961Y-39684836D01*
X17579961Y-39684836D02*
X17532342Y-39732455D01*
X17532342Y-39732455D02*
X17437104Y-39780074D01*
X17437104Y-39780074D02*
X17341866Y-39780074D01*
X17341866Y-39780074D02*
X17199009Y-39732455D01*
X17199009Y-39732455D02*
X16627580Y-39161027D01*
X16627580Y-39161027D02*
X16627580Y-39780074D01*
X17627580Y-40065789D02*
X16627580Y-40399122D01*
X16627580Y-40399122D02*
X17627580Y-40732455D01*
X17008533Y-41065789D02*
X17008533Y-41827694D01*
X17579961Y-42827693D02*
X17627580Y-42732455D01*
X17627580Y-42732455D02*
X17627580Y-42589598D01*
X17627580Y-42589598D02*
X17579961Y-42446741D01*
X17579961Y-42446741D02*
X17484723Y-42351503D01*
X17484723Y-42351503D02*
X17389485Y-42303884D01*
X17389485Y-42303884D02*
X17199009Y-42256265D01*
X17199009Y-42256265D02*
X17056152Y-42256265D01*
X17056152Y-42256265D02*
X16865676Y-42303884D01*
X16865676Y-42303884D02*
X16770438Y-42351503D01*
X16770438Y-42351503D02*
X16675200Y-42446741D01*
X16675200Y-42446741D02*
X16627580Y-42589598D01*
X16627580Y-42589598D02*
X16627580Y-42684836D01*
X16627580Y-42684836D02*
X16675200Y-42827693D01*
X16675200Y-42827693D02*
X16722819Y-42875312D01*
X16722819Y-42875312D02*
X17056152Y-42875312D01*
X17056152Y-42875312D02*
X17056152Y-42684836D01*
X16627580Y-43303884D02*
X17627580Y-43303884D01*
X17627580Y-43303884D02*
X16627580Y-43875312D01*
X16627580Y-43875312D02*
X17627580Y-43875312D01*
X16627580Y-44351503D02*
X17627580Y-44351503D01*
X17627580Y-44351503D02*
X17627580Y-44589598D01*
X17627580Y-44589598D02*
X17579961Y-44732455D01*
X17579961Y-44732455D02*
X17484723Y-44827693D01*
X17484723Y-44827693D02*
X17389485Y-44875312D01*
X17389485Y-44875312D02*
X17199009Y-44922931D01*
X17199009Y-44922931D02*
X17056152Y-44922931D01*
X17056152Y-44922931D02*
X16865676Y-44875312D01*
X16865676Y-44875312D02*
X16770438Y-44827693D01*
X16770438Y-44827693D02*
X16675200Y-44732455D01*
X16675200Y-44732455D02*
X16627580Y-44589598D01*
X16627580Y-44589598D02*
X16627580Y-44351503D01*
X69375312Y-79277180D02*
X69327693Y-79324800D01*
X69327693Y-79324800D02*
X69184836Y-79372419D01*
X69184836Y-79372419D02*
X69089598Y-79372419D01*
X69089598Y-79372419D02*
X68946741Y-79324800D01*
X68946741Y-79324800D02*
X68851503Y-79229561D01*
X68851503Y-79229561D02*
X68803884Y-79134323D01*
X68803884Y-79134323D02*
X68756265Y-78943847D01*
X68756265Y-78943847D02*
X68756265Y-78800990D01*
X68756265Y-78800990D02*
X68803884Y-78610514D01*
X68803884Y-78610514D02*
X68851503Y-78515276D01*
X68851503Y-78515276D02*
X68946741Y-78420038D01*
X68946741Y-78420038D02*
X69089598Y-78372419D01*
X69089598Y-78372419D02*
X69184836Y-78372419D01*
X69184836Y-78372419D02*
X69327693Y-78420038D01*
X69327693Y-78420038D02*
X69375312Y-78467657D01*
X69994360Y-78372419D02*
X70184836Y-78372419D01*
X70184836Y-78372419D02*
X70280074Y-78420038D01*
X70280074Y-78420038D02*
X70375312Y-78515276D01*
X70375312Y-78515276D02*
X70422931Y-78705752D01*
X70422931Y-78705752D02*
X70422931Y-79039085D01*
X70422931Y-79039085D02*
X70375312Y-79229561D01*
X70375312Y-79229561D02*
X70280074Y-79324800D01*
X70280074Y-79324800D02*
X70184836Y-79372419D01*
X70184836Y-79372419D02*
X69994360Y-79372419D01*
X69994360Y-79372419D02*
X69899122Y-79324800D01*
X69899122Y-79324800D02*
X69803884Y-79229561D01*
X69803884Y-79229561D02*
X69756265Y-79039085D01*
X69756265Y-79039085D02*
X69756265Y-78705752D01*
X69756265Y-78705752D02*
X69803884Y-78515276D01*
X69803884Y-78515276D02*
X69899122Y-78420038D01*
X69899122Y-78420038D02*
X69994360Y-78372419D01*
X70851503Y-79372419D02*
X70851503Y-78372419D01*
X70851503Y-78372419D02*
X71422931Y-79372419D01*
X71422931Y-79372419D02*
X71422931Y-78372419D01*
X71756265Y-78372419D02*
X72327693Y-78372419D01*
X72041979Y-79372419D02*
X72041979Y-78372419D01*
X73232455Y-79372419D02*
X72899122Y-78896228D01*
X72661027Y-79372419D02*
X72661027Y-78372419D01*
X72661027Y-78372419D02*
X73041979Y-78372419D01*
X73041979Y-78372419D02*
X73137217Y-78420038D01*
X73137217Y-78420038D02*
X73184836Y-78467657D01*
X73184836Y-78467657D02*
X73232455Y-78562895D01*
X73232455Y-78562895D02*
X73232455Y-78705752D01*
X73232455Y-78705752D02*
X73184836Y-78800990D01*
X73184836Y-78800990D02*
X73137217Y-78848609D01*
X73137217Y-78848609D02*
X73041979Y-78896228D01*
X73041979Y-78896228D02*
X72661027Y-78896228D01*
X73851503Y-78372419D02*
X74041979Y-78372419D01*
X74041979Y-78372419D02*
X74137217Y-78420038D01*
X74137217Y-78420038D02*
X74232455Y-78515276D01*
X74232455Y-78515276D02*
X74280074Y-78705752D01*
X74280074Y-78705752D02*
X74280074Y-79039085D01*
X74280074Y-79039085D02*
X74232455Y-79229561D01*
X74232455Y-79229561D02*
X74137217Y-79324800D01*
X74137217Y-79324800D02*
X74041979Y-79372419D01*
X74041979Y-79372419D02*
X73851503Y-79372419D01*
X73851503Y-79372419D02*
X73756265Y-79324800D01*
X73756265Y-79324800D02*
X73661027Y-79229561D01*
X73661027Y-79229561D02*
X73613408Y-79039085D01*
X73613408Y-79039085D02*
X73613408Y-78705752D01*
X73613408Y-78705752D02*
X73661027Y-78515276D01*
X73661027Y-78515276D02*
X73756265Y-78420038D01*
X73756265Y-78420038D02*
X73851503Y-78372419D01*
X75184836Y-79372419D02*
X74708646Y-79372419D01*
X74708646Y-79372419D02*
X74708646Y-78372419D01*
X76280075Y-79372419D02*
X76280075Y-78372419D01*
X76280075Y-78372419D02*
X76613408Y-79086704D01*
X76613408Y-79086704D02*
X76946741Y-78372419D01*
X76946741Y-78372419D02*
X76946741Y-79372419D01*
X77613408Y-78372419D02*
X77803884Y-78372419D01*
X77803884Y-78372419D02*
X77899122Y-78420038D01*
X77899122Y-78420038D02*
X77994360Y-78515276D01*
X77994360Y-78515276D02*
X78041979Y-78705752D01*
X78041979Y-78705752D02*
X78041979Y-79039085D01*
X78041979Y-79039085D02*
X77994360Y-79229561D01*
X77994360Y-79229561D02*
X77899122Y-79324800D01*
X77899122Y-79324800D02*
X77803884Y-79372419D01*
X77803884Y-79372419D02*
X77613408Y-79372419D01*
X77613408Y-79372419D02*
X77518170Y-79324800D01*
X77518170Y-79324800D02*
X77422932Y-79229561D01*
X77422932Y-79229561D02*
X77375313Y-79039085D01*
X77375313Y-79039085D02*
X77375313Y-78705752D01*
X77375313Y-78705752D02*
X77422932Y-78515276D01*
X77422932Y-78515276D02*
X77518170Y-78420038D01*
X77518170Y-78420038D02*
X77613408Y-78372419D01*
X78327694Y-78372419D02*
X78899122Y-78372419D01*
X78613408Y-79372419D02*
X78613408Y-78372419D01*
X79422932Y-78372419D02*
X79613408Y-78372419D01*
X79613408Y-78372419D02*
X79708646Y-78420038D01*
X79708646Y-78420038D02*
X79803884Y-78515276D01*
X79803884Y-78515276D02*
X79851503Y-78705752D01*
X79851503Y-78705752D02*
X79851503Y-79039085D01*
X79851503Y-79039085D02*
X79803884Y-79229561D01*
X79803884Y-79229561D02*
X79708646Y-79324800D01*
X79708646Y-79324800D02*
X79613408Y-79372419D01*
X79613408Y-79372419D02*
X79422932Y-79372419D01*
X79422932Y-79372419D02*
X79327694Y-79324800D01*
X79327694Y-79324800D02*
X79232456Y-79229561D01*
X79232456Y-79229561D02*
X79184837Y-79039085D01*
X79184837Y-79039085D02*
X79184837Y-78705752D01*
X79184837Y-78705752D02*
X79232456Y-78515276D01*
X79232456Y-78515276D02*
X79327694Y-78420038D01*
X79327694Y-78420038D02*
X79422932Y-78372419D01*
X80851503Y-79372419D02*
X80518170Y-78896228D01*
X80280075Y-79372419D02*
X80280075Y-78372419D01*
X80280075Y-78372419D02*
X80661027Y-78372419D01*
X80661027Y-78372419D02*
X80756265Y-78420038D01*
X80756265Y-78420038D02*
X80803884Y-78467657D01*
X80803884Y-78467657D02*
X80851503Y-78562895D01*
X80851503Y-78562895D02*
X80851503Y-78705752D01*
X80851503Y-78705752D02*
X80803884Y-78800990D01*
X80803884Y-78800990D02*
X80756265Y-78848609D01*
X80756265Y-78848609D02*
X80661027Y-78896228D01*
X80661027Y-78896228D02*
X80280075Y-78896228D01*
X82041980Y-79372419D02*
X82041980Y-78372419D01*
X82041980Y-78372419D02*
X82280075Y-78372419D01*
X82280075Y-78372419D02*
X82422932Y-78420038D01*
X82422932Y-78420038D02*
X82518170Y-78515276D01*
X82518170Y-78515276D02*
X82565789Y-78610514D01*
X82565789Y-78610514D02*
X82613408Y-78800990D01*
X82613408Y-78800990D02*
X82613408Y-78943847D01*
X82613408Y-78943847D02*
X82565789Y-79134323D01*
X82565789Y-79134323D02*
X82518170Y-79229561D01*
X82518170Y-79229561D02*
X82422932Y-79324800D01*
X82422932Y-79324800D02*
X82280075Y-79372419D01*
X82280075Y-79372419D02*
X82041980Y-79372419D01*
X83613408Y-79277180D02*
X83565789Y-79324800D01*
X83565789Y-79324800D02*
X83422932Y-79372419D01*
X83422932Y-79372419D02*
X83327694Y-79372419D01*
X83327694Y-79372419D02*
X83184837Y-79324800D01*
X83184837Y-79324800D02*
X83089599Y-79229561D01*
X83089599Y-79229561D02*
X83041980Y-79134323D01*
X83041980Y-79134323D02*
X82994361Y-78943847D01*
X82994361Y-78943847D02*
X82994361Y-78800990D01*
X82994361Y-78800990D02*
X83041980Y-78610514D01*
X83041980Y-78610514D02*
X83089599Y-78515276D01*
X83089599Y-78515276D02*
X83184837Y-78420038D01*
X83184837Y-78420038D02*
X83327694Y-78372419D01*
X83327694Y-78372419D02*
X83422932Y-78372419D01*
X83422932Y-78372419D02*
X83565789Y-78420038D01*
X83565789Y-78420038D02*
X83613408Y-78467657D01*
X84803885Y-79372419D02*
X84803885Y-78372419D01*
X84803885Y-78372419D02*
X85184837Y-78372419D01*
X85184837Y-78372419D02*
X85280075Y-78420038D01*
X85280075Y-78420038D02*
X85327694Y-78467657D01*
X85327694Y-78467657D02*
X85375313Y-78562895D01*
X85375313Y-78562895D02*
X85375313Y-78705752D01*
X85375313Y-78705752D02*
X85327694Y-78800990D01*
X85327694Y-78800990D02*
X85280075Y-78848609D01*
X85280075Y-78848609D02*
X85184837Y-78896228D01*
X85184837Y-78896228D02*
X84803885Y-78896228D01*
X85708647Y-78372419D02*
X85946742Y-79372419D01*
X85946742Y-79372419D02*
X86137218Y-78658133D01*
X86137218Y-78658133D02*
X86327694Y-79372419D01*
X86327694Y-79372419D02*
X86565790Y-78372419D01*
X86946742Y-79372419D02*
X86946742Y-78372419D01*
X86946742Y-78372419D02*
X87280075Y-79086704D01*
X87280075Y-79086704D02*
X87613408Y-78372419D01*
X87613408Y-78372419D02*
X87613408Y-79372419D01*
X89375313Y-79372419D02*
X88803885Y-79372419D01*
X89089599Y-79372419D02*
X89089599Y-78372419D01*
X89089599Y-78372419D02*
X88994361Y-78515276D01*
X88994361Y-78515276D02*
X88899123Y-78610514D01*
X88899123Y-78610514D02*
X88803885Y-78658133D01*
X89756266Y-78467657D02*
X89803885Y-78420038D01*
X89803885Y-78420038D02*
X89899123Y-78372419D01*
X89899123Y-78372419D02*
X90137218Y-78372419D01*
X90137218Y-78372419D02*
X90232456Y-78420038D01*
X90232456Y-78420038D02*
X90280075Y-78467657D01*
X90280075Y-78467657D02*
X90327694Y-78562895D01*
X90327694Y-78562895D02*
X90327694Y-78658133D01*
X90327694Y-78658133D02*
X90280075Y-78800990D01*
X90280075Y-78800990D02*
X89708647Y-79372419D01*
X89708647Y-79372419D02*
X90327694Y-79372419D01*
X90613409Y-78372419D02*
X90946742Y-79372419D01*
X90946742Y-79372419D02*
X91280075Y-78372419D01*
X166372419Y-69338972D02*
X167372419Y-69005639D01*
X167372419Y-69005639D02*
X166372419Y-68672306D01*
X167372419Y-68338972D02*
X166705752Y-68338972D01*
X166372419Y-68338972D02*
X166420038Y-68386591D01*
X166420038Y-68386591D02*
X166467657Y-68338972D01*
X166467657Y-68338972D02*
X166420038Y-68291353D01*
X166420038Y-68291353D02*
X166372419Y-68338972D01*
X166372419Y-68338972D02*
X166467657Y-68338972D01*
X166705752Y-67862782D02*
X167372419Y-67862782D01*
X166800990Y-67862782D02*
X166753371Y-67815163D01*
X166753371Y-67815163D02*
X166705752Y-67719925D01*
X166705752Y-67719925D02*
X166705752Y-67577068D01*
X166705752Y-67577068D02*
X166753371Y-67481830D01*
X166753371Y-67481830D02*
X166848609Y-67434211D01*
X166848609Y-67434211D02*
X167372419Y-67434211D01*
X167161027Y-32762475D02*
X167494360Y-33762475D01*
X167494360Y-33762475D02*
X167827693Y-32762475D01*
X168161027Y-33762475D02*
X168161027Y-33095808D01*
X168161027Y-32762475D02*
X168113408Y-32810094D01*
X168113408Y-32810094D02*
X168161027Y-32857713D01*
X168161027Y-32857713D02*
X168208646Y-32810094D01*
X168208646Y-32810094D02*
X168161027Y-32762475D01*
X168161027Y-32762475D02*
X168161027Y-32857713D01*
X168637217Y-33095808D02*
X168637217Y-33762475D01*
X168637217Y-33191046D02*
X168684836Y-33143427D01*
X168684836Y-33143427D02*
X168780074Y-33095808D01*
X168780074Y-33095808D02*
X168922931Y-33095808D01*
X168922931Y-33095808D02*
X169018169Y-33143427D01*
X169018169Y-33143427D02*
X169065788Y-33238665D01*
X169065788Y-33238665D02*
X169065788Y-33762475D01*
X163150193Y-33879919D02*
X162578765Y-33879919D01*
X162864479Y-33879919D02*
X162864479Y-32879919D01*
X162864479Y-32879919D02*
X162769241Y-33022776D01*
X162769241Y-33022776D02*
X162674003Y-33118014D01*
X162674003Y-33118014D02*
X162578765Y-33165633D01*
X163531146Y-32975157D02*
X163578765Y-32927538D01*
X163578765Y-32927538D02*
X163674003Y-32879919D01*
X163674003Y-32879919D02*
X163912098Y-32879919D01*
X163912098Y-32879919D02*
X164007336Y-32927538D01*
X164007336Y-32927538D02*
X164054955Y-32975157D01*
X164054955Y-32975157D02*
X164102574Y-33070395D01*
X164102574Y-33070395D02*
X164102574Y-33165633D01*
X164102574Y-33165633D02*
X164054955Y-33308490D01*
X164054955Y-33308490D02*
X163483527Y-33879919D01*
X163483527Y-33879919D02*
X164102574Y-33879919D01*
X164435908Y-33213252D02*
X164674003Y-33879919D01*
X164674003Y-33879919D02*
X164912098Y-33213252D01*
X164756265Y-45604912D02*
X164851503Y-45652531D01*
X164851503Y-45652531D02*
X165041979Y-45652531D01*
X165041979Y-45652531D02*
X165137217Y-45604912D01*
X165137217Y-45604912D02*
X165184836Y-45509673D01*
X165184836Y-45509673D02*
X165184836Y-45462054D01*
X165184836Y-45462054D02*
X165137217Y-45366816D01*
X165137217Y-45366816D02*
X165041979Y-45319197D01*
X165041979Y-45319197D02*
X164899122Y-45319197D01*
X164899122Y-45319197D02*
X164803884Y-45271578D01*
X164803884Y-45271578D02*
X164756265Y-45176340D01*
X164756265Y-45176340D02*
X164756265Y-45128721D01*
X164756265Y-45128721D02*
X164803884Y-45033483D01*
X164803884Y-45033483D02*
X164899122Y-44985864D01*
X164899122Y-44985864D02*
X165041979Y-44985864D01*
X165041979Y-44985864D02*
X165137217Y-45033483D01*
X165994360Y-45604912D02*
X165899122Y-45652531D01*
X165899122Y-45652531D02*
X165708646Y-45652531D01*
X165708646Y-45652531D02*
X165613408Y-45604912D01*
X165613408Y-45604912D02*
X165565789Y-45509673D01*
X165565789Y-45509673D02*
X165565789Y-45128721D01*
X165565789Y-45128721D02*
X165613408Y-45033483D01*
X165613408Y-45033483D02*
X165708646Y-44985864D01*
X165708646Y-44985864D02*
X165899122Y-44985864D01*
X165899122Y-44985864D02*
X165994360Y-45033483D01*
X165994360Y-45033483D02*
X166041979Y-45128721D01*
X166041979Y-45128721D02*
X166041979Y-45223959D01*
X166041979Y-45223959D02*
X165565789Y-45319197D01*
X166613408Y-45652531D02*
X166518170Y-45604912D01*
X166518170Y-45604912D02*
X166470551Y-45509673D01*
X166470551Y-45509673D02*
X166470551Y-44652531D01*
X167375313Y-45604912D02*
X167280075Y-45652531D01*
X167280075Y-45652531D02*
X167089599Y-45652531D01*
X167089599Y-45652531D02*
X166994361Y-45604912D01*
X166994361Y-45604912D02*
X166946742Y-45509673D01*
X166946742Y-45509673D02*
X166946742Y-45128721D01*
X166946742Y-45128721D02*
X166994361Y-45033483D01*
X166994361Y-45033483D02*
X167089599Y-44985864D01*
X167089599Y-44985864D02*
X167280075Y-44985864D01*
X167280075Y-44985864D02*
X167375313Y-45033483D01*
X167375313Y-45033483D02*
X167422932Y-45128721D01*
X167422932Y-45128721D02*
X167422932Y-45223959D01*
X167422932Y-45223959D02*
X166946742Y-45319197D01*
X168280075Y-45604912D02*
X168184837Y-45652531D01*
X168184837Y-45652531D02*
X167994361Y-45652531D01*
X167994361Y-45652531D02*
X167899123Y-45604912D01*
X167899123Y-45604912D02*
X167851504Y-45557292D01*
X167851504Y-45557292D02*
X167803885Y-45462054D01*
X167803885Y-45462054D02*
X167803885Y-45176340D01*
X167803885Y-45176340D02*
X167851504Y-45081102D01*
X167851504Y-45081102D02*
X167899123Y-45033483D01*
X167899123Y-45033483D02*
X167994361Y-44985864D01*
X167994361Y-44985864D02*
X168184837Y-44985864D01*
X168184837Y-44985864D02*
X168280075Y-45033483D01*
X168565790Y-44985864D02*
X168946742Y-44985864D01*
X168708647Y-44652531D02*
X168708647Y-45509673D01*
X168708647Y-45509673D02*
X168756266Y-45604912D01*
X168756266Y-45604912D02*
X168851504Y-45652531D01*
X168851504Y-45652531D02*
X168946742Y-45652531D01*
X164708646Y-46595808D02*
X164946741Y-47262475D01*
X164946741Y-47262475D02*
X165184836Y-46595808D01*
X165708646Y-47262475D02*
X165613408Y-47214856D01*
X165613408Y-47214856D02*
X165565789Y-47167236D01*
X165565789Y-47167236D02*
X165518170Y-47071998D01*
X165518170Y-47071998D02*
X165518170Y-46786284D01*
X165518170Y-46786284D02*
X165565789Y-46691046D01*
X165565789Y-46691046D02*
X165613408Y-46643427D01*
X165613408Y-46643427D02*
X165708646Y-46595808D01*
X165708646Y-46595808D02*
X165851503Y-46595808D01*
X165851503Y-46595808D02*
X165946741Y-46643427D01*
X165946741Y-46643427D02*
X165994360Y-46691046D01*
X165994360Y-46691046D02*
X166041979Y-46786284D01*
X166041979Y-46786284D02*
X166041979Y-47071998D01*
X166041979Y-47071998D02*
X165994360Y-47167236D01*
X165994360Y-47167236D02*
X165946741Y-47214856D01*
X165946741Y-47214856D02*
X165851503Y-47262475D01*
X165851503Y-47262475D02*
X165708646Y-47262475D01*
X166613408Y-47262475D02*
X166518170Y-47214856D01*
X166518170Y-47214856D02*
X166470551Y-47119617D01*
X166470551Y-47119617D02*
X166470551Y-46262475D01*
X166851504Y-46595808D02*
X167232456Y-46595808D01*
X166994361Y-46262475D02*
X166994361Y-47119617D01*
X166994361Y-47119617D02*
X167041980Y-47214856D01*
X167041980Y-47214856D02*
X167137218Y-47262475D01*
X167137218Y-47262475D02*
X167232456Y-47262475D01*
X167994361Y-47262475D02*
X167994361Y-46738665D01*
X167994361Y-46738665D02*
X167946742Y-46643427D01*
X167946742Y-46643427D02*
X167851504Y-46595808D01*
X167851504Y-46595808D02*
X167661028Y-46595808D01*
X167661028Y-46595808D02*
X167565790Y-46643427D01*
X167994361Y-47214856D02*
X167899123Y-47262475D01*
X167899123Y-47262475D02*
X167661028Y-47262475D01*
X167661028Y-47262475D02*
X167565790Y-47214856D01*
X167565790Y-47214856D02*
X167518171Y-47119617D01*
X167518171Y-47119617D02*
X167518171Y-47024379D01*
X167518171Y-47024379D02*
X167565790Y-46929141D01*
X167565790Y-46929141D02*
X167661028Y-46881522D01*
X167661028Y-46881522D02*
X167899123Y-46881522D01*
X167899123Y-46881522D02*
X167994361Y-46833903D01*
X168899123Y-46595808D02*
X168899123Y-47405332D01*
X168899123Y-47405332D02*
X168851504Y-47500570D01*
X168851504Y-47500570D02*
X168803885Y-47548189D01*
X168803885Y-47548189D02*
X168708647Y-47595808D01*
X168708647Y-47595808D02*
X168565790Y-47595808D01*
X168565790Y-47595808D02*
X168470552Y-47548189D01*
X168899123Y-47214856D02*
X168803885Y-47262475D01*
X168803885Y-47262475D02*
X168613409Y-47262475D01*
X168613409Y-47262475D02*
X168518171Y-47214856D01*
X168518171Y-47214856D02*
X168470552Y-47167236D01*
X168470552Y-47167236D02*
X168422933Y-47071998D01*
X168422933Y-47071998D02*
X168422933Y-46786284D01*
X168422933Y-46786284D02*
X168470552Y-46691046D01*
X168470552Y-46691046D02*
X168518171Y-46643427D01*
X168518171Y-46643427D02*
X168613409Y-46595808D01*
X168613409Y-46595808D02*
X168803885Y-46595808D01*
X168803885Y-46595808D02*
X168899123Y-46643427D01*
X169756266Y-47214856D02*
X169661028Y-47262475D01*
X169661028Y-47262475D02*
X169470552Y-47262475D01*
X169470552Y-47262475D02*
X169375314Y-47214856D01*
X169375314Y-47214856D02*
X169327695Y-47119617D01*
X169327695Y-47119617D02*
X169327695Y-46738665D01*
X169327695Y-46738665D02*
X169375314Y-46643427D01*
X169375314Y-46643427D02*
X169470552Y-46595808D01*
X169470552Y-46595808D02*
X169661028Y-46595808D01*
X169661028Y-46595808D02*
X169756266Y-46643427D01*
X169756266Y-46643427D02*
X169803885Y-46738665D01*
X169803885Y-46738665D02*
X169803885Y-46833903D01*
X169803885Y-46833903D02*
X169327695Y-46929141D01*
X164803884Y-48872419D02*
X164803884Y-48205752D01*
X164803884Y-48300990D02*
X164851503Y-48253371D01*
X164851503Y-48253371D02*
X164946741Y-48205752D01*
X164946741Y-48205752D02*
X165089598Y-48205752D01*
X165089598Y-48205752D02*
X165184836Y-48253371D01*
X165184836Y-48253371D02*
X165232455Y-48348609D01*
X165232455Y-48348609D02*
X165232455Y-48872419D01*
X165232455Y-48348609D02*
X165280074Y-48253371D01*
X165280074Y-48253371D02*
X165375312Y-48205752D01*
X165375312Y-48205752D02*
X165518169Y-48205752D01*
X165518169Y-48205752D02*
X165613408Y-48253371D01*
X165613408Y-48253371D02*
X165661027Y-48348609D01*
X165661027Y-48348609D02*
X165661027Y-48872419D01*
X166280074Y-48872419D02*
X166184836Y-48824800D01*
X166184836Y-48824800D02*
X166137217Y-48777180D01*
X166137217Y-48777180D02*
X166089598Y-48681942D01*
X166089598Y-48681942D02*
X166089598Y-48396228D01*
X166089598Y-48396228D02*
X166137217Y-48300990D01*
X166137217Y-48300990D02*
X166184836Y-48253371D01*
X166184836Y-48253371D02*
X166280074Y-48205752D01*
X166280074Y-48205752D02*
X166422931Y-48205752D01*
X166422931Y-48205752D02*
X166518169Y-48253371D01*
X166518169Y-48253371D02*
X166565788Y-48300990D01*
X166565788Y-48300990D02*
X166613407Y-48396228D01*
X166613407Y-48396228D02*
X166613407Y-48681942D01*
X166613407Y-48681942D02*
X166565788Y-48777180D01*
X166565788Y-48777180D02*
X166518169Y-48824800D01*
X166518169Y-48824800D02*
X166422931Y-48872419D01*
X166422931Y-48872419D02*
X166280074Y-48872419D01*
X166899122Y-48205752D02*
X167280074Y-48205752D01*
X167041979Y-47872419D02*
X167041979Y-48729561D01*
X167041979Y-48729561D02*
X167089598Y-48824800D01*
X167089598Y-48824800D02*
X167184836Y-48872419D01*
X167184836Y-48872419D02*
X167280074Y-48872419D01*
X167756265Y-48872419D02*
X167661027Y-48824800D01*
X167661027Y-48824800D02*
X167613408Y-48777180D01*
X167613408Y-48777180D02*
X167565789Y-48681942D01*
X167565789Y-48681942D02*
X167565789Y-48396228D01*
X167565789Y-48396228D02*
X167613408Y-48300990D01*
X167613408Y-48300990D02*
X167661027Y-48253371D01*
X167661027Y-48253371D02*
X167756265Y-48205752D01*
X167756265Y-48205752D02*
X167899122Y-48205752D01*
X167899122Y-48205752D02*
X167994360Y-48253371D01*
X167994360Y-48253371D02*
X168041979Y-48300990D01*
X168041979Y-48300990D02*
X168089598Y-48396228D01*
X168089598Y-48396228D02*
X168089598Y-48681942D01*
X168089598Y-48681942D02*
X168041979Y-48777180D01*
X168041979Y-48777180D02*
X167994360Y-48824800D01*
X167994360Y-48824800D02*
X167899122Y-48872419D01*
X167899122Y-48872419D02*
X167756265Y-48872419D01*
X168518170Y-48872419D02*
X168518170Y-48205752D01*
X168518170Y-48396228D02*
X168565789Y-48300990D01*
X168565789Y-48300990D02*
X168613408Y-48253371D01*
X168613408Y-48253371D02*
X168708646Y-48205752D01*
X168708646Y-48205752D02*
X168803884Y-48205752D01*
D11*
X161729700Y-40290832D02*
X161777319Y-40147975D01*
X161777319Y-40147975D02*
X161777319Y-39909880D01*
X161777319Y-39909880D02*
X161729700Y-39814642D01*
X161729700Y-39814642D02*
X161682080Y-39767023D01*
X161682080Y-39767023D02*
X161586842Y-39719404D01*
X161586842Y-39719404D02*
X161491604Y-39719404D01*
X161491604Y-39719404D02*
X161396366Y-39767023D01*
X161396366Y-39767023D02*
X161348747Y-39814642D01*
X161348747Y-39814642D02*
X161301128Y-39909880D01*
X161301128Y-39909880D02*
X161253509Y-40100356D01*
X161253509Y-40100356D02*
X161205890Y-40195594D01*
X161205890Y-40195594D02*
X161158271Y-40243213D01*
X161158271Y-40243213D02*
X161063033Y-40290832D01*
X161063033Y-40290832D02*
X160967795Y-40290832D01*
X160967795Y-40290832D02*
X160872557Y-40243213D01*
X160872557Y-40243213D02*
X160824938Y-40195594D01*
X160824938Y-40195594D02*
X160777319Y-40100356D01*
X160777319Y-40100356D02*
X160777319Y-39862261D01*
X160777319Y-39862261D02*
X160824938Y-39719404D01*
X160777319Y-39386070D02*
X161777319Y-39147975D01*
X161777319Y-39147975D02*
X161063033Y-38957499D01*
X161063033Y-38957499D02*
X161777319Y-38767023D01*
X161777319Y-38767023D02*
X160777319Y-38528928D01*
X160872557Y-38195594D02*
X160824938Y-38147975D01*
X160824938Y-38147975D02*
X160777319Y-38052737D01*
X160777319Y-38052737D02*
X160777319Y-37814642D01*
X160777319Y-37814642D02*
X160824938Y-37719404D01*
X160824938Y-37719404D02*
X160872557Y-37671785D01*
X160872557Y-37671785D02*
X160967795Y-37624166D01*
X160967795Y-37624166D02*
X161063033Y-37624166D01*
X161063033Y-37624166D02*
X161205890Y-37671785D01*
X161205890Y-37671785D02*
X161777319Y-38243213D01*
X161777319Y-38243213D02*
X161777319Y-37624166D01*
X162711009Y-64055714D02*
X162758628Y-63912857D01*
X162758628Y-63912857D02*
X162806247Y-63865238D01*
X162806247Y-63865238D02*
X162901485Y-63817619D01*
X162901485Y-63817619D02*
X163044342Y-63817619D01*
X163044342Y-63817619D02*
X163139580Y-63865238D01*
X163139580Y-63865238D02*
X163187200Y-63912857D01*
X163187200Y-63912857D02*
X163234819Y-64008095D01*
X163234819Y-64008095D02*
X163234819Y-64389047D01*
X163234819Y-64389047D02*
X162234819Y-64389047D01*
X162234819Y-64389047D02*
X162234819Y-64055714D01*
X162234819Y-64055714D02*
X162282438Y-63960476D01*
X162282438Y-63960476D02*
X162330057Y-63912857D01*
X162330057Y-63912857D02*
X162425295Y-63865238D01*
X162425295Y-63865238D02*
X162520533Y-63865238D01*
X162520533Y-63865238D02*
X162615771Y-63912857D01*
X162615771Y-63912857D02*
X162663390Y-63960476D01*
X162663390Y-63960476D02*
X162711009Y-64055714D01*
X162711009Y-64055714D02*
X162711009Y-64389047D01*
X162234819Y-63531904D02*
X162234819Y-62960476D01*
X163234819Y-63246190D02*
X162234819Y-63246190D01*
X162330057Y-62674761D02*
X162282438Y-62627142D01*
X162282438Y-62627142D02*
X162234819Y-62531904D01*
X162234819Y-62531904D02*
X162234819Y-62293809D01*
X162234819Y-62293809D02*
X162282438Y-62198571D01*
X162282438Y-62198571D02*
X162330057Y-62150952D01*
X162330057Y-62150952D02*
X162425295Y-62103333D01*
X162425295Y-62103333D02*
X162520533Y-62103333D01*
X162520533Y-62103333D02*
X162663390Y-62150952D01*
X162663390Y-62150952D02*
X163234819Y-62722380D01*
X163234819Y-62722380D02*
X163234819Y-62103333D01*
X152420476Y-39174819D02*
X152420476Y-38174819D01*
X152420476Y-38174819D02*
X152753809Y-38889104D01*
X152753809Y-38889104D02*
X153087142Y-38174819D01*
X153087142Y-38174819D02*
X153087142Y-39174819D01*
X154087142Y-39174819D02*
X153515714Y-39174819D01*
X153801428Y-39174819D02*
X153801428Y-38174819D01*
X153801428Y-38174819D02*
X153706190Y-38317676D01*
X153706190Y-38317676D02*
X153610952Y-38412914D01*
X153610952Y-38412914D02*
X153515714Y-38460533D01*
X26151009Y-41555714D02*
X26198628Y-41412857D01*
X26198628Y-41412857D02*
X26246247Y-41365238D01*
X26246247Y-41365238D02*
X26341485Y-41317619D01*
X26341485Y-41317619D02*
X26484342Y-41317619D01*
X26484342Y-41317619D02*
X26579580Y-41365238D01*
X26579580Y-41365238D02*
X26627200Y-41412857D01*
X26627200Y-41412857D02*
X26674819Y-41508095D01*
X26674819Y-41508095D02*
X26674819Y-41889047D01*
X26674819Y-41889047D02*
X25674819Y-41889047D01*
X25674819Y-41889047D02*
X25674819Y-41555714D01*
X25674819Y-41555714D02*
X25722438Y-41460476D01*
X25722438Y-41460476D02*
X25770057Y-41412857D01*
X25770057Y-41412857D02*
X25865295Y-41365238D01*
X25865295Y-41365238D02*
X25960533Y-41365238D01*
X25960533Y-41365238D02*
X26055771Y-41412857D01*
X26055771Y-41412857D02*
X26103390Y-41460476D01*
X26103390Y-41460476D02*
X26151009Y-41555714D01*
X26151009Y-41555714D02*
X26151009Y-41889047D01*
X25674819Y-41031904D02*
X25674819Y-40460476D01*
X26674819Y-40746190D02*
X25674819Y-40746190D01*
X26674819Y-39603333D02*
X26674819Y-40174761D01*
X26674819Y-39889047D02*
X25674819Y-39889047D01*
X25674819Y-39889047D02*
X25817676Y-39984285D01*
X25817676Y-39984285D02*
X25912914Y-40079523D01*
X25912914Y-40079523D02*
X25960533Y-40174761D01*
X82083333Y-50309580D02*
X82035714Y-50357200D01*
X82035714Y-50357200D02*
X81892857Y-50404819D01*
X81892857Y-50404819D02*
X81797619Y-50404819D01*
X81797619Y-50404819D02*
X81654762Y-50357200D01*
X81654762Y-50357200D02*
X81559524Y-50261961D01*
X81559524Y-50261961D02*
X81511905Y-50166723D01*
X81511905Y-50166723D02*
X81464286Y-49976247D01*
X81464286Y-49976247D02*
X81464286Y-49833390D01*
X81464286Y-49833390D02*
X81511905Y-49642914D01*
X81511905Y-49642914D02*
X81559524Y-49547676D01*
X81559524Y-49547676D02*
X81654762Y-49452438D01*
X81654762Y-49452438D02*
X81797619Y-49404819D01*
X81797619Y-49404819D02*
X81892857Y-49404819D01*
X81892857Y-49404819D02*
X82035714Y-49452438D01*
X82035714Y-49452438D02*
X82083333Y-49500057D01*
X82940476Y-49738152D02*
X82940476Y-50404819D01*
X82702381Y-49357200D02*
X82464286Y-50071485D01*
X82464286Y-50071485D02*
X83083333Y-50071485D01*
X91714285Y-50274819D02*
X91238095Y-50274819D01*
X91238095Y-50274819D02*
X91190476Y-50751009D01*
X91190476Y-50751009D02*
X91238095Y-50703390D01*
X91238095Y-50703390D02*
X91333333Y-50655771D01*
X91333333Y-50655771D02*
X91571428Y-50655771D01*
X91571428Y-50655771D02*
X91666666Y-50703390D01*
X91666666Y-50703390D02*
X91714285Y-50751009D01*
X91714285Y-50751009D02*
X91761904Y-50846247D01*
X91761904Y-50846247D02*
X91761904Y-51084342D01*
X91761904Y-51084342D02*
X91714285Y-51179580D01*
X91714285Y-51179580D02*
X91666666Y-51227200D01*
X91666666Y-51227200D02*
X91571428Y-51274819D01*
X91571428Y-51274819D02*
X91333333Y-51274819D01*
X91333333Y-51274819D02*
X91238095Y-51227200D01*
X91238095Y-51227200D02*
X91190476Y-51179580D01*
X92619047Y-50608152D02*
X92619047Y-51274819D01*
X92380952Y-50227200D02*
X92142857Y-50941485D01*
X92142857Y-50941485D02*
X92761904Y-50941485D01*
X93333333Y-50274819D02*
X93428571Y-50274819D01*
X93428571Y-50274819D02*
X93523809Y-50322438D01*
X93523809Y-50322438D02*
X93571428Y-50370057D01*
X93571428Y-50370057D02*
X93619047Y-50465295D01*
X93619047Y-50465295D02*
X93666666Y-50655771D01*
X93666666Y-50655771D02*
X93666666Y-50893866D01*
X93666666Y-50893866D02*
X93619047Y-51084342D01*
X93619047Y-51084342D02*
X93571428Y-51179580D01*
X93571428Y-51179580D02*
X93523809Y-51227200D01*
X93523809Y-51227200D02*
X93428571Y-51274819D01*
X93428571Y-51274819D02*
X93333333Y-51274819D01*
X93333333Y-51274819D02*
X93238095Y-51227200D01*
X93238095Y-51227200D02*
X93190476Y-51179580D01*
X93190476Y-51179580D02*
X93142857Y-51084342D01*
X93142857Y-51084342D02*
X93095238Y-50893866D01*
X93095238Y-50893866D02*
X93095238Y-50655771D01*
X93095238Y-50655771D02*
X93142857Y-50465295D01*
X93142857Y-50465295D02*
X93190476Y-50370057D01*
X93190476Y-50370057D02*
X93238095Y-50322438D01*
X93238095Y-50322438D02*
X93333333Y-50274819D01*
X94238095Y-51274819D02*
X94142857Y-51227200D01*
X94142857Y-51227200D02*
X94095238Y-51179580D01*
X94095238Y-51179580D02*
X94047619Y-51084342D01*
X94047619Y-51084342D02*
X94047619Y-50798628D01*
X94047619Y-50798628D02*
X94095238Y-50703390D01*
X94095238Y-50703390D02*
X94142857Y-50655771D01*
X94142857Y-50655771D02*
X94238095Y-50608152D01*
X94238095Y-50608152D02*
X94380952Y-50608152D01*
X94380952Y-50608152D02*
X94476190Y-50655771D01*
X94476190Y-50655771D02*
X94523809Y-50703390D01*
X94523809Y-50703390D02*
X94571428Y-50798628D01*
X94571428Y-50798628D02*
X94571428Y-51084342D01*
X94571428Y-51084342D02*
X94523809Y-51179580D01*
X94523809Y-51179580D02*
X94476190Y-51227200D01*
X94476190Y-51227200D02*
X94380952Y-51274819D01*
X94380952Y-51274819D02*
X94238095Y-51274819D01*
X95000000Y-51274819D02*
X95000000Y-50274819D01*
X95428571Y-51274819D02*
X95428571Y-50751009D01*
X95428571Y-50751009D02*
X95380952Y-50655771D01*
X95380952Y-50655771D02*
X95285714Y-50608152D01*
X95285714Y-50608152D02*
X95142857Y-50608152D01*
X95142857Y-50608152D02*
X95047619Y-50655771D01*
X95047619Y-50655771D02*
X95000000Y-50703390D01*
X95904762Y-51274819D02*
X95904762Y-50608152D01*
X95904762Y-50703390D02*
X95952381Y-50655771D01*
X95952381Y-50655771D02*
X96047619Y-50608152D01*
X96047619Y-50608152D02*
X96190476Y-50608152D01*
X96190476Y-50608152D02*
X96285714Y-50655771D01*
X96285714Y-50655771D02*
X96333333Y-50751009D01*
X96333333Y-50751009D02*
X96333333Y-51274819D01*
X96333333Y-50751009D02*
X96380952Y-50655771D01*
X96380952Y-50655771D02*
X96476190Y-50608152D01*
X96476190Y-50608152D02*
X96619047Y-50608152D01*
X96619047Y-50608152D02*
X96714286Y-50655771D01*
X96714286Y-50655771D02*
X96761905Y-50751009D01*
X96761905Y-50751009D02*
X96761905Y-51274819D01*
X66261905Y-42484819D02*
X66261905Y-41484819D01*
X66261905Y-41484819D02*
X66500000Y-41484819D01*
X66500000Y-41484819D02*
X66642857Y-41532438D01*
X66642857Y-41532438D02*
X66738095Y-41627676D01*
X66738095Y-41627676D02*
X66785714Y-41722914D01*
X66785714Y-41722914D02*
X66833333Y-41913390D01*
X66833333Y-41913390D02*
X66833333Y-42056247D01*
X66833333Y-42056247D02*
X66785714Y-42246723D01*
X66785714Y-42246723D02*
X66738095Y-42341961D01*
X66738095Y-42341961D02*
X66642857Y-42437200D01*
X66642857Y-42437200D02*
X66500000Y-42484819D01*
X66500000Y-42484819D02*
X66261905Y-42484819D01*
X67785714Y-42484819D02*
X67214286Y-42484819D01*
X67500000Y-42484819D02*
X67500000Y-41484819D01*
X67500000Y-41484819D02*
X67404762Y-41627676D01*
X67404762Y-41627676D02*
X67309524Y-41722914D01*
X67309524Y-41722914D02*
X67214286Y-41770533D01*
X59118095Y-43604819D02*
X59118095Y-42604819D01*
X59689523Y-43604819D02*
X59260952Y-43033390D01*
X59689523Y-42604819D02*
X59118095Y-43176247D01*
X133619048Y-28774819D02*
X133619048Y-27774819D01*
X134666666Y-28774819D02*
X134333333Y-28298628D01*
X134095238Y-28774819D02*
X134095238Y-27774819D01*
X134095238Y-27774819D02*
X134476190Y-27774819D01*
X134476190Y-27774819D02*
X134571428Y-27822438D01*
X134571428Y-27822438D02*
X134619047Y-27870057D01*
X134619047Y-27870057D02*
X134666666Y-27965295D01*
X134666666Y-27965295D02*
X134666666Y-28108152D01*
X134666666Y-28108152D02*
X134619047Y-28203390D01*
X134619047Y-28203390D02*
X134571428Y-28251009D01*
X134571428Y-28251009D02*
X134476190Y-28298628D01*
X134476190Y-28298628D02*
X134095238Y-28298628D01*
X135428571Y-28251009D02*
X135095238Y-28251009D01*
X135095238Y-28774819D02*
X135095238Y-27774819D01*
X135095238Y-27774819D02*
X135571428Y-27774819D01*
X135857143Y-27774819D02*
X136523809Y-27774819D01*
X136523809Y-27774819D02*
X135857143Y-28774819D01*
X135857143Y-28774819D02*
X136523809Y-28774819D01*
X137333333Y-28108152D02*
X137333333Y-28774819D01*
X137095238Y-27727200D02*
X136857143Y-28441485D01*
X136857143Y-28441485D02*
X137476190Y-28441485D01*
X138285714Y-28108152D02*
X138285714Y-28774819D01*
X138047619Y-27727200D02*
X137809524Y-28441485D01*
X137809524Y-28441485D02*
X138428571Y-28441485D01*
X138809524Y-28774819D02*
X138809524Y-27774819D01*
X138809524Y-27774819D02*
X139380952Y-28774819D01*
X139380952Y-28774819D02*
X139380952Y-27774819D01*
X31055932Y-30109580D02*
X31008313Y-30157200D01*
X31008313Y-30157200D02*
X30865456Y-30204819D01*
X30865456Y-30204819D02*
X30770218Y-30204819D01*
X30770218Y-30204819D02*
X30627361Y-30157200D01*
X30627361Y-30157200D02*
X30532123Y-30061961D01*
X30532123Y-30061961D02*
X30484504Y-29966723D01*
X30484504Y-29966723D02*
X30436885Y-29776247D01*
X30436885Y-29776247D02*
X30436885Y-29633390D01*
X30436885Y-29633390D02*
X30484504Y-29442914D01*
X30484504Y-29442914D02*
X30532123Y-29347676D01*
X30532123Y-29347676D02*
X30627361Y-29252438D01*
X30627361Y-29252438D02*
X30770218Y-29204819D01*
X30770218Y-29204819D02*
X30865456Y-29204819D01*
X30865456Y-29204819D02*
X31008313Y-29252438D01*
X31008313Y-29252438D02*
X31055932Y-29300057D01*
X32008313Y-30204819D02*
X31436885Y-30204819D01*
X31722599Y-30204819D02*
X31722599Y-29204819D01*
X31722599Y-29204819D02*
X31627361Y-29347676D01*
X31627361Y-29347676D02*
X31532123Y-29442914D01*
X31532123Y-29442914D02*
X31436885Y-29490533D01*
X103618571Y-37458152D02*
X103618571Y-38458152D01*
X103618571Y-37505771D02*
X103713809Y-37458152D01*
X103713809Y-37458152D02*
X103904285Y-37458152D01*
X103904285Y-37458152D02*
X103999523Y-37505771D01*
X103999523Y-37505771D02*
X104047142Y-37553390D01*
X104047142Y-37553390D02*
X104094761Y-37648628D01*
X104094761Y-37648628D02*
X104094761Y-37934342D01*
X104094761Y-37934342D02*
X104047142Y-38029580D01*
X104047142Y-38029580D02*
X103999523Y-38077200D01*
X103999523Y-38077200D02*
X103904285Y-38124819D01*
X103904285Y-38124819D02*
X103713809Y-38124819D01*
X103713809Y-38124819D02*
X103618571Y-38077200D01*
X104951904Y-38077200D02*
X104856666Y-38124819D01*
X104856666Y-38124819D02*
X104666190Y-38124819D01*
X104666190Y-38124819D02*
X104570952Y-38077200D01*
X104570952Y-38077200D02*
X104523333Y-38029580D01*
X104523333Y-38029580D02*
X104475714Y-37934342D01*
X104475714Y-37934342D02*
X104475714Y-37648628D01*
X104475714Y-37648628D02*
X104523333Y-37553390D01*
X104523333Y-37553390D02*
X104570952Y-37505771D01*
X104570952Y-37505771D02*
X104666190Y-37458152D01*
X104666190Y-37458152D02*
X104856666Y-37458152D01*
X104856666Y-37458152D02*
X104951904Y-37505771D01*
X105523333Y-37553390D02*
X105428095Y-37505771D01*
X105428095Y-37505771D02*
X105380476Y-37458152D01*
X105380476Y-37458152D02*
X105332857Y-37362914D01*
X105332857Y-37362914D02*
X105332857Y-37315295D01*
X105332857Y-37315295D02*
X105380476Y-37220057D01*
X105380476Y-37220057D02*
X105428095Y-37172438D01*
X105428095Y-37172438D02*
X105523333Y-37124819D01*
X105523333Y-37124819D02*
X105713809Y-37124819D01*
X105713809Y-37124819D02*
X105809047Y-37172438D01*
X105809047Y-37172438D02*
X105856666Y-37220057D01*
X105856666Y-37220057D02*
X105904285Y-37315295D01*
X105904285Y-37315295D02*
X105904285Y-37362914D01*
X105904285Y-37362914D02*
X105856666Y-37458152D01*
X105856666Y-37458152D02*
X105809047Y-37505771D01*
X105809047Y-37505771D02*
X105713809Y-37553390D01*
X105713809Y-37553390D02*
X105523333Y-37553390D01*
X105523333Y-37553390D02*
X105428095Y-37601009D01*
X105428095Y-37601009D02*
X105380476Y-37648628D01*
X105380476Y-37648628D02*
X105332857Y-37743866D01*
X105332857Y-37743866D02*
X105332857Y-37934342D01*
X105332857Y-37934342D02*
X105380476Y-38029580D01*
X105380476Y-38029580D02*
X105428095Y-38077200D01*
X105428095Y-38077200D02*
X105523333Y-38124819D01*
X105523333Y-38124819D02*
X105713809Y-38124819D01*
X105713809Y-38124819D02*
X105809047Y-38077200D01*
X105809047Y-38077200D02*
X105856666Y-38029580D01*
X105856666Y-38029580D02*
X105904285Y-37934342D01*
X105904285Y-37934342D02*
X105904285Y-37743866D01*
X105904285Y-37743866D02*
X105856666Y-37648628D01*
X105856666Y-37648628D02*
X105809047Y-37601009D01*
X105809047Y-37601009D02*
X105713809Y-37553390D01*
X106856666Y-38124819D02*
X106285238Y-38124819D01*
X106570952Y-38124819D02*
X106570952Y-37124819D01*
X106570952Y-37124819D02*
X106475714Y-37267676D01*
X106475714Y-37267676D02*
X106380476Y-37362914D01*
X106380476Y-37362914D02*
X106285238Y-37410533D01*
X107190000Y-37124819D02*
X107856666Y-37124819D01*
X107856666Y-37124819D02*
X107428095Y-38124819D01*
X76547143Y-29624819D02*
X76547143Y-28624819D01*
X76547143Y-28624819D02*
X77118571Y-29624819D01*
X77118571Y-29624819D02*
X77118571Y-28624819D01*
X77594762Y-29101009D02*
X77928095Y-29101009D01*
X78070952Y-29624819D02*
X77594762Y-29624819D01*
X77594762Y-29624819D02*
X77594762Y-28624819D01*
X77594762Y-28624819D02*
X78070952Y-28624819D01*
X78975714Y-28624819D02*
X78499524Y-28624819D01*
X78499524Y-28624819D02*
X78451905Y-29101009D01*
X78451905Y-29101009D02*
X78499524Y-29053390D01*
X78499524Y-29053390D02*
X78594762Y-29005771D01*
X78594762Y-29005771D02*
X78832857Y-29005771D01*
X78832857Y-29005771D02*
X78928095Y-29053390D01*
X78928095Y-29053390D02*
X78975714Y-29101009D01*
X78975714Y-29101009D02*
X79023333Y-29196247D01*
X79023333Y-29196247D02*
X79023333Y-29434342D01*
X79023333Y-29434342D02*
X78975714Y-29529580D01*
X78975714Y-29529580D02*
X78928095Y-29577200D01*
X78928095Y-29577200D02*
X78832857Y-29624819D01*
X78832857Y-29624819D02*
X78594762Y-29624819D01*
X78594762Y-29624819D02*
X78499524Y-29577200D01*
X78499524Y-29577200D02*
X78451905Y-29529580D01*
X79928095Y-28624819D02*
X79451905Y-28624819D01*
X79451905Y-28624819D02*
X79404286Y-29101009D01*
X79404286Y-29101009D02*
X79451905Y-29053390D01*
X79451905Y-29053390D02*
X79547143Y-29005771D01*
X79547143Y-29005771D02*
X79785238Y-29005771D01*
X79785238Y-29005771D02*
X79880476Y-29053390D01*
X79880476Y-29053390D02*
X79928095Y-29101009D01*
X79928095Y-29101009D02*
X79975714Y-29196247D01*
X79975714Y-29196247D02*
X79975714Y-29434342D01*
X79975714Y-29434342D02*
X79928095Y-29529580D01*
X79928095Y-29529580D02*
X79880476Y-29577200D01*
X79880476Y-29577200D02*
X79785238Y-29624819D01*
X79785238Y-29624819D02*
X79547143Y-29624819D01*
X79547143Y-29624819D02*
X79451905Y-29577200D01*
X79451905Y-29577200D02*
X79404286Y-29529580D01*
X80880476Y-28624819D02*
X80404286Y-28624819D01*
X80404286Y-28624819D02*
X80356667Y-29101009D01*
X80356667Y-29101009D02*
X80404286Y-29053390D01*
X80404286Y-29053390D02*
X80499524Y-29005771D01*
X80499524Y-29005771D02*
X80737619Y-29005771D01*
X80737619Y-29005771D02*
X80832857Y-29053390D01*
X80832857Y-29053390D02*
X80880476Y-29101009D01*
X80880476Y-29101009D02*
X80928095Y-29196247D01*
X80928095Y-29196247D02*
X80928095Y-29434342D01*
X80928095Y-29434342D02*
X80880476Y-29529580D01*
X80880476Y-29529580D02*
X80832857Y-29577200D01*
X80832857Y-29577200D02*
X80737619Y-29624819D01*
X80737619Y-29624819D02*
X80499524Y-29624819D01*
X80499524Y-29624819D02*
X80404286Y-29577200D01*
X80404286Y-29577200D02*
X80356667Y-29529580D01*
X81832857Y-28624819D02*
X81356667Y-28624819D01*
X81356667Y-28624819D02*
X81309048Y-29101009D01*
X81309048Y-29101009D02*
X81356667Y-29053390D01*
X81356667Y-29053390D02*
X81451905Y-29005771D01*
X81451905Y-29005771D02*
X81690000Y-29005771D01*
X81690000Y-29005771D02*
X81785238Y-29053390D01*
X81785238Y-29053390D02*
X81832857Y-29101009D01*
X81832857Y-29101009D02*
X81880476Y-29196247D01*
X81880476Y-29196247D02*
X81880476Y-29434342D01*
X81880476Y-29434342D02*
X81832857Y-29529580D01*
X81832857Y-29529580D02*
X81785238Y-29577200D01*
X81785238Y-29577200D02*
X81690000Y-29624819D01*
X81690000Y-29624819D02*
X81451905Y-29624819D01*
X81451905Y-29624819D02*
X81356667Y-29577200D01*
X81356667Y-29577200D02*
X81309048Y-29529580D01*
X40857142Y-65994819D02*
X40380952Y-65994819D01*
X40380952Y-65994819D02*
X40380952Y-64994819D01*
X41190476Y-65471009D02*
X41523809Y-65471009D01*
X41666666Y-65994819D02*
X41190476Y-65994819D01*
X41190476Y-65994819D02*
X41190476Y-64994819D01*
X41190476Y-64994819D02*
X41666666Y-64994819D01*
X42095238Y-65994819D02*
X42095238Y-64994819D01*
X42095238Y-64994819D02*
X42333333Y-64994819D01*
X42333333Y-64994819D02*
X42476190Y-65042438D01*
X42476190Y-65042438D02*
X42571428Y-65137676D01*
X42571428Y-65137676D02*
X42619047Y-65232914D01*
X42619047Y-65232914D02*
X42666666Y-65423390D01*
X42666666Y-65423390D02*
X42666666Y-65566247D01*
X42666666Y-65566247D02*
X42619047Y-65756723D01*
X42619047Y-65756723D02*
X42571428Y-65851961D01*
X42571428Y-65851961D02*
X42476190Y-65947200D01*
X42476190Y-65947200D02*
X42333333Y-65994819D01*
X42333333Y-65994819D02*
X42095238Y-65994819D01*
X22584819Y-72119047D02*
X22584819Y-72690475D01*
X22584819Y-72404761D02*
X21584819Y-72404761D01*
X21584819Y-72404761D02*
X21727676Y-72499999D01*
X21727676Y-72499999D02*
X21822914Y-72595237D01*
X21822914Y-72595237D02*
X21870533Y-72690475D01*
X22584819Y-71690475D02*
X21584819Y-71690475D01*
X22203866Y-71595237D02*
X22584819Y-71309523D01*
X21918152Y-71309523D02*
X22299104Y-71690475D01*
X40169104Y-47476190D02*
X40169104Y-47000000D01*
X40454819Y-47571428D02*
X39454819Y-47238095D01*
X39454819Y-47238095D02*
X40454819Y-46904762D01*
X40454819Y-46571428D02*
X39454819Y-46571428D01*
X39454819Y-46571428D02*
X40169104Y-46238095D01*
X40169104Y-46238095D02*
X39454819Y-45904762D01*
X39454819Y-45904762D02*
X40454819Y-45904762D01*
X40407200Y-45476190D02*
X40454819Y-45333333D01*
X40454819Y-45333333D02*
X40454819Y-45095238D01*
X40454819Y-45095238D02*
X40407200Y-45000000D01*
X40407200Y-45000000D02*
X40359580Y-44952381D01*
X40359580Y-44952381D02*
X40264342Y-44904762D01*
X40264342Y-44904762D02*
X40169104Y-44904762D01*
X40169104Y-44904762D02*
X40073866Y-44952381D01*
X40073866Y-44952381D02*
X40026247Y-45000000D01*
X40026247Y-45000000D02*
X39978628Y-45095238D01*
X39978628Y-45095238D02*
X39931009Y-45285714D01*
X39931009Y-45285714D02*
X39883390Y-45380952D01*
X39883390Y-45380952D02*
X39835771Y-45428571D01*
X39835771Y-45428571D02*
X39740533Y-45476190D01*
X39740533Y-45476190D02*
X39645295Y-45476190D01*
X39645295Y-45476190D02*
X39550057Y-45428571D01*
X39550057Y-45428571D02*
X39502438Y-45380952D01*
X39502438Y-45380952D02*
X39454819Y-45285714D01*
X39454819Y-45285714D02*
X39454819Y-45047619D01*
X39454819Y-45047619D02*
X39502438Y-44904762D01*
X40454819Y-43952381D02*
X40454819Y-44523809D01*
X40454819Y-44238095D02*
X39454819Y-44238095D01*
X39454819Y-44238095D02*
X39597676Y-44333333D01*
X39597676Y-44333333D02*
X39692914Y-44428571D01*
X39692914Y-44428571D02*
X39740533Y-44523809D01*
X40454819Y-43000000D02*
X40454819Y-43571428D01*
X40454819Y-43285714D02*
X39454819Y-43285714D01*
X39454819Y-43285714D02*
X39597676Y-43380952D01*
X39597676Y-43380952D02*
X39692914Y-43476190D01*
X39692914Y-43476190D02*
X39740533Y-43571428D01*
X40454819Y-42047619D02*
X40454819Y-42619047D01*
X40454819Y-42333333D02*
X39454819Y-42333333D01*
X39454819Y-42333333D02*
X39597676Y-42428571D01*
X39597676Y-42428571D02*
X39692914Y-42523809D01*
X39692914Y-42523809D02*
X39740533Y-42619047D01*
X39454819Y-41714285D02*
X39454819Y-41047619D01*
X39454819Y-41047619D02*
X40454819Y-41476190D01*
X39454819Y-39428571D02*
X39454819Y-39904761D01*
X39454819Y-39904761D02*
X39931009Y-39952380D01*
X39931009Y-39952380D02*
X39883390Y-39904761D01*
X39883390Y-39904761D02*
X39835771Y-39809523D01*
X39835771Y-39809523D02*
X39835771Y-39571428D01*
X39835771Y-39571428D02*
X39883390Y-39476190D01*
X39883390Y-39476190D02*
X39931009Y-39428571D01*
X39931009Y-39428571D02*
X40026247Y-39380952D01*
X40026247Y-39380952D02*
X40264342Y-39380952D01*
X40264342Y-39380952D02*
X40359580Y-39428571D01*
X40359580Y-39428571D02*
X40407200Y-39476190D01*
X40407200Y-39476190D02*
X40454819Y-39571428D01*
X40454819Y-39571428D02*
X40454819Y-39809523D01*
X40454819Y-39809523D02*
X40407200Y-39904761D01*
X40407200Y-39904761D02*
X40359580Y-39952380D01*
X39454819Y-39095237D02*
X40454819Y-38761904D01*
X40454819Y-38761904D02*
X39454819Y-38428571D01*
X125937142Y-76584819D02*
X125603809Y-76108628D01*
X125365714Y-76584819D02*
X125365714Y-75584819D01*
X125365714Y-75584819D02*
X125746666Y-75584819D01*
X125746666Y-75584819D02*
X125841904Y-75632438D01*
X125841904Y-75632438D02*
X125889523Y-75680057D01*
X125889523Y-75680057D02*
X125937142Y-75775295D01*
X125937142Y-75775295D02*
X125937142Y-75918152D01*
X125937142Y-75918152D02*
X125889523Y-76013390D01*
X125889523Y-76013390D02*
X125841904Y-76061009D01*
X125841904Y-76061009D02*
X125746666Y-76108628D01*
X125746666Y-76108628D02*
X125365714Y-76108628D01*
X126889523Y-76584819D02*
X126318095Y-76584819D01*
X126603809Y-76584819D02*
X126603809Y-75584819D01*
X126603809Y-75584819D02*
X126508571Y-75727676D01*
X126508571Y-75727676D02*
X126413333Y-75822914D01*
X126413333Y-75822914D02*
X126318095Y-75870533D01*
X127794285Y-75584819D02*
X127318095Y-75584819D01*
X127318095Y-75584819D02*
X127270476Y-76061009D01*
X127270476Y-76061009D02*
X127318095Y-76013390D01*
X127318095Y-76013390D02*
X127413333Y-75965771D01*
X127413333Y-75965771D02*
X127651428Y-75965771D01*
X127651428Y-75965771D02*
X127746666Y-76013390D01*
X127746666Y-76013390D02*
X127794285Y-76061009D01*
X127794285Y-76061009D02*
X127841904Y-76156247D01*
X127841904Y-76156247D02*
X127841904Y-76394342D01*
X127841904Y-76394342D02*
X127794285Y-76489580D01*
X127794285Y-76489580D02*
X127746666Y-76537200D01*
X127746666Y-76537200D02*
X127651428Y-76584819D01*
X127651428Y-76584819D02*
X127413333Y-76584819D01*
X127413333Y-76584819D02*
X127318095Y-76537200D01*
X127318095Y-76537200D02*
X127270476Y-76489580D01*
X101584819Y-70119047D02*
X101584819Y-70690475D01*
X101584819Y-70404761D02*
X100584819Y-70404761D01*
X100584819Y-70404761D02*
X100727676Y-70499999D01*
X100727676Y-70499999D02*
X100822914Y-70595237D01*
X100822914Y-70595237D02*
X100870533Y-70690475D01*
X101584819Y-69690475D02*
X100584819Y-69690475D01*
X101203866Y-69595237D02*
X101584819Y-69309523D01*
X100918152Y-69309523D02*
X101299104Y-69690475D01*
X66261905Y-49234819D02*
X66261905Y-48234819D01*
X66261905Y-48234819D02*
X66500000Y-48234819D01*
X66500000Y-48234819D02*
X66642857Y-48282438D01*
X66642857Y-48282438D02*
X66738095Y-48377676D01*
X66738095Y-48377676D02*
X66785714Y-48472914D01*
X66785714Y-48472914D02*
X66833333Y-48663390D01*
X66833333Y-48663390D02*
X66833333Y-48806247D01*
X66833333Y-48806247D02*
X66785714Y-48996723D01*
X66785714Y-48996723D02*
X66738095Y-49091961D01*
X66738095Y-49091961D02*
X66642857Y-49187200D01*
X66642857Y-49187200D02*
X66500000Y-49234819D01*
X66500000Y-49234819D02*
X66261905Y-49234819D01*
X67214286Y-48330057D02*
X67261905Y-48282438D01*
X67261905Y-48282438D02*
X67357143Y-48234819D01*
X67357143Y-48234819D02*
X67595238Y-48234819D01*
X67595238Y-48234819D02*
X67690476Y-48282438D01*
X67690476Y-48282438D02*
X67738095Y-48330057D01*
X67738095Y-48330057D02*
X67785714Y-48425295D01*
X67785714Y-48425295D02*
X67785714Y-48520533D01*
X67785714Y-48520533D02*
X67738095Y-48663390D01*
X67738095Y-48663390D02*
X67166667Y-49234819D01*
X67166667Y-49234819D02*
X67785714Y-49234819D01*
X59118095Y-50354819D02*
X59118095Y-49354819D01*
X59689523Y-50354819D02*
X59260952Y-49783390D01*
X59689523Y-49354819D02*
X59118095Y-49926247D01*
X147234819Y-72738094D02*
X146234819Y-72738094D01*
X146234819Y-72738094D02*
X146234819Y-72499999D01*
X146234819Y-72499999D02*
X146282438Y-72357142D01*
X146282438Y-72357142D02*
X146377676Y-72261904D01*
X146377676Y-72261904D02*
X146472914Y-72214285D01*
X146472914Y-72214285D02*
X146663390Y-72166666D01*
X146663390Y-72166666D02*
X146806247Y-72166666D01*
X146806247Y-72166666D02*
X146996723Y-72214285D01*
X146996723Y-72214285D02*
X147091961Y-72261904D01*
X147091961Y-72261904D02*
X147187200Y-72357142D01*
X147187200Y-72357142D02*
X147234819Y-72499999D01*
X147234819Y-72499999D02*
X147234819Y-72738094D01*
X146663390Y-71595237D02*
X146615771Y-71690475D01*
X146615771Y-71690475D02*
X146568152Y-71738094D01*
X146568152Y-71738094D02*
X146472914Y-71785713D01*
X146472914Y-71785713D02*
X146425295Y-71785713D01*
X146425295Y-71785713D02*
X146330057Y-71738094D01*
X146330057Y-71738094D02*
X146282438Y-71690475D01*
X146282438Y-71690475D02*
X146234819Y-71595237D01*
X146234819Y-71595237D02*
X146234819Y-71404761D01*
X146234819Y-71404761D02*
X146282438Y-71309523D01*
X146282438Y-71309523D02*
X146330057Y-71261904D01*
X146330057Y-71261904D02*
X146425295Y-71214285D01*
X146425295Y-71214285D02*
X146472914Y-71214285D01*
X146472914Y-71214285D02*
X146568152Y-71261904D01*
X146568152Y-71261904D02*
X146615771Y-71309523D01*
X146615771Y-71309523D02*
X146663390Y-71404761D01*
X146663390Y-71404761D02*
X146663390Y-71595237D01*
X146663390Y-71595237D02*
X146711009Y-71690475D01*
X146711009Y-71690475D02*
X146758628Y-71738094D01*
X146758628Y-71738094D02*
X146853866Y-71785713D01*
X146853866Y-71785713D02*
X147044342Y-71785713D01*
X147044342Y-71785713D02*
X147139580Y-71738094D01*
X147139580Y-71738094D02*
X147187200Y-71690475D01*
X147187200Y-71690475D02*
X147234819Y-71595237D01*
X147234819Y-71595237D02*
X147234819Y-71404761D01*
X147234819Y-71404761D02*
X147187200Y-71309523D01*
X147187200Y-71309523D02*
X147139580Y-71261904D01*
X147139580Y-71261904D02*
X147044342Y-71214285D01*
X147044342Y-71214285D02*
X146853866Y-71214285D01*
X146853866Y-71214285D02*
X146758628Y-71261904D01*
X146758628Y-71261904D02*
X146711009Y-71309523D01*
X146711009Y-71309523D02*
X146663390Y-71404761D01*
X148354819Y-79881904D02*
X147354819Y-79881904D01*
X148354819Y-79310476D02*
X147783390Y-79739047D01*
X147354819Y-79310476D02*
X147926247Y-79881904D01*
X103303571Y-28693152D02*
X103303571Y-29693152D01*
X103303571Y-28740771D02*
X103398809Y-28693152D01*
X103398809Y-28693152D02*
X103589285Y-28693152D01*
X103589285Y-28693152D02*
X103684523Y-28740771D01*
X103684523Y-28740771D02*
X103732142Y-28788390D01*
X103732142Y-28788390D02*
X103779761Y-28883628D01*
X103779761Y-28883628D02*
X103779761Y-29169342D01*
X103779761Y-29169342D02*
X103732142Y-29264580D01*
X103732142Y-29264580D02*
X103684523Y-29312200D01*
X103684523Y-29312200D02*
X103589285Y-29359819D01*
X103589285Y-29359819D02*
X103398809Y-29359819D01*
X103398809Y-29359819D02*
X103303571Y-29312200D01*
X104636904Y-29312200D02*
X104541666Y-29359819D01*
X104541666Y-29359819D02*
X104351190Y-29359819D01*
X104351190Y-29359819D02*
X104255952Y-29312200D01*
X104255952Y-29312200D02*
X104208333Y-29264580D01*
X104208333Y-29264580D02*
X104160714Y-29169342D01*
X104160714Y-29169342D02*
X104160714Y-28883628D01*
X104160714Y-28883628D02*
X104208333Y-28788390D01*
X104208333Y-28788390D02*
X104255952Y-28740771D01*
X104255952Y-28740771D02*
X104351190Y-28693152D01*
X104351190Y-28693152D02*
X104541666Y-28693152D01*
X104541666Y-28693152D02*
X104636904Y-28740771D01*
X105208333Y-28788390D02*
X105113095Y-28740771D01*
X105113095Y-28740771D02*
X105065476Y-28693152D01*
X105065476Y-28693152D02*
X105017857Y-28597914D01*
X105017857Y-28597914D02*
X105017857Y-28550295D01*
X105017857Y-28550295D02*
X105065476Y-28455057D01*
X105065476Y-28455057D02*
X105113095Y-28407438D01*
X105113095Y-28407438D02*
X105208333Y-28359819D01*
X105208333Y-28359819D02*
X105398809Y-28359819D01*
X105398809Y-28359819D02*
X105494047Y-28407438D01*
X105494047Y-28407438D02*
X105541666Y-28455057D01*
X105541666Y-28455057D02*
X105589285Y-28550295D01*
X105589285Y-28550295D02*
X105589285Y-28597914D01*
X105589285Y-28597914D02*
X105541666Y-28693152D01*
X105541666Y-28693152D02*
X105494047Y-28740771D01*
X105494047Y-28740771D02*
X105398809Y-28788390D01*
X105398809Y-28788390D02*
X105208333Y-28788390D01*
X105208333Y-28788390D02*
X105113095Y-28836009D01*
X105113095Y-28836009D02*
X105065476Y-28883628D01*
X105065476Y-28883628D02*
X105017857Y-28978866D01*
X105017857Y-28978866D02*
X105017857Y-29169342D01*
X105017857Y-29169342D02*
X105065476Y-29264580D01*
X105065476Y-29264580D02*
X105113095Y-29312200D01*
X105113095Y-29312200D02*
X105208333Y-29359819D01*
X105208333Y-29359819D02*
X105398809Y-29359819D01*
X105398809Y-29359819D02*
X105494047Y-29312200D01*
X105494047Y-29312200D02*
X105541666Y-29264580D01*
X105541666Y-29264580D02*
X105589285Y-29169342D01*
X105589285Y-29169342D02*
X105589285Y-28978866D01*
X105589285Y-28978866D02*
X105541666Y-28883628D01*
X105541666Y-28883628D02*
X105494047Y-28836009D01*
X105494047Y-28836009D02*
X105398809Y-28788390D01*
X106541666Y-29359819D02*
X105970238Y-29359819D01*
X106255952Y-29359819D02*
X106255952Y-28359819D01*
X106255952Y-28359819D02*
X106160714Y-28502676D01*
X106160714Y-28502676D02*
X106065476Y-28597914D01*
X106065476Y-28597914D02*
X105970238Y-28645533D01*
X106875000Y-28359819D02*
X107541666Y-28359819D01*
X107541666Y-28359819D02*
X107113095Y-29359819D01*
X154734819Y-72238094D02*
X153734819Y-72238094D01*
X153734819Y-72238094D02*
X153734819Y-71999999D01*
X153734819Y-71999999D02*
X153782438Y-71857142D01*
X153782438Y-71857142D02*
X153877676Y-71761904D01*
X153877676Y-71761904D02*
X153972914Y-71714285D01*
X153972914Y-71714285D02*
X154163390Y-71666666D01*
X154163390Y-71666666D02*
X154306247Y-71666666D01*
X154306247Y-71666666D02*
X154496723Y-71714285D01*
X154496723Y-71714285D02*
X154591961Y-71761904D01*
X154591961Y-71761904D02*
X154687200Y-71857142D01*
X154687200Y-71857142D02*
X154734819Y-71999999D01*
X154734819Y-71999999D02*
X154734819Y-72238094D01*
X153734819Y-70761904D02*
X153734819Y-71238094D01*
X153734819Y-71238094D02*
X154211009Y-71285713D01*
X154211009Y-71285713D02*
X154163390Y-71238094D01*
X154163390Y-71238094D02*
X154115771Y-71142856D01*
X154115771Y-71142856D02*
X154115771Y-70904761D01*
X154115771Y-70904761D02*
X154163390Y-70809523D01*
X154163390Y-70809523D02*
X154211009Y-70761904D01*
X154211009Y-70761904D02*
X154306247Y-70714285D01*
X154306247Y-70714285D02*
X154544342Y-70714285D01*
X154544342Y-70714285D02*
X154639580Y-70761904D01*
X154639580Y-70761904D02*
X154687200Y-70809523D01*
X154687200Y-70809523D02*
X154734819Y-70904761D01*
X154734819Y-70904761D02*
X154734819Y-71142856D01*
X154734819Y-71142856D02*
X154687200Y-71238094D01*
X154687200Y-71238094D02*
X154639580Y-71285713D01*
X155854819Y-79381904D02*
X154854819Y-79381904D01*
X155854819Y-78810476D02*
X155283390Y-79239047D01*
X154854819Y-78810476D02*
X155426247Y-79381904D01*
X154734819Y-52238094D02*
X153734819Y-52238094D01*
X153734819Y-52238094D02*
X153734819Y-51999999D01*
X153734819Y-51999999D02*
X153782438Y-51857142D01*
X153782438Y-51857142D02*
X153877676Y-51761904D01*
X153877676Y-51761904D02*
X153972914Y-51714285D01*
X153972914Y-51714285D02*
X154163390Y-51666666D01*
X154163390Y-51666666D02*
X154306247Y-51666666D01*
X154306247Y-51666666D02*
X154496723Y-51714285D01*
X154496723Y-51714285D02*
X154591961Y-51761904D01*
X154591961Y-51761904D02*
X154687200Y-51857142D01*
X154687200Y-51857142D02*
X154734819Y-51999999D01*
X154734819Y-51999999D02*
X154734819Y-52238094D01*
X153734819Y-51333332D02*
X153734819Y-50666666D01*
X153734819Y-50666666D02*
X154734819Y-51095237D01*
X155854819Y-59381904D02*
X154854819Y-59381904D01*
X155854819Y-58810476D02*
X155283390Y-59239047D01*
X154854819Y-58810476D02*
X155426247Y-59381904D01*
X30684819Y-72119047D02*
X30684819Y-72690475D01*
X30684819Y-72404761D02*
X29684819Y-72404761D01*
X29684819Y-72404761D02*
X29827676Y-72499999D01*
X29827676Y-72499999D02*
X29922914Y-72595237D01*
X29922914Y-72595237D02*
X29970533Y-72690475D01*
X30684819Y-71690475D02*
X29684819Y-71690475D01*
X30303866Y-71595237D02*
X30684819Y-71309523D01*
X30018152Y-71309523D02*
X30399104Y-71690475D01*
X107095238Y-54420057D02*
X107142857Y-54372438D01*
X107142857Y-54372438D02*
X107238095Y-54324819D01*
X107238095Y-54324819D02*
X107476190Y-54324819D01*
X107476190Y-54324819D02*
X107571428Y-54372438D01*
X107571428Y-54372438D02*
X107619047Y-54420057D01*
X107619047Y-54420057D02*
X107666666Y-54515295D01*
X107666666Y-54515295D02*
X107666666Y-54610533D01*
X107666666Y-54610533D02*
X107619047Y-54753390D01*
X107619047Y-54753390D02*
X107047619Y-55324819D01*
X107047619Y-55324819D02*
X107666666Y-55324819D01*
X108142857Y-55277200D02*
X108142857Y-55324819D01*
X108142857Y-55324819D02*
X108095238Y-55420057D01*
X108095238Y-55420057D02*
X108047619Y-55467676D01*
X109047618Y-54324819D02*
X108571428Y-54324819D01*
X108571428Y-54324819D02*
X108523809Y-54801009D01*
X108523809Y-54801009D02*
X108571428Y-54753390D01*
X108571428Y-54753390D02*
X108666666Y-54705771D01*
X108666666Y-54705771D02*
X108904761Y-54705771D01*
X108904761Y-54705771D02*
X108999999Y-54753390D01*
X108999999Y-54753390D02*
X109047618Y-54801009D01*
X109047618Y-54801009D02*
X109095237Y-54896247D01*
X109095237Y-54896247D02*
X109095237Y-55134342D01*
X109095237Y-55134342D02*
X109047618Y-55229580D01*
X109047618Y-55229580D02*
X108999999Y-55277200D01*
X108999999Y-55277200D02*
X108904761Y-55324819D01*
X108904761Y-55324819D02*
X108666666Y-55324819D01*
X108666666Y-55324819D02*
X108571428Y-55277200D01*
X108571428Y-55277200D02*
X108523809Y-55229580D01*
X109523809Y-55324819D02*
X109523809Y-54324819D01*
X109619047Y-54943866D02*
X109904761Y-55324819D01*
X109904761Y-54658152D02*
X109523809Y-55039104D01*
X105634819Y-70119047D02*
X105634819Y-70690475D01*
X105634819Y-70404761D02*
X104634819Y-70404761D01*
X104634819Y-70404761D02*
X104777676Y-70499999D01*
X104777676Y-70499999D02*
X104872914Y-70595237D01*
X104872914Y-70595237D02*
X104920533Y-70690475D01*
X105634819Y-69690475D02*
X104634819Y-69690475D01*
X105253866Y-69595237D02*
X105634819Y-69309523D01*
X104968152Y-69309523D02*
X105349104Y-69690475D01*
X80004819Y-70256904D02*
X80814342Y-70256904D01*
X80814342Y-70256904D02*
X80909580Y-70209285D01*
X80909580Y-70209285D02*
X80957200Y-70161666D01*
X80957200Y-70161666D02*
X81004819Y-70066428D01*
X81004819Y-70066428D02*
X81004819Y-69875952D01*
X81004819Y-69875952D02*
X80957200Y-69780714D01*
X80957200Y-69780714D02*
X80909580Y-69733095D01*
X80909580Y-69733095D02*
X80814342Y-69685476D01*
X80814342Y-69685476D02*
X80004819Y-69685476D01*
X80338152Y-68780714D02*
X81004819Y-68780714D01*
X79957200Y-69018809D02*
X80671485Y-69256904D01*
X80671485Y-69256904D02*
X80671485Y-68637857D01*
X139277142Y-76584819D02*
X138943809Y-76108628D01*
X138705714Y-76584819D02*
X138705714Y-75584819D01*
X138705714Y-75584819D02*
X139086666Y-75584819D01*
X139086666Y-75584819D02*
X139181904Y-75632438D01*
X139181904Y-75632438D02*
X139229523Y-75680057D01*
X139229523Y-75680057D02*
X139277142Y-75775295D01*
X139277142Y-75775295D02*
X139277142Y-75918152D01*
X139277142Y-75918152D02*
X139229523Y-76013390D01*
X139229523Y-76013390D02*
X139181904Y-76061009D01*
X139181904Y-76061009D02*
X139086666Y-76108628D01*
X139086666Y-76108628D02*
X138705714Y-76108628D01*
X140229523Y-76584819D02*
X139658095Y-76584819D01*
X139943809Y-76584819D02*
X139943809Y-75584819D01*
X139943809Y-75584819D02*
X139848571Y-75727676D01*
X139848571Y-75727676D02*
X139753333Y-75822914D01*
X139753333Y-75822914D02*
X139658095Y-75870533D01*
X140848571Y-75584819D02*
X140943809Y-75584819D01*
X140943809Y-75584819D02*
X141039047Y-75632438D01*
X141039047Y-75632438D02*
X141086666Y-75680057D01*
X141086666Y-75680057D02*
X141134285Y-75775295D01*
X141134285Y-75775295D02*
X141181904Y-75965771D01*
X141181904Y-75965771D02*
X141181904Y-76203866D01*
X141181904Y-76203866D02*
X141134285Y-76394342D01*
X141134285Y-76394342D02*
X141086666Y-76489580D01*
X141086666Y-76489580D02*
X141039047Y-76537200D01*
X141039047Y-76537200D02*
X140943809Y-76584819D01*
X140943809Y-76584819D02*
X140848571Y-76584819D01*
X140848571Y-76584819D02*
X140753333Y-76537200D01*
X140753333Y-76537200D02*
X140705714Y-76489580D01*
X140705714Y-76489580D02*
X140658095Y-76394342D01*
X140658095Y-76394342D02*
X140610476Y-76203866D01*
X140610476Y-76203866D02*
X140610476Y-75965771D01*
X140610476Y-75965771D02*
X140658095Y-75775295D01*
X140658095Y-75775295D02*
X140705714Y-75680057D01*
X140705714Y-75680057D02*
X140753333Y-75632438D01*
X140753333Y-75632438D02*
X140848571Y-75584819D01*
X51204819Y-37595238D02*
X50728628Y-37928571D01*
X51204819Y-38166666D02*
X50204819Y-38166666D01*
X50204819Y-38166666D02*
X50204819Y-37785714D01*
X50204819Y-37785714D02*
X50252438Y-37690476D01*
X50252438Y-37690476D02*
X50300057Y-37642857D01*
X50300057Y-37642857D02*
X50395295Y-37595238D01*
X50395295Y-37595238D02*
X50538152Y-37595238D01*
X50538152Y-37595238D02*
X50633390Y-37642857D01*
X50633390Y-37642857D02*
X50681009Y-37690476D01*
X50681009Y-37690476D02*
X50728628Y-37785714D01*
X50728628Y-37785714D02*
X50728628Y-38166666D01*
X50204819Y-37309523D02*
X51204819Y-36976190D01*
X51204819Y-36976190D02*
X50204819Y-36642857D01*
X51204819Y-35785714D02*
X51204819Y-36357142D01*
X51204819Y-36071428D02*
X50204819Y-36071428D01*
X50204819Y-36071428D02*
X50347676Y-36166666D01*
X50347676Y-36166666D02*
X50442914Y-36261904D01*
X50442914Y-36261904D02*
X50490533Y-36357142D01*
X38083333Y-30109580D02*
X38035714Y-30157200D01*
X38035714Y-30157200D02*
X37892857Y-30204819D01*
X37892857Y-30204819D02*
X37797619Y-30204819D01*
X37797619Y-30204819D02*
X37654762Y-30157200D01*
X37654762Y-30157200D02*
X37559524Y-30061961D01*
X37559524Y-30061961D02*
X37511905Y-29966723D01*
X37511905Y-29966723D02*
X37464286Y-29776247D01*
X37464286Y-29776247D02*
X37464286Y-29633390D01*
X37464286Y-29633390D02*
X37511905Y-29442914D01*
X37511905Y-29442914D02*
X37559524Y-29347676D01*
X37559524Y-29347676D02*
X37654762Y-29252438D01*
X37654762Y-29252438D02*
X37797619Y-29204819D01*
X37797619Y-29204819D02*
X37892857Y-29204819D01*
X37892857Y-29204819D02*
X38035714Y-29252438D01*
X38035714Y-29252438D02*
X38083333Y-29300057D01*
X38416667Y-29204819D02*
X39035714Y-29204819D01*
X39035714Y-29204819D02*
X38702381Y-29585771D01*
X38702381Y-29585771D02*
X38845238Y-29585771D01*
X38845238Y-29585771D02*
X38940476Y-29633390D01*
X38940476Y-29633390D02*
X38988095Y-29681009D01*
X38988095Y-29681009D02*
X39035714Y-29776247D01*
X39035714Y-29776247D02*
X39035714Y-30014342D01*
X39035714Y-30014342D02*
X38988095Y-30109580D01*
X38988095Y-30109580D02*
X38940476Y-30157200D01*
X38940476Y-30157200D02*
X38845238Y-30204819D01*
X38845238Y-30204819D02*
X38559524Y-30204819D01*
X38559524Y-30204819D02*
X38464286Y-30157200D01*
X38464286Y-30157200D02*
X38416667Y-30109580D01*
X57004819Y-70136904D02*
X57814342Y-70136904D01*
X57814342Y-70136904D02*
X57909580Y-70089285D01*
X57909580Y-70089285D02*
X57957200Y-70041666D01*
X57957200Y-70041666D02*
X58004819Y-69946428D01*
X58004819Y-69946428D02*
X58004819Y-69755952D01*
X58004819Y-69755952D02*
X57957200Y-69660714D01*
X57957200Y-69660714D02*
X57909580Y-69613095D01*
X57909580Y-69613095D02*
X57814342Y-69565476D01*
X57814342Y-69565476D02*
X57004819Y-69565476D01*
X57004819Y-68613095D02*
X57004819Y-69089285D01*
X57004819Y-69089285D02*
X57481009Y-69136904D01*
X57481009Y-69136904D02*
X57433390Y-69089285D01*
X57433390Y-69089285D02*
X57385771Y-68994047D01*
X57385771Y-68994047D02*
X57385771Y-68755952D01*
X57385771Y-68755952D02*
X57433390Y-68660714D01*
X57433390Y-68660714D02*
X57481009Y-68613095D01*
X57481009Y-68613095D02*
X57576247Y-68565476D01*
X57576247Y-68565476D02*
X57814342Y-68565476D01*
X57814342Y-68565476D02*
X57909580Y-68613095D01*
X57909580Y-68613095D02*
X57957200Y-68660714D01*
X57957200Y-68660714D02*
X58004819Y-68755952D01*
X58004819Y-68755952D02*
X58004819Y-68994047D01*
X58004819Y-68994047D02*
X57957200Y-69089285D01*
X57957200Y-69089285D02*
X57909580Y-69136904D01*
X50087142Y-65994819D02*
X49610952Y-65994819D01*
X49610952Y-65994819D02*
X49610952Y-64994819D01*
X50420476Y-65471009D02*
X50753809Y-65471009D01*
X50896666Y-65994819D02*
X50420476Y-65994819D01*
X50420476Y-65994819D02*
X50420476Y-64994819D01*
X50420476Y-64994819D02*
X50896666Y-64994819D01*
X51325238Y-65994819D02*
X51325238Y-64994819D01*
X51325238Y-64994819D02*
X51563333Y-64994819D01*
X51563333Y-64994819D02*
X51706190Y-65042438D01*
X51706190Y-65042438D02*
X51801428Y-65137676D01*
X51801428Y-65137676D02*
X51849047Y-65232914D01*
X51849047Y-65232914D02*
X51896666Y-65423390D01*
X51896666Y-65423390D02*
X51896666Y-65566247D01*
X51896666Y-65566247D02*
X51849047Y-65756723D01*
X51849047Y-65756723D02*
X51801428Y-65851961D01*
X51801428Y-65851961D02*
X51706190Y-65947200D01*
X51706190Y-65947200D02*
X51563333Y-65994819D01*
X51563333Y-65994819D02*
X51325238Y-65994819D01*
X121119048Y-52774819D02*
X121119048Y-51774819D01*
X122166666Y-52774819D02*
X121833333Y-52298628D01*
X121595238Y-52774819D02*
X121595238Y-51774819D01*
X121595238Y-51774819D02*
X121976190Y-51774819D01*
X121976190Y-51774819D02*
X122071428Y-51822438D01*
X122071428Y-51822438D02*
X122119047Y-51870057D01*
X122119047Y-51870057D02*
X122166666Y-51965295D01*
X122166666Y-51965295D02*
X122166666Y-52108152D01*
X122166666Y-52108152D02*
X122119047Y-52203390D01*
X122119047Y-52203390D02*
X122071428Y-52251009D01*
X122071428Y-52251009D02*
X121976190Y-52298628D01*
X121976190Y-52298628D02*
X121595238Y-52298628D01*
X122928571Y-52251009D02*
X122595238Y-52251009D01*
X122595238Y-52774819D02*
X122595238Y-51774819D01*
X122595238Y-51774819D02*
X123071428Y-51774819D01*
X123357143Y-51774819D02*
X124023809Y-51774819D01*
X124023809Y-51774819D02*
X123357143Y-52774819D01*
X123357143Y-52774819D02*
X124023809Y-52774819D01*
X124833333Y-52108152D02*
X124833333Y-52774819D01*
X124595238Y-51727200D02*
X124357143Y-52441485D01*
X124357143Y-52441485D02*
X124976190Y-52441485D01*
X125785714Y-52108152D02*
X125785714Y-52774819D01*
X125547619Y-51727200D02*
X125309524Y-52441485D01*
X125309524Y-52441485D02*
X125928571Y-52441485D01*
X126309524Y-52774819D02*
X126309524Y-51774819D01*
X126309524Y-51774819D02*
X126880952Y-52774819D01*
X126880952Y-52774819D02*
X126880952Y-51774819D01*
X51204819Y-49119047D02*
X51204819Y-49690475D01*
X51204819Y-49404761D02*
X50204819Y-49404761D01*
X50204819Y-49404761D02*
X50347676Y-49499999D01*
X50347676Y-49499999D02*
X50442914Y-49595237D01*
X50442914Y-49595237D02*
X50490533Y-49690475D01*
X51204819Y-48690475D02*
X50204819Y-48690475D01*
X50823866Y-48595237D02*
X51204819Y-48309523D01*
X50538152Y-48309523D02*
X50919104Y-48690475D01*
X91714285Y-54324819D02*
X91238095Y-54324819D01*
X91238095Y-54324819D02*
X91190476Y-54801009D01*
X91190476Y-54801009D02*
X91238095Y-54753390D01*
X91238095Y-54753390D02*
X91333333Y-54705771D01*
X91333333Y-54705771D02*
X91571428Y-54705771D01*
X91571428Y-54705771D02*
X91666666Y-54753390D01*
X91666666Y-54753390D02*
X91714285Y-54801009D01*
X91714285Y-54801009D02*
X91761904Y-54896247D01*
X91761904Y-54896247D02*
X91761904Y-55134342D01*
X91761904Y-55134342D02*
X91714285Y-55229580D01*
X91714285Y-55229580D02*
X91666666Y-55277200D01*
X91666666Y-55277200D02*
X91571428Y-55324819D01*
X91571428Y-55324819D02*
X91333333Y-55324819D01*
X91333333Y-55324819D02*
X91238095Y-55277200D01*
X91238095Y-55277200D02*
X91190476Y-55229580D01*
X92619047Y-54658152D02*
X92619047Y-55324819D01*
X92380952Y-54277200D02*
X92142857Y-54991485D01*
X92142857Y-54991485D02*
X92761904Y-54991485D01*
X93333333Y-54324819D02*
X93428571Y-54324819D01*
X93428571Y-54324819D02*
X93523809Y-54372438D01*
X93523809Y-54372438D02*
X93571428Y-54420057D01*
X93571428Y-54420057D02*
X93619047Y-54515295D01*
X93619047Y-54515295D02*
X93666666Y-54705771D01*
X93666666Y-54705771D02*
X93666666Y-54943866D01*
X93666666Y-54943866D02*
X93619047Y-55134342D01*
X93619047Y-55134342D02*
X93571428Y-55229580D01*
X93571428Y-55229580D02*
X93523809Y-55277200D01*
X93523809Y-55277200D02*
X93428571Y-55324819D01*
X93428571Y-55324819D02*
X93333333Y-55324819D01*
X93333333Y-55324819D02*
X93238095Y-55277200D01*
X93238095Y-55277200D02*
X93190476Y-55229580D01*
X93190476Y-55229580D02*
X93142857Y-55134342D01*
X93142857Y-55134342D02*
X93095238Y-54943866D01*
X93095238Y-54943866D02*
X93095238Y-54705771D01*
X93095238Y-54705771D02*
X93142857Y-54515295D01*
X93142857Y-54515295D02*
X93190476Y-54420057D01*
X93190476Y-54420057D02*
X93238095Y-54372438D01*
X93238095Y-54372438D02*
X93333333Y-54324819D01*
X94238095Y-55324819D02*
X94142857Y-55277200D01*
X94142857Y-55277200D02*
X94095238Y-55229580D01*
X94095238Y-55229580D02*
X94047619Y-55134342D01*
X94047619Y-55134342D02*
X94047619Y-54848628D01*
X94047619Y-54848628D02*
X94095238Y-54753390D01*
X94095238Y-54753390D02*
X94142857Y-54705771D01*
X94142857Y-54705771D02*
X94238095Y-54658152D01*
X94238095Y-54658152D02*
X94380952Y-54658152D01*
X94380952Y-54658152D02*
X94476190Y-54705771D01*
X94476190Y-54705771D02*
X94523809Y-54753390D01*
X94523809Y-54753390D02*
X94571428Y-54848628D01*
X94571428Y-54848628D02*
X94571428Y-55134342D01*
X94571428Y-55134342D02*
X94523809Y-55229580D01*
X94523809Y-55229580D02*
X94476190Y-55277200D01*
X94476190Y-55277200D02*
X94380952Y-55324819D01*
X94380952Y-55324819D02*
X94238095Y-55324819D01*
X95000000Y-55324819D02*
X95000000Y-54324819D01*
X95428571Y-55324819D02*
X95428571Y-54801009D01*
X95428571Y-54801009D02*
X95380952Y-54705771D01*
X95380952Y-54705771D02*
X95285714Y-54658152D01*
X95285714Y-54658152D02*
X95142857Y-54658152D01*
X95142857Y-54658152D02*
X95047619Y-54705771D01*
X95047619Y-54705771D02*
X95000000Y-54753390D01*
X95904762Y-55324819D02*
X95904762Y-54658152D01*
X95904762Y-54753390D02*
X95952381Y-54705771D01*
X95952381Y-54705771D02*
X96047619Y-54658152D01*
X96047619Y-54658152D02*
X96190476Y-54658152D01*
X96190476Y-54658152D02*
X96285714Y-54705771D01*
X96285714Y-54705771D02*
X96333333Y-54801009D01*
X96333333Y-54801009D02*
X96333333Y-55324819D01*
X96333333Y-54801009D02*
X96380952Y-54705771D01*
X96380952Y-54705771D02*
X96476190Y-54658152D01*
X96476190Y-54658152D02*
X96619047Y-54658152D01*
X96619047Y-54658152D02*
X96714286Y-54705771D01*
X96714286Y-54705771D02*
X96761905Y-54801009D01*
X96761905Y-54801009D02*
X96761905Y-55324819D01*
X120619048Y-28774819D02*
X120619048Y-27774819D01*
X121666666Y-28774819D02*
X121333333Y-28298628D01*
X121095238Y-28774819D02*
X121095238Y-27774819D01*
X121095238Y-27774819D02*
X121476190Y-27774819D01*
X121476190Y-27774819D02*
X121571428Y-27822438D01*
X121571428Y-27822438D02*
X121619047Y-27870057D01*
X121619047Y-27870057D02*
X121666666Y-27965295D01*
X121666666Y-27965295D02*
X121666666Y-28108152D01*
X121666666Y-28108152D02*
X121619047Y-28203390D01*
X121619047Y-28203390D02*
X121571428Y-28251009D01*
X121571428Y-28251009D02*
X121476190Y-28298628D01*
X121476190Y-28298628D02*
X121095238Y-28298628D01*
X122428571Y-28251009D02*
X122095238Y-28251009D01*
X122095238Y-28774819D02*
X122095238Y-27774819D01*
X122095238Y-27774819D02*
X122571428Y-27774819D01*
X122857143Y-27774819D02*
X123523809Y-27774819D01*
X123523809Y-27774819D02*
X122857143Y-28774819D01*
X122857143Y-28774819D02*
X123523809Y-28774819D01*
X124333333Y-28108152D02*
X124333333Y-28774819D01*
X124095238Y-27727200D02*
X123857143Y-28441485D01*
X123857143Y-28441485D02*
X124476190Y-28441485D01*
X125285714Y-28108152D02*
X125285714Y-28774819D01*
X125047619Y-27727200D02*
X124809524Y-28441485D01*
X124809524Y-28441485D02*
X125428571Y-28441485D01*
X125809524Y-28774819D02*
X125809524Y-27774819D01*
X125809524Y-27774819D02*
X126380952Y-28774819D01*
X126380952Y-28774819D02*
X126380952Y-27774819D01*
X147234819Y-52358094D02*
X146234819Y-52358094D01*
X146234819Y-52358094D02*
X146234819Y-52119999D01*
X146234819Y-52119999D02*
X146282438Y-51977142D01*
X146282438Y-51977142D02*
X146377676Y-51881904D01*
X146377676Y-51881904D02*
X146472914Y-51834285D01*
X146472914Y-51834285D02*
X146663390Y-51786666D01*
X146663390Y-51786666D02*
X146806247Y-51786666D01*
X146806247Y-51786666D02*
X146996723Y-51834285D01*
X146996723Y-51834285D02*
X147091961Y-51881904D01*
X147091961Y-51881904D02*
X147187200Y-51977142D01*
X147187200Y-51977142D02*
X147234819Y-52119999D01*
X147234819Y-52119999D02*
X147234819Y-52358094D01*
X146234819Y-50929523D02*
X146234819Y-51119999D01*
X146234819Y-51119999D02*
X146282438Y-51215237D01*
X146282438Y-51215237D02*
X146330057Y-51262856D01*
X146330057Y-51262856D02*
X146472914Y-51358094D01*
X146472914Y-51358094D02*
X146663390Y-51405713D01*
X146663390Y-51405713D02*
X147044342Y-51405713D01*
X147044342Y-51405713D02*
X147139580Y-51358094D01*
X147139580Y-51358094D02*
X147187200Y-51310475D01*
X147187200Y-51310475D02*
X147234819Y-51215237D01*
X147234819Y-51215237D02*
X147234819Y-51024761D01*
X147234819Y-51024761D02*
X147187200Y-50929523D01*
X147187200Y-50929523D02*
X147139580Y-50881904D01*
X147139580Y-50881904D02*
X147044342Y-50834285D01*
X147044342Y-50834285D02*
X146806247Y-50834285D01*
X146806247Y-50834285D02*
X146711009Y-50881904D01*
X146711009Y-50881904D02*
X146663390Y-50929523D01*
X146663390Y-50929523D02*
X146615771Y-51024761D01*
X146615771Y-51024761D02*
X146615771Y-51215237D01*
X146615771Y-51215237D02*
X146663390Y-51310475D01*
X146663390Y-51310475D02*
X146711009Y-51358094D01*
X146711009Y-51358094D02*
X146806247Y-51405713D01*
X148354819Y-59501904D02*
X147354819Y-59501904D01*
X148354819Y-58930476D02*
X147783390Y-59359047D01*
X147354819Y-58930476D02*
X147926247Y-59501904D01*
X26634819Y-72119047D02*
X26634819Y-72690475D01*
X26634819Y-72404761D02*
X25634819Y-72404761D01*
X25634819Y-72404761D02*
X25777676Y-72499999D01*
X25777676Y-72499999D02*
X25872914Y-72595237D01*
X25872914Y-72595237D02*
X25920533Y-72690475D01*
X26634819Y-71690475D02*
X25634819Y-71690475D01*
X26253866Y-71595237D02*
X26634819Y-71309523D01*
X25968152Y-71309523D02*
X26349104Y-71690475D01*
X82083333Y-44809580D02*
X82035714Y-44857200D01*
X82035714Y-44857200D02*
X81892857Y-44904819D01*
X81892857Y-44904819D02*
X81797619Y-44904819D01*
X81797619Y-44904819D02*
X81654762Y-44857200D01*
X81654762Y-44857200D02*
X81559524Y-44761961D01*
X81559524Y-44761961D02*
X81511905Y-44666723D01*
X81511905Y-44666723D02*
X81464286Y-44476247D01*
X81464286Y-44476247D02*
X81464286Y-44333390D01*
X81464286Y-44333390D02*
X81511905Y-44142914D01*
X81511905Y-44142914D02*
X81559524Y-44047676D01*
X81559524Y-44047676D02*
X81654762Y-43952438D01*
X81654762Y-43952438D02*
X81797619Y-43904819D01*
X81797619Y-43904819D02*
X81892857Y-43904819D01*
X81892857Y-43904819D02*
X82035714Y-43952438D01*
X82035714Y-43952438D02*
X82083333Y-44000057D01*
X82464286Y-44000057D02*
X82511905Y-43952438D01*
X82511905Y-43952438D02*
X82607143Y-43904819D01*
X82607143Y-43904819D02*
X82845238Y-43904819D01*
X82845238Y-43904819D02*
X82940476Y-43952438D01*
X82940476Y-43952438D02*
X82988095Y-44000057D01*
X82988095Y-44000057D02*
X83035714Y-44095295D01*
X83035714Y-44095295D02*
X83035714Y-44190533D01*
X83035714Y-44190533D02*
X82988095Y-44333390D01*
X82988095Y-44333390D02*
X82416667Y-44904819D01*
X82416667Y-44904819D02*
X83035714Y-44904819D01*
X20880953Y-62454819D02*
X20880953Y-61454819D01*
X20880953Y-61454819D02*
X21119048Y-61454819D01*
X21119048Y-61454819D02*
X21261905Y-61502438D01*
X21261905Y-61502438D02*
X21357143Y-61597676D01*
X21357143Y-61597676D02*
X21404762Y-61692914D01*
X21404762Y-61692914D02*
X21452381Y-61883390D01*
X21452381Y-61883390D02*
X21452381Y-62026247D01*
X21452381Y-62026247D02*
X21404762Y-62216723D01*
X21404762Y-62216723D02*
X21357143Y-62311961D01*
X21357143Y-62311961D02*
X21261905Y-62407200D01*
X21261905Y-62407200D02*
X21119048Y-62454819D01*
X21119048Y-62454819D02*
X20880953Y-62454819D01*
X21880953Y-62073866D02*
X22642858Y-62073866D01*
X23119048Y-62454819D02*
X23119048Y-61454819D01*
X31084819Y-55619047D02*
X31084819Y-56190475D01*
X31084819Y-55904761D02*
X30084819Y-55904761D01*
X30084819Y-55904761D02*
X30227676Y-55999999D01*
X30227676Y-55999999D02*
X30322914Y-56095237D01*
X30322914Y-56095237D02*
X30370533Y-56190475D01*
X31084819Y-55190475D02*
X30084819Y-55190475D01*
X30703866Y-55095237D02*
X31084819Y-54809523D01*
X30418152Y-54809523D02*
X30799104Y-55190475D01*
X107095238Y-50420057D02*
X107142857Y-50372438D01*
X107142857Y-50372438D02*
X107238095Y-50324819D01*
X107238095Y-50324819D02*
X107476190Y-50324819D01*
X107476190Y-50324819D02*
X107571428Y-50372438D01*
X107571428Y-50372438D02*
X107619047Y-50420057D01*
X107619047Y-50420057D02*
X107666666Y-50515295D01*
X107666666Y-50515295D02*
X107666666Y-50610533D01*
X107666666Y-50610533D02*
X107619047Y-50753390D01*
X107619047Y-50753390D02*
X107047619Y-51324819D01*
X107047619Y-51324819D02*
X107666666Y-51324819D01*
X108142857Y-51277200D02*
X108142857Y-51324819D01*
X108142857Y-51324819D02*
X108095238Y-51420057D01*
X108095238Y-51420057D02*
X108047619Y-51467676D01*
X109047618Y-50324819D02*
X108571428Y-50324819D01*
X108571428Y-50324819D02*
X108523809Y-50801009D01*
X108523809Y-50801009D02*
X108571428Y-50753390D01*
X108571428Y-50753390D02*
X108666666Y-50705771D01*
X108666666Y-50705771D02*
X108904761Y-50705771D01*
X108904761Y-50705771D02*
X108999999Y-50753390D01*
X108999999Y-50753390D02*
X109047618Y-50801009D01*
X109047618Y-50801009D02*
X109095237Y-50896247D01*
X109095237Y-50896247D02*
X109095237Y-51134342D01*
X109095237Y-51134342D02*
X109047618Y-51229580D01*
X109047618Y-51229580D02*
X108999999Y-51277200D01*
X108999999Y-51277200D02*
X108904761Y-51324819D01*
X108904761Y-51324819D02*
X108666666Y-51324819D01*
X108666666Y-51324819D02*
X108571428Y-51277200D01*
X108571428Y-51277200D02*
X108523809Y-51229580D01*
X109523809Y-51324819D02*
X109523809Y-50324819D01*
X109619047Y-50943866D02*
X109904761Y-51324819D01*
X109904761Y-50658152D02*
X109523809Y-51039104D01*
X18534819Y-72119047D02*
X18534819Y-72690475D01*
X18534819Y-72404761D02*
X17534819Y-72404761D01*
X17534819Y-72404761D02*
X17677676Y-72499999D01*
X17677676Y-72499999D02*
X17772914Y-72595237D01*
X17772914Y-72595237D02*
X17820533Y-72690475D01*
X18534819Y-71690475D02*
X17534819Y-71690475D01*
X18153866Y-71595237D02*
X18534819Y-71309523D01*
X17868152Y-71309523D02*
X18249104Y-71690475D01*
X88490057Y-44412856D02*
X88442438Y-44365237D01*
X88442438Y-44365237D02*
X88394819Y-44269999D01*
X88394819Y-44269999D02*
X88394819Y-44031904D01*
X88394819Y-44031904D02*
X88442438Y-43936666D01*
X88442438Y-43936666D02*
X88490057Y-43889047D01*
X88490057Y-43889047D02*
X88585295Y-43841428D01*
X88585295Y-43841428D02*
X88680533Y-43841428D01*
X88680533Y-43841428D02*
X88823390Y-43889047D01*
X88823390Y-43889047D02*
X89394819Y-44460475D01*
X89394819Y-44460475D02*
X89394819Y-43841428D01*
X88728152Y-43412856D02*
X89394819Y-43412856D01*
X88823390Y-43412856D02*
X88775771Y-43365237D01*
X88775771Y-43365237D02*
X88728152Y-43269999D01*
X88728152Y-43269999D02*
X88728152Y-43127142D01*
X88728152Y-43127142D02*
X88775771Y-43031904D01*
X88775771Y-43031904D02*
X88871009Y-42984285D01*
X88871009Y-42984285D02*
X89394819Y-42984285D01*
X88394819Y-42603332D02*
X88394819Y-41984285D01*
X88394819Y-41984285D02*
X88775771Y-42317618D01*
X88775771Y-42317618D02*
X88775771Y-42174761D01*
X88775771Y-42174761D02*
X88823390Y-42079523D01*
X88823390Y-42079523D02*
X88871009Y-42031904D01*
X88871009Y-42031904D02*
X88966247Y-41984285D01*
X88966247Y-41984285D02*
X89204342Y-41984285D01*
X89204342Y-41984285D02*
X89299580Y-42031904D01*
X89299580Y-42031904D02*
X89347200Y-42079523D01*
X89347200Y-42079523D02*
X89394819Y-42174761D01*
X89394819Y-42174761D02*
X89394819Y-42460475D01*
X89394819Y-42460475D02*
X89347200Y-42555713D01*
X89347200Y-42555713D02*
X89299580Y-42603332D01*
X89394819Y-41508094D02*
X89394819Y-41317618D01*
X89394819Y-41317618D02*
X89347200Y-41222380D01*
X89347200Y-41222380D02*
X89299580Y-41174761D01*
X89299580Y-41174761D02*
X89156723Y-41079523D01*
X89156723Y-41079523D02*
X88966247Y-41031904D01*
X88966247Y-41031904D02*
X88585295Y-41031904D01*
X88585295Y-41031904D02*
X88490057Y-41079523D01*
X88490057Y-41079523D02*
X88442438Y-41127142D01*
X88442438Y-41127142D02*
X88394819Y-41222380D01*
X88394819Y-41222380D02*
X88394819Y-41412856D01*
X88394819Y-41412856D02*
X88442438Y-41508094D01*
X88442438Y-41508094D02*
X88490057Y-41555713D01*
X88490057Y-41555713D02*
X88585295Y-41603332D01*
X88585295Y-41603332D02*
X88823390Y-41603332D01*
X88823390Y-41603332D02*
X88918628Y-41555713D01*
X88918628Y-41555713D02*
X88966247Y-41508094D01*
X88966247Y-41508094D02*
X89013866Y-41412856D01*
X89013866Y-41412856D02*
X89013866Y-41222380D01*
X89013866Y-41222380D02*
X88966247Y-41127142D01*
X88966247Y-41127142D02*
X88918628Y-41079523D01*
X88918628Y-41079523D02*
X88823390Y-41031904D01*
X88394819Y-40412856D02*
X88394819Y-40317618D01*
X88394819Y-40317618D02*
X88442438Y-40222380D01*
X88442438Y-40222380D02*
X88490057Y-40174761D01*
X88490057Y-40174761D02*
X88585295Y-40127142D01*
X88585295Y-40127142D02*
X88775771Y-40079523D01*
X88775771Y-40079523D02*
X89013866Y-40079523D01*
X89013866Y-40079523D02*
X89204342Y-40127142D01*
X89204342Y-40127142D02*
X89299580Y-40174761D01*
X89299580Y-40174761D02*
X89347200Y-40222380D01*
X89347200Y-40222380D02*
X89394819Y-40317618D01*
X89394819Y-40317618D02*
X89394819Y-40412856D01*
X89394819Y-40412856D02*
X89347200Y-40508094D01*
X89347200Y-40508094D02*
X89299580Y-40555713D01*
X89299580Y-40555713D02*
X89204342Y-40603332D01*
X89204342Y-40603332D02*
X89013866Y-40650951D01*
X89013866Y-40650951D02*
X88775771Y-40650951D01*
X88775771Y-40650951D02*
X88585295Y-40603332D01*
X88585295Y-40603332D02*
X88490057Y-40555713D01*
X88490057Y-40555713D02*
X88442438Y-40508094D01*
X88442438Y-40508094D02*
X88394819Y-40412856D01*
X88728152Y-39222380D02*
X89394819Y-39222380D01*
X88347200Y-39460475D02*
X89061485Y-39698570D01*
X89061485Y-39698570D02*
X89061485Y-39079523D01*
X88280057Y-35412856D02*
X88232438Y-35365237D01*
X88232438Y-35365237D02*
X88184819Y-35269999D01*
X88184819Y-35269999D02*
X88184819Y-35031904D01*
X88184819Y-35031904D02*
X88232438Y-34936666D01*
X88232438Y-34936666D02*
X88280057Y-34889047D01*
X88280057Y-34889047D02*
X88375295Y-34841428D01*
X88375295Y-34841428D02*
X88470533Y-34841428D01*
X88470533Y-34841428D02*
X88613390Y-34889047D01*
X88613390Y-34889047D02*
X89184819Y-35460475D01*
X89184819Y-35460475D02*
X89184819Y-34841428D01*
X88518152Y-34412856D02*
X89184819Y-34412856D01*
X88613390Y-34412856D02*
X88565771Y-34365237D01*
X88565771Y-34365237D02*
X88518152Y-34269999D01*
X88518152Y-34269999D02*
X88518152Y-34127142D01*
X88518152Y-34127142D02*
X88565771Y-34031904D01*
X88565771Y-34031904D02*
X88661009Y-33984285D01*
X88661009Y-33984285D02*
X89184819Y-33984285D01*
X88184819Y-33603332D02*
X88184819Y-32984285D01*
X88184819Y-32984285D02*
X88565771Y-33317618D01*
X88565771Y-33317618D02*
X88565771Y-33174761D01*
X88565771Y-33174761D02*
X88613390Y-33079523D01*
X88613390Y-33079523D02*
X88661009Y-33031904D01*
X88661009Y-33031904D02*
X88756247Y-32984285D01*
X88756247Y-32984285D02*
X88994342Y-32984285D01*
X88994342Y-32984285D02*
X89089580Y-33031904D01*
X89089580Y-33031904D02*
X89137200Y-33079523D01*
X89137200Y-33079523D02*
X89184819Y-33174761D01*
X89184819Y-33174761D02*
X89184819Y-33460475D01*
X89184819Y-33460475D02*
X89137200Y-33555713D01*
X89137200Y-33555713D02*
X89089580Y-33603332D01*
X89184819Y-32508094D02*
X89184819Y-32317618D01*
X89184819Y-32317618D02*
X89137200Y-32222380D01*
X89137200Y-32222380D02*
X89089580Y-32174761D01*
X89089580Y-32174761D02*
X88946723Y-32079523D01*
X88946723Y-32079523D02*
X88756247Y-32031904D01*
X88756247Y-32031904D02*
X88375295Y-32031904D01*
X88375295Y-32031904D02*
X88280057Y-32079523D01*
X88280057Y-32079523D02*
X88232438Y-32127142D01*
X88232438Y-32127142D02*
X88184819Y-32222380D01*
X88184819Y-32222380D02*
X88184819Y-32412856D01*
X88184819Y-32412856D02*
X88232438Y-32508094D01*
X88232438Y-32508094D02*
X88280057Y-32555713D01*
X88280057Y-32555713D02*
X88375295Y-32603332D01*
X88375295Y-32603332D02*
X88613390Y-32603332D01*
X88613390Y-32603332D02*
X88708628Y-32555713D01*
X88708628Y-32555713D02*
X88756247Y-32508094D01*
X88756247Y-32508094D02*
X88803866Y-32412856D01*
X88803866Y-32412856D02*
X88803866Y-32222380D01*
X88803866Y-32222380D02*
X88756247Y-32127142D01*
X88756247Y-32127142D02*
X88708628Y-32079523D01*
X88708628Y-32079523D02*
X88613390Y-32031904D01*
X88184819Y-31412856D02*
X88184819Y-31317618D01*
X88184819Y-31317618D02*
X88232438Y-31222380D01*
X88232438Y-31222380D02*
X88280057Y-31174761D01*
X88280057Y-31174761D02*
X88375295Y-31127142D01*
X88375295Y-31127142D02*
X88565771Y-31079523D01*
X88565771Y-31079523D02*
X88803866Y-31079523D01*
X88803866Y-31079523D02*
X88994342Y-31127142D01*
X88994342Y-31127142D02*
X89089580Y-31174761D01*
X89089580Y-31174761D02*
X89137200Y-31222380D01*
X89137200Y-31222380D02*
X89184819Y-31317618D01*
X89184819Y-31317618D02*
X89184819Y-31412856D01*
X89184819Y-31412856D02*
X89137200Y-31508094D01*
X89137200Y-31508094D02*
X89089580Y-31555713D01*
X89089580Y-31555713D02*
X88994342Y-31603332D01*
X88994342Y-31603332D02*
X88803866Y-31650951D01*
X88803866Y-31650951D02*
X88565771Y-31650951D01*
X88565771Y-31650951D02*
X88375295Y-31603332D01*
X88375295Y-31603332D02*
X88280057Y-31555713D01*
X88280057Y-31555713D02*
X88232438Y-31508094D01*
X88232438Y-31508094D02*
X88184819Y-31412856D01*
X88518152Y-30222380D02*
X89184819Y-30222380D01*
X88137200Y-30460475D02*
X88851485Y-30698570D01*
X88851485Y-30698570D02*
X88851485Y-30079523D01*
X134619048Y-52774819D02*
X134619048Y-51774819D01*
X135666666Y-52774819D02*
X135333333Y-52298628D01*
X135095238Y-52774819D02*
X135095238Y-51774819D01*
X135095238Y-51774819D02*
X135476190Y-51774819D01*
X135476190Y-51774819D02*
X135571428Y-51822438D01*
X135571428Y-51822438D02*
X135619047Y-51870057D01*
X135619047Y-51870057D02*
X135666666Y-51965295D01*
X135666666Y-51965295D02*
X135666666Y-52108152D01*
X135666666Y-52108152D02*
X135619047Y-52203390D01*
X135619047Y-52203390D02*
X135571428Y-52251009D01*
X135571428Y-52251009D02*
X135476190Y-52298628D01*
X135476190Y-52298628D02*
X135095238Y-52298628D01*
X136428571Y-52251009D02*
X136095238Y-52251009D01*
X136095238Y-52774819D02*
X136095238Y-51774819D01*
X136095238Y-51774819D02*
X136571428Y-51774819D01*
X136857143Y-51774819D02*
X137523809Y-51774819D01*
X137523809Y-51774819D02*
X136857143Y-52774819D01*
X136857143Y-52774819D02*
X137523809Y-52774819D01*
X138333333Y-52108152D02*
X138333333Y-52774819D01*
X138095238Y-51727200D02*
X137857143Y-52441485D01*
X137857143Y-52441485D02*
X138476190Y-52441485D01*
X139285714Y-52108152D02*
X139285714Y-52774819D01*
X139047619Y-51727200D02*
X138809524Y-52441485D01*
X138809524Y-52441485D02*
X139428571Y-52441485D01*
X139809524Y-52774819D02*
X139809524Y-51774819D01*
X139809524Y-51774819D02*
X140380952Y-52774819D01*
X140380952Y-52774819D02*
X140380952Y-51774819D01*
X27034819Y-55619047D02*
X27034819Y-56190475D01*
X27034819Y-55904761D02*
X26034819Y-55904761D01*
X26034819Y-55904761D02*
X26177676Y-55999999D01*
X26177676Y-55999999D02*
X26272914Y-56095237D01*
X26272914Y-56095237D02*
X26320533Y-56190475D01*
X27034819Y-55190475D02*
X26034819Y-55190475D01*
X26653866Y-55095237D02*
X27034819Y-54809523D01*
X26368152Y-54809523D02*
X26749104Y-55190475D01*
D12*
%TO.C,SW2*%
X162082500Y-44147500D02*
X163465500Y-44147500D01*
X162082500Y-44147500D02*
X162082500Y-42764500D01*
X162322500Y-43907500D02*
X169702500Y-43907500D01*
X162322500Y-43907500D02*
X162322500Y-34007500D01*
X169702500Y-43907500D02*
X169702500Y-34007500D01*
X164107500Y-39634167D02*
X165377500Y-39634167D01*
X166647500Y-39634167D02*
X167917500Y-39634167D01*
X162322500Y-34007500D02*
X169702500Y-34007500D01*
X164107500Y-40987500D02*
X165377500Y-40987500D01*
X165377500Y-39634167D01*
X164107500Y-39634167D01*
X164107500Y-40987500D01*
G36*
X164107500Y-40987500D02*
G01*
X165377500Y-40987500D01*
X165377500Y-39634167D01*
X164107500Y-39634167D01*
X164107500Y-40987500D01*
G37*
X164107500Y-40987500D02*
X165377500Y-40987500D01*
X165377500Y-36927500D01*
X164107500Y-36927500D01*
X164107500Y-40987500D01*
X166647500Y-40987500D02*
X167917500Y-40987500D01*
X167917500Y-39634167D01*
X166647500Y-39634167D01*
X166647500Y-40987500D01*
G36*
X166647500Y-40987500D02*
G01*
X167917500Y-40987500D01*
X167917500Y-39634167D01*
X166647500Y-39634167D01*
X166647500Y-40987500D01*
G37*
X166647500Y-40987500D02*
X167917500Y-40987500D01*
X167917500Y-36927500D01*
X166647500Y-36927500D01*
X166647500Y-40987500D01*
%TO.C,BT2*%
X163780000Y-66180000D02*
X163780000Y-60360000D01*
X165500000Y-66180000D02*
X165500000Y-60360000D01*
X168600000Y-66180000D02*
X168600000Y-60360000D01*
X169600000Y-66180000D02*
X169600000Y-60360000D01*
X170520000Y-66180000D02*
X163780000Y-66180000D01*
X170520000Y-64840000D02*
X170520000Y-66180000D01*
X163780000Y-60360000D02*
X170520000Y-60360000D01*
X170520000Y-60360000D02*
X170520000Y-64240000D01*
X171130000Y-64980000D02*
X170520000Y-64540000D01*
X171130000Y-64100000D01*
X171130000Y-64980000D01*
G36*
X171130000Y-64980000D02*
G01*
X170520000Y-64540000D01*
X171130000Y-64100000D01*
X171130000Y-64980000D01*
G37*
%TO.C,M1*%
X156140000Y-37720000D02*
X150320000Y-37720000D01*
X156140000Y-36000000D02*
X150320000Y-36000000D01*
X156140000Y-32900000D02*
X150320000Y-32900000D01*
X156140000Y-31900000D02*
X150320000Y-31900000D01*
X156140000Y-30980000D02*
X156140000Y-37720000D01*
X154800000Y-30980000D02*
X156140000Y-30980000D01*
X150320000Y-37720000D02*
X150320000Y-30980000D01*
X150320000Y-30980000D02*
X154200000Y-30980000D01*
X154500000Y-30980000D02*
X154060000Y-30370000D01*
X154940000Y-30370000D01*
X154500000Y-30980000D01*
G36*
X154500000Y-30980000D02*
G01*
X154060000Y-30370000D01*
X154940000Y-30370000D01*
X154500000Y-30980000D01*
G37*
%TO.C,BT1*%
X25220000Y-37860000D02*
X25220000Y-43680000D01*
X23500000Y-37860000D02*
X23500000Y-43680000D01*
X20400000Y-37860000D02*
X20400000Y-43680000D01*
X19400000Y-37860000D02*
X19400000Y-43680000D01*
X18480000Y-37860000D02*
X25220000Y-37860000D01*
X18480000Y-39200000D02*
X18480000Y-37860000D01*
X25220000Y-43680000D02*
X18480000Y-43680000D01*
X18480000Y-43680000D02*
X18480000Y-39800000D01*
X18480000Y-39500000D02*
X17870000Y-39940000D01*
X17870000Y-39060000D01*
X18480000Y-39500000D01*
G36*
X18480000Y-39500000D02*
G01*
X17870000Y-39940000D01*
X17870000Y-39060000D01*
X18480000Y-39500000D01*
G37*
%TO.C,C4*%
X80230000Y-51080000D02*
X84270000Y-51080000D01*
X80230000Y-51801000D02*
X80230000Y-51080000D01*
X80230000Y-53920000D02*
X80230000Y-53199000D01*
X84270000Y-51080000D02*
X84270000Y-51801000D01*
X84270000Y-53199000D02*
X84270000Y-53920000D01*
X84270000Y-53920000D02*
X80230000Y-53920000D01*
%TO.C,540ohm*%
X89960000Y-48450000D02*
X90730000Y-48450000D01*
X98040000Y-48450000D02*
X97270000Y-48450000D01*
X97270000Y-49820000D02*
X90730000Y-49820000D01*
X90730000Y-47080000D01*
X97270000Y-47080000D01*
X97270000Y-49820000D01*
%TO.C,D1*%
X61220000Y-45750000D02*
X62130000Y-45750000D01*
X63555000Y-43030000D02*
X63555000Y-48470000D01*
X63675000Y-43030000D02*
X63675000Y-48470000D01*
X63795000Y-43030000D02*
X63795000Y-48470000D01*
X72780000Y-45750000D02*
X71870000Y-45750000D01*
X62130000Y-43030000D02*
X71870000Y-43030000D01*
X71870000Y-48470000D01*
X62130000Y-48470000D01*
X62130000Y-43030000D01*
%TO.C,IRFZ44N*%
X131390000Y-29160000D02*
X141610000Y-29160000D01*
X131390000Y-45030000D02*
X131390000Y-29160000D01*
X131390000Y-45030000D02*
X141610000Y-45030000D01*
X133475000Y-45030000D02*
X133475000Y-47470000D01*
X134445000Y-45030000D02*
X134445000Y-47470000D01*
X136015000Y-45030000D02*
X136015000Y-47470000D01*
X136985000Y-45030000D02*
X136985000Y-47470000D01*
X138555000Y-45030000D02*
X138555000Y-47470000D01*
X139525000Y-45030000D02*
X139525000Y-47470000D01*
X141610000Y-45030000D02*
X141610000Y-29160000D01*
%TO.C,C1*%
X28952798Y-31805000D02*
X29352798Y-31805000D01*
X29152798Y-31605000D02*
X29152798Y-32005000D01*
X31222599Y-30920000D02*
X31222599Y-35080000D01*
X31262599Y-30920000D02*
X31262599Y-35080000D01*
X31302599Y-30922000D02*
X31302599Y-35078000D01*
X31342599Y-30923000D02*
X31342599Y-35077000D01*
X31382599Y-30926000D02*
X31382599Y-35074000D01*
X31422599Y-30929000D02*
X31422599Y-32160000D01*
X31422599Y-33840000D02*
X31422599Y-35071000D01*
X31462599Y-30934000D02*
X31462599Y-32160000D01*
X31462599Y-33840000D02*
X31462599Y-35066000D01*
X31502599Y-30939000D02*
X31502599Y-32160000D01*
X31502599Y-33840000D02*
X31502599Y-35061000D01*
X31542599Y-30944000D02*
X31542599Y-32160000D01*
X31542599Y-33840000D02*
X31542599Y-35056000D01*
X31582599Y-30951000D02*
X31582599Y-32160000D01*
X31582599Y-33840000D02*
X31582599Y-35049000D01*
X31622599Y-30958000D02*
X31622599Y-32160000D01*
X31622599Y-33840000D02*
X31622599Y-35042000D01*
X31662599Y-30966000D02*
X31662599Y-32160000D01*
X31662599Y-33840000D02*
X31662599Y-35034000D01*
X31702599Y-30975000D02*
X31702599Y-32160000D01*
X31702599Y-33840000D02*
X31702599Y-35025000D01*
X31742599Y-30985000D02*
X31742599Y-32160000D01*
X31742599Y-33840000D02*
X31742599Y-35015000D01*
X31782599Y-30995000D02*
X31782599Y-32160000D01*
X31782599Y-33840000D02*
X31782599Y-35005000D01*
X31822599Y-31007000D02*
X31822599Y-32160000D01*
X31822599Y-33840000D02*
X31822599Y-34993000D01*
X31862599Y-31019000D02*
X31862599Y-32160000D01*
X31862599Y-33840000D02*
X31862599Y-34981000D01*
X31902599Y-31032000D02*
X31902599Y-32160000D01*
X31902599Y-33840000D02*
X31902599Y-34968000D01*
X31942599Y-31046000D02*
X31942599Y-32160000D01*
X31942599Y-33840000D02*
X31942599Y-34954000D01*
X31982599Y-31061000D02*
X31982599Y-32160000D01*
X31982599Y-33840000D02*
X31982599Y-34939000D01*
X32022599Y-31077000D02*
X32022599Y-32160000D01*
X32022599Y-33840000D02*
X32022599Y-34923000D01*
X32062599Y-31094000D02*
X32062599Y-32160000D01*
X32062599Y-33840000D02*
X32062599Y-34906000D01*
X32102599Y-31111000D02*
X32102599Y-32160000D01*
X32102599Y-33840000D02*
X32102599Y-34889000D01*
X32142599Y-31130000D02*
X32142599Y-32160000D01*
X32142599Y-33840000D02*
X32142599Y-34870000D01*
X32182599Y-31150000D02*
X32182599Y-32160000D01*
X32182599Y-33840000D02*
X32182599Y-34850000D01*
X32222599Y-31171000D02*
X32222599Y-32160000D01*
X32222599Y-33840000D02*
X32222599Y-34829000D01*
X32262599Y-31193000D02*
X32262599Y-32160000D01*
X32262599Y-33840000D02*
X32262599Y-34807000D01*
X32302599Y-31216000D02*
X32302599Y-32160000D01*
X32302599Y-33840000D02*
X32302599Y-34784000D01*
X32342599Y-31240000D02*
X32342599Y-32160000D01*
X32342599Y-33840000D02*
X32342599Y-34760000D01*
X32382599Y-31266000D02*
X32382599Y-32160000D01*
X32382599Y-33840000D02*
X32382599Y-34734000D01*
X32422599Y-31292000D02*
X32422599Y-32160000D01*
X32422599Y-33840000D02*
X32422599Y-34708000D01*
X32462599Y-31320000D02*
X32462599Y-32160000D01*
X32462599Y-33840000D02*
X32462599Y-34680000D01*
X32502599Y-31350000D02*
X32502599Y-32160000D01*
X32502599Y-33840000D02*
X32502599Y-34650000D01*
X32542599Y-31381000D02*
X32542599Y-32160000D01*
X32542599Y-33840000D02*
X32542599Y-34619000D01*
X32582599Y-31414000D02*
X32582599Y-32160000D01*
X32582599Y-33840000D02*
X32582599Y-34586000D01*
X32622599Y-31448000D02*
X32622599Y-32160000D01*
X32622599Y-33840000D02*
X32622599Y-34552000D01*
X32662599Y-31484000D02*
X32662599Y-32160000D01*
X32662599Y-33840000D02*
X32662599Y-34516000D01*
X32702599Y-31522000D02*
X32702599Y-32160000D01*
X32702599Y-33840000D02*
X32702599Y-34478000D01*
X32742599Y-31562000D02*
X32742599Y-32160000D01*
X32742599Y-33840000D02*
X32742599Y-34438000D01*
X32782599Y-31604000D02*
X32782599Y-32160000D01*
X32782599Y-33840000D02*
X32782599Y-34396000D01*
X32822599Y-31649000D02*
X32822599Y-32160000D01*
X32822599Y-33840000D02*
X32822599Y-34351000D01*
X32862599Y-31697000D02*
X32862599Y-32160000D01*
X32862599Y-33840000D02*
X32862599Y-34303000D01*
X32902599Y-31747000D02*
X32902599Y-32160000D01*
X32902599Y-33840000D02*
X32902599Y-34253000D01*
X32942599Y-31801000D02*
X32942599Y-32160000D01*
X32942599Y-33840000D02*
X32942599Y-34199000D01*
X32982599Y-31858000D02*
X32982599Y-32160000D01*
X32982599Y-33840000D02*
X32982599Y-34142000D01*
X33022599Y-31920000D02*
X33022599Y-32160000D01*
X33022599Y-33840000D02*
X33022599Y-34080000D01*
X33062599Y-31987000D02*
X33062599Y-34013000D01*
X33102599Y-32060000D02*
X33102599Y-33940000D01*
X33142599Y-32141000D02*
X33142599Y-33859000D01*
X33182599Y-32232000D02*
X33182599Y-33768000D01*
X33222599Y-32337000D02*
X33222599Y-33663000D01*
X33262599Y-32463000D02*
X33262599Y-33537000D01*
X33302599Y-32630000D02*
X33302599Y-33370000D01*
X33342599Y-33000000D02*
G75*
G02*
X29102599Y-33000000I-2120000J0D01*
G01*
X29102599Y-33000000D02*
G75*
G02*
X33342599Y-33000000I2120000J0D01*
G01*
%TO.C,pc817*%
X103040000Y-38670000D02*
X103040000Y-43870000D01*
X103040000Y-43870000D02*
X108340000Y-43870000D01*
X104690000Y-38670000D02*
X103040000Y-38670000D01*
X108340000Y-38670000D02*
X106690000Y-38670000D01*
X108340000Y-43870000D02*
X108340000Y-38670000D01*
X106690000Y-38670000D02*
G75*
G02*
X104690000Y-38670000I-1000000J0D01*
G01*
%TO.C,NE5555*%
X76540000Y-30170000D02*
X76540000Y-40450000D01*
X76540000Y-40450000D02*
X81840000Y-40450000D01*
X78190000Y-30170000D02*
X76540000Y-30170000D01*
X81840000Y-30170000D02*
X80190000Y-30170000D01*
X81840000Y-40450000D02*
X81840000Y-30170000D01*
X80190000Y-30170000D02*
G75*
G02*
X78190000Y-30170000I-1000000J0D01*
G01*
%TO.C,LED*%
X39440000Y-67601000D02*
X39440000Y-67920000D01*
X39440000Y-70080000D02*
X39440000Y-70399000D01*
X39440000Y-67601251D02*
G75*
G02*
X43743591Y-67920000I2060000J-1398749D01*
G01*
X39816670Y-67920000D02*
G75*
G02*
X43183330Y-67920000I1683330J-1080000D01*
G01*
X43183330Y-70080000D02*
G75*
G02*
X39816670Y-70080000I-1683330J1080000D01*
G01*
X43743591Y-70080000D02*
G75*
G02*
X39440000Y-70398749I-2243591J1080000D01*
G01*
%TO.C,1k*%
X24500000Y-67960000D02*
X24500000Y-68730000D01*
X24500000Y-76040000D02*
X24500000Y-75270000D01*
X23130000Y-75270000D02*
X25870000Y-75270000D01*
X25870000Y-68730000D01*
X23130000Y-68730000D01*
X23130000Y-75270000D01*
%TO.C,AMS1117 5V*%
X31590000Y-40590000D02*
X32850000Y-40590000D01*
X31590000Y-44350000D02*
X31590000Y-40590000D01*
X38410000Y-40590000D02*
X37150000Y-40590000D01*
X38410000Y-44350000D02*
X38410000Y-40590000D01*
X31690000Y-45630000D02*
X31360000Y-45870000D01*
X31360000Y-45390000D01*
X31690000Y-45630000D01*
G36*
X31690000Y-45630000D02*
G01*
X31360000Y-45870000D01*
X31360000Y-45390000D01*
X31690000Y-45630000D01*
G37*
%TO.C,R15*%
X122540000Y-78500000D02*
X123310000Y-78500000D01*
X130620000Y-78500000D02*
X129850000Y-78500000D01*
X123310000Y-77130000D02*
X129850000Y-77130000D01*
X129850000Y-79870000D01*
X123310000Y-79870000D01*
X123310000Y-77130000D01*
%TO.C,1k*%
X103500000Y-65960000D02*
X103500000Y-66730000D01*
X103500000Y-74040000D02*
X103500000Y-73270000D01*
X102130000Y-73270000D02*
X104870000Y-73270000D01*
X104870000Y-66730000D01*
X102130000Y-66730000D01*
X102130000Y-73270000D01*
%TO.C,D2*%
X61220000Y-52500000D02*
X62130000Y-52500000D01*
X63555000Y-49780000D02*
X63555000Y-55220000D01*
X63675000Y-49780000D02*
X63675000Y-55220000D01*
X63795000Y-49780000D02*
X63795000Y-55220000D01*
X72780000Y-52500000D02*
X71870000Y-52500000D01*
X62130000Y-49780000D02*
X71870000Y-49780000D01*
X71870000Y-55220000D01*
X62130000Y-55220000D01*
X62130000Y-49780000D01*
%TO.C,D8*%
X147780000Y-75205000D02*
X153220000Y-75205000D01*
X147780000Y-75325000D02*
X153220000Y-75325000D01*
X147780000Y-75445000D02*
X153220000Y-75445000D01*
X150500000Y-66220000D02*
X150500000Y-67130000D01*
X150500000Y-77780000D02*
X150500000Y-76870000D01*
X147780000Y-76870000D02*
X153220000Y-76870000D01*
X153220000Y-67130000D01*
X147780000Y-67130000D01*
X147780000Y-76870000D01*
%TO.C,pc817*%
X102725000Y-29905000D02*
X102725000Y-35105000D01*
X102725000Y-35105000D02*
X108025000Y-35105000D01*
X104375000Y-29905000D02*
X102725000Y-29905000D01*
X108025000Y-29905000D02*
X106375000Y-29905000D01*
X108025000Y-35105000D02*
X108025000Y-29905000D01*
X106375000Y-29905000D02*
G75*
G02*
X104375000Y-29905000I-1000000J0D01*
G01*
%TO.C,D5*%
X155280000Y-74705000D02*
X160720000Y-74705000D01*
X155280000Y-74825000D02*
X160720000Y-74825000D01*
X155280000Y-74945000D02*
X160720000Y-74945000D01*
X158000000Y-65720000D02*
X158000000Y-66630000D01*
X158000000Y-77280000D02*
X158000000Y-76370000D01*
X155280000Y-76370000D02*
X160720000Y-76370000D01*
X160720000Y-66630000D01*
X155280000Y-66630000D01*
X155280000Y-76370000D01*
%TO.C,D7*%
X155280000Y-54705000D02*
X160720000Y-54705000D01*
X155280000Y-54825000D02*
X160720000Y-54825000D01*
X155280000Y-54945000D02*
X160720000Y-54945000D01*
X158000000Y-45720000D02*
X158000000Y-46630000D01*
X158000000Y-57280000D02*
X158000000Y-56370000D01*
X155280000Y-56370000D02*
X160720000Y-56370000D01*
X160720000Y-46630000D01*
X155280000Y-46630000D01*
X155280000Y-56370000D01*
%TO.C,1k*%
X32600000Y-67960000D02*
X32600000Y-68730000D01*
X32600000Y-76040000D02*
X32600000Y-75270000D01*
X31230000Y-75270000D02*
X33970000Y-75270000D01*
X33970000Y-68730000D01*
X31230000Y-68730000D01*
X31230000Y-75270000D01*
%TO.C,2\u002C5k*%
X104460000Y-52500000D02*
X105230000Y-52500000D01*
X112540000Y-52500000D02*
X111770000Y-52500000D01*
X111770000Y-53870000D02*
X105230000Y-53870000D01*
X105230000Y-51130000D01*
X111770000Y-51130000D01*
X111770000Y-53870000D01*
%TO.C,1k*%
X107550000Y-65960000D02*
X107550000Y-66730000D01*
X107550000Y-74040000D02*
X107550000Y-73270000D01*
X106180000Y-73270000D02*
X108920000Y-73270000D01*
X108920000Y-66730000D01*
X106180000Y-66730000D01*
X106180000Y-73270000D01*
%TO.C,U4*%
X81550000Y-66845000D02*
X81550000Y-68495000D01*
X81550000Y-70495000D02*
X81550000Y-72145000D01*
X81550000Y-72145000D02*
X99450000Y-72145000D01*
X99450000Y-66845000D02*
X81550000Y-66845000D01*
X99450000Y-72145000D02*
X99450000Y-66845000D01*
X81550000Y-68495000D02*
G75*
G02*
X81550000Y-70495000I0J-1000000D01*
G01*
%TO.C,R10*%
X135880000Y-78500000D02*
X136650000Y-78500000D01*
X143960000Y-78500000D02*
X143190000Y-78500000D01*
X136650000Y-77130000D02*
X143190000Y-77130000D01*
X143190000Y-79870000D01*
X136650000Y-79870000D01*
X136650000Y-77130000D01*
%TO.C,RV1*%
X51890000Y-30390000D02*
X68110000Y-30390000D01*
X51890000Y-38610000D02*
X51890000Y-30390000D01*
X54890000Y-21390000D02*
X65110000Y-21390000D01*
X54890000Y-30390000D02*
X54890000Y-21390000D01*
X56890000Y-5390000D02*
X63110000Y-5390000D01*
X56890000Y-21390000D02*
X56890000Y-5390000D01*
X63110000Y-5390000D02*
X63110000Y-21390000D01*
X63110000Y-21390000D02*
X56890000Y-21390000D01*
X65110000Y-21390000D02*
X65110000Y-30390000D01*
X65110000Y-30390000D02*
X54890000Y-30390000D01*
X68110000Y-30390000D02*
X68110000Y-38610000D01*
X68110000Y-38610000D02*
X51890000Y-38610000D01*
%TO.C,C3*%
X35980199Y-31805000D02*
X36380199Y-31805000D01*
X36180199Y-31605000D02*
X36180199Y-32005000D01*
X38250000Y-30920000D02*
X38250000Y-32160000D01*
X38250000Y-33840000D02*
X38250000Y-35080000D01*
X38290000Y-30920000D02*
X38290000Y-32160000D01*
X38290000Y-33840000D02*
X38290000Y-35080000D01*
X38330000Y-30922000D02*
X38330000Y-32160000D01*
X38330000Y-33840000D02*
X38330000Y-35078000D01*
X38370000Y-30923000D02*
X38370000Y-32160000D01*
X38370000Y-33840000D02*
X38370000Y-35077000D01*
X38410000Y-30926000D02*
X38410000Y-32160000D01*
X38410000Y-33840000D02*
X38410000Y-35074000D01*
X38450000Y-30929000D02*
X38450000Y-32160000D01*
X38450000Y-33840000D02*
X38450000Y-35071000D01*
X38490000Y-30934000D02*
X38490000Y-32160000D01*
X38490000Y-33840000D02*
X38490000Y-35066000D01*
X38530000Y-30939000D02*
X38530000Y-32160000D01*
X38530000Y-33840000D02*
X38530000Y-35061000D01*
X38570000Y-30944000D02*
X38570000Y-32160000D01*
X38570000Y-33840000D02*
X38570000Y-35056000D01*
X38610000Y-30951000D02*
X38610000Y-32160000D01*
X38610000Y-33840000D02*
X38610000Y-35049000D01*
X38650000Y-30958000D02*
X38650000Y-32160000D01*
X38650000Y-33840000D02*
X38650000Y-35042000D01*
X38690000Y-30966000D02*
X38690000Y-32160000D01*
X38690000Y-33840000D02*
X38690000Y-35034000D01*
X38730000Y-30975000D02*
X38730000Y-32160000D01*
X38730000Y-33840000D02*
X38730000Y-35025000D01*
X38770000Y-30985000D02*
X38770000Y-32160000D01*
X38770000Y-33840000D02*
X38770000Y-35015000D01*
X38810000Y-30995000D02*
X38810000Y-32160000D01*
X38810000Y-33840000D02*
X38810000Y-35005000D01*
X38850000Y-31007000D02*
X38850000Y-32160000D01*
X38850000Y-33840000D02*
X38850000Y-34993000D01*
X38890000Y-31019000D02*
X38890000Y-32160000D01*
X38890000Y-33840000D02*
X38890000Y-34981000D01*
X38930000Y-31032000D02*
X38930000Y-32160000D01*
X38930000Y-33840000D02*
X38930000Y-34968000D01*
X38970000Y-31046000D02*
X38970000Y-32160000D01*
X38970000Y-33840000D02*
X38970000Y-34954000D01*
X39010000Y-31061000D02*
X39010000Y-32160000D01*
X39010000Y-33840000D02*
X39010000Y-34939000D01*
X39050000Y-31077000D02*
X39050000Y-32160000D01*
X39050000Y-33840000D02*
X39050000Y-34923000D01*
X39090000Y-31094000D02*
X39090000Y-32160000D01*
X39090000Y-33840000D02*
X39090000Y-34906000D01*
X39130000Y-31111000D02*
X39130000Y-32160000D01*
X39130000Y-33840000D02*
X39130000Y-34889000D01*
X39170000Y-31130000D02*
X39170000Y-32160000D01*
X39170000Y-33840000D02*
X39170000Y-34870000D01*
X39210000Y-31150000D02*
X39210000Y-32160000D01*
X39210000Y-33840000D02*
X39210000Y-34850000D01*
X39250000Y-31171000D02*
X39250000Y-32160000D01*
X39250000Y-33840000D02*
X39250000Y-34829000D01*
X39290000Y-31193000D02*
X39290000Y-32160000D01*
X39290000Y-33840000D02*
X39290000Y-34807000D01*
X39330000Y-31216000D02*
X39330000Y-32160000D01*
X39330000Y-33840000D02*
X39330000Y-34784000D01*
X39370000Y-31240000D02*
X39370000Y-32160000D01*
X39370000Y-33840000D02*
X39370000Y-34760000D01*
X39410000Y-31266000D02*
X39410000Y-32160000D01*
X39410000Y-33840000D02*
X39410000Y-34734000D01*
X39450000Y-31292000D02*
X39450000Y-32160000D01*
X39450000Y-33840000D02*
X39450000Y-34708000D01*
X39490000Y-31320000D02*
X39490000Y-32160000D01*
X39490000Y-33840000D02*
X39490000Y-34680000D01*
X39530000Y-31350000D02*
X39530000Y-32160000D01*
X39530000Y-33840000D02*
X39530000Y-34650000D01*
X39570000Y-31381000D02*
X39570000Y-32160000D01*
X39570000Y-33840000D02*
X39570000Y-34619000D01*
X39610000Y-31414000D02*
X39610000Y-32160000D01*
X39610000Y-33840000D02*
X39610000Y-34586000D01*
X39650000Y-31448000D02*
X39650000Y-32160000D01*
X39650000Y-33840000D02*
X39650000Y-34552000D01*
X39690000Y-31484000D02*
X39690000Y-32160000D01*
X39690000Y-33840000D02*
X39690000Y-34516000D01*
X39730000Y-31522000D02*
X39730000Y-32160000D01*
X39730000Y-33840000D02*
X39730000Y-34478000D01*
X39770000Y-31562000D02*
X39770000Y-32160000D01*
X39770000Y-33840000D02*
X39770000Y-34438000D01*
X39810000Y-31604000D02*
X39810000Y-32160000D01*
X39810000Y-33840000D02*
X39810000Y-34396000D01*
X39850000Y-31649000D02*
X39850000Y-34351000D01*
X39890000Y-31697000D02*
X39890000Y-34303000D01*
X39930000Y-31747000D02*
X39930000Y-34253000D01*
X39970000Y-31801000D02*
X39970000Y-34199000D01*
X40010000Y-31858000D02*
X40010000Y-34142000D01*
X40050000Y-31920000D02*
X40050000Y-34080000D01*
X40090000Y-31987000D02*
X40090000Y-34013000D01*
X40130000Y-32060000D02*
X40130000Y-33940000D01*
X40170000Y-32141000D02*
X40170000Y-33859000D01*
X40210000Y-32232000D02*
X40210000Y-33768000D01*
X40250000Y-32337000D02*
X40250000Y-33663000D01*
X40290000Y-32463000D02*
X40290000Y-33537000D01*
X40330000Y-32630000D02*
X40330000Y-33370000D01*
X40370000Y-33000000D02*
G75*
G02*
X36130000Y-33000000I-2120000J0D01*
G01*
X36130000Y-33000000D02*
G75*
G02*
X40370000Y-33000000I2120000J0D01*
G01*
%TO.C,U5*%
X58550000Y-66725000D02*
X58550000Y-68375000D01*
X58550000Y-70375000D02*
X58550000Y-72025000D01*
X58550000Y-72025000D02*
X76450000Y-72025000D01*
X76450000Y-66725000D02*
X58550000Y-66725000D01*
X76450000Y-72025000D02*
X76450000Y-66725000D01*
X58550000Y-68375000D02*
G75*
G02*
X58550000Y-70375000I0J-1000000D01*
G01*
%TO.C,LED*%
X48670000Y-67601000D02*
X48670000Y-67920000D01*
X48670000Y-70080000D02*
X48670000Y-70399000D01*
X48670000Y-67601251D02*
G75*
G02*
X52973591Y-67920000I2060000J-1398749D01*
G01*
X49046670Y-67920000D02*
G75*
G02*
X52413330Y-67920000I1683330J-1080000D01*
G01*
X52413330Y-70080000D02*
G75*
G02*
X49046670Y-70080000I-1683330J1080000D01*
G01*
X52973591Y-70080000D02*
G75*
G02*
X48670000Y-70398749I-2243591J1080000D01*
G01*
%TO.C,IRFZ44N*%
X118890000Y-53160000D02*
X129110000Y-53160000D01*
X118890000Y-69030000D02*
X118890000Y-53160000D01*
X118890000Y-69030000D02*
X129110000Y-69030000D01*
X120975000Y-69030000D02*
X120975000Y-71470000D01*
X121945000Y-69030000D02*
X121945000Y-71470000D01*
X123515000Y-69030000D02*
X123515000Y-71470000D01*
X124485000Y-69030000D02*
X124485000Y-71470000D01*
X126055000Y-69030000D02*
X126055000Y-71470000D01*
X127025000Y-69030000D02*
X127025000Y-71470000D01*
X129110000Y-69030000D02*
X129110000Y-53160000D01*
%TO.C,1k*%
X53120000Y-44960000D02*
X53120000Y-45730000D01*
X53120000Y-53040000D02*
X53120000Y-52270000D01*
X51750000Y-52270000D02*
X54490000Y-52270000D01*
X54490000Y-45730000D01*
X51750000Y-45730000D01*
X51750000Y-52270000D01*
%TO.C,540ohm*%
X89960000Y-52500000D02*
X90730000Y-52500000D01*
X98040000Y-52500000D02*
X97270000Y-52500000D01*
X97270000Y-53870000D02*
X90730000Y-53870000D01*
X90730000Y-51130000D01*
X97270000Y-51130000D01*
X97270000Y-53870000D01*
%TO.C,IRFZ44N*%
X118390000Y-29160000D02*
X128610000Y-29160000D01*
X118390000Y-45030000D02*
X118390000Y-29160000D01*
X118390000Y-45030000D02*
X128610000Y-45030000D01*
X120475000Y-45030000D02*
X120475000Y-47470000D01*
X121445000Y-45030000D02*
X121445000Y-47470000D01*
X123015000Y-45030000D02*
X123015000Y-47470000D01*
X123985000Y-45030000D02*
X123985000Y-47470000D01*
X125555000Y-45030000D02*
X125555000Y-47470000D01*
X126525000Y-45030000D02*
X126525000Y-47470000D01*
X128610000Y-45030000D02*
X128610000Y-29160000D01*
%TO.C,D6*%
X147780000Y-54825000D02*
X153220000Y-54825000D01*
X147780000Y-54945000D02*
X153220000Y-54945000D01*
X147780000Y-55065000D02*
X153220000Y-55065000D01*
X150500000Y-45840000D02*
X150500000Y-46750000D01*
X150500000Y-57400000D02*
X150500000Y-56490000D01*
X147780000Y-56490000D02*
X153220000Y-56490000D01*
X153220000Y-46750000D01*
X147780000Y-46750000D01*
X147780000Y-56490000D01*
%TO.C,1k*%
X28550000Y-67960000D02*
X28550000Y-68730000D01*
X28550000Y-76040000D02*
X28550000Y-75270000D01*
X27180000Y-75270000D02*
X29920000Y-75270000D01*
X29920000Y-68730000D01*
X27180000Y-68730000D01*
X27180000Y-75270000D01*
%TO.C,C2*%
X80230000Y-45580000D02*
X84270000Y-45580000D01*
X80230000Y-46301000D02*
X80230000Y-45580000D01*
X80230000Y-48420000D02*
X80230000Y-47699000D01*
X84270000Y-45580000D02*
X84270000Y-46301000D01*
X84270000Y-47699000D02*
X84270000Y-48420000D01*
X84270000Y-48420000D02*
X80230000Y-48420000D01*
%TO.C,D-I*%
X17800000Y-60500000D02*
X17800000Y-59117000D01*
X17800000Y-60500000D02*
X19183000Y-60500000D01*
X18040000Y-50360000D02*
X25420000Y-50360000D01*
X18040000Y-60260000D02*
X18040000Y-50360000D01*
X18040000Y-60260000D02*
X25420000Y-60260000D01*
X19825000Y-55986667D02*
X21095000Y-55986667D01*
X22365000Y-55986667D02*
X23635000Y-55986667D01*
X25420000Y-60260000D02*
X25420000Y-50360000D01*
X19825000Y-57340000D02*
X21095000Y-57340000D01*
X21095000Y-53280000D01*
X19825000Y-53280000D01*
X19825000Y-57340000D01*
X19825000Y-57340000D02*
X21095000Y-57340000D01*
X21095000Y-55986667D01*
X19825000Y-55986667D01*
X19825000Y-57340000D01*
G36*
X19825000Y-57340000D02*
G01*
X21095000Y-57340000D01*
X21095000Y-55986667D01*
X19825000Y-55986667D01*
X19825000Y-57340000D01*
G37*
X22365000Y-57340000D02*
X23635000Y-57340000D01*
X23635000Y-53280000D01*
X22365000Y-53280000D01*
X22365000Y-57340000D01*
X22365000Y-57340000D02*
X23635000Y-57340000D01*
X23635000Y-55986667D01*
X22365000Y-55986667D01*
X22365000Y-57340000D01*
G36*
X22365000Y-57340000D02*
G01*
X23635000Y-57340000D01*
X23635000Y-55986667D01*
X22365000Y-55986667D01*
X22365000Y-57340000D01*
G37*
%TO.C,1k*%
X33000000Y-51460000D02*
X33000000Y-52230000D01*
X33000000Y-59540000D02*
X33000000Y-58770000D01*
X31630000Y-58770000D02*
X34370000Y-58770000D01*
X34370000Y-52230000D01*
X31630000Y-52230000D01*
X31630000Y-58770000D01*
%TO.C,2\u002C5k*%
X104460000Y-48500000D02*
X105230000Y-48500000D01*
X112540000Y-48500000D02*
X111770000Y-48500000D01*
X111770000Y-49870000D02*
X105230000Y-49870000D01*
X105230000Y-47130000D01*
X111770000Y-47130000D01*
X111770000Y-49870000D01*
%TO.C,1k*%
X20450000Y-67960000D02*
X20450000Y-68730000D01*
X20450000Y-76040000D02*
X20450000Y-75270000D01*
X19080000Y-75270000D02*
X21820000Y-75270000D01*
X21820000Y-68730000D01*
X19080000Y-68730000D01*
X19080000Y-75270000D01*
%TO.C,2n3904*%
X94350000Y-43570000D02*
X94350000Y-39970000D01*
X89900000Y-41770000D02*
G75*
G02*
X94338478Y-39931522I2600000J0D01*
G01*
X94338478Y-43608478D02*
G75*
G02*
X89899999Y-41770000I-1838478J1838478D01*
G01*
X94140000Y-34570000D02*
X94140000Y-30970000D01*
X89690000Y-32770000D02*
G75*
G02*
X94128478Y-30931522I2600000J0D01*
G01*
X94128478Y-34608478D02*
G75*
G02*
X89689999Y-32770000I-1838478J1838478D01*
G01*
%TO.C,IRFZ44N*%
X132390000Y-53160000D02*
X142610000Y-53160000D01*
X132390000Y-69030000D02*
X132390000Y-53160000D01*
X132390000Y-69030000D02*
X142610000Y-69030000D01*
X134475000Y-69030000D02*
X134475000Y-71470000D01*
X135445000Y-69030000D02*
X135445000Y-71470000D01*
X137015000Y-69030000D02*
X137015000Y-71470000D01*
X137985000Y-69030000D02*
X137985000Y-71470000D01*
X139555000Y-69030000D02*
X139555000Y-71470000D01*
X140525000Y-69030000D02*
X140525000Y-71470000D01*
X142610000Y-69030000D02*
X142610000Y-53160000D01*
%TO.C,1k*%
X28950000Y-51460000D02*
X28950000Y-52230000D01*
X28950000Y-59540000D02*
X28950000Y-58770000D01*
X27580000Y-58770000D02*
X30320000Y-58770000D01*
X30320000Y-52230000D01*
X27580000Y-52230000D01*
X27580000Y-58770000D01*
%TD*%
M02*
