%TF.GenerationSoftware,KiCad,Pcbnew,9.0.6*%
%TF.CreationDate,2025-12-30T21:33:41-05:00*%
%TF.ProjectId,VARIDORHDC,56415249-444f-4524-9844-432e6b696361,rev?*%
%TF.SameCoordinates,Original*%
%TF.FileFunction,Soldermask,Bot*%
%TF.FilePolarity,Negative*%
%FSLAX46Y46*%
G04 Gerber Fmt 4.6, Leading zero omitted, Abs format (unit mm)*
G04 Created by KiCad (PCBNEW 9.0.6) date 2025-12-30 21:33:41*
%MOMM*%
%LPD*%
G01*
G04 APERTURE LIST*
G04 Aperture macros list*
%AMRoundRect*
0 Rectangle with rounded corners*
0 $1 Rounding radius*
0 $2 $3 $4 $5 $6 $7 $8 $9 X,Y pos of 4 corners*
0 Add a 4 corners polygon primitive as box body*
4,1,4,$2,$3,$4,$5,$6,$7,$8,$9,$2,$3,0*
0 Add four circle primitives for the rounded corners*
1,1,$1+$1,$2,$3*
1,1,$1+$1,$4,$5*
1,1,$1+$1,$6,$7*
1,1,$1+$1,$8,$9*
0 Add four rect primitives between the rounded corners*
20,1,$1+$1,$2,$3,$4,$5,0*
20,1,$1+$1,$4,$5,$6,$7,0*
20,1,$1+$1,$6,$7,$8,$9,0*
20,1,$1+$1,$8,$9,$2,$3,0*%
G04 Aperture macros list end*
%ADD10RoundRect,0.250000X0.550000X-0.550000X0.550000X0.550000X-0.550000X0.550000X-0.550000X-0.550000X0*%
%ADD11C,1.600000*%
%ADD12RoundRect,0.250000X0.750000X-0.750000X0.750000X0.750000X-0.750000X0.750000X-0.750000X-0.750000X0*%
%ADD13C,2.000000*%
%ADD14RoundRect,0.250000X0.750000X0.750000X-0.750000X0.750000X-0.750000X-0.750000X0.750000X-0.750000X0*%
%ADD15RoundRect,0.250000X-0.750000X0.750000X-0.750000X-0.750000X0.750000X-0.750000X0.750000X0.750000X0*%
%ADD16RoundRect,0.250000X-1.350000X-1.350000X1.350000X-1.350000X1.350000X1.350000X-1.350000X1.350000X0*%
%ADD17C,3.200000*%
%ADD18C,3.500000*%
%ADD19R,1.905000X2.000000*%
%ADD20O,1.905000X2.000000*%
%ADD21RoundRect,0.250000X-0.350000X-0.350000X0.350000X-0.350000X0.350000X0.350000X-0.350000X0.350000X0*%
%ADD22C,1.200000*%
%ADD23RoundRect,0.250000X-0.550000X-0.550000X0.550000X-0.550000X0.550000X0.550000X-0.550000X0.550000X0*%
%ADD24R,1.800000X1.800000*%
%ADD25C,1.800000*%
%ADD26RoundRect,0.250000X1.350000X-1.350000X1.350000X1.350000X-1.350000X1.350000X-1.350000X-1.350000X0*%
%ADD27C,2.340000*%
%ADD28R,1.500000X1.050000*%
%ADD29O,1.500000X1.050000*%
G04 APERTURE END LIST*
D10*
%TO.C,SW2*%
X164742500Y-42767500D03*
D11*
X167282500Y-42767500D03*
X167282500Y-35147500D03*
X164742500Y-35147500D03*
%TD*%
D12*
%TO.C,BT2*%
X167000000Y-64540000D03*
D13*
X167000000Y-62000000D03*
%TD*%
D14*
%TO.C,M1*%
X154500000Y-34500000D03*
D13*
X151960000Y-34500000D03*
%TD*%
D15*
%TO.C,BT1*%
X22000000Y-39500000D03*
D13*
X22000000Y-42040000D03*
%TD*%
D11*
%TO.C,C4*%
X81000000Y-52500000D03*
X83500000Y-52500000D03*
%TD*%
%TO.C,540ohm*%
X99080000Y-48450000D03*
X88920000Y-48450000D03*
%TD*%
D16*
%TO.C,D1*%
X59380000Y-45750000D03*
D17*
X74620000Y-45750000D03*
%TD*%
D18*
%TO.C,IRFZ44N*%
X136500000Y-32070000D03*
D19*
X133960000Y-48730000D03*
D20*
X136500000Y-48730000D03*
X139040000Y-48730000D03*
%TD*%
D21*
%TO.C,C1*%
X30222599Y-33000000D03*
D22*
X32222599Y-33000000D03*
%TD*%
D23*
%TO.C,pc817*%
X101880000Y-40000000D03*
D11*
X101880000Y-42540000D03*
X109500000Y-42540000D03*
X109500000Y-40000000D03*
%TD*%
D23*
%TO.C,NE5555*%
X75380000Y-31500000D03*
D11*
X75380000Y-34040000D03*
X75380000Y-36580000D03*
X75380000Y-39120000D03*
X83000000Y-39120000D03*
X83000000Y-36580000D03*
X83000000Y-34040000D03*
X83000000Y-31500000D03*
%TD*%
D24*
%TO.C,LED*%
X40230000Y-69000000D03*
D25*
X42770000Y-69000000D03*
%TD*%
D11*
%TO.C,1k*%
X24500000Y-77080000D03*
X24500000Y-66920000D03*
%TD*%
%TO.C,R15*%
X121500000Y-78500000D03*
X131660000Y-78500000D03*
%TD*%
%TO.C,1k*%
X103500000Y-75080000D03*
X103500000Y-64920000D03*
%TD*%
D16*
%TO.C,D2*%
X59380000Y-52500000D03*
D17*
X74620000Y-52500000D03*
%TD*%
D26*
%TO.C,D8*%
X150500000Y-79620000D03*
D17*
X150500000Y-64380000D03*
%TD*%
D23*
%TO.C,pc817*%
X101565000Y-31235000D03*
D11*
X101565000Y-33775000D03*
X109185000Y-33775000D03*
X109185000Y-31235000D03*
%TD*%
D26*
%TO.C,D5*%
X158000000Y-79120000D03*
D17*
X158000000Y-63880000D03*
%TD*%
D26*
%TO.C,D7*%
X158000000Y-59120000D03*
D17*
X158000000Y-43880000D03*
%TD*%
D11*
%TO.C,1k*%
X32600000Y-77080000D03*
X32600000Y-66920000D03*
%TD*%
%TO.C,2\u002C5k*%
X113580000Y-52500000D03*
X103420000Y-52500000D03*
%TD*%
%TO.C,1k*%
X107550000Y-75080000D03*
X107550000Y-64920000D03*
%TD*%
D10*
%TO.C,U4*%
X82880000Y-73305000D03*
D11*
X85420000Y-73305000D03*
X87960000Y-73305000D03*
X90500000Y-73305000D03*
X93040000Y-73305000D03*
X95580000Y-73305000D03*
X98120000Y-73305000D03*
X98120000Y-65685000D03*
X95580000Y-65685000D03*
X93040000Y-65685000D03*
X90500000Y-65685000D03*
X87960000Y-65685000D03*
X85420000Y-65685000D03*
X82880000Y-65685000D03*
%TD*%
%TO.C,R10*%
X134840000Y-78500000D03*
X145000000Y-78500000D03*
%TD*%
D27*
%TO.C,RV1*%
X65000000Y-37000000D03*
X60000000Y-37000000D03*
X55000000Y-37000000D03*
%TD*%
D21*
%TO.C,C3*%
X37500000Y-33000000D03*
D22*
X39000000Y-33000000D03*
%TD*%
D10*
%TO.C,U5*%
X59880000Y-73185000D03*
D11*
X62420000Y-73185000D03*
X64960000Y-73185000D03*
X67500000Y-73185000D03*
X70040000Y-73185000D03*
X72580000Y-73185000D03*
X75120000Y-73185000D03*
X75120000Y-65565000D03*
X72580000Y-65565000D03*
X70040000Y-65565000D03*
X67500000Y-65565000D03*
X64960000Y-65565000D03*
X62420000Y-65565000D03*
X59880000Y-65565000D03*
%TD*%
D24*
%TO.C,LED*%
X49460000Y-69000000D03*
D25*
X52000000Y-69000000D03*
%TD*%
D18*
%TO.C,IRFZ44N*%
X124000000Y-56070000D03*
D19*
X121460000Y-72730000D03*
D20*
X124000000Y-72730000D03*
X126540000Y-72730000D03*
%TD*%
D11*
%TO.C,1k*%
X53120000Y-54080000D03*
X53120000Y-43920000D03*
%TD*%
%TO.C,540ohm*%
X99080000Y-52500000D03*
X88920000Y-52500000D03*
%TD*%
D18*
%TO.C,IRFZ44N*%
X123500000Y-32070000D03*
D19*
X120960000Y-48730000D03*
D20*
X123500000Y-48730000D03*
X126040000Y-48730000D03*
%TD*%
D26*
%TO.C,D6*%
X150500000Y-59240000D03*
D17*
X150500000Y-44000000D03*
%TD*%
D11*
%TO.C,1k*%
X28550000Y-77080000D03*
X28550000Y-66920000D03*
%TD*%
%TO.C,C2*%
X81000000Y-47000000D03*
X83500000Y-47000000D03*
%TD*%
D10*
%TO.C,D-I*%
X20460000Y-59120000D03*
D11*
X23000000Y-59120000D03*
X23000000Y-51500000D03*
X20460000Y-51500000D03*
%TD*%
%TO.C,1k*%
X33000000Y-60580000D03*
X33000000Y-50420000D03*
%TD*%
%TO.C,2\u002C5k*%
X113580000Y-48500000D03*
X103420000Y-48500000D03*
%TD*%
%TO.C,1k*%
X20450000Y-77080000D03*
X20450000Y-66920000D03*
%TD*%
D28*
%TO.C,2n3904*%
X92500000Y-43040000D03*
D29*
X92500000Y-41770000D03*
X92500000Y-40500000D03*
%TD*%
D28*
%TO.C,2n3904*%
X92290000Y-34040000D03*
D29*
X92290000Y-32770000D03*
X92290000Y-31500000D03*
%TD*%
D18*
%TO.C,IRFZ44N*%
X137500000Y-56070000D03*
D19*
X134960000Y-72730000D03*
D20*
X137500000Y-72730000D03*
X140040000Y-72730000D03*
%TD*%
D11*
%TO.C,1k*%
X28950000Y-60580000D03*
X28950000Y-50420000D03*
%TD*%
M02*
