M48
; DRILL file {KiCad 9.0.6} date 2025-12-30T21:34:04-0500
; FORMAT={-:-/ absolute / metric / decimal}
; #@! TF.CreationDate,2025-12-30T21:34:04-05:00
; #@! TF.GenerationSoftware,Kicad,Pcbnew,9.0.6
; #@! TF.FileFunction,Plated,1,2,PTH
FMAT,2
METRIC
; #@! TA.AperFunction,Plated,PTH,ViaDrill
T1C0.200
; #@! TA.AperFunction,Plated,PTH,ComponentDrill
T2C0.600
; #@! TA.AperFunction,Plated,PTH,ComponentDrill
T3C0.750
; #@! TA.AperFunction,Plated,PTH,ComponentDrill
T4C0.800
; #@! TA.AperFunction,Plated,PTH,ComponentDrill
T5C0.900
; #@! TA.AperFunction,Plated,PTH,ComponentDrill
T6C1.100
; #@! TA.AperFunction,Plated,PTH,ComponentDrill
T7C1.200
; #@! TA.AperFunction,Plated,PTH,ComponentDrill
T8C1.300
; #@! TA.AperFunction,Plated,PTH,ComponentDrill
T9C1.600
%
G90
G05
T1
X70.5Y-33.0
X79.5Y-37.0
X95.992Y-38.5
X101.0Y-38.5
X118.0Y-56.5
X122.5Y-72.0
X132.0Y-70.0
X155.502Y-51.0
T2
X30.223Y-33.0
X32.223Y-33.0
X37.5Y-33.0
X39.0Y-33.0
T3
X92.29Y-31.5
X92.29Y-32.77
X92.29Y-34.04
X92.5Y-40.5
X92.5Y-41.77
X92.5Y-43.04
T4
X20.45Y-66.92
X20.45Y-77.08
X20.46Y-51.5
X20.46Y-59.12
X23.0Y-51.5
X23.0Y-59.12
X24.5Y-66.92
X24.5Y-77.08
X28.55Y-66.92
X28.55Y-77.08
X28.95Y-50.42
X28.95Y-60.58
X32.6Y-66.92
X32.6Y-77.08
X33.0Y-50.42
X33.0Y-60.58
X53.12Y-43.92
X53.12Y-54.08
X59.88Y-65.565
X59.88Y-73.185
X62.42Y-65.565
X62.42Y-73.185
X64.96Y-65.565
X64.96Y-73.185
X67.5Y-65.565
X67.5Y-73.185
X70.04Y-65.565
X70.04Y-73.185
X72.58Y-65.565
X72.58Y-73.185
X75.12Y-65.565
X75.12Y-73.185
X75.38Y-31.5
X75.38Y-34.04
X75.38Y-36.58
X75.38Y-39.12
X81.0Y-47.0
X81.0Y-52.5
X82.88Y-65.685
X82.88Y-73.305
X83.0Y-31.5
X83.0Y-34.04
X83.0Y-36.58
X83.0Y-39.12
X83.5Y-47.0
X83.5Y-52.5
X85.42Y-65.685
X85.42Y-73.305
X87.96Y-65.685
X87.96Y-73.305
X88.92Y-48.45
X88.92Y-52.5
X90.5Y-65.685
X90.5Y-73.305
X93.04Y-65.685
X93.04Y-73.305
X95.58Y-65.685
X95.58Y-73.305
X98.12Y-65.685
X98.12Y-73.305
X99.08Y-48.45
X99.08Y-52.5
X101.565Y-31.235
X101.565Y-33.775
X101.88Y-40.0
X101.88Y-42.54
X103.42Y-48.5
X103.42Y-52.5
X103.5Y-64.92
X103.5Y-75.08
X107.55Y-64.92
X107.55Y-75.08
X109.185Y-31.235
X109.185Y-33.775
X109.5Y-40.0
X109.5Y-42.54
X113.58Y-48.5
X113.58Y-52.5
X121.5Y-78.5
X131.66Y-78.5
X134.84Y-78.5
X145.0Y-78.5
X164.742Y-35.148
X164.742Y-42.767
X167.282Y-35.148
X167.282Y-42.767
T5
X40.23Y-69.0
X42.77Y-69.0
X49.46Y-69.0
X52.0Y-69.0
T6
X120.96Y-48.73
X121.46Y-72.73
X123.5Y-48.73
X124.0Y-72.73
X126.04Y-48.73
X126.54Y-72.73
X133.96Y-48.73
X134.96Y-72.73
X136.5Y-48.73
X137.5Y-72.73
X139.04Y-48.73
X140.04Y-72.73
T7
X22.0Y-39.5
X22.0Y-42.04
X151.96Y-34.5
X154.5Y-34.5
X167.0Y-62.0
X167.0Y-64.54
T8
X55.0Y-37.0
X60.0Y-37.0
X65.0Y-37.0
T9
X59.38Y-45.75
X59.38Y-52.5
X74.62Y-45.75
X74.62Y-52.5
X150.5Y-44.0
X150.5Y-59.24
X150.5Y-64.38
X150.5Y-79.62
X158.0Y-43.88
X158.0Y-59.12
X158.0Y-63.88
X158.0Y-79.12
M30
